<?xml version="1.0" encoding="UTF-8" standalone="no"?>
<!-- Created with Inkscape (http://www.inkscape.org/) -->

<svg
   xmlns:dc="http://purl.org/dc/elements/1.1/"
   xmlns:cc="http://creativecommons.org/ns#"
   xmlns:rdf="http://www.w3.org/1999/02/22-rdf-syntax-ns#"
   xmlns:svg="http://www.w3.org/2000/svg"
   xmlns="http://www.w3.org/2000/svg"
   xmlns:sodipodi="http://sodipodi.sourceforge.net/DTD/sodipodi-0.dtd"
   xmlns:inkscape="http://www.inkscape.org/namespaces/inkscape"
   width="32"
   height="32"
   id="svg2"
   version="1.1"
   inkscape:version="0.48.4 r9939"
   sodipodi:docname="vintage_tee.svg">
  <defs
     id="defs4" />
  <sodipodi:namedview
     id="base"
     pagecolor="#ffffff"
     bordercolor="#666666"
     borderopacity="1.0"
     inkscape:pageopacity="0.0"
     inkscape:pageshadow="2"
     inkscape:zoom="2.8"
     inkscape:cx="47.002048"
     inkscape:cy="20.367698"
     inkscape:document-units="px"
     inkscape:current-layer="layer1"
     showgrid="false"
     inkscape:window-width="1090"
     inkscape:window-height="640"
     inkscape:window-x="143"
     inkscape:window-y="42"
     inkscape:window-maximized="0" />
  <metadata
     id="metadata7">
    <rdf:RDF>
      <cc:Work
         rdf:about="">
        <dc:format>image/svg+xml</dc:format>
        <dc:type
           rdf:resource="http://purl.org/dc/dcmitype/StillImage" />
        <dc:title></dc:title>
      </cc:Work>
    </rdf:RDF>
  </metadata>
  <g
     inkscape:label="Layer 1"
     inkscape:groupmode="layer"
     id="layer1"
     transform="translate(0,-1020.3622)">
    <g
       id="g3166"
       transform="matrix(0.54891276,0,0,0.54891276,-9.3729576,476.88572)">
      <path
         sodipodi:nodetypes="cscsccsscc"
         inkscape:connector-curvature="0"
         d="m 31.616269,1024.6321 c 0,0 -3.136158,18.17 -4.828052,19.581 -0.621956,0.5187 -6.152341,-1.2345 -6.152341,-1.2345 -1.989824,-5.1036 2.65981,-42.5236 5.110283,-44.26794 2.651849,-1.8878 13.526308,-4.6387 13.737713,-4.2505 6.245015,3.1425 10.729225,1.883 15.105153,0.3527 0.211405,-0.3881 8.949219,1.1875 10.56326,3.8934 3.806679,6.38144 11.512612,43.54734 6.14188,44.62504 l -6.152342,1.2345 c -1.691894,-1.4109 -4.828052,-19.7596 -4.828052,-19.7596"
         style="fill:none;stroke:#000000;stroke-width:3.5;stroke-linecap:round;stroke-linejoin:miter;stroke-miterlimit:4;stroke-opacity:1;stroke-dasharray:none"
         id="path2991-3" />
      <path
         sodipodi:nodetypes="cccc"
         inkscape:connector-curvature="0"
         id="path3761-6"
         d="m 35.259741,1009.479 c -2.288124,5.3043 -2.554014,24.5614 -0.07866,30.3774 l 23.47521,-0.079 c 0.935648,-5.4635 3.697563,-23.4459 0.992773,-30.7939"
         style="fill:none;stroke:#000000;stroke-width:3.5;stroke-linecap:round;stroke-linejoin:miter;stroke-miterlimit:4;stroke-opacity:1;stroke-dasharray:none" />
    </g>
  </g>
</svg>
