<?xml version="1.0" encoding="UTF-8" standalone="no"?>
<!-- Created with Inkscape (http://www.inkscape.org/) -->

<svg
   xmlns:dc="http://purl.org/dc/elements/1.1/"
   xmlns:cc="http://creativecommons.org/ns#"
   xmlns:rdf="http://www.w3.org/1999/02/22-rdf-syntax-ns#"
   xmlns:svg="http://www.w3.org/2000/svg"
   xmlns="http://www.w3.org/2000/svg"
   xmlns:sodipodi="http://sodipodi.sourceforge.net/DTD/sodipodi-0.dtd"
   xmlns:inkscape="http://www.inkscape.org/namespaces/inkscape"
   width="251.55917"
   height="229.21913"
   id="svg11089"
   version="1.1"
   inkscape:version="0.48.4 r9939"
   sodipodi:docname="cart.svg">
  <defs
     id="defs11091" />
  <sodipodi:namedview
     id="base"
     pagecolor="#ffffff"
     bordercolor="#666666"
     borderopacity="1.0"
     inkscape:pageopacity="0.0"
     inkscape:pageshadow="2"
     inkscape:zoom="1.4"
     inkscape:cx="125.75552"
     inkscape:cy="114.61253"
     inkscape:document-units="px"
     inkscape:current-layer="layer1"
     showgrid="false"
     fit-margin-top="0"
     fit-margin-left="0"
     fit-margin-right="0"
     fit-margin-bottom="0"
     inkscape:window-width="837"
     inkscape:window-height="437"
     inkscape:window-x="508"
     inkscape:window-y="233"
     inkscape:window-maximized="0" />
  <metadata
     id="metadata11094">
    <rdf:RDF>
      <cc:Work
         rdf:about="">
        <dc:format>image/svg+xml</dc:format>
        <dc:type
           rdf:resource="http://purl.org/dc/dcmitype/StillImage" />
        <dc:title></dc:title>
      </cc:Work>
    </rdf:RDF>
  </metadata>
  <g
     inkscape:label="Layer 1"
     inkscape:groupmode="layer"
     id="layer1"
     transform="translate(-33.862025,-417.75559)">
    <g
       id="g138"
       transform="matrix(1.25,0,0,-1.25,154.03919,507.54085)"
       style="stroke:#000000;stroke-opacity:1;fill:none;fill-opacity:1" />
    <g
       id="g544"
       transform="matrix(1.25,0,0,-1.25,189.54088,485.79775)"
       style="stroke:#000000;stroke-opacity:1;fill:none;fill-opacity:1">
      <path
         d="m 0,0 12.683,1.584 c 13.21,1.586 13.21,8.455 13.21,8.455 l 4.755,31.705 c 11.096,22.194 26.421,3.697 26.421,3.697 11.626,-13.209 9.513,-62.351 9.513,-62.351 6.868,-19.553 3.698,-58.127 3.698,-58.127 2.642,-34.348 -12.153,-36.635 -12.153,-36.635 L 1.585,-126.82 c -15.323,-2.645 -29.064,10.566 -29.064,10.566 -13.739,5.813 -13.209,20.078 -13.209,20.078 l -0.002,90.1 c 0,0 3.305,31.306 5.285,44.387 0,0 1.189,5.152 9.512,6.736 0,0 15.852,3.566 19.418,-7.135 0,0 6.342,-22.588 6.342,-42.404 0,0 1.189,-9.908 9.907,-8.324 0,0 33.291,6.343 35.273,8.72 0,0 2.888,0.434 4.218,5.565 0,0.004 0.014,0.383 0.029,1.033 0.073,3.037 0.196,12.006 -0.68,16.389 l -4.36,21.797 c 0,0 -2.773,7.531 -3.962,-1.586 0,0 -5.152,-23.778 -3.171,-32.1 0,0 -0.198,-6.738 10.303,-4.756 l 1.191,0.264"
         style="fill:none;fill-opacity:1;fill-rule:nonzero;stroke:#000000;stroke-width:6;stroke-linecap:round;stroke-linejoin:round;stroke-miterlimit:10;stroke-opacity:1;stroke-dasharray:none"
         id="path546"
         inkscape:connector-curvature="0" />
    </g>
    <g
       id="g548"
       transform="matrix(1.25,0,0,-1.25,166.09358,494.38665)"
       style="stroke:#000000;stroke-opacity:1;fill:none;fill-opacity:1">
      <path
         d="m 0,0 c -8.983,-1.32 -6.871,5.549 -6.871,5.549 l 0,28.535 C -4.229,52.578 0,36.727 0,36.727 c 0,0 -0.793,-85.606 0,-102.25 0,0 3.436,-37.254 9.512,-42.803"
         style="fill:none;fill-opacity:1;fill-rule:nonzero;stroke:#000000;stroke-width:6;stroke-linecap:round;stroke-linejoin:round;stroke-miterlimit:10;stroke-opacity:1;stroke-dasharray:none"
         id="path550"
         inkscape:connector-curvature="0" />
    </g>
    <path
       inkscape:connector-curvature="0"
       id="path1330"
       style="fill:none;fill-opacity:1;fill-rule:nonzero;stroke:#000000;stroke-width:7.50000000000000000;stroke-linecap:round;stroke-linejoin:round;stroke-miterlimit:10;stroke-opacity:1;stroke-dasharray:none"
       d="m 103.49108,481.06135 0,19.1875" />
    <path
       inkscape:connector-curvature="0"
       id="path1334"
       style="fill:none;fill-opacity:1;fill-rule:nonzero;stroke:#000000;stroke-width:7.50000000000000000;stroke-linecap:round;stroke-linejoin:round;stroke-miterlimit:10;stroke-opacity:1;stroke-dasharray:none"
       d="m 93.896325,490.65373 19.187505,0" />
    <path
       inkscape:connector-curvature="0"
       id="path1338"
       style="fill:none;fill-opacity:1;fill-rule:nonzero;stroke:#000000;stroke-width:7.50000000000000000;stroke-linecap:round;stroke-linejoin:round;stroke-miterlimit:10;stroke-opacity:1;stroke-dasharray:none"
       d="m 83.124825,550.41935 0,19.185" />
    <path
       inkscape:connector-curvature="0"
       id="path1342"
       style="fill:none;fill-opacity:1;fill-rule:nonzero;stroke:#000000;stroke-width:7.50000000000000000;stroke-linecap:round;stroke-linejoin:round;stroke-miterlimit:10;stroke-opacity:1;stroke-dasharray:none"
       d="m 73.532575,560.0116 19.18625,0" />
    <path
       inkscape:connector-curvature="0"
       id="path1346"
       style="fill:none;fill-opacity:1;fill-rule:nonzero;stroke:#000000;stroke-width:7.50000000000000000;stroke-linecap:round;stroke-linejoin:round;stroke-miterlimit:10;stroke-opacity:1;stroke-dasharray:none"
       d="m 50.52595,497.9461 0,19.1875" />
    <path
       inkscape:connector-curvature="0"
       id="path1350"
       style="fill:none;fill-opacity:1;fill-rule:nonzero;stroke:#000000;stroke-width:7.50000000000000000;stroke-linecap:round;stroke-linejoin:round;stroke-miterlimit:10;stroke-opacity:1;stroke-dasharray:none"
       d="m 40.9312,507.54085 19.1875,0" />
    <path
       inkscape:connector-curvature="0"
       id="path1358"
       style="fill:none;stroke:#000000;stroke-width:5;stroke-linecap:round;stroke-linejoin:round;stroke-miterlimit:10;stroke-opacity:1;stroke-dasharray:none;fill-opacity:1"
       d="m 251.82357,579.16935 c -14.63374,14.63375 -38.36249,14.63375 -52.99624,0" />
    <path
       inkscape:connector-curvature="0"
       id="path1362"
       style="fill:none;fill-opacity:1;fill-rule:evenodd;stroke:#000000;stroke-width:5;stroke-linecap:round;stroke-linejoin:round;stroke-miterlimit:10;stroke-opacity:1;stroke-dasharray:none"
       d="m 197.25083,583.04873 c 0,-3.09625 2.51375,-5.6075 5.61,-5.6075" />
    <path
       inkscape:connector-curvature="0"
       id="path1366"
       style="fill:none;fill-opacity:1;fill-rule:evenodd;stroke:#000000;stroke-width:5;stroke-linecap:round;stroke-linejoin:round;stroke-miterlimit:10;stroke-opacity:1;stroke-dasharray:none"
       d="m 248.48132,577.44085 c 3.09876,0 5.60876,2.5125 5.60876,5.61" />
    <path
       inkscape:connector-curvature="0"
       id="path1370"
       style="fill:none;fill-opacity:1;fill-rule:evenodd;stroke:#000000;stroke-opacity:1"
       d="m 217.02008,551.43498 c 0,8.78125 -2.235,15.90375 -4.98875,15.90375 -2.75625,0 -4.98875,-7.1225 -4.98875,-15.90375 0,-8.78375 2.2325,-15.90625 4.98875,-15.90625 2.75375,0 4.98875,7.1225 4.98875,15.90625" />
    <path
       inkscape:connector-curvature="0"
       id="path1374"
       style="fill:none;stroke:#000000;stroke-width:5;stroke-linecap:round;stroke-linejoin:round;stroke-miterlimit:10;stroke-opacity:1;stroke-dasharray:none;fill-opacity:1"
       d="m 217.02008,551.43498 c 0,8.78125 -2.235,15.90375 -4.98875,15.90375 -2.75625,0 -4.98875,-7.1225 -4.98875,-15.90375 0,-8.78375 2.2325,-15.90625 4.98875,-15.90625 2.75375,0 4.98875,7.1225 4.98875,15.90625 z" />
    <path
       inkscape:connector-curvature="0"
       id="path1378"
       style="fill:none;fill-opacity:1;fill-rule:evenodd;stroke:#000000;stroke-opacity:1"
       d="m 244.03545,550.6171 c 0,8.77875 -2.23249,15.90125 -4.9875,15.90125 -2.755,0 -4.99,-7.1225 -4.99,-15.90125 0,-8.78375 2.235,-15.90625 4.99,-15.90625 2.755,0 4.9875,7.1225 4.9875,15.90625" />
    <path
       inkscape:connector-curvature="0"
       id="path1382"
       style="fill:none;stroke:#000000;stroke-width:5;stroke-linecap:round;stroke-linejoin:round;stroke-miterlimit:10;stroke-opacity:1;stroke-dasharray:none;fill-opacity:1"
       d="m 244.03545,550.6171 c 0,8.77875 -2.23249,15.90125 -4.9875,15.90125 -2.755,0 -4.99,-7.1225 -4.99,-15.90125 0,-8.78375 2.235,-15.90625 4.99,-15.90625 2.755,0 4.9875,7.1225 4.9875,15.90625 z" />
  </g>
</svg>
