<?xml version="1.0" encoding="UTF-8" standalone="no"?>
<!-- Created with Inkscape (http://www.inkscape.org/) -->

<svg
   xmlns:dc="http://purl.org/dc/elements/1.1/"
   xmlns:cc="http://creativecommons.org/ns#"
   xmlns:rdf="http://www.w3.org/1999/02/22-rdf-syntax-ns#"
   xmlns:svg="http://www.w3.org/2000/svg"
   xmlns="http://www.w3.org/2000/svg"
   xmlns:sodipodi="http://sodipodi.sourceforge.net/DTD/sodipodi-0.dtd"
   xmlns:inkscape="http://www.inkscape.org/namespaces/inkscape"
   width="32"
   height="32"
   id="svg2"
   version="1.1"
   inkscape:version="0.48.4 r9939"
   sodipodi:docname="gold_mini_sequin.svg">
  <defs
     id="defs4" />
  <sodipodi:namedview
     id="base"
     pagecolor="#ffffff"
     bordercolor="#666666"
     borderopacity="1.0"
     inkscape:pageopacity="0.0"
     inkscape:pageshadow="2"
     inkscape:zoom="7.9195959"
     inkscape:cx="-1.5435483"
     inkscape:cy="9.8234528"
     inkscape:document-units="px"
     inkscape:current-layer="layer1"
     showgrid="false"
     inkscape:window-width="1090"
     inkscape:window-height="640"
     inkscape:window-x="169"
     inkscape:window-y="31"
     inkscape:window-maximized="0" />
  <metadata
     id="metadata7">
    <rdf:RDF>
      <cc:Work
         rdf:about="">
        <dc:format>image/svg+xml</dc:format>
        <dc:type
           rdf:resource="http://purl.org/dc/dcmitype/StillImage" />
        <dc:title></dc:title>
      </cc:Work>
    </rdf:RDF>
  </metadata>
  <g
     inkscape:label="Layer 1"
     inkscape:groupmode="layer"
     id="layer1"
     transform="translate(0,-1020.3622)">
    <path
       inkscape:connector-curvature="0"
       style="fill:#f9cc94;fill-opacity:1;fill-rule:evenodd;stroke:none"
       d="m 27.393588,1036.6267 c 0,7.6182 -5.868595,13.7939 -13.107643,13.7939 -7.2386558,0 -13.1072511,-6.1757 -13.1072511,-13.7939 0,-7.6183 5.8685953,-13.794 13.1072511,-13.794 7.239048,0 13.107643,6.1757 13.107643,13.794"
       id="path1946" />
    <path
       inkscape:connector-curvature="0"
       style="fill:none;stroke:#3757a6;stroke-width:1.17149317;stroke-linecap:round;stroke-linejoin:round;stroke-miterlimit:10;stroke-opacity:1;stroke-dasharray:none"
       d="m 27.393588,1036.6267 c 0,7.6182 -5.868595,13.7939 -13.107643,13.7939 -7.2386558,0 -13.1072511,-6.1757 -13.1072511,-13.7939 0,-7.6183 5.8685953,-13.794 13.1072511,-13.794 7.239048,0 13.107643,6.1757 13.107643,13.794 z"
       id="path1950" />
    <path
       inkscape:connector-curvature="0"
       style="fill:#f7f6c9;fill-opacity:1;fill-rule:evenodd;stroke:none"
       d="m 30.538168,1036.6267 c 0,7.6182 -5.868596,13.7939 -13.107252,13.7939 -7.239047,0 -13.1076412,-6.1757 -13.1076412,-13.7939 0,-7.6183 5.8685942,-13.794 13.1076412,-13.794 7.238656,0 13.107252,6.1757 13.107252,13.794"
       id="path1954" />
    <path
       inkscape:connector-curvature="0"
       style="fill:none;stroke:#3757a6;stroke-width:1.17149317;stroke-linecap:round;stroke-linejoin:round;stroke-miterlimit:10;stroke-opacity:1;stroke-dasharray:none"
       d="m 30.538168,1036.6267 c 0,7.6182 -5.868596,13.7939 -13.107252,13.7939 -7.239047,0 -13.1076412,-6.1757 -13.1076412,-13.7939 0,-7.6183 5.8685942,-13.794 13.1076412,-13.794 7.238656,0 13.107252,6.1757 13.107252,13.794 z"
       id="path1958" />
    <path
       inkscape:connector-curvature="0"
       style="fill:none;stroke:#3757a6;stroke-width:1.17149317;stroke-linecap:round;stroke-linejoin:round;stroke-miterlimit:10;stroke-opacity:1;stroke-dasharray:none"
       d="m 9.8204282,1034.5114 c 0,-1.4739 1.1945328,-2.6683 2.6682708,-2.6683 1.473934,0 2.668466,1.1944 2.668466,2.6683"
       id="path2062" />
    <path
       inkscape:connector-curvature="0"
       style="fill:none;stroke:#3757a6;stroke-width:1.17149317;stroke-linecap:round;stroke-linejoin:round;stroke-miterlimit:10;stroke-opacity:1;stroke-dasharray:none"
       d="m 20.103601,1034.5114 c 0,-1.4739 1.194531,-2.6683 2.668271,-2.6683 1.473934,0 2.668464,1.1944 2.668464,2.6683"
       id="path2066" />
    <path
       inkscape:connector-curvature="0"
       style="fill:#ffffff;fill-opacity:1;fill-rule:evenodd;stroke:none"
       d="m 25.963155,1041.0282 c 0,1.033 -0.633582,1.8704 -1.415164,1.8704 l -13.312458,0 c -0.781581,0 -1.4151636,-0.8374 -1.4151636,-1.8704 0,-1.0331 0.6335826,-1.8709 1.4151636,-1.8709 l 13.312458,0 c 0.781582,0 1.415164,0.8378 1.415164,1.8709"
       id="path2070" />
    <path
       inkscape:connector-curvature="0"
       style="fill:none;stroke:#3757a6;stroke-width:1.17149317;stroke-linecap:round;stroke-linejoin:round;stroke-miterlimit:10;stroke-opacity:1;stroke-dasharray:none"
       d="m 25.963155,1041.0282 c 0,1.033 -0.633582,1.8704 -1.415164,1.8704 l -13.312458,0 c -0.781581,0 -1.4151636,-0.8374 -1.4151636,-1.8704 0,-1.0331 0.6335826,-1.8709 1.4151636,-1.8709 l 13.312458,0 c 0.781582,0 1.415164,0.8378 1.415164,1.8709 z"
       id="path2074" />
    <path
       inkscape:connector-curvature="0"
       style="fill:#ffffff;fill-opacity:1;fill-rule:evenodd;stroke:#3757a6;stroke-width:1.17149317;stroke-linecap:round;stroke-linejoin:round;stroke-miterlimit:10;stroke-opacity:1;stroke-dasharray:none"
       d="m 12.684143,1039.4013 0,3.0264"
       id="path2078" />
    <path
       inkscape:connector-curvature="0"
       style="fill:#ffffff;fill-opacity:1;fill-rule:evenodd;stroke:#3757a6;stroke-width:1.17149317;stroke-linecap:round;stroke-linejoin:round;stroke-miterlimit:10;stroke-opacity:1;stroke-dasharray:none"
       d="m 16.052186,1039.1573 0,3.2704"
       id="path2082" />
    <path
       inkscape:connector-curvature="0"
       style="fill:#ffffff;fill-opacity:1;fill-rule:evenodd;stroke:#3757a6;stroke-width:1.17149317;stroke-linecap:round;stroke-linejoin:round;stroke-miterlimit:10;stroke-opacity:1;stroke-dasharray:none"
       d="m 19.639885,1039.4013 0,3.0264"
       id="path2086" />
    <path
       inkscape:connector-curvature="0"
       style="fill:#ffffff;fill-opacity:1;fill-rule:evenodd;stroke:#3757a6;stroke-width:1.17149317;stroke-linecap:round;stroke-linejoin:round;stroke-miterlimit:10;stroke-opacity:1;stroke-dasharray:none"
       d="m 23.007928,1039.1573 0,3.2704"
       id="path2090" />
  </g>
</svg>
