<svg xmlns="http://www.w3.org/2000/svg" viewBox="0 0 154.37 145.3"><defs><style>.cls-1,.cls-3{fill:none;stroke-linecap:round;stroke-linejoin:round;stroke-width:4px;}.cls-1,.cls-2,.cls-3{stroke:#fff;}.cls-1{fill-rule:evenodd;}.cls-2{fill:#fff;stroke-miterlimit:10;}</style></defs><title>error</title><g id="Layer_2" data-name="Layer 2"><g id="Layer_1-2" data-name="Layer 1"><path class="cls-1" d="M18.11,72.65c0-36.15,25.8-65.93,59.08-70.12A64.38,64.38,0,0,0,69.13,2C32.06,2,2,33.63,2,72.65S32.06,143.3,69.13,143.3a64.38,64.38,0,0,0,8.05-.52C43.91,138.58,18.11,108.8,18.11,72.65Z"/><path class="cls-1" d="M59,108.88a7.07,7.07,0,0,1-7.07-7.07"/><path class="cls-1" d="M123.59,101.81a7.07,7.07,0,0,1-7.07,7.07"/><path class="cls-1" d="M54.63,106.53a47.24,47.24,0,0,1,66.81,0"/><path class="cls-1" d="M46.26,61.81a13.67,13.67,0,0,1,27.33,0"/><path class="cls-1" d="M98.93,61.81a13.67,13.67,0,0,1,27.33,0"/><path class="cls-2" d="M44.49,89.38a5.81,5.81,0,0,0,6.14-6.14c0-4.09-6.14-11-6.14-11s-6.14,6.93-6.14,11A5.81,5.81,0,0,0,44.49,89.38Zm5.06-6.32c0,3.14-1.92,5.24-5.06,5.24s-5.06-2.1-5.06-5.24c0-3.49,5.06-9.21,5.06-9.21S49.55,79.57,49.55,83.05Z"/><ellipse class="cls-3" cx="85.24" cy="72.65" rx="67.13" ry="70.65"/></g></g></svg>