<?xml version="1.0" encoding="UTF-8" standalone="no"?>
<!-- Created with Inkscape (http://www.inkscape.org/) -->

<svg
   xmlns:dc="http://purl.org/dc/elements/1.1/"
   xmlns:cc="http://creativecommons.org/ns#"
   xmlns:rdf="http://www.w3.org/1999/02/22-rdf-syntax-ns#"
   xmlns:svg="http://www.w3.org/2000/svg"
   xmlns="http://www.w3.org/2000/svg"
   xmlns:sodipodi="http://sodipodi.sourceforge.net/DTD/sodipodi-0.dtd"
   xmlns:inkscape="http://www.inkscape.org/namespaces/inkscape"
   width="32"
   height="32"
   id="svg2"
   version="1.1"
   inkscape:version="0.48.4 r9939"
   sodipodi:docname="black_mini_sequin.svg">
  <defs
     id="defs4" />
  <sodipodi:namedview
     id="base"
     pagecolor="#ffffff"
     bordercolor="#666666"
     borderopacity="1.0"
     inkscape:pageopacity="0.0"
     inkscape:pageshadow="2"
     inkscape:zoom="7.9195959"
     inkscape:cx="-1.5435483"
     inkscape:cy="9.8234528"
     inkscape:document-units="px"
     inkscape:current-layer="layer1"
     showgrid="false"
     inkscape:window-width="1090"
     inkscape:window-height="640"
     inkscape:window-x="166"
     inkscape:window-y="32"
     inkscape:window-maximized="0" />
  <metadata
     id="metadata7">
    <rdf:RDF>
      <cc:Work
         rdf:about="">
        <dc:format>image/svg+xml</dc:format>
        <dc:type
           rdf:resource="http://purl.org/dc/dcmitype/StillImage" />
        <dc:title></dc:title>
      </cc:Work>
    </rdf:RDF>
  </metadata>
  <g
     inkscape:label="Layer 1"
     inkscape:groupmode="layer"
     id="layer1"
     transform="translate(0,-1020.3622)">
    <g
       id="g8845"
       transform="translate(2.1465741,-3.5489393e-8)">
      <path
         style="fill:#e5d7a1"
         d="m 20.68484,1050.987 c -1.411831,-0.2378 -1.922587,-1.8191 -1.912171,-3.071 -0.492057,-1.0177 -0.331026,-2.71 -1.323547,-3.2568 -1.252427,0.321 -2.447378,0.027 -3.70816,0.048 -0.717547,0.1007 -1.523786,-0.7283 -1.484014,0.4498 0.103197,1.3935 -0.905235,2.3931 -1.150218,3.6785 0.0051,1.2636 -1.469944,2.8197 -2.6310833,1.668 -1.0209028,-1.0627 -1.1373981,-2.8298 -0.5465635,-4.1408 0.6715814,-1.1017 0.7761336,-2.4522 1.1096321,-3.6586 0.2675689,-1.3531 0.5461052,-2.7316 0.7756757,-4.058 0.69381,-0.9419 -0.129937,-2.5368 0.778376,-3.5909 0.263447,-1.6137 0.527856,-3.2237 0.764481,-4.8393 0.418702,-1.33 0.303422,-2.7134 0.644634,-4.0596 0.122633,-1.4364 -0.322049,-3.1622 0.926402,-4.2565 0.847677,-0.8367 2.154115,0.2437 3.040021,-0.4878 1.262317,0.3429 1.554935,1.8354 1.646678,2.9656 0.235246,1.2649 0.725604,2.523 0.506022,3.8288 0.02049,1.3189 0.405415,2.6067 0.941996,3.794 0.207627,1.4787 0.659476,2.8862 0.955946,4.3454 0.481474,1.3443 0.532651,2.6933 0.671212,4.093 0.191737,1.39 0.570274,2.7229 0.989238,4.0576 -0.04353,1.3417 0.989908,2.506 0.715601,3.8744 -0.09326,0.8805 -0.577786,2.8752 -1.710158,2.6166 z m -10.9764373,-2.4805 c -0.00591,-1.1503 -1.0979729,0.9081 0,0 z m 10.7997373,-0.2947 c -0.09868,-0.788 -0.433785,0.2011 0,0 z m 0.428843,-0.6414 c -0.224308,0.154 0.203604,0.5629 0,0 z m -11.6979652,0.082 c -0.3062143,-0.3982 0.1134138,0.4866 0,0 z m 1.4295292,-2.1207 c -0.463484,0.036 0.267395,0.4917 0,0 z m 9.14172,-0.3231 c -0.50093,-0.6831 -0.308372,0.5961 0,0 z m 0.427058,-0.5539 c -0.224343,0.1541 0.203733,0.5628 0,0 z m -6.570063,-3.3523 c -0.904207,0.1747 0.09526,2.1151 -0.004,0.5687 0.01865,-0.1887 0.03259,-0.3801 0.004,-0.5687 z m -3.648185,0.167 c -0.8436947,-1.4906 0.438348,1.7546 0.172769,0.3664 l -0.08406,-0.1845 -0.08871,-0.1819 z m 9.622871,0.3327 c -0.447527,-0.7603 -0.420199,0.887 0,0 z m -7.061486,-2.3657 c -0.298354,-0.4945 -0.288195,0.4764 0,0 z m 2.915244,-0.2521 c 1.658038,0.5667 1.330643,-1.6249 0.81112,-2.4613 -0.162212,-1.4148 -0.604157,-2.7666 -1.059009,-4.1054 -0.677756,-1.2765 -0.884281,0.976 -0.846457,1.4873 -0.0492,1.4531 -0.633224,2.7791 -0.802564,4.2077 -0.184168,1.0587 1.222733,1.0113 1.89691,0.8717 z m 3.031854,-0.039 c -0.30865,-0.6075 -0.204884,0.5655 0,0 z m 0.583048,-0.415 c -0.352711,-0.3818 -0.169961,0.562 0,0 z m -0.699658,-2.9222 c -0.36328,-0.1614 -0.09779,0.4966 0,0 z m -5.430619,-1.6321 c -0.541742,0.044 0.205756,0.738 0,0 z m -0.568504,0 c -0.04915,-1.0087 -0.697711,0.5468 0,0 z m 5.532684,-1.1559 c -0.298749,-0.4948 -0.287992,0.4765 0,0 z m -4.514024,-1.7491 c 0.03522,-0.7404 -0.439225,0.2281 -0.138314,0.1936 l 0.138314,-0.1936 z m -0.501982,-0.4374 c -0.417682,-0.7473 -0.256906,1.2952 -0.0045,0.035 l 0.0045,-0.034 0,-4e-4 z m 3.498293,-0.4081 c -0.439623,-0.5554 -0.104109,1.1229 0,0 z m 0.584835,-0.1846 c -0.242381,-0.6931 -0.492174,0.4045 0,0 z m -3.553809,-2.3604 c 0.144719,-1.0424 -0.600729,0.7889 0,0 z m 3.318804,-0.7853 c -0.247895,-0.6758 -0.236622,1.1082 0,0 z m -3.671422,-0.188 c -0.799389,-0.8533 -0.281465,0.5561 0.344271,0.3616 l -0.155297,-0.1958 -0.188974,-0.1658 z m 0.851514,-2.6129 c -0.12655,-1.6989 -1.035351,1.4557 -0.03089,0.3059 l 0.01843,-0.153 0.01246,-0.1529 z m 3.173861,0.041 c -0.764089,-0.5656 -0.521144,0.2593 0.05424,0.2027 l -0.05424,-0.2027 z m -1.084261,-0.192 c 0.07862,-1.3292 -0.981176,0.5674 0,0 z"
         id="path8859"
         inkscape:connector-curvature="0" />
      <path
         style="fill:#b19d62"
         d="m 8.4356861,1050.3534 c -1.0842669,-1.2125 -0.8892742,-3.0739 -0.1541004,-4.4124 0.4294508,-1.4157 0.8001302,-2.8472 0.9842702,-4.3165 0.4388114,-1.4975 0.5035762,1.1439 1.4756401,0.9622 -0.655209,-1.0327 -1.3333895,-2.4294 -0.910275,-3.7603 0.239343,-0.8272 1.259088,1.6987 0.735668,0.1264 -0.6491135,-1.2251 -0.505482,-2.7019 0.114623,-3.8977 0.17213,-1.3924 0.505932,-2.7513 0.666248,-4.1462 0.211308,-1.3461 0.495812,-2.6611 0.537778,-4.0243 0.335591,-1.2712 1.596532,0.7128 1.21654,1.2919 0.507056,0.1674 -0.130345,0.8239 0.577879,0.574 0.639442,-0.9466 -0.120251,-1.8473 -1.004048,-2.3645 -0.739516,-1.0379 -0.813707,-2.5554 -0.221925,-3.6946 0.341647,-1.6028 2.115473,-0.6072 2.994015,-1.1458 1.464354,-0.2325 2.018323,1.4966 2.103472,2.6517 0.19372,1.3989 0.706708,2.7517 0.491793,4.1851 -0.06206,0.7804 0.490141,1.7343 0.02396,2.1251 1.340539,0.9511 0.905409,2.763 1.510437,4.0867 0.473078,0.6279 0.0045,1.7422 -0.08856,1.6337 1.190975,1.0485 0.889626,2.7096 1.089009,4.097 -0.07041,1.0584 0.478888,2.1351 0.774391,3.2855 0.211351,1.3621 0.814656,2.7356 0.956547,4.1315 0.07136,0.8095 -0.129116,2.6037 -1.009883,2.4611 -0.70406,-0.7919 0.398054,-2.921 -0.804386,-2.946 -0.879748,1.0148 0.7259,1.795 0.508306,2.9121 0.06189,1.5769 -2.002867,-0.039 -1.967353,-0.9195 -0.510583,-0.9263 0.06144,-2.5607 0.0035,-3.0891 -0.536752,1.6397 -1.04785,-0.7987 -0.982756,-1.4445 0.02092,-0.4008 0.716387,-2.4739 0.1603,-1.2045 -0.171418,1.0081 -1.222291,1.407 -1.914073,0.984 -1.134499,0.4799 -2.501924,0.1622 -3.66528,-0.071 -0.833939,0.4275 -0.248663,1.9827 -0.965323,2.754 -0.746692,1.0873 -0.429793,2.7645 -1.6851289,3.5126 -0.5393446,0.3479 -1.1841578,0.1546 -1.551243,-0.3374 z m 1.3679572,-1.8209 c 0.1827513,-0.885 -1.1958709,-1.5755 -1.2506565,-2.2101 0.3066303,0.8073 0.4914376,1.6633 0.5976468,2.4232 0.2259873,0.2022 0.553854,0.04 0.6530097,-0.2131 z m 0.9068227,-2.6186 c 0.185916,-1.0763 -1.3701398,0.5477 -0.127026,0.084 0.0421,-0.028 0.08522,-0.056 0.127026,-0.084 z m 9.045941,-0.5371 c 0.77524,-0.121 0.561224,-1.1022 -0.172907,-0.5758 0.144655,-0.2481 0.920805,-0.6568 0.160211,-0.5568 -0.258908,0.1536 -0.602687,1.4968 0.0127,1.1326 z m -9.62475,-0.044 c -0.2240661,-0.4245 -0.3196902,0.2148 0,0 z m 11.03744,-0.3524 c -0.968973,-0.3922 0.152597,0.504 0.0369,0.035 l -0.0369,-0.035 -2e-6,0 z m -9.105884,-1.704 c -0.513254,-0.9078 0.401906,1.3939 0,0 z m -0.998678,-0.2244 c -0.313302,-0.7792 -0.195533,0.7339 0,0 z m 6.376585,-0.022 c -0.268416,-0.076 0.180845,0.5235 0,0 z m -6.772573,-0.1798 c -0.415251,-0.01 0.21203,0.5698 0,0 z m 3.078012,-0.9062 c 0.289776,-1.038 -0.820694,-0.5188 -0.445488,0.2277 0.193672,0.8764 0.585749,0.4088 0.445488,-0.2277 z m 5.454645,0.4082 c 0.339753,-0.3063 1.724066,-0.3714 0.573124,-0.6683 -0.475984,-1.0961 -1.036943,0.5518 -0.944492,0.947 0.171271,0.012 0.277083,-0.1736 0.371368,-0.2787 z m -1.793993,-0.4373 c -0.296458,-1.4232 1.872493,-2.2659 1.50501,-3.3995 -0.459115,-0.2674 0.279228,-0.5704 -0.418634,-0.3824 0.07805,1.0212 -0.841045,1.8398 -1.128615,2.8841 0.06474,0.4531 -0.385762,1.7539 -0.434796,0.6388 -0.297819,-0.8832 0.01338,1.9822 0.450843,0.4625 l 0.0262,-0.2035 -4e-6,0 z m -2.181677,0.2988 c -0.268406,-0.077 0.180836,0.5235 0,0 z m -4.503401,-0.9118 c -0.38767,-0.8073 0.178852,1.1416 0,0 z m 4.989844,-1.1945 c -0.238075,-0.833 -0.692916,2.278 -0.27313,0.8106 0.09188,-0.2681 0.137831,-0.5607 0.27313,-0.8106 z m 2.428801,0.9402 c -0.268398,-0.077 0.180829,0.5236 0,0 z m -4.16457,-0.5029 c -0.327636,-0.3955 -0.193993,1.2678 0,0 z m -1.901567,-0.087 c -0.224308,0.154 0.203604,0.5629 0,0 z m -0.362473,0.019 c -0.436272,-0.9173 -1.103288,0.4494 0,0 z m -0.531024,-0.5728 c -0.351175,-0.5052 -0.104518,0.4147 0,0 z m 1.423473,-0.6056 c -0.791405,-0.1039 0.227984,0.8718 0,0 z m 7.567313,0.2117 c -0.49659,-0.5084 -0.928617,-0.077 -0.150197,0.1329 0.396825,0.1375 0.203723,-0.035 0.150197,-0.1329 z m -4.676224,-0.228 c 1.562136,0.4674 1.492032,-1.6983 1.996538,-2.6046 0.489021,-0.3882 1.158967,-0.9239 0.723938,-1.0863 0.475794,-0.4687 -1.102434,-0.034 -0.460888,0.3507 -0.297502,0.5298 -0.784754,1.6911 -0.996568,1.7932 -0.744107,-1.0619 -0.515222,-2.5249 -0.09567,-3.6697 -0.222972,-0.2304 -0.474478,1.7643 -0.767615,0.4926 -0.306352,-0.7163 -0.29646,-2.6415 -1.231995,-2.3718 -0.593351,1.3027 -0.161186,2.8201 -0.757289,4.1222 -0.17443,1.1028 -1.03622,2.8848 0.698263,3.0772 0.302054,0.015 0.589697,-0.1084 0.891281,-0.1035 z m 1.865756,-0.4345 c -0.352777,-0.3815 -0.169888,0.562 0,0 z m 0.641354,0.1235 c -0.542692,-0.4824 -0.310525,0.4067 0,0 z m -5.538964,-1.341 c -0.03322,-0.796 -1.198062,0.3386 -0.758266,-0.6676 -0.864741,-0.4055 0.494665,1.8965 0.758266,0.6676 z m 1.136929,-0.7094 c -0.593797,-0.1233 0.01685,0.6259 0,0 z m -0.767129,-2.1073 c 0.885396,-0.8918 -1.504881,-1.4459 -0.788273,-0.1254 0.09552,0.3578 0.578129,0.4117 0.788273,0.1254 z m 4.486164,-1.4979 c 0.29588,-0.4492 2.263842,0.2207 0.987574,-0.3116 -0.585864,-0.4592 -1.350468,-0.1269 -1.222026,0.4696 0.103104,0.01 0.183413,-0.082 0.234452,-0.158 z m -3.827059,-2.1572 c -0.20966,-0.844 -1.517914,-0.6401 -0.83515,0.3411 0.322091,0.5428 0.822069,0.1357 0.83515,-0.3411 z m 2.935827,-0.464 c 1.123814,-0.2206 -0.09493,-1.1856 -0.264011,-0.1286 -0.242391,0.4079 -0.496176,1.644 0.04561,0.5729 0.08792,-0.1408 0.156304,-0.2906 0.218398,-0.4443 z m -1.668764,0.1432 c -0.181554,0.3562 0.150545,0.5696 0,0 z m -0.0032,-0.7579 c -0.224301,0.1543 0.203727,0.5626 0,0 z m 0.4833,-1.315 c -0.315151,0.1731 -0.09406,0.5015 0,0 z m 2.408575,-0.762 c -0.850319,-0.7441 -0.524427,0.2912 0.03154,0.045 l -0.03154,-0.045 z m -0.894021,-0.4013 c 0.468038,-0.5329 -0.752408,-0.808 -0.199936,-1.2766 -0.71115,-0.053 -0.525811,0.8174 -0.529981,1.2531 0.173834,0.2333 0.528783,0.1996 0.729917,0.024 z m -2.499352,-0.4661 c -0.265584,-0.6314 -0.03318,0.5826 0,0 z m 0.619788,-1.7674 c -0.493464,0.2508 -0.262597,1.2888 -0.02276,0.2369 l 0.02774,-0.1159 -0.005,-0.121 z m -0.89815,-0.501 c 0.323826,-0.672 0.01844,-2.2184 -0.572445,-0.9145 -0.231815,0.4179 -0.110669,1.4415 0.572445,0.9145 z m 1.052462,0.1111 c -0.177983,-0.3702 -0.177454,0.4096 0,0 z m 0.466439,-0.5247 c -0.190558,-0.6302 -0.151609,0.6179 0,0 z m 1.865756,0.061 c -0.161478,-0.9288 -1.85061,0.1254 0,0 z m -1.074274,-0.2937 c -0.226205,-1.6479 -1.45055,0.5795 0,0 z m -2.111142,-1.3634 c -0.268413,-0.077 0.180845,0.5235 0,0 z m 6.392185,24.6265 c 0.05761,-0.4732 0.344597,0.4577 0,0 z"
         id="path8857"
         inkscape:connector-curvature="0" />
      <path
         style="fill:#897443"
         d="m 8.7784267,1050.643 c -1.4010921,-1.0399 -1.2673204,-3.136 -0.4788708,-4.5138 -0.080237,0.4051 -0.5377588,2.0256 -0.015401,0.8976 0.9743584,-0.051 0.4545322,2.8865 1.7498891,1.3322 0.665746,-0.3017 -1.2947046,-0.8576 -1.1837057,-1.7187 -0.4695863,-1.1015 -0.2334626,-2.3432 0.2703697,-3.3812 0.027134,-0.6402 0.2237873,-2.7902 0.8496765,-1.226 0.099744,0.6867 1.2292545,1.8547 1.5102465,0.7637 -0.596729,-0.1575 -1.7214348,-1.5889 -1.25141,-1.6303 0.215387,0.5352 0.890584,0.8945 0.582383,-0.017 -0.161957,-0.6843 -1.5225018,-2.0787 -0.625982,-2.3377 0.303761,0.4772 1.025373,2.2553 1.451933,1.4753 -0.572801,-0.9956 -1.627612,-1.8026 -1.444459,-3.1208 -0.01052,-1.1717 0.682651,-2.1816 0.714143,-3.3453 0.349571,-1.6567 0.423309,-3.355 0.878789,-4.9891 0.54429,-0.8461 -0.272918,-1.8155 0.512723,-2.3958 0.970671,0.4278 0.448636,2.1256 1.297697,2.4046 0.530893,-0.4032 0.618174,-1.4413 0.62654,-2.1118 -0.332202,-0.4362 -0.158029,0.8727 -0.709306,0.2289 -1.248787,-0.6555 -1.587149,-2.2872 -1.018197,-3.3482 -0.903355,0.3787 0.569003,-1.2836 0.615772,-1.7307 1.149261,0.034 2.422447,-0.3327 3.47083,0.049 1.103072,1.0047 0.788411,2.6731 1.279082,3.9688 0.437217,1.2239 -0.162037,2.5217 0.383748,3.7096 0.219979,0.6727 -0.793719,0.7 0.03723,1.1462 0.517042,0.6023 1.143108,1.8493 0.679423,2.4566 -0.777465,-0.3164 -1.942678,-1.0813 -2.023578,0.2809 -0.406444,0.5182 -0.978862,1.9366 -1.129603,0.5617 -0.140534,-0.672 -0.669335,-3.0418 -1.275271,-1.5422 -0.852957,1.0547 0.213335,2.4309 -0.618386,3.5894 -0.87029,0.8194 -0.08997,1.8468 -0.532541,2.9307 1.199168,0.6118 2.585874,0.4325 3.759561,-0.01 0.596927,0.3315 1.275411,-0.1087 0.296384,-0.2725 -1.15923,-0.3715 0.175491,-2.0509 0.74166,-2.6456 0.856072,-0.649 -0.642419,-1.1884 -0.685745,-0.1383 -0.128346,0.5894 -0.774542,2.4887 -1.07211,0.9903 -0.19836,-1.2861 -0.14079,-3.0294 1.215435,-3.665 1.432188,-0.4737 2.025278,1.3165 2.169205,2.4049 0.288943,0.9043 -1.252913,-0.2708 -0.509654,0.5519 0.98772,0.6512 1.146908,1.8212 1.205632,2.9044 -0.552836,0.9299 -1.376123,-0.754 -1.83661,-1.102 -0.568221,0.3215 -0.138113,1.2452 -0.758847,1.7111 -0.609874,1.1131 -1.862014,2.3127 -0.479874,3.3799 0.236576,0.6366 0.552981,1.776 -0.613457,1.3721 -0.606055,0.1072 -1.702165,-1.6369 -0.925325,-0.4148 0.769067,1.1288 -1.691043,0.3513 -2.278351,0.4731 -0.810998,-0.2855 -1.489354,-0.3418 -1.909657,0.5707 -0.06406,-0.013 0.787102,0.5552 0.322983,1.0817 -0.687,1.228 -0.869924,2.6393 -1.464097,3.8949 -0.36891,0.5661 -1.1646886,1.0026 -1.7809003,0.5254 z m 1.8273353,-4.5634 c 0.674968,-1.0376 -1.6874824,-1.0798 -0.477214,0.082 0.158291,0.072 0.343521,0.015 0.477214,-0.082 z m -1.0589399,-1.5993 c -0.097188,-0.785 -0.4353654,0.1964 0,0 z m 0.3647335,-0.879 c -0.4654335,0.088 0.4071394,0.5354 0,0 z m 2.1473504,-0.4656 c -0.634404,-1.1397 0.320609,1.7938 0.06704,0.1874 -0.02234,-0.062 -0.04485,-0.1249 -0.06704,-0.1874 z m -2.2003268,-0.1626 c -0.5554594,0.027 0.1176688,0.6542 0,0 z m 5.6001748,0.057 c -0.268416,-0.076 0.180845,0.5235 0,0 z m -1.712195,-0.9513 c -0.14746,-0.6455 0.646879,-2.028 0.386971,-2.0782 -0.366511,0.6901 -1.523587,2.3241 -0.456162,2.61 0.06691,-0.1683 0.05836,-0.3543 0.06919,-0.5318 z m -1.902708,0.2516 c -0.268421,-0.077 0.180862,0.5236 0,0 z m 3.75455,-1.7273 c 0.51766,-0.8337 -0.160719,-1.0712 -0.235416,-0.122 -0.189176,0.4511 -0.42414,1.9924 -0.121185,1.7073 0.09475,-0.5332 0.18331,-1.0706 0.356601,-1.5853 z m -3.376806,-0.2555 c -0.352614,-0.9981 -0.199061,0.7461 -0.566486,1.0351 -0.05891,0.8147 0.704909,-0.7952 0.566486,-1.0351 z m 0.454434,-0.8906 c -0.400947,-0.9808 -0.598569,1.0384 0,0 z m -1.611494,-1.5592 c -0.337924,-0.6708 -0.06266,0.7601 0,0 z m 1.399317,-0.259 c -0.194598,-1.0206 -1.808144,-0.9514 -0.814655,0.093 0.21907,0.2674 0.874961,0.477 0.814655,-0.093 z m -1.166098,-1.1725 c -0.119728,-0.5807 -0.692111,-0.7308 -0.217513,-0.082 0.0028,0.017 0.209025,0.2707 0.217513,0.082 z m 1.335788,-1.4163 c 1.346637,-0.5332 -0.802447,-2.143 -0.665276,-0.6396 0.01955,0.3217 0.258243,0.8235 0.665276,0.6396 z m 4.182636,-4.5667 c 0.670726,-0.8292 -1.312022,-0.2688 -0.78627,0.4409 -0.289524,0.3137 -0.559468,1.8256 -0.05646,0.7238 0.236305,-0.4153 0.443157,-0.877 0.84273,-1.1647 z m -3.516087,1.1811 c 0.985115,-0.9187 -1.454669,-1.6455 -0.802275,-0.2739 0.142252,0.2544 0.55096,0.6706 0.802275,0.2739 z m 1.508713,-0.861 c -0.427151,-0.057 0.242109,1.3614 0.05448,0.2067 -0.0068,-0.072 -0.03493,-0.1381 -0.05448,-0.2067 z m -0.217227,-0.2742 c 0.280434,-0.4123 0.863509,-1.9728 0.534229,-1.6963 -0.047,0.2568 -1.084157,1.9872 -0.534229,1.6963 z m -2.371035,-0.7897 c -0.498017,-0.4805 0.259913,0.811 0.01006,0.024 l -0.01006,-0.024 z m 5.490749,-1.5753 c -0.177517,-0.771 -1.288034,-0.3104 -0.267603,-0.01 0.05128,-0 0.2461,0.1656 0.267603,0.01 z m -1.749146,-0.2064 c -0.225557,-0.4258 -0.318284,0.2179 0,0 z m 0.819487,-0.421 c 0.267225,-0.5065 -0.389412,-0.9539 -0.293595,-1.2278 -1.092252,-0.3382 -0.642723,2.303 0.293595,1.2278 z m -1.746344,-2.3537 c -0.305718,-1.2159 -0.869025,2.3025 -0.294658,0.7108 0.09203,-0.2394 0.181004,-0.4805 0.294658,-0.7108 z m -1.078831,-0.1124 c 0.03645,-0.767 0.523032,-2.5351 0.350655,-2.6898 -0.484785,0.6928 -1.71232,2.4676 -0.505931,2.7866 -0.0173,0.1192 0.134197,-0.2066 0.155276,-0.097 z m 2.030259,-0.7201 c 0.442643,0.076 1.913179,0.6073 1.027775,-0.1793 -0.738108,-0.5755 -2.04171,-0.7983 -1.699713,0.529 0.236911,-0.089 0.402527,-0.3421 0.671938,-0.3497 z m -1.192454,-0.1089 c -0.323699,-0.4105 -0.117263,0.8832 0,0 z m -1.652616,-0.7729 c -0.376663,-0.3402 -0.246935,0.6089 0,0 z m 0.434794,-0.6992 c -0.412601,-0.4433 -0.210022,0.2685 0.03259,0.1581 l -0.03259,-0.1581 z m 2.689705,-0.3088 c -0.232771,-1.2841 -0.434525,0.7098 0,0 z m -0.53722,-0.2237 c -0.308645,-0.6075 -0.204887,0.5655 0,0 z m 4.251266,28.2938 c -1.317148,-1.0501 -1.287268,-2.9923 -0.719251,-4.4344 -0.01277,-0.9051 -0.651863,1.6296 -0.825028,0.3789 -0.609421,-1.4112 -0.368756,-3.4264 1.058604,-4.2358 0.632356,0.042 1.550574,-0.8292 1.397679,0.2182 0.215143,0.7061 1.071156,2.32 0.457874,2.5222 -0.620635,-0.3998 -0.884015,0.1443 -0.152244,0.3059 1.355064,1.1061 1.465898,3.3221 0.535804,4.731 -1.272745,0.096 0.003,-2.2085 -0.89369,-2.8298 -1.317804,-0.045 -0.291531,1.647 -0.01709,2.3115 0.120302,0.7361 0.296672,1.7506 -0.842656,1.0323 z m -0.05331,-5.2051 c 1.33108,-0.4693 -0.640326,-1.9401 -0.575738,-0.4261 -0.180935,0.3718 0.27405,0.8714 0.575738,0.4261 z m -2.301903,-2.0453 c -0.407822,-1.3572 0.02437,-3.0407 1.269115,-3.8147 1.047309,-0.1418 1.958526,0.9404 1.4965,1.7508 0.888677,0.3337 -0.663302,0.8901 -0.839872,0.1372 -1.027656,-0.6486 -0.652941,1.5029 -1.373438,1.9372 -0.221309,0.545 -0.350263,0.5803 -0.552305,-0.01 z m 0.202927,-1.1683 c -0.352712,-0.3818 -0.169961,0.562 0,0 z m 0.422127,-0.8622 c 0.05243,-1.1825 -0.64861,0.6868 0,0 z m 1.560239,-0.6983 c -0.224064,-0.4248 -0.319854,0.2146 0,0 z m -0.736611,-0.5535 c -0.268934,-0.076 0.181476,0.5251 0,0 z m 0.386782,0.1385 c -0.177983,-0.3702 -0.177454,0.4096 0,0 z m -0.579478,1.8074 c 0.06967,-0.6478 0.484107,-0.3744 0,0 z m -1.869327,-0.2846 c 0.231468,-0.7642 0.244118,0.5909 0,0 z m -7.2205998,-1.3576 c 0.1169726,-0.4255 0.062776,0.5234 0,0 z"
         id="path8855"
         inkscape:connector-curvature="0" />
      <path
         style="fill:#746648"
         d="m 8.7784267,1050.643 c -0.8108838,-0.5891 -1.581185,-2.316 -0.6366244,-2.9521 0.1926893,-0.5854 0.7440626,-0.8615 0.6544697,-0.018 -0.2858599,1.3366 1.537332,1.4093 1.501198,0.4415 -1.2700838,-0.4008 -1.7695078,-1.9224 -1.6307415,-3.1493 0.3245549,-1.1386 0.5219008,-2.2986 0.7482942,-3.4446 0.7382733,-0.131 0.8463933,2.3803 1.8736493,1.6126 0.914813,-0.1855 1.414221,1.5022 0.379309,1.877 -0.364087,0.4606 0.761601,0.2296 0.377364,0.8845 -0.336417,1.228 -1.028023,2.3242 -1.194161,3.6073 -0.252203,0.8044 -1.209981,1.7487 -2.0727573,1.1407 z m 1.9129563,-4.5827 c 0.388058,-1.395 -1.9408066,-0.7551 -0.49313,0.1403 0.173823,0.011 0.350046,-0.04 0.49313,-0.1403 z m -0.9095558,-1.2399 c -0.2354473,-0.3352 -0.7183101,-1.7515 -0.5134083,-0.5671 0.059163,0.2024 0.1857697,0.8089 0.5134083,0.5671 z m 0.9073508,-0.7743 c -0.8437752,0.2752 -0.40857,-1.9139 -1.1550931,-0.9025 -0.062285,0.5717 0.5665161,1.4306 1.1550931,0.9025 z m 9.40227,6.4815 c -1.628416,-1.1408 -1.491666,-3.6942 -0.315092,-5.1035 1.308254,-1.0026 2.514458,0.7822 2.511079,2.0009 0.139478,0.8492 -0.116763,2.5067 -0.848842,2.6464 -0.757098,-0.8436 0.410111,-2.8273 -0.957966,-3.0335 -0.900758,1.0763 0.492562,2.1097 0.331435,3.2666 0.09183,0.5454 -0.42963,0.5491 -0.720614,0.2231 z m -1.59353,-3.9799 c -0.769002,-1.4895 -0.357055,-3.7505 1.328163,-4.4039 1.350043,0.03 1.79638,1.8909 1.645362,2.8971 -0.826846,-0.1595 -1.994192,-1.7155 -2.140729,0.021 0.04818,0.6197 -0.44654,1.2297 -0.724437,1.6806 l -0.108359,-0.1946 0,0 z m -3.506609,-1.9347 c -1.256357,0.1725 -2.826838,-0.076 -2.969327,-1.6241 -0.564658,-1.155 0.988152,-2.9091 -0.673747,-3.3853 -0.766597,-0.5258 -1.142444,-1.5602 -1.09633,-2.4855 0.0842,-1.2243 0.571541,-2.3719 0.721359,-3.5855 0.497804,-1.2116 0.260599,-2.53 0.594976,-3.761 0.266768,-0.9309 1.129763,1.2612 0.615077,-0.205 -0.4832,-0.9649 -0.214712,-2.1669 -0.04508,-3.1127 1.128286,0.2636 0.464752,2.4656 1.593123,2.3591 0.494528,-0.933 0.897644,-2.1277 1.153139,-3.2259 0.322947,-1.5045 2.254641,-1.5229 2.84103,-0.2213 0.443903,1.2753 0.147461,2.6639 0.431246,3.9751 0.0522,0.8086 -0.362348,1.284 0.435403,1.8244 0.578321,0.695 0.900276,2.6701 -0.430419,1.6743 -1.192968,-0.7932 -1.185681,0.9961 -1.912581,1.5864 -0.310103,0.9074 -0.492519,-1.0551 -0.733165,-1.4312 -0.564362,-1.1814 -0.905392,-2.4815 -0.398092,-3.7601 0.298964,-0.7056 0.136467,-0.7393 -0.395232,-0.312 0.448003,0.8259 -0.91884,1.606 -0.0256,2.2543 0.317843,0.954 -0.929521,2.2641 -0.751162,2.7456 1.000972,0.8403 -0.431601,2.3412 -0.547566,3.3122 0.386019,0.913 -0.432235,2.2175 1.115872,2.1657 0.757191,-0.1754 1.548619,-0.025 0.887398,0.8662 -0.554391,1.2123 -0.346793,2.6863 0.406535,3.7829 0.721408,0.7061 -0.361843,0.9239 -0.816861,0.5634 z m -1.231715,-2.3483 c -0.16655,-0.7285 0.623111,-2.2783 0.451489,-2.3911 -0.420934,0.7891 -1.609477,2.104 -0.589908,2.8125 0.128745,-0.1004 0.128908,-0.2753 0.138419,-0.4214 z m -1.086048,-2.8759 c -0.723991,-0.8402 -0.212296,1.3215 0,0 z m -1.428257,-1.5336 c -0.912613,-0.6806 0.294478,1.1505 0.03749,0.064 l -0.03351,-0.057 -0.004,-0.01 0,-2e-4 -1e-6,0 z m 1.370232,0.095 c -0.08473,-1.1238 -1.552545,-1.3514 -1.792219,-2.4099 0.271881,0.93 0.505336,2.192 1.433521,2.5486 0.140843,0.1252 0.524714,0.2033 0.358698,-0.1387 z m -2.054377,-0.2842 c -0.268924,-0.076 0.181467,0.5251 0,0 z m 0.06953,-0.5658 c -0.289299,-0.5426 0.09654,0.6668 0,0 z m 2.214154,-2.1818 c 1.23352,-0.986 -1.668666,-1.7106 -0.831319,-0.2521 0.06982,0.371 0.586858,0.6183 0.831319,0.2521 z m -0.847415,-1.4641 c -0.501254,-1.1463 -0.892172,-0.2287 0,0 z m 4.79103,-2.9055 c 0.861632,-0.8963 -1.291785,-0.5921 -0.804037,0.3543 -0.227466,0.4023 -0.562422,1.9661 0.01786,0.7896 0.211606,-0.4118 0.443052,-0.8257 0.786182,-1.1439 z m -3.417369,1.1628 c 0.93158,-0.9935 -1.566463,-1.8069 -0.905403,-0.3505 0.128869,0.3186 0.601489,0.6876 0.905403,0.3505 z m 0.958534,-1.72 c -0.582894,-1.1901 -0.147566,0.9154 0,0 z m -0.757963,-0.4664 c -0.796864,-0.7323 0.301471,0.7383 0,0 z m -1.04996,-0.7871 c 0.04617,-0.905 -0.405055,-0.645 -0.152486,0.09 0.249545,0.9374 0.09501,-0.026 0.152486,-0.09 z m 2.004915,-0.9329 c -0.18156,0.3562 0.150543,0.5695 0,0 z m 3.184691,0.3387 c -0.959588,-0.1791 -0.798101,-2.6622 -1.780262,-1.5417 -0.377084,0.8182 0.274095,1.5399 1.06953,1.3094 0.206129,0.076 0.491344,0.4626 0.710732,0.2323 z m -1.749146,-0.2581 c -0.352712,-0.3818 -0.169962,0.562 0,0 z m 0.494526,16.4495 c -1.129019,-0.8354 -1.385607,-2.4008 -0.896891,-3.6603 0.09882,-1.066 1.71719,-2.2886 2.377286,-1.2423 -0.284478,1.0923 -1.900822,2.278 -0.846029,3.4455 0.689652,0.7043 0.982523,2.4155 -0.634366,1.4571 z m 1.185896,-1.1085 c -0.418004,-0.7804 0.712286,-1.241 0.877735,-0.9082 0.0088,-0.5862 -0.405287,-1.6565 -0.348886,-1.9 0.05105,0.5051 0.922379,0.7359 0.805844,0.7564 -0.402354,0.5577 -0.584097,2.4834 -1.334694,2.0519 l -4e-6,-10e-5 5e-6,0 z m 0.418554,-0.548 c -0.337924,-0.6708 -0.06266,0.7601 0,0 z m -6.567132,-0.4879 c -0.03363,-0.723 0.434234,0.283 0,0 z m 6.128574,-0.66 c 0.335967,-0.982 0.0091,0.7325 -0.02066,0.1873 l 0.02066,-0.1873 -1e-6,0 z m 0.392649,0.073 c 0.375534,-0.588 0.139934,0.4344 0,0 z m 1.611647,-0.2395 c -0.276408,-1.0257 1.451161,0.8125 0.106596,0.1359 -0.03553,-0.045 -0.07106,-0.091 -0.106596,-0.1359 z m -8.212957,-0.1911 c -0.55514,-0.3769 -1.6275133,-1.8708 -1.130839,-1.9876 0.515709,0.6651 0.515045,1.6723 1.581429,1.4775 0.0075,0.1791 -0.197194,1.0736 -0.45059,0.5101 z m 8.512975,-1.9156 c -0.730053,-0.019 -1.219288,-2.2555 -1.643038,-0.7103 0.04146,0.7876 -1.822587,0.1538 -1.17201,-0.5869 0.01372,-1.4735 1.996825,-2.7125 2.814088,-1.0779 0.263148,0.6344 0.915968,2.2326 0.206002,2.4921 l -0.205042,-0.117 0,0 z m -3.435471,-2.1741 c -0.416069,-1.3536 -0.103026,-3.1747 1.283107,-3.8405 1.393916,-0.1585 1.975554,1.5282 2.006983,2.64 -0.802934,0.4083 -2.059445,-1.3834 -2.381869,0.1902 -0.212868,0.3965 -0.446621,2.6762 -0.908221,1.0103 z m -2.367116,-10.7333 c -0.09827,-0.6895 -1.22003,-0.8283 -0.241942,-1.2721 0.629778,-0.108 0.06674,-2.1118 0.611321,-1.4787 -0.295264,0.6051 0.661256,2.0908 -0.45999,1.7654 -0.15487,0.2202 0.493843,1.173 0.09061,0.9854 z m -1.429557,-0.268 c -0.389235,-0.7392 0.52558,0.5399 0,0 z m 0.179203,-1.4257 c 0.38532,-1.9014 0.390771,0.9081 0,0 z m 1.9531,-0.641 c -0.191146,-0.5455 -0.282904,-1.572 0.302139,-0.6012 0.38586,0.5161 -0.353947,2.0149 -0.302139,0.6012 z m 2.301206,0.067 c -0.643352,-0.2008 -1.957417,-0.5758 -1.971304,-1.1014 0.824786,0.1584 1.212757,0.1414 1.657553,0.835 1.421773,0.4694 -0.519452,-1.8468 -0.198776,-1.8368 0.446087,0.4261 1.238839,1.9897 0.512526,2.1029 l 1e-6,6e-4 0,-3e-4 z m -3.871851,-1.903 c 0.96082,-1.0495 0.05194,0.8459 -0.08117,0.1456 l 0.08117,-0.1456 z m -0.3261,0.013 c 0.144526,-0.5375 0.353703,0.1828 0,0 z m 1.71336,0.028 c 0.229949,-0.5953 2.036737,-0.6172 0.633786,-0.187 -0.178744,0.1171 -0.407769,0.3285 -0.633786,0.187 z"
         id="path8853"
         inkscape:connector-curvature="0" />
      <path
         style="fill:#61502d"
         d="m 9.0174884,1050.7554 c -0.7998845,-0.3047 -1.7514161,-2.2648 -0.9524983,-2.4161 -0.039809,-0.799 0.8943313,-1.5424 0.8159147,-0.2922 -0.048388,0.8298 0.6472545,1.1827 1.1327372,0.4801 0.614088,-0.108 1.040072,-0.4872 0.164145,-0.507 -1.5053412,-0.6362 -1.8327697,-2.6902 -1.2163164,-4.0613 0.7414591,0.3159 0.5147345,2.1141 1.5009434,2.1779 1.053949,-0.6365 -1.8928037,-1.893 -0.8115378,-2.3466 0.6211668,0.9144 2.2726108,1.0066 2.3326688,2.2988 -0.576562,1.2652 -0.926277,2.5951 -1.406841,3.8912 -0.301416,0.5442 -0.9126911,0.9984 -1.5592156,0.7752 z m 1.1141686,-3.2655 c -0.2366369,-0.6282 -0.3179268,0.3891 0,0 z m -0.1950664,-0.9927 c -0.7588053,0.1681 -1.018204,-2.3162 -1.0816928,-0.8654 -0.2283547,0.7197 1.1589032,1.7905 1.2674382,1.0519 l -0.1857454,-0.1865 0,0 z m 10.3452274,4.0985 c -1.499835,-0.7839 -1.624034,-2.877 -1.057615,-4.293 0.491523,-1.8357 2.819177,-1.116 2.887167,0.5508 0.07355,0.9783 0.424963,2.7747 -0.694844,3.1648 -0.667086,-0.822 0.324497,-2.4083 -0.694461,-2.9826 -1.44817,0.6712 0.39888,2.3461 0.121802,3.4813 0.09488,0.3938 -0.392401,0.1106 -0.562049,0.079 z m -1.868498,-4.2497 c -0.474274,-1.4339 -0.26482,-3.404 1.224226,-4.1529 1.40647,-0.2247 1.82875,1.6072 1.897981,2.656 -0.884148,0.2214 -2.112473,-1.5735 -2.232799,0.3494 -0.0016,0.3453 -0.460943,2.0474 -0.889408,1.1475 z m -6.94355,-1.64 c -0.288279,-0.7117 -1.498243,-1.5124 -1.4858549,-1.9353 -0.7373161,-0.9727 -0.3214647,0.7212 -0.8733363,0.6682 0.081853,-0.5563 0.2275766,-2.7444 0.8738334,-1.2781 0.3421228,0.5403 0.9148308,1.7828 1.5983418,0.8379 0.553923,0.2858 0.990396,2.0693 -0.112984,1.7073 z m 3.904925,0.01 c -1.216931,-0.332 -3.057383,0.2358 -3.293109,-1.5849 -0.663023,-1.1021 0.87554,-2.9765 -0.587404,-3.462 0.349754,-0.81 -0.759976,-0.099 -0.412208,-0.9933 0.03593,-0.5584 1.454081,0.6224 0.909342,-0.2096 -0.887706,-0.3591 -1.512976,-1.7192 -1.239754,-2.4594 0.766939,0.7495 0.527819,2.1812 1.908657,2.2484 0.381735,0.2355 1.065766,-0.1685 0.486426,0.5543 -0.328059,0.3582 -1.572738,0.5213 -0.610936,0.9565 0.174992,-0.8218 2.07019,-0.927 1.647779,0.1856 -0.497981,0.6354 -1.618798,2.2905 -0.462005,2.7427 0.251573,-1.193 0.116332,-3.3809 1.85315,-3.3076 0.04365,1.0176 -0.95999,2.1318 -0.431256,3.2647 -9.1e-4,0.5855 1.656175,2.3053 0.231318,2.0646 z m -1.161697,-0.7868 c -0.626789,-0.4184 0.374736,0.6179 0,0 z m -0.339107,-0.768 c -0.346625,-0.2112 0.298629,0.8719 0,0 z m 2.775737,1.2541 c -1.370617,-0.6823 -1.432264,-2.4585 -1.04329,-3.7487 0.06716,-1.2189 1.716831,-2.1535 2.363044,-1.1879 -0.262358,0.9773 -1.930639,2.1119 -0.981992,3.1977 0.54039,0.4688 1.176434,2.3753 -0.20613,1.788 0.01231,0.051 -0.120999,-0.1314 -0.131632,-0.049 z m 1.104051,-1.04 c -0.405111,-0.4574 0.181438,-1.5793 0.72777,-0.9553 -0.142485,-0.6264 0.278544,-1.7867 0.192845,-0.4728 -0.09641,0.5615 -0.3747,1.1801 -0.920615,1.4281 z m 0.307442,-0.6705 c -0.313307,-0.7792 -0.19553,0.7339 0,0 z m -6.583472,-0.575 c 0.02026,-0.572 0.342603,0.3597 0,0 z m 6.641776,-0.5911 c 0.342946,-0.4086 0.04247,0.4124 0,0 z m 1.523997,-0.179 c -0.306969,-0.9575 1.440024,0.8087 0.107188,0.137 -0.03573,-0.046 -0.07147,-0.091 -0.107188,-0.137 z m -8.184655,-0.1222 c -0.948367,-0.8676 1.033206,-0.5844 0.129729,0.1337 l -0.06516,-0.026 -0.06457,-0.1076 z m -0.860671,-0.8066 c 0.125841,-0.9525 0.765053,0.5264 0,0 z m -0.352716,-0.7073 c -0.3907899,-1.0737 1.036981,0.6803 0.05815,0.1258 -0.01939,-0.042 -0.03877,-0.084 -0.05815,-0.1258 z m 9.681497,-0.4631 c -0.710558,-0.02 -1.213805,-2.1991 -1.625207,-0.7562 -0.330681,0.9916 -1.981603,-0.3139 -1.045334,-1.0763 0.326361,-1.5495 2.491382,-1.7607 2.825272,-0.1019 0.210522,0.3039 0.638616,2.3977 -0.154731,1.9344 z m -9.38441,-0.671 c -0.560229,-1.3467 0.905466,0.491 0.08951,0.1871 l -0.08951,-0.1871 z m 2.097653,-0.5783 c -0.102813,-1.2932 -2.092317,-1.5915 -1.7838,-3.0689 -0.0018,-0.6163 0.171058,-2.4274 0.428976,-2.195 0.174161,0.5735 0.987759,0.9013 0.353423,0.1041 -0.431185,-1.0381 -0.318268,-2.617 0.144775,-3.4017 0.226517,0.506 0.88319,1.0362 0.412297,0.1665 -0.551187,-0.9483 -0.0041,-2.1065 -0.08657,-2.9677 1.172488,0.01 0.513876,1.9156 1.402469,2.2574 0.873984,-0.1217 0.402185,-1.4697 1.040586,-1.9029 0.0075,-1.2885 1.103197,-3.3536 2.599776,-2.2782 1.182011,0.9909 0.685157,2.5842 0.811076,3.8785 0.156832,0.652 0.564807,1.8522 -0.523934,1.534 0.728894,0.6286 1.677039,1.4267 1.670668,2.5777 0.207812,1.3435 -1.808377,-1.0256 -2.052306,0.3615 -0.377434,0.4289 -0.939049,2.5715 -1.173412,1.1113 -0.119944,-1.4847 -1.454291,-2.8121 -0.902669,-4.3565 0.157674,-0.6298 0.804479,-1.6072 -0.106226,-1.1801 -0.253909,0.3383 0.05198,1.3566 -0.608724,1.7896 0.508652,0.7319 0.554838,2.235 -0.362717,3.0771 -0.501107,0.3426 -0.576564,0.6599 0.130385,0.4283 0.721147,0.7232 -0.351371,2.1544 -0.6507,3.033 0.237075,0.6092 -0.414537,0.7255 -0.586651,1.1918 l -0.07125,-0.03 -0.08546,-0.1296 -7e-6,0 z m -1.470599,-3.3885 c -0.106896,-0.8575 -0.271129,1.2388 0,0 z m 1.68284,0.3563 c 1.33072,-0.9753 -1.628448,-1.8625 -0.878537,-0.2847 0.141612,0.3125 0.586804,0.5924 0.878537,0.2847 z m 1.127418,-0.5535 c -0.280346,-0.4022 -0.383275,0.4568 0,0 z m -2.360531,-0.417 c -0.619292,0.015 -0.06405,0.7343 0,0 z m 4.147117,-1.7694 c -0.131006,-0.8629 1.911875,-1.8559 0.843334,-2.2616 -0.804001,0.415 -0.981813,1.9513 -1.007116,2.567 l 0.109003,-0.1258 0.05478,-0.1796 0,0 z m -2.393288,-0.5254 c 0.785986,-0.7836 -0.130234,-1.3774 -0.842829,-1.2572 -0.351029,0.4927 0.101028,1.8581 0.842829,1.2572 z m -1.259054,-0.5533 c -0.29902,-0.4947 -0.287545,0.4768 0,0 z m 2.215585,-1.1592 c -0.341343,-1.109 -0.363343,0.7944 0,0 z m -0.583049,-0.1791 c -0.105909,-0.7681 -1.054378,-0.6044 -0.280861,0.01 0.106882,0.2765 0.362338,0.421 0.280861,-0.01 z m -0.791003,-0.3156 c -0.569893,-0.2258 0.255709,0.7141 0,0 z m -0.316858,-0.65 c 0.253571,-0.4998 -0.541531,-1.2249 -0.554475,-0.6032 0.361829,0.056 0.281244,1.6354 0.554475,0.6032 z m 1.80752,0.3216 c -0.29824,-0.4947 -0.288323,0.4765 0,0 z m 0.133774,-1.1825 c -0.266839,-0.9584 0.03573,1.0477 0.01314,0.055 l -0.01315,-0.055 1e-5,0 z m 3.136071,0.025 c -1.048441,-0.039 -0.67761,-2.5081 -1.75865,-1.525 -0.506273,0.8499 0.275899,1.6191 1.089056,1.4596 0.141897,0.062 0.911768,0.6482 0.669594,0.065 z m -1.753918,-0.067 c -0.44793,-0.7423 -0.432001,0.7148 0,0 z m -0.349829,-1.9241 c -0.357733,-0.5033 -0.09886,0.4153 0,0 z m 1.982366,-0.056 c -0.359265,-0.234 -0.995636,-1.2147 -0.770257,-0.1983 0.148605,0.1316 0.670592,0.5384 0.770257,0.1983 z m -1.632537,-0.527 c -0.178095,-0.3703 -0.177345,0.4098 0,0 z M 10.25998,1037.16 c -0.116846,-1.1625 0.40518,0.5645 0.02795,0.4026 l -0.04107,-0.2073 0.01313,-0.1953 z m 6.295517,0.1516 c -0.272857,-1.3694 -0.345204,-3.4301 1.214267,-4.0329 1.307915,-0.2233 2.189524,1.6594 1.796615,2.6303 -0.897774,-0.1146 -1.952939,-1.3074 -2.199788,0.2673 -0.07975,0.2984 -0.464687,2.1622 -0.811094,1.1353 z m 0.409978,-0.8722 c -0.463483,0.036 0.26739,0.4917 0,0 z m -0.07045,-0.5049 c -0.292991,-0.7015 -0.02695,0.7028 0,0 z m 0.11661,-0.5761 c -0.298744,-0.4948 -0.287994,0.4765 0,0 z m -2.881708,-9.0053 c -0.713059,-0.5755 0.223071,-2.1032 0.20467,-2.2278 -0.141744,0.7782 -0.379995,1.636 -0.07756,2.347 l -0.127114,-0.1192 0,0 z m -1.435192,-0.268 c -0.389235,-0.7392 0.52558,0.5399 0,0 z m 0.379221,-1.688 c 0.0696,-0.8348 0.06981,0.8342 0,0 z m 1.838703,-0.065 c 0.347609,-0.4077 0.131967,0.5549 0,0 z m 1.341012,-0.6345 c -0.637087,-0.086 -0.884568,-0.6956 -0.148014,-0.3407 0.480362,0.3633 1.311874,0.8634 0.148014,0.3407 z m -2.995413,-1.3624 c 0.518238,-0.1645 -0.0181,0.2455 0,0 z m 1.421181,-0.1307 c 0.550081,-0.7152 0.784006,-0.029 0,0 z m -1.166097,-0.2561 c 0.358429,-0.5039 0.09838,0.4158 0,0 z"
         id="path8851"
         inkscape:connector-curvature="0" />
      <path
         style="fill:#48381e"
         d="m 8.5005918,1050.2972 c -0.5190768,-0.1366 -0.7873462,-1.9944 -0.5795412,-1.5663 0.00712,1.2014 1.799579,2.54 2.4824544,1.0732 -0.341799,-0.4491 -0.9909026,0.9288 -1.4109914,-0.092 -0.61307,-0.4959 -0.9877254,-2.1547 -0.2573791,-2.1771 -0.1003732,1.0168 0.8563915,1.9361 1.5219185,0.8465 1.634626,-0.162 0.233581,2.4585 -0.8550749,2.3691 -0.3571392,0.025 -0.6895944,-0.1775 -0.9013863,-0.4536 z m 11.6012002,0.1554 c -1.4133,-0.9994 -1.385002,-3.1069 -0.678719,-4.5159 0.747107,-1.325 2.430981,-0.6132 2.610527,0.6988 0.403225,1.1535 0.295914,2.5582 -0.534942,3.5016 0.01965,-0.9085 1.06261,-2.5634 0.45802,-2.9381 -0.008,0.487 -0.722731,-0.4184 -0.504718,0.4644 0.229802,0.5891 0.425886,0.8279 -0.04068,1.484 -0.355913,0.4346 0.02276,-1.4965 -0.392064,-1.9456 -0.330915,-0.3996 -1.112276,-1.217 -0.756952,-0.1369 -0.437295,0.9586 0.322765,1.794 0.4178,2.7635 -0.05637,0.4953 0.285129,1.0982 -0.578277,0.6242 z m 0.243284,-0.7832 c 0.298367,-1.1021 -1.598986,0.028 -0.75936,-1.1901 0.31551,-0.421 -0.466007,-0.2674 -0.438069,-0.8018 -0.152089,0.7274 0.260654,2.6911 1.191986,2.1914 0.0018,-0.065 0.0037,-0.1382 0.0054,-0.1995 z m 1.447557,-3.1707 c -0.224066,-0.4245 -0.31969,0.2148 0,0 z m -12.3700198,0.9046 c -0.4317293,-0.258 -0.5615028,-1.2292 -0.1131894,-0.383 0.1951647,0.3776 1.4327072,1.2765 0.3730184,0.6907 l -0.093409,-0.1016 -0.1664204,-0.2061 0,0 z m 1.6419218,0.2781 c 0.455841,-0.6712 0.512134,-0.2477 0.0304,0.1414 -0.0099,-0.045 -0.02064,-0.097 -0.0304,-0.1414 z m 0.466439,-0.658 c 0.266295,-0.6576 0.151009,0.4034 0,0 z m -1.088128,-0.4342 c -0.8832786,0.2189 -1.1048123,-2.2977 -0.67934,-0.8668 0.577488,1.2246 1.287376,-0.4561 2.16469,-0.2006 0.167207,0.4207 -0.08761,1.0444 -0.323198,0.4948 -0.371281,0.1318 -0.762214,0.3133 -1.162152,0.5726 z m 7.921884,-0.5012 c -0.541361,-1.4294 0.05,-3.2535 1.444914,-3.9529 0.808784,-0.2723 1.678639,1.7302 1.389642,1.4925 -0.269044,-0.7151 -0.834518,-0.5729 -0.329473,0.096 0.476084,0.5886 0.09026,1.5443 -0.484597,0.5918 -1.162307,-0.868 -1.063203,1.3441 -1.546225,1.8735 -0.184823,0.5964 -0.428216,0.3271 -0.474261,-0.1014 z m 0.243487,-0.6035 c -0.229211,-0.9802 -0.06278,1.2426 0.0534,0.1385 -0.01758,-0.046 -0.03602,-0.092 -0.0534,-0.1385 z m 1.785099,-1.6747 c -0.308645,-0.6075 -0.204886,0.5655 0,0 z m -1.515927,-0.4733 c -0.347613,-0.4077 -0.131967,0.5549 0,0 z m -8.345959,1.9766 c -0.6910234,-0.2631 -0.6397365,-0.819 0.02772,-0.2668 0.523247,0.1687 0.813361,0.5667 -0.02772,0.2668 z m -1.3687591,-0.483 c -0.2138058,-0.5875 -0.2144711,-1.3133 0.1137198,-0.337 0.1288164,0.153 0.2398438,0.6427 -0.1137198,0.337 z m 5.8665961,-0.2648 c -1.319988,0.1551 -3.105858,-0.2037 -2.92432,-1.9253 -0.176256,-1.2305 0.02046,-3.3412 1.600513,-3.4389 1.385031,0.5339 -0.807531,1.7877 -0.496727,2.8398 0.194519,0.6644 0.582819,1.9024 1.073501,2.0738 -0.628854,-1.2917 -0.522767,-2.7944 0.01444,-4.1056 0.331544,-0.8845 2.045372,-0.6789 1.0257,0.3319 -0.583863,1.4273 -0.13279,2.9604 0.600336,4.1707 -0.142341,0.374 -0.62629,0.1404 -0.893444,0.054 z m -2.369148,-1.1855 c -0.268398,-0.077 0.180829,0.5236 0,0 z m 4.264056,1.1078 c -0.294164,-0.2258 0.793383,-0.6723 -0.126003,-0.365 -1.209498,0.1793 -1.65511,-1.9778 -1.278019,-2.8639 0.543634,-0.2132 0.787956,-0.2792 0.0825,-0.4568 0.06736,-1.1034 1.236636,-2.0063 2.309331,-1.5793 -0.03751,1.063 -1.474775,1.9402 -1.194842,3.1046 0.459773,0.424 1.649913,2.4209 0.20703,2.1604 l 6e-6,0 z m -5.568116,-0.427 c -0.422444,-0.072 -1.4271305,-1.174 -0.418718,-0.6025 0.784135,-1.2319 1.914678,1.4486 0.418718,0.6025 z m -1.14158,-1.242 c 0.06121,-0.7416 0.222616,0.7014 0,0 z m -0.5305439,-0.5302 c -0.4135133,-0.8788 0.4563439,0.044 0.2227245,0.2156 l -0.089075,-0.075 -0.1336492,-0.1404 z m 10.0388749,-3.2156 c -0.564192,-0.2243 -0.848261,-1.8183 -1.49797,-0.7569 0.185404,1.1594 -1.971151,0.1304 -0.996714,-0.7227 0.19784,-1.4599 2.313355,-2.0615 2.76045,-0.4208 0.205342,0.4588 0.916599,2.7947 -0.265766,1.9004 z m 0.353255,-1.0398 c -0.289302,-0.5426 0.09654,0.6668 0,0 z m -7.962042,1.0752 c 0.316821,-0.7031 0.459774,0.076 0,0 z m -0.262372,-1.0312 c 0.438644,-0.1506 0.218375,0.2005 0,0 z m 4.70495,-0.8731 c -0.27032,-1.3135 -0.251878,-2.9978 0.972813,-3.8394 1.346401,-0.5357 2.251959,1.3288 1.756491,2.3617 -0.738471,-0.051 -1.666104,-1.0623 -1.888877,0.2603 -0.07136,0.2387 -0.422669,2.082 -0.840427,1.2174 z m 0.49876,-0.542 c 0.0062,-0.4572 -0.07277,-2.2202 -0.30573,-0.9196 0.01004,0.2742 -0.167879,1.0239 0.30573,0.9196 z m 1.979374,-2.5345 c -0.576913,-0.5649 -0.0164,0.7512 0,0 z m -6.440747,3.1814 c -0.769562,-0.3142 -1.768827,-1.6121 -1.608975,-2.0507 0.525199,0.3124 0.526295,0.8783 1.023668,1.0571 -0.256919,-0.5698 -0.173468,-2.1225 -0.499267,-2.3572 -1.155982,0.8625 -0.256908,-2.2611 0.09947,-0.6569 0.288844,0.6368 0.439645,2.59 1.423678,1.4213 0.100056,-1.0784 1.189391,0.4035 0.19542,0.4297 -0.462848,0.4073 -0.210459,1.2854 0.501318,1.0727 -0.159705,0.4525 -0.774063,0.8579 -1.135307,1.084 z m -1.094526,-3.7828 c -0.336185,-0.8171 -0.483913,0.6985 0,0 z m -0.357187,3.501 c -0.344671,-0.5496 0.402098,0.055 0,0 z m 8.429076,-1.5226 c -0.0094,-1.0503 0.162831,0.9548 0,0 z m -5.708182,-0.084 c 0.203536,-0.7825 0.310865,0.5497 0,0 z m 2.172333,-0.7405 c -0.509813,-1.2274 -0.419876,-2.6405 0.357569,-3.7283 0.770093,-1.1525 2.248321,-0.2557 2.459893,0.8488 0.201819,0.5928 0.619973,2.0332 -0.323151,1.0907 -0.903877,-0.7502 -1.68478,-0.1066 -1.903471,0.8618 -0.184688,0.3167 -0.394831,0.6174 -0.59084,0.927 z m 2.796058,-2.4244 c -0.175055,-1.8043 -0.715659,0.9314 0,0 z m -1.703318,-0.9234 c -0.308645,-0.6075 -0.204887,0.5655 0,0 z m 0.932879,-0.2915 c -0.399945,-0.4715 -0.301062,0.394 0,0 z m -5.684726,2.6686 c -0.724774,-0.5682 0.04342,-0.401 0.349483,-0.057 -0.395136,-0.793 -1.070309,-1.508 -0.559546,-2.4716 -0.0124,-0.6205 -0.366133,-0.8841 -0.600069,-1.2023 0.480829,-1.1417 0.919793,1.1288 0.997683,1.6369 0.700184,1.1338 1.493073,-1.9126 2.040817,-0.4376 0.119362,0.9674 -0.2771,2.1591 -1.173647,2.6049 -0.623503,-0.8456 0.04082,0.7818 -1.054721,-0.073 z m 1.999042,-1.3371 c -0.09017,-0.93 -0.672343,0.622 0,0 z m -2.642826,0.5804 c -0.401371,-0.576 0.421831,-0.1943 0,0 z m 3.444294,-0.8906 c -0.615485,-1.3312 -0.213082,-2.9892 0.790408,-4.0201 1.177629,-0.8271 2.81067,1.288 2.01174,2.0646 -1.241903,-0.6133 -2.296387,0.2603 -2.287792,1.5656 -0.199606,0.3359 -0.122148,1.4871 -0.514356,0.3899 z m 2.711553,-2.7633 c -0.460006,-0.6239 0.127041,0.837 0,0 z m -1.343264,0.01 c -0.673577,-0.5635 -0.758199,0.2529 0,0 z m -0.853221,-0.3853 c -0.268402,-0.076 0.180826,0.5235 0,0 z m 1.784313,-0.1382 c -0.551808,0.011 -0.08023,0.701 0,0 z m -0.450094,-0.1139 c -0.72661,-0.843 -0.541541,0.7362 0.07503,0.157 -0.02501,-0.052 -0.05003,-0.1047 -0.07503,-0.157 z m -5.584774,3.1892 c 0.06963,-0.8346 0.06979,0.8342 0,0 z m 1.722092,-1.3342 c 0.634855,-0.7463 1.27664,0.5575 0,0 z m -0.627942,-0.4692 c -0.694809,-1.5505 1.091578,0.9095 0,0 z m 1.327601,-0.5147 c -0.56077,-0.2462 -1.0846,-1.0281 -0.136251,-0.5773 0.690101,-0.095 0.310581,-2.3617 0.629115,-0.8084 -0.310132,0.3512 0.12165,1.8822 -0.492864,1.3857 z m -1.789323,-0.4069 c -0.176164,-0.9862 0.360221,0.52 -2e-6,0 l 2e-6,0 z m 2.547287,0.1596 c 0.05837,-0.4652 0.320107,0.4598 0,0 z m 0.408134,-0.9349 c -0.844529,-0.087 -0.400899,-2.1771 0.03531,-2.9409 0.320701,-1.3771 2.195234,-1.0747 2.554221,0.066 0.127958,-0.2794 -1.549626,-0.9626 -0.97288,0.076 0.254154,0.3935 0.918025,1.8838 1.155273,1.5012 -0.01485,-0.4429 0.02308,-1.4189 0.112114,-0.4118 0.116064,0.6177 0.243967,1.9756 -0.662322,1.0467 -0.486771,-0.4543 -0.334016,-2.188 -1.286524,-1.2403 -0.239205,0.7285 -0.149732,1.8284 -0.940401,2.1501 l 0.0052,-0.2463 0,-5e-4 z m 0.116609,-0.8726 c -0.190634,-0.6296 -0.151513,0.6177 0,0 z m 0.583049,-1.5034 c 0.890036,-0.7945 -0.566274,-0.9498 -0.471733,-0.069 -0.0019,0.3514 0.418057,0.5347 0.471733,0.069 z m 0.757964,-0.304 c -0.431042,-0.4492 -0.247797,0.43 0,0 z m -3.906427,2.3853 c -0.37345,-0.3163 -0.08268,-0.9833 -0.542362,-1.1062 0.0072,-1.3693 1.63437,1.6073 0.542362,1.1062 z m 3.265073,-4.7175 c -0.169977,-0.3796 0.69039,0.4234 0,0 z"
         id="path8849"
         inkscape:connector-curvature="0" />
      <path
         style="fill:#352814"
         d="m 8.8365032,1050.5735 c -0.4227861,-0.2083 -0.8759558,-1.1126 -0.2512633,-0.339 0.9256994,1.2593 2.3349851,-0.8716 2.3179201,-1.063 -0.208987,0.8516 -1.0905533,1.9875 -2.0666568,1.402 z m 11.6734228,-0.1238 c 0.307611,-0.402 0.02026,0.5038 0,0 z m -0.599284,-0.17 c -0.676752,-0.6092 0.862596,0.4871 0.03097,0.025 l -0.03097,-0.025 z m 1.730786,-0.5114 c 0.662567,-0.7216 -0.424899,0.8 0,0 z m -13.6526463,-0.2491 c -0.257273,-0.6764 0.3699007,0.4001 0,0 z m 11.2919463,0.055 c -0.126201,-0.4958 0.309846,0.3759 0,0 z m 1.238404,-0.06 c 0.117313,-0.4252 0.06236,0.5263 0,0 z M 9.022427,1049.156 c -0.736616,-0.2863 -0.2392699,-2.595 -0.1991536,-0.9414 -0.053924,1.4358 1.5865556,0.032 1.8373636,0.3772 -0.476436,0.1562 -1.1602266,1.0691 -1.63821,0.5642 z m 11.079102,-0.4323 c -0.336489,-0.4079 -0.183574,-1.8363 0.08722,-1.6196 -0.500658,0.4145 0.551753,2.3527 -0.08723,1.6195 l 6e-6,0 0,10e-5 z m 1.116304,-1.2737 c -0.268812,-0.3892 -0.924332,-1.0509 -0.0694,-0.5415 0.183081,0.1597 0.342811,1.3415 0.0694,0.5415 z m -2.164673,-0.4477 c 0.0175,-1.374 1.988479,-2.575 2.69934,-0.9569 0.101454,0.6243 -0.901257,-1.2759 -1.545972,-0.4362 -0.69496,0.2393 -0.83214,1.3379 -1.23425,1.5913 l 0.08088,-0.1977 0,-5e-4 z m 0.825085,-0.4362 c -0.168948,-0.5836 0.388818,0.159 0,0 z m -1.343268,-0.074 c 0.206362,-0.8403 0.621459,-0.3719 0,0 z m 0.583023,-1.2302 c 0.08872,-0.832 0.170638,0.9303 0,0 z m -0.936364,-0.5852 c -0.07985,-0.4579 0.665059,-1.8978 0.285017,-0.6399 -0.09809,0.2101 -0.104131,0.475 -0.285017,0.6399 z m -3.298132,-0.2004 c -1.228185,-0.8763 -1.181074,-2.6846 -0.723341,-3.9713 0.01451,-0.9111 2.185944,-1.4735 1.109677,-0.2435 -0.57266,1.0913 0.245641,2.6875 -0.483905,3.4951 0.444751,-0.387 1.186422,0.2297 0.348591,0.2791 -1.114131,0.3528 1.600806,0.3623 0.410729,0.6322 -0.230824,-0.02 -0.44994,-0.1026 -0.661751,-0.1916 z m -0.320676,-1.8906 c -0.298745,-0.4948 -0.287999,0.4765 0,0 z m 0.213249,-2.227 c 0.180769,-0.9817 -0.688934,0.7462 0,0 z m 4.334531,4.2341 c 0.0058,-0.7323 1.549016,-0.9444 0.394617,-0.3451 -0.105908,0.09 -0.218016,0.6295 -0.394617,0.3451 z m 1.609215,-0.048 c 0.693432,-0.2522 -0.0039,0.4501 0,0 z m -7.794331,-0.239 c -1.104631,-0.9417 -1.162223,-2.6935 -0.43389,-3.8789 -0.546308,-1.2264 2.563728,-1.7432 1.420865,-0.1799 -0.363309,0.8788 -1.701467,1.9969 -0.515161,2.38 0.04443,0.6485 1.063041,1.4931 0.606976,1.9255 -0.372756,0.048 -0.755555,-0.066 -1.07879,-0.2467 z m 0.937677,-0.1271 c -0.150888,-0.7853 -2.038094,-1.3291 -1.030088,-0.1967 0.248845,0.2228 0.746675,0.5324 1.030088,0.1967 z m -1.341012,-1.2431 c -0.190996,-0.4402 -0.30876,0.3719 0,0 z m 0.923147,-2.607 c -0.670415,-0.6966 0.136891,0.7139 0,0 z m 0.323935,-0.7986 c -0.710091,-0.2075 -0.124867,0.8556 0,0 z m 3.125784,4.8158 c 1.125729,-0.5759 -0.910668,-1.7647 -0.491496,-2.7251 -0.330935,-0.081 -0.361593,2.4424 -0.972355,0.8693 -0.13178,-0.6298 0.135545,-1.64 0.306145,-0.4527 0.09771,-0.4837 0.909308,-1.1348 0.235088,-1.6098 -0.999753,0.3979 0.564944,-0.9673 0.830343,0.065 -0.06364,0.4394 -0.593498,0.8205 0.0942,0.2721 0.955792,-0.4291 -0.789542,0.9052 -0.172462,1.4047 0.116843,0.5477 1.841494,2.7099 0.170541,2.1761 z m -0.746488,-0.3797 c -0.36762,-0.9487 1.163317,0.3887 0.103497,0.1192 -0.0345,-0.04 -0.069,-0.08 -0.103497,-0.1192 z m -5.319671,-0.3606 c -0.08088,-0.1324 1.373497,-0.8694 0.873777,-0.028 -0.202138,0.2536 -0.68607,0.3642 -0.873777,0.028 z m 8.048525,-0.665 c 0.22649,-0.6437 1.905629,-0.8641 0.596878,-0.2639 -0.1576,0.1304 -0.368359,0.3444 -0.596878,0.2639 z m -9.0863558,-0.656 c 0.1173279,-0.4252 0.062343,0.5263 0,0 z m 7.3080568,-2.0532 c -0.358598,-0.3836 0.58314,-0.812 0.518505,-1.0675 0.661316,0.054 -0.177744,1.385 -0.518505,1.0675 z m -0.674911,-0.7987 c 0.830838,-0.8058 0.357799,0.5278 -0.259019,0.2633 0.07247,-0.1017 0.168016,-0.1793 0.259019,-0.2633 z m 3.294509,-0.3868 c -0.406877,-0.4221 -1.251595,-1.8292 -1.502284,-0.5387 -0.403939,0.7939 -1.602007,-0.201 -0.966242,-0.8923 0.227573,-1.5363 2.428648,-1.935 2.782738,-0.2751 0.402582,1.5313 -0.180518,-0.9346 -1.053071,-0.6248 -0.742726,-0.4786 -1.592317,0.5805 -0.485457,0.7136 0.963933,0.1765 1.170453,1.1381 1.630814,1.7285 -0.147093,0.025 -0.278553,-0.058 -0.406498,-0.1112 z m -3.102714,-1.7753 c -0.167361,-0.8876 0.852051,0.254 0.06165,0.1093 l -0.06165,-0.1093 z m -4.781,-0.4664 c 0.0039,-0.7112 1.133854,0.6608 0.10423,0.1465 l -0.04669,-0.066 -0.05754,-0.081 z m 4.596171,-0.8748 c -0.382523,-0.5423 0.733689,-2.2836 0.566194,-1.3086 -0.61897,0.2361 -0.240318,1.9836 -0.55811,1.7535 -0.0066,-0.1482 -0.0084,-0.2966 -0.0081,-0.4449 z m 0.677087,0.5345 c -0.103283,-0.4597 0.271158,-2.0164 0.401689,-0.8453 -0.08288,0.1382 -0.139887,1.1407 -0.401689,0.8453 z m 1.372251,-1.0488 c -0.848716,-0.2412 -0.840348,-0.8665 0.03092,-0.9344 0.473884,-0.532 1.447945,0.061 0.399897,0.2633 -0.900817,-0.057 0.309814,1.3139 -0.430821,0.6664 l 0,0 z m 0.630125,0.1159 c 0.308649,-0.6075 0.204886,0.5655 0,0 z m -6.754721,-0.1673 c -0.793273,-0.3135 1.376354,-0.409 0.894045,-0.7225 -0.02705,0.4162 -0.43914,0.9093 -0.894045,0.7225 z m 3.63541,-0.9288 c -0.21201,-0.39 -0.104751,-1.4999 0.0057,-0.4853 0.715394,-0.4721 -0.821289,-0.9843 -0.156743,-1.6772 0.186516,-1.0641 1.404217,-2.5469 2.432704,-1.3909 0.719473,0.4221 -0.0295,1.2074 -0.04712,0.2371 -0.398869,-0.506 -0.783505,0.081 -1.140106,-0.2798 -0.766625,0.9431 0.522824,0.6897 0.800056,0.5437 -0.258278,0.7994 0.843196,1.2062 1.224198,1.4972 -0.573161,0.42 -2.14172,-1.2533 -2.211085,0.3083 -0.365653,0.072 -0.782605,2.0464 -0.907599,1.2469 z m -4.280429,0 c 0.02034,-0.5718 0.342573,0.3599 0,0 z m 6.359459,-0.3093 c 0.117309,-0.4252 0.06237,0.5263 0,0 z m -6.348303,-0.3401 c 0.110445,-0.6841 0.241047,0.6284 0,0 z m 5.406218,0.067 c -0.01564,-1.0756 2.324931,-0.2819 1.64542,-0.019 -0.514622,-0.3618 -1.099549,0.014 -1.64542,0.019 z m -4.314561,-0.125 c 0.29902,-0.4947 0.287545,0.4768 0,0 z m 1.166098,-0.5413 c 0.147227,-0.5254 0.623425,-0.6918 0,0 z m 1.184881,-1.2078 c -0.371777,-0.3934 -0.231729,-2.371 -0.02591,-0.9466 0.947596,-0.1498 0.146119,-1.5893 -0.0584,-1.3505 0.11525,-1.216 1.585063,-2.4863 2.558546,-1.2417 0.418707,0.3353 0.910845,1.9608 -0.10929,1.4505 1.442288,-0.5033 -1.003724,-2.6052 -1.760609,-1.2801 -0.637361,0.7372 0.217746,1.5217 0.940102,0.9227 0.863857,0.2372 0.389731,0.5973 -0.183134,0.352 -0.910465,0.4018 -0.668839,2.243 -1.194129,2.4695 l -0.08865,-0.2224 -0.07852,-0.1534 3e-6,0 z m -2.420979,0.144 c -0.554702,-0.6637 -0.182441,-0.463 0.356237,-0.1598 0.496299,-0.2887 0.81438,-1.2433 0.49559,-0.1375 -0.145606,0.3032 -0.54611,0.5325 -0.851827,0.2973 z m 1.702537,-0.9156 c -0.984405,-0.2173 0.612456,-0.6172 0.0322,0.1606 l -0.0322,-0.1606 z m -2.235709,-0.2203 c -0.218405,-0.7743 0.681546,-0.5478 0,0 z m 1.069611,-0.5309 c 0.297923,-0.2634 0.232166,0.4389 0,0 z m 0.11661,-1.2758 c -0.02111,-0.479 0.57422,0.3772 0,0 z m 1.752855,-0.9621 c -0.276596,-0.2217 -0.727665,0.032 -0.472183,-0.691 0.186318,-0.019 0.727178,0.3913 0.825931,0.015 0.01933,0.1458 -0.134977,0.9767 -0.353748,0.6756 z m -0.909533,-0.3207 c 0.0697,-0.8345 0.06972,0.8345 0,0 z m 3.063105,-0.2147 c -1.177756,-0.9667 1.35333,0.06 0.155299,0.1275 l -0.155299,-0.1275 z m -1.690456,-0.309 c -0.420202,-0.7129 0.359818,-2.0549 0.94642,-1.2368 -1.087503,-0.4976 -0.533843,2.056 -0.94642,1.2368 z m -3.382069,-0.4674 c -0.330388,-0.6294 0.542947,0.4123 0,0 z m 2.403252,-0.2041 c -0.127509,-0.6043 0.758412,-1.3057 0.335612,-0.3251 0.0829,0.2658 -0.492426,1.0403 -0.335612,0.3251 z m 2.270345,-0.039 c 0.117313,-0.4252 0.06236,0.5263 0,0 z m -1.087846,-1.7683 c -0.654459,-0.9863 2.122693,0.1437 0.476515,-0.071 l -0.236224,0.061 -0.240291,0.011 0,0 z"
         id="path8847"
         inkscape:connector-curvature="0" />
    </g>
  </g>
</svg>
