<?xml version="1.0" encoding="UTF-8" standalone="no"?>
<!-- Created with Inkscape (http://www.inkscape.org/) -->

<svg
   xmlns:dc="http://purl.org/dc/elements/1.1/"
   xmlns:cc="http://creativecommons.org/ns#"
   xmlns:rdf="http://www.w3.org/1999/02/22-rdf-syntax-ns#"
   xmlns:svg="http://www.w3.org/2000/svg"
   xmlns="http://www.w3.org/2000/svg"
   xmlns:sodipodi="http://sodipodi.sourceforge.net/DTD/sodipodi-0.dtd"
   xmlns:inkscape="http://www.inkscape.org/namespaces/inkscape"
   id="svg3103"
   version="1.1"
   inkscape:version="0.48.4 r9939"
   width="617.0625"
   height="214.5625"
   sodipodi:docname="logo_stroke.svg"
   inkscape:export-filename="/home/default/bowanddrape/couture/public/logo.png"
   inkscape:export-xdpi="1200.24"
   inkscape:export-ydpi="1200.24">
  <metadata
     id="metadata3109">
    <rdf:RDF>
      <cc:Work
         rdf:about="">
        <dc:format>image/svg+xml</dc:format>
        <dc:type
           rdf:resource="http://purl.org/dc/dcmitype/StillImage" />
        <dc:title></dc:title>
      </cc:Work>
    </rdf:RDF>
  </metadata>
  <defs
     id="defs3107" />
  <sodipodi:namedview
     pagecolor="#ffffff"
     bordercolor="#666666"
     borderopacity="1"
     objecttolerance="10"
     gridtolerance="10"
     guidetolerance="10"
     inkscape:pageopacity="0"
     inkscape:pageshadow="2"
     inkscape:window-width="1172"
     inkscape:window-height="715"
     id="namedview3105"
     showgrid="false"
     fit-margin-top="0"
     fit-margin-left="0"
     fit-margin-right="0"
     fit-margin-bottom="0"
     inkscape:zoom="1.1047619"
     inkscape:cx="307.00584"
     inkscape:cy="100.03805"
     inkscape:window-x="192"
     inkscape:window-y="24"
     inkscape:window-maximized="0"
     inkscape:current-layer="svg3103" />
  <g
     style="fill:none;stroke:#000000;stroke-width:2.4000001;stroke-linecap:square;stroke-miterlimit:4;stroke-opacity:1;stroke-dasharray:none;stroke-dashoffset:0"
     id="g3092"
     transform="matrix(1.25,0,0,-1.25,386.23046,151.1112)" />
  <g
     style="fill:none;stroke:#000000;stroke-width:2.4000001;stroke-linecap:square;stroke-miterlimit:4;stroke-opacity:1;stroke-dasharray:none;stroke-dashoffset:0"
     id="g3096"
     transform="matrix(1.25,0,0,-1.25,134.45071,100.63145)" />
  <g
     style="fill:none;stroke:#000000;stroke-width:2.4000001;stroke-linecap:square;stroke-miterlimit:4;stroke-opacity:1;stroke-dasharray:none;stroke-dashoffset:0"
     id="g3100"
     transform="matrix(1.25,0,0,-1.25,270.99609,73.602698)" />
  <g
     style="fill:none;stroke:#000000;stroke-width:2.4000001;stroke-linecap:square;stroke-miterlimit:4;stroke-opacity:1;stroke-dasharray:none;stroke-dashoffset:0"
     id="g3104"
     transform="matrix(1.25,0,0,-1.25,76.19634,99.264323)" />
  <g
     style="fill:none;stroke:#000000;stroke-width:2.4000001;stroke-linecap:square;stroke-miterlimit:4;stroke-opacity:1;stroke-dasharray:none;stroke-dashoffset:0"
     id="g3108"
     transform="matrix(1.25,0,0,-1.25,228.20809,52.284323)" />
  <g
     style="fill:none;stroke:#000000;stroke-width:2.4000001;stroke-linecap:square;stroke-miterlimit:4;stroke-opacity:1;stroke-dasharray:none;stroke-dashoffset:0"
     id="g3112"
     transform="matrix(1.25,0,0,-1.25,332.89184,99.265448)" />
  <g
     style="fill:none;stroke:#000000;stroke-width:2.4000001;stroke-linecap:square;stroke-miterlimit:4;stroke-opacity:1;stroke-dasharray:none;stroke-dashoffset:0"
     id="g3116"
     transform="matrix(1.25,0,0,-1.25,411.95809,105.00157)" />
  <g
     style="fill:none;stroke:#000000;stroke-width:2.4000001;stroke-linecap:square;stroke-miterlimit:4;stroke-opacity:1;stroke-dasharray:none;stroke-dashoffset:0"
     id="g3120"
     transform="matrix(1.25,0,0,-1.25,439.49097,88.133948)" />
  <g
     style="fill:none;stroke:#000000;stroke-width:2.4000001;stroke-linecap:square;stroke-miterlimit:4;stroke-opacity:1;stroke-dasharray:none;stroke-dashoffset:0"
     id="g3124"
     transform="matrix(1.25,0,0,-1.25,505.08672,79.547448)" />
  <path
     style="fill:none;stroke:#000000;stroke-width:3.75;stroke-linecap:square;stroke-miterlimit:4;stroke-opacity:1;stroke-dasharray:none;stroke-dashoffset:0"
     d="m 449.9375,50.34375 -23.625,54.71875 7.3125,0 c 0,0 -0.265,-2.7325 1.78125,-7.46875 L 437,93.9375 l 25.90625,0 1.59375,3.65625 c 2.0475,4.73625 1.75,7.46875 1.75,7.46875 l 7.34375,0 -23.65625,-54.71875 z"
     id="path4113"
     inkscape:connector-curvature="0" />
  <path
     style="fill:none;stroke:#000000;stroke-width:3.75;stroke-linecap:square;stroke-miterlimit:4;stroke-opacity:1;stroke-dasharray:none;stroke-dashoffset:0"
     d="m 134.4375,50.90625 c -15.30375,0 -27.75,12.44625 -27.75,27.75 0,15.3025 12.44625,27.78125 27.75,27.78125 15.30375,0 27.78125,-12.47875 27.78125,-27.78125 0,-15.30375 -12.4775,-27.75 -27.78125,-27.75 z"
     id="path4111"
     inkscape:connector-curvature="0" />
  <path
     style="fill:none;stroke:#000000;stroke-width:3.75;stroke-linecap:square;stroke-miterlimit:4;stroke-opacity:1;stroke-dasharray:none;stroke-dashoffset:0"
     d="m 55.656252,52.28125 c 0,0 1.0625,1.57625 1.0625,6.90625 l -0.03125,38.96875 c 0,5.33 -1.03125,6.90625 -1.03125,6.90625 l 20.5625,0 c 9.38125,-0.06 17.03125,-7.745 17.03125,-17.125 0,-5.6075 -3.13,-10.473749 -7.71875,-13 2.65,-2.07875 4.375,-5.31 4.375,-8.9375 0,-7.555 -6.16375,-13.71875 -13.71875,-13.71875 l -20.53125,0 z"
     id="path4109"
     inkscape:connector-curvature="0" />
  <path
     style="fill:none;stroke:#000000;stroke-width:3.75;stroke-linecap:square;stroke-miterlimit:4;stroke-opacity:1;stroke-dasharray:none;stroke-dashoffset:0"
     d="M 171.40625,52.28125 195.03125,107 203.46875,87.53125 211.90625,107 235.5625,52.28125 l -7.34375,0 c 0,0.005 0.265,2.73625 -1.78125,7.46875 L 211.90625,93.40625 197.34375,59.75 c -2.04375,-4.7325 -1.75,-7.46375 -1.75,-7.46875 l -7.34375,0 12.28125,28.4375 -5.46875,12.6875 L 180.5,59.75 c -2.045,-4.73125 -1.78125,-7.46375 -1.78125,-7.46875 l -7.3125,0 z"
     id="path4107"
     inkscape:connector-curvature="0" />
  <path
     style="fill:none;stroke:#000000;stroke-width:3.75;stroke-linecap:square;stroke-miterlimit:4;stroke-opacity:1;stroke-dasharray:none;stroke-dashoffset:0"
     d="m 318.09375,52.28125 c 0,0 1.0625,1.5775 1.0625,6.90625 l -0.0312,38.96875 c 0,5.32875 -1.03125,6.90625 -1.03125,6.90625 l 15.25,0 c 14.34625,-0.24 25.9375,-12.006249 25.9375,-26.40625 0,-14.549999 -11.82375,-26.375 -26.375,-26.375 l -14.8125,0 z"
     id="path4105"
     inkscape:connector-curvature="0" />
  <path
     style="fill:none;stroke:#000000;stroke-width:3.75;stroke-linecap:square;stroke-miterlimit:4;stroke-opacity:1;stroke-dasharray:none;stroke-dashoffset:0"
     d="m 375.15625,52.28125 c 0,0 1.03125,1.57625 1.03125,6.90625 l 0,38.96875 c 0,5.33 -1.03125,6.90625 -1.03125,6.90625 l 7.90625,0 c 0,0 -1.0625,-1.5775 -1.0625,-6.90625 l 0,-40.09375 10.78125,0.03125 c 5.43625,0 9.84375,4.41 9.84375,9.84375 0,0.03125 0,0.06125 0,0.09375 -0.004,0.3725 -0.0275,0.72875 -0.0625,1.09375 -0.006,0.06 0.006,0.125 0,0.1875 -0.0387,0.36125 -0.0888,0.740001 -0.15625,1.09375 -0.005,0.02625 -0.025,0.03375 -0.0312,0.0625 -1.02875,5.1275 -5.11625,9.136251 -10.28125,10.0625 1.385,0.807501 2.715,1.72375 3.9375,2.75 0.18125,0.150001 0.355,0.31375 0.53125,0.46875 5.11875,4.5075 8.58,10.836251 9.40625,17.96875 0.215,2.4725 -0.25,3.34375 -0.25,3.34375 l 0.4375,0 5.8125,0 c 0,-0.0175 0.006,-0.0487 0,-0.0625 -0.015,-9.36625 -4.075,-17.7825 -10.5,-23.625 3.90125,-2.7725 6.54625,-7.191249 6.90625,-12.25 0.004,-0.06 -0.002,-0.128749 0,-0.1875 0.0163,-0.2775 0.0275,-0.5625 0.0312,-0.84375 0,-0.04125 0.0312,-0.08375 0.0312,-0.125 l 0,-0.03125 c 0,-8.6425 -7.01375,-15.65625 -15.65625,-15.65625 l -17.625,0 z"
     id="path4103"
     inkscape:connector-curvature="0" />
  <path
     style="fill:none;stroke:#000000;stroke-width:3.75;stroke-linecap:square;stroke-miterlimit:4;stroke-opacity:1;stroke-dasharray:none;stroke-dashoffset:0"
     d="m 488.625,52.28125 c 0,0 1.03125,1.57625 1.03125,6.90625 l 0,38.96875 c 0,5.33 -1.03125,6.90625 -1.03125,6.90625 l 7.90625,0 c 0,0 -1.0625,-1.57625 -1.0625,-6.90625 l 0,-12.8125 9.625,0 c 9.12,0 16.53125,-7.412499 16.53125,-16.53125 0,-9.117499 -7.41125,-16.531249 -16.53125,-16.531249 l -16.46875,0 z"
     id="path4101"
     inkscape:connector-curvature="0" />
  <path
     style="fill:none;stroke:#000000;stroke-width:3.75;stroke-linecap:square;stroke-miterlimit:4;stroke-opacity:1;stroke-dasharray:none;stroke-dashoffset:0"
     d="m 536.71875,52.28125 c 0,0 1.0625,1.57625 1.0625,6.90625 L 537.75,98.15625 c 0,5.33 -1.03125,6.90625 -1.03125,6.90625 l 29.625,0 0,-6.84375 c 0,0 -1.5475,1.03125 -6.875,1.03125 l -15.90625,0.03125 0,-17.71875 9.21875,0 c 5.32875,0 6.875,1.0625 6.875,1.0625 l 0,-7.90625 c 0,0 -1.54625,1.0625 -6.875,1.0625 l -9.21875,0 0,-17.718749 15.90625,0 c 5.3275,0 6.875,1.062499 6.875,1.062499 l 0,-6.843749 -29.625,0 z"
     id="path4099"
     inkscape:connector-curvature="0" />
  <path
     style="fill:none;stroke:#000000;stroke-width:3.75;stroke-linecap:square;stroke-miterlimit:4;stroke-opacity:1;stroke-dasharray:none;stroke-dashoffset:0"
     d="m 134.4375,56.71875 c 12.11,0 21.96875,9.8275 21.96875,21.9375 0,12.10875 -9.85875,21.96875 -21.96875,21.96875 -12.11,0 -21.9375,-9.86 -21.9375,-21.96875 0,-12.11 9.8275,-21.9375 21.9375,-21.9375 z"
     id="path4097"
     inkscape:connector-curvature="0" />
  <path
     style="fill:none;stroke:#000000;stroke-width:3.75;stroke-linecap:square;stroke-miterlimit:4;stroke-opacity:1;stroke-dasharray:none;stroke-dashoffset:0"
     d="m 62.500002,58.0625 13.6875,0 c 4.36125,0 7.90625,3.57625 7.90625,7.9375 0,4.146251 -2.47375,7.835001 -6.3125,9.40625 l -1.375,0.5625 1.46875,0.28125 c 5.55375,1.10125 9.5625,6.01625 9.5625,11.6875 0,6.2075 -5.045,11.27375 -11.25,11.3125 l -13.6875,0 0,-41.1875 z"
     id="path4095"
     inkscape:connector-curvature="0" />
  <path
     style="fill:none;stroke:#000000;stroke-width:3.75;stroke-linecap:square;stroke-miterlimit:4;stroke-opacity:1;stroke-dasharray:none;stroke-dashoffset:0"
     d="m 324.9375,58.0625 7.96875,0 c 11.35625,0 20.59375,9.23625 20.59375,20.59375 0,11.356251 -9.2375,20.59375 -20.59375,20.59375 l -7.96875,0 0,-41.1875 z"
     id="path4093"
     inkscape:connector-curvature="0" />
  <path
     style="fill:none;stroke:#000000;stroke-width:3.75;stroke-linecap:square;stroke-miterlimit:4;stroke-opacity:1;stroke-dasharray:none;stroke-dashoffset:0"
     d="m 495.46875,58.0625 10.21875,0 c 5.68125,0.322501 10.15625,5.056251 10.15625,10.75 0,5.926251 -4.825,10.75 -10.75,10.75 l -9.625,0 0,-21.499999 z"
     id="path4091"
     inkscape:connector-curvature="0" />
  <path
     style="fill:none;stroke:#000000;stroke-width:3.75;stroke-linecap:square;stroke-miterlimit:4;stroke-opacity:1;stroke-dasharray:none;stroke-dashoffset:0"
     d="m 271,60.28125 c -4.36,0 -7.90625,3.543751 -7.90625,7.90625 0,1.7025 0.52875,3.3275 1.5,4.65625 l 0.0312,0.03125 3.4375,4.90625 -11.15625,15.9375 -0.0625,0.0625 -0.65625,0.9375 2.46875,3.5625 c 2.0375,-1.146249 4.365,-1.75 6.71875,-1.75 1.95,0 3.8275,0.396251 5.59375,1.187501 l 0.0937,0.03125 c 1.6775,0.733751 3.46625,1.125 5.3125,1.125 3.615,0 6.98,-1.417499 9.5,-4 l -2.84375,-4.0625 c -1.60375,2.038751 -4.06125,3.25 -6.65625,3.25 -1.13125,0 -2.2175,-0.226249 -3.25,-0.65625 l -0.1875,-0.09375 c -2.3875,-1.067499 -4.93125,-1.59375 -7.5625,-1.59375 -0.23,0 -0.45875,-0.01 -0.6875,0 l -0.53115,0.03125 6.84375,-9.78125 5.125,7.34375 3.9375,-2.78125 -6.125,-8.75 3.4375,-4.875 c 1.00875,-1.367499 1.53125,-3.01625 1.53125,-4.71875 0,-4.362499 -3.54625,-7.90625 -7.90625,-7.90625 z"
     id="path4089"
     inkscape:connector-curvature="0" />
  <path
     style="fill:none;stroke:#000000;stroke-width:3.75;stroke-linecap:square;stroke-miterlimit:4;stroke-opacity:1;stroke-dasharray:none;stroke-dashoffset:0"
     d="m 449.9375,63.9375 10.46875,24.1875 -20.90625,0 10.4375,-24.1875 z"
     id="path4087"
     inkscape:connector-curvature="0" />
  <path
     style="fill:none;stroke:#000000;stroke-width:3.75;stroke-linecap:square;stroke-miterlimit:4;stroke-opacity:1;stroke-dasharray:none;stroke-dashoffset:0"
     d="m 271,65.09375 c 1.71,0 3.09375,1.383751 3.09375,3.09375 0,0.678751 -0.21875,1.337501 -0.625,1.875 L 271,73.59375 268.53125,70.0625 c -0.41125,-0.545 -0.625,-1.196249 -0.625,-1.875 0,-1.709999 1.3825,-3.09375 3.09375,-3.09375 z"
     id="path4085"
     inkscape:connector-curvature="0" />
  <path
     style="fill:none;stroke:#000000;stroke-width:2;stroke-linecap:square;stroke-miterlimit:4;stroke-opacity:1;stroke-dasharray:none;stroke-dashoffset:0"
     d="m 274.40625,145.8125 -3.3125,7.75 -2.53125,-7.5 -1.96875,0 4.21875,11.9375 0.0937,0 3.5625,-8.21875 3.46875,8.21875 0.125,0 4.125,-11.9375 -1.84375,0 -2.46875,7.5 -3.34375,-7.75 -0.125,0 z"
     id="path4083"
     inkscape:connector-curvature="0" />
  <path
     style="fill:none;stroke:#000000;stroke-width:2;stroke-linecap:square;stroke-miterlimit:4;stroke-opacity:1;stroke-dasharray:none;stroke-dashoffset:0"
     d="m 221.6875,145.875 0,11.96875 1.71875,0 0,-7.75 7.5625,7.90625 0.125,0 0,-11.9375 -1.71875,0 0,7.71875 -7.5625,-7.90625 -0.125,0 z"
     id="path4081"
     inkscape:connector-curvature="0" />
  <path
     style="fill:none;stroke:#000000;stroke-width:2;stroke-linecap:square;stroke-miterlimit:4;stroke-opacity:1;stroke-dasharray:none;stroke-dashoffset:0"
     d="m 339.15625,145.9062 c -3.3775,0 -6.09375,2.54875 -6.09375,6.03125 0,3.4825 2.71625,6.0625 6.09375,6.0625 3.37875,0 6.09375,-2.58 6.09375,-6.0625 0,-3.4825 -2.715,-6.03125 -6.09375,-6.03125 z"
     id="path4079"
     inkscape:connector-curvature="0" />
  <path
     style="fill:none;stroke:#000000;stroke-width:2;stroke-linecap:square;stroke-miterlimit:4;stroke-opacity:1;stroke-dasharray:none;stroke-dashoffset:0"
     d="m 245.78125,146.06245 0,11.78125 7.71875,0 0,-1.65625 -5.875,0 0,-3.5 5,0 0,-1.625 -5,0 0,-3.375 5.65625,0 0,-1.625 -7.5,0 z"
     id="path4077"
     inkscape:connector-curvature="0" />
  <path
     style="fill:none;stroke:#000000;stroke-width:2;stroke-linecap:square;stroke-miterlimit:4;stroke-opacity:1;stroke-dasharray:none;stroke-dashoffset:0"
     d="m 310.96875,146.06245 4.125,7.0625 0,4.71875 1.84375,0 0,-4.71875 4,-7.0625 -1.9375,0 -2.96875,5.28125 -3,-5.28125 -2.0625,0 z"
     id="path4075"
     inkscape:connector-curvature="0" />
  <path
     style="fill:none;stroke:#000000;stroke-width:2;stroke-linecap:square;stroke-miterlimit:4;stroke-opacity:1;stroke-dasharray:none;stroke-dashoffset:0"
     d="m 359.34375,146.06245 0,11.78125 1.875,0 0,-4.34375 1.90625,0 0.21875,0 2.65625,4.34375 2,0 -2.84375,-4.6875 c 1.47375,-0.5375 2.3125,-1.72875 2.3125,-3.375 0,-2.235 -1.58875,-3.71875 -4.34375,-3.71875 l -3.78125,0 z"
     id="path4073"
     inkscape:connector-curvature="0" />
  <path
     style="fill:none;stroke:#000000;stroke-width:2;stroke-linecap:square;stroke-miterlimit:4;stroke-opacity:1;stroke-dasharray:none;stroke-dashoffset:0"
     d="m 381.84375,146.06245 0,11.78125 1.84375,0 0,-3.78125 L 385,152.5 l 3.75,5.34375 2.25,0 -4.78125,-6.71875 4.1875,-5.0625 -2.09375,0 -4.625,5.6875 0,-5.6875 -1.84375,0 z"
     id="path4071"
     inkscape:connector-curvature="0" />
  <path
     style="fill:none;stroke:#000000;stroke-width:2;stroke-linecap:square;stroke-miterlimit:4;stroke-opacity:1;stroke-dasharray:none;stroke-dashoffset:0"
     d="m 339.15625,147.56245 c 2.4425,0 4.15625,1.87875 4.15625,4.375 0,2.49375 -1.71375,4.375 -4.15625,4.375 -2.44375,0 -4.15625,-1.88125 -4.15625,-4.375 0,-2.49625 1.7125,-4.375 4.15625,-4.375 z"
     id="path4069"
     inkscape:connector-curvature="0" />
  <path
     style="fill:none;stroke:#000000;stroke-width:2;stroke-linecap:square;stroke-miterlimit:4;stroke-opacity:1;stroke-dasharray:none;stroke-dashoffset:0"
     d="m 361.21875,147.68745 1.84375,0 c 1.73375,0 2.46875,0.6725 2.46875,2.09375 0,1.40375 -0.71875,2.125 -2.46875,2.125 l -1.84375,0 0,-4.21875 z"
     id="path3130"
     inkscape:connector-curvature="0" />
</svg>
