<?xml version="1.0" encoding="UTF-8" standalone="no"?>
<!-- Created with Inkscape (http://www.inkscape.org/) -->

<svg
   xmlns:dc="http://purl.org/dc/elements/1.1/"
   xmlns:cc="http://creativecommons.org/ns#"
   xmlns:rdf="http://www.w3.org/1999/02/22-rdf-syntax-ns#"
   xmlns:svg="http://www.w3.org/2000/svg"
   xmlns="http://www.w3.org/2000/svg"
   xmlns:sodipodi="http://sodipodi.sourceforge.net/DTD/sodipodi-0.dtd"
   xmlns:inkscape="http://www.inkscape.org/namespaces/inkscape"
   id="svg3103"
   version="1.1"
   inkscape:version="0.48.4 r9939"
   width="400.0878"
   height="44.864922"
   sodipodi:docname="bad-logo.png">
  <metadata
     id="metadata3109">
    <rdf:RDF>
      <cc:Work
         rdf:about="">
        <dc:format>image/svg+xml</dc:format>
        <dc:type
           rdf:resource="http://purl.org/dc/dcmitype/StillImage" />
        <dc:title></dc:title>
      </cc:Work>
    </rdf:RDF>
  </metadata>
  <defs
     id="defs3107" />
  <sodipodi:namedview
     pagecolor="#ffffff"
     bordercolor="#666666"
     borderopacity="1"
     objecttolerance="10"
     gridtolerance="10"
     guidetolerance="10"
     inkscape:pageopacity="0"
     inkscape:pageshadow="2"
     inkscape:window-width="1172"
     inkscape:window-height="715"
     id="namedview3105"
     showgrid="false"
     fit-margin-top="0"
     fit-margin-left="0"
     fit-margin-right="0"
     fit-margin-bottom="0"
     inkscape:zoom="0.55238095"
     inkscape:cx="631.81034"
     inkscape:cy="-23.949398"
     inkscape:window-x="364"
     inkscape:window-y="180"
     inkscape:window-maximized="0"
     inkscape:current-layer="svg3103" />
  <g
     id="g3113"
     transform="matrix(0.3175296,0,0,0.3175296,0,0.03958345)">
    <path
       style="fill:#1a1a1a"
       d="m 184.49489,139.43967 c -0.62644,-0.98247 -3.77249,-1.97528 -8.49489,-2.68076 -5.16194,-0.77114 -8.38121,-1.84343 -10.32673,-3.43967 C 164.11858,132.04366 162.27493,131 161.57628,131 c -0.69864,0 -2.30797,-0.9 -3.57628,-2 -1.26831,-1.1 -2.69126,-2 -3.16211,-2 -0.47085,0 -2.24423,-1.32658 -3.94084,-2.94795 -1.69661,-1.62137 -3.38001,-3.08387 -3.7409,-3.25 C 145.4867,120.03354 136.18581,108.22451 135.49794,106 c -0.42518,-1.375 -1.61116,-3.57319 -2.6355,-4.88486 -1.02434,-1.311671 -1.87648,-3.336671 -1.89365,-4.499999 C 130.95163,95.451814 129.82893,92.7 128.47391,90.5 c -2.3489,-3.81367 -2.46366,-4.74532 -2.46366,-20 0,-15.25468 0.11476,-16.18633 2.46366,-20 1.35502,-2.2 2.47772,-4.951814 2.49488,-6.115141 0.0172,-1.163328 0.86931,-3.188328 1.89365,-4.5 1.02434,-1.311673 2.21032,-3.509859 2.6355,-4.884859 0.72717,-2.351587 10.05803,-14.087734 11.80816,-14.852035 0.44336,-0.193619 1.62924,-1.235567 2.6353,-2.315439 C 152.32289,15.276291 162.07586,9 163.66659,9 c 0.67872,0 1.64993,-0.7431748 2.15826,-1.6514995 0.63168,-1.1287599 3.57526,-2.073126 9.29969,-2.9835511 5.03028,-0.8000272 8.81889,-1.9377249 9.4857,-2.8485006 1.61545,-2.20648935 18.18399,-2.18011826 19.80117,0.031516 0.68749,0.9401947 4.06809,1.9784017 8.61025,2.6442685 5.24686,0.7691751 8.32181,1.7992351 10.30507,3.4520349 1.55469,1.2956523 3.35469,2.3639208 4,2.3739288 2.37796,0.03688 10.35137,6.309901 17.41254,13.699181 3.9934,4.178965 7.26073,7.957148 7.26073,8.395961 0,0.438814 1.125,2.455623 2.5,4.481799 1.375,2.026176 2.5,4.479631 2.5,5.452122 0,0.972492 1.2375,4.15342 2.75,7.068729 2.67291,5.151981 2.74907,5.753192 2.7169,21.447876 -0.032,15.5843 -0.12784,16.329905 -2.75,21.384011 C 258.2226,94.828059 257,97.980248 257,98.95274 c 0,0.972491 -1.125,3.42595 -2.5,5.45212 -1.375,2.02618 -2.5,4.04299 -2.5,4.4818 0,0.43881 -3.26733,4.217 -7.26073,8.39596 -7.06117,7.38928 -15.03458,13.6623 -17.41254,13.69918 -0.64531,0.01 -2.45456,1.09633 -4.02057,2.41404 -2.09747,1.7649 -4.6538,2.58929 -9.70719,3.13046 -4.62031,0.4948 -7.47027,1.345 -8.72944,2.60417 -2.53541,2.53541 -18.79783,2.7822 -20.37464,0.3092 z m 20.56585,-15.71863 c 1.34159,-0.8652 4.20371,-1.89589 6.36027,-2.29044 11.09955,-2.03066 25.09152,-14.05578 31.11911,-26.7447 0.83236,-1.752245 2.16971,-4.3109 2.97189,-5.6859 2.09052,-3.583318 2.09639,-33.401116 0.007,-37 -0.79816,-1.375 -2.37786,-4.3 -3.51042,-6.5 C 238.18945,38.081363 236.513,35.666186 233.03846,32.577185 231.13506,30.884733 228.6756,28.6 227.57328,27.5 225.04074,24.972787 217.84261,21.292199 212,19.536983 c -2.475,-0.743531 -6.3,-2.048772 -8.5,-2.900536 -5.08804,-1.969911 -12.85979,-1.982077 -18,-0.02818 -2.2,0.836266 -6.025,2.113713 -8.5,2.838771 -2.475,0.725057 -6.54813,2.484613 -9.05141,3.910122 -6.32953,3.604402 -16.82928,13.31929 -17.56545,16.25242 -0.33642,1.340392 -1.36172,2.989078 -2.27846,3.663747 -0.91674,0.674669 -2.89032,4.881218 -4.38574,9.347887 -3.80129,11.354096 -3.84742,24.433538 -0.12449,35.303604 1.42694,4.166349 3.40022,8.47518 4.38506,9.57518 0.98484,1.1 2.09307,2.998032 2.46274,4.217842 1.59623,5.26725 18.89823,18.13675 26.55775,19.75408 1.925,0.40647 4.85,1.32624 6.5,2.04392 1.65,0.71769 3.675,1.56213 4.5,1.87652 2.81721,1.0736 14.59322,-0.08 17.06074,-1.67132 z M 383.5901,135.82517 C 382.71554,134.57657 382,133.12805 382,132.60623 c 0,-0.52181 -0.7156,-1.73947 -1.59022,-2.70592 -0.87462,-0.96644 -2.01585,-3.65153 -2.53607,-5.96687 -0.52022,-2.31534 -1.82962,-5.33323 -2.90978,-6.70643 C 373.88377,115.85381 373,113.72666 373,112.5 c 0,-1.22666 -0.88499,-3.35537 -1.96665,-4.73047 -1.08165,-1.3751 -2.26281,-4.35229 -2.62479,-6.61598 -1.0704,-6.69394 -2.81074,-7.101225 -6.3381,-1.483283 -1.66785,2.656353 -3.04101,5.979803 -3.05146,7.385453 -0.0104,1.40565 -1.144,4.08057 -2.519,5.94428 -1.375,1.86371 -2.5,4.04367 -2.5,4.84437 0,0.80069 -1.07575,3.75076 -2.39055,6.55572 -1.31481,2.80495 -2.78814,6.44991 -3.27408,8.09991 -0.75953,2.57894 -1.36521,3 -4.31548,3 -3.19609,0 -3.51946,-0.30229 -4.70547,-4.39867 -0.70045,-2.41927 -1.95672,-5.15358 -2.79172,-6.07625 -0.835,-0.92266 -1.90514,-3.74885 -2.37809,-6.2804 -0.47294,-2.53155 -1.582,-5.32493 -2.46457,-6.20749 -0.88256,-0.88257 -2.05005,-3.21771 -2.5944,-5.18921 -0.54436,-1.97149 -1.62544,-4.31881 -2.4024,-5.21626 -0.77697,-0.89744 -1.67139,-3.326218 -1.98761,-5.397272 -0.31621,-2.071054 -1.50209,-4.94424 -2.63528,-6.384859 C 320.92716,88.908971 320,87.095356 320,86.319335 c 0,-0.776021 -1.125,-3.524254 -2.5,-6.107184 -1.375,-2.582931 -2.5,-5.677792 -2.5,-6.877469 0,-1.199677 -1.125,-3.518218 -2.5,-5.152313 -1.375,-1.634094 -2.51407,-3.806121 -2.53127,-4.826725 C 309.95153,62.33504 308.83064,59.25 307.47787,56.5 c -1.35277,-2.75 -2.4637,-5.542516 -2.46873,-6.205591 -0.005,-0.663075 -1.13414,-2.863371 -2.50914,-4.889547 -1.375,-2.026176 -2.5,-4.580544 -2.5,-5.676375 0,-1.09583 -0.85146,-3.395534 -1.89213,-5.110453 -1.04067,-1.714919 -2.19117,-4.533872 -2.55668,-6.264342 -0.3655,-1.730469 -1.49203,-3.895164 -2.50339,-4.810433 -1.01136,-0.915269 -2.13171,-3.61712 -2.48966,-6.004113 -0.35795,-2.386993 -1.52997,-5.353653 -2.60448,-6.592577 -2.24786,-2.5918054 -2.4898,-4.4971814 -0.71066,-5.5967502 1.6731,-1.0340351 14.94687,-0.4371289 16.36003,0.7356921 0.61806,0.5129387 1.41806,3.4368427 1.77779,6.4975641 0.35973,3.060722 1.5462,7.313717 2.63661,9.451099 1.09042,2.137382 1.98257,4.743391 1.98257,5.791129 0,1.047739 0.86599,3.005904 1.92442,4.351478 1.05842,1.345574 2.81132,4.89376 3.89532,7.884859 4.39094,12.115955 5.39349,14.50317 6.69979,15.953133 0.75058,0.833126 1.80014,3.452833 2.33236,5.821572 0.53222,2.368739 1.63855,5.062091 2.4585,5.985226 0.81996,0.923136 1.94771,3.360223 2.50611,5.415749 0.55841,2.055526 1.66579,4.387826 2.46085,5.182889 0.79506,0.795063 1.75541,3.383215 2.13411,5.751449 0.37869,2.368235 1.48959,5.210935 2.46865,6.317112 0.97905,1.106176 2.33258,3.9503 3.00783,6.320275 1.14591,4.021895 1.43791,4.288455 4.38185,4.000005 2.7796,-0.27235 3.30407,-0.829394 4.41696,-4.691246 0.69455,-2.410208 2.17417,-6.264784 3.28804,-8.565724 C 353.08865,85.251139 354,82.637185 354,81.743293 c 0,-0.893893 0.44758,-1.901879 0.99462,-2.23997 2.54301,-1.571664 2.94555,-4.266283 0.9765,-6.536624 C 354.887,71.716704 354,69.929858 354,68.99593 c 0,-0.933928 -1.125,-3.813886 -2.5,-6.399905 -1.375,-2.58602 -2.5,-5.490617 -2.5,-6.45466 0,-0.964043 -1.125,-3.277657 -2.5,-5.141365 -1.375,-1.863708 -2.5,-4.317214 -2.5,-5.452236 0,-1.135023 -1.125,-4.176984 -2.5,-6.759915 -1.375,-2.58293 -2.5,-5.331163 -2.5,-6.107184 0,-0.776021 -0.90765,-2.56484 -2.017,-3.975153 -1.10936,-1.410313 -2.41183,-4.677567 -2.89438,-7.260564 -0.48256,-2.582998 -1.40472,-5.022277 -2.04926,-5.420621 -1.5329,-0.947388 -3.96288,-8.0600638 -3.32317,-9.7271179 0.55028,-1.4339894 0.55392,-1.4347784 8.11937,-1.7563991 C 342.55129,4.2978245 345,5.649418 345,9.0472589 c 0,1.0474211 0.89832,3.3777781 1.99626,5.1785711 1.09795,1.800794 1.99795,4.307283 2,5.569976 0.002,1.262693 1.12874,4.409113 2.50374,6.992043 1.375,2.582931 2.5,5.534858 2.5,6.559838 0,1.024981 1.125,3.200588 2.5,4.834682 1.375,1.634095 2.5,4.12094 2.5,5.526322 0,1.405383 0.84542,3.958356 1.87872,5.673275 1.0333,1.714919 2.40632,4.769538 3.05115,6.788042 0.64484,2.018504 1.80236,4.192801 2.57227,4.831769 0.76991,0.638969 1.69581,3.135466 2.05756,5.54777 0.36175,2.412305 1.28057,4.902929 2.04183,5.534719 0.76127,0.631791 1.87921,3.008791 2.48432,5.282222 0.60511,2.273432 1.77394,4.888805 2.59739,5.811941 0.82346,0.923135 1.93265,3.616487 2.46487,5.985226 0.53222,2.368739 1.5579,4.988446 2.27929,5.821572 0.72139,0.833125 1.74513,2.864773 2.27498,4.514773 1.39448,4.34259 3.85599,4.36819 5.2795,0.0549 0.64527,-1.955195 1.57089,-3.5549 2.05693,-3.5549 0.48604,0 1.55282,-2.253127 2.37061,-5.00695 0.8178,-2.753822 2.18523,-6.00395 3.03874,-7.222506 C 396.30167,82.551988 397,80.617541 397,79.471773 397,78.326006 398.125,75.863708 399.5,74 c 1.375,-1.863708 2.5,-4.359111 2.5,-5.54534 0,-1.18623 1.125,-4.272616 2.5,-6.858635 1.375,-2.58602 2.5,-5.292356 2.5,-6.014081 0,-0.721725 0.92716,-2.490915 2.06035,-3.931533 1.13319,-1.440619 2.31772,-4.313805 2.63229,-6.384859 0.31458,-2.071054 1.37218,-4.665552 2.35024,-5.765552 0.97806,-1.1 2.27175,-3.86008 2.87488,-6.133512 0.60313,-2.273431 1.71143,-4.643782 2.4629,-5.267445 0.75147,-0.623664 1.65157,-3.263583 2.00023,-5.866488 0.34865,-2.602905 1.52762,-6.082555 2.61993,-7.732555 1.0923,-1.65 1.98897,-4.221667 1.99259,-5.7148162 0.009,-3.5317529 2.23676,-4.6072077 8.80032,-4.2475567 7.34312,0.4023668 8.45654,1.5015807 6.66484,6.5797959 -0.77328,2.191723 -2.07981,5.199417 -2.90338,6.683764 -0.82358,1.484347 -1.9653,4.565043 -2.53716,6.84599 -0.57186,2.280948 -1.68503,4.394797 -2.47371,4.697444 -0.78869,0.302646 -1.73856,2.261416 -2.11083,4.352822 -0.37227,2.091407 -1.4643,5.152557 -2.42672,6.802557 -0.96242,1.65 -2.06056,4.314485 -2.4403,5.921078 -0.37975,1.606593 -1.51174,3.965178 -2.51554,5.241301 -1.00379,1.276122 -2.13791,3.987704 -2.52024,6.025738 -0.38234,2.038035 -1.55816,4.802636 -2.61293,6.143559 C 417.86299,65.172599 417,67.246605 417,68.440579 c 0,1.193974 -1.125,3.695713 -2.5,5.559421 -1.375,1.863708 -2.5,4.590447 -2.5,6.059421 0,1.468974 -0.93823,3.863624 -2.08495,5.321445 -1.14672,1.457821 -2.54145,4.331007 -3.09939,6.384859 -0.55794,2.053851 -1.58772,4.409275 -2.28839,5.234275 -0.70067,0.825 -1.56777,3.14185 -1.92689,5.14855 -0.35912,2.00671 -1.51322,4.74222 -2.56467,6.07892 -1.05145,1.33671 -2.22243,3.74486 -2.60218,5.35145 -0.37974,1.60659 -1.47788,4.27108 -2.4403,5.92108 -0.96242,1.65 -2.03156,4.58915 -2.37586,6.53145 -0.3443,1.9423 -1.52406,4.3004 -2.62168,5.24021 -1.09763,0.93982 -1.99569,2.33307 -1.99569,3.09611 0,0.76304 -0.63446,1.91389 -1.4099,2.55746 -1.11846,0.92823 -1.73861,0.70083 -3,-1.10006 z M 791.25,136.2665 C 790.26715,135.92591 790,121.85231 790,70.416667 c 0,-51.625841 0.26352,-65.4328047 1.25,-65.4932158 0.6875,-0.042102 12.725,-0.015835 26.75,0.058372 25.29658,0.1338444 25.52835,0.1543982 29.05375,2.5765488 C 849.00831,8.9012674 851.0535,10 851.5986,10 c 1.30168,0 10.34706,8.779671 12.9014,12.522404 1.94432,2.848908 4.48139,9.104128 6.77674,16.708282 0.83013,2.750091 0.83377,4.984281 0.0138,8.5 -1.74038,7.4625 -4.42533,14.581593 -6.32451,16.769314 -0.95491,1.1 -2.03954,3.000808 -2.41029,4.224018 -0.37074,1.22321 -1.99746,3.166353 -3.61493,4.318094 -3.77516,2.688153 -3.70806,4.816228 0.30914,9.803361 1.7875,2.219085 4.375,5.667681 5.75,7.663546 1.375,1.995866 3.44755,4.835327 4.60567,6.309914 1.15811,1.474587 2.4289,4.481067 2.82397,6.681067 0.39507,2.2 1.46734,5.125 2.38281,6.5 2.16198,3.24719 5.25446,21.87943 4.02488,24.25 -0.71957,1.38731 -2.22217,1.75 -7.25007,1.75 -3.87546,0 -6.73019,-0.4862 -7.33944,-1.25 -0.54838,-0.6875 -1.21744,-5.66941 -1.4868,-11.0709 -0.38231,-7.66659 -0.92213,-10.40859 -2.46085,-12.5 -1.08411,-1.47351 -2.25789,-3.83362 -2.60841,-5.24469 -0.35051,-1.41108 -1.54955,-3.61743 -2.66453,-4.90301 C 853.91225,99.745818 853,98.10335 853,97.381469 c 0,-0.721882 -1.2375,-2.605419 -2.75,-4.185637 -1.5125,-1.580219 -4.36667,-4.633234 -6.34259,-6.784479 -1.97593,-2.151244 -5.29229,-5.358964 -7.36969,-7.128267 -4.29012,-3.653861 -4.19159,-5.760925 0.3157,-6.750891 1.6437,-0.361018 4.12212,-1.706957 5.5076,-2.990975 1.38548,-1.284018 2.88354,-2.497888 3.32902,-2.69749 3.19362,-1.430936 6.50569,-7.236946 8.39871,-14.722848 2.01419,-7.965042 2.02985,-8.503143 0.42046,-14.447035 C 852.60434,30.638708 849.4637,26.633869 842.77975,22.71681 838.24087,20.056852 837.79707,20 821.57193,20 L 805,20 l 0,54.452947 c 0,39.522803 0.32158,55.158743 1.17287,57.027123 0.71211,1.5629 0.81032,2.90878 0.25,3.42589 -1.02692,0.94773 -13.21128,2.0403 -15.17287,1.36054 z m 397.3521,-0.80729 c -1.2765,-1.27645 -1.4779,-2.49244 -0.879,-5.30751 1.0429,-4.90191 0.9987,-114.529602 -0.048,-119.826293 -0.7025,-3.5543646 -0.5539,-4.2972254 1,-5 1.0039,-0.4539738 17.4627,-0.696088 36.5752,-0.5380314 l 34.75,0.2873755 6e-4,7.7126249 7e-4,7.712624 -27.0457,-0.335116 c -20.0831,-0.248846 -27.4201,-0.02425 -28.5006,0.872445 -2.1541,1.787755 -2.1441,39.145896 0.011,40.934446 1.0719,0.889578 6.5803,1.124125 20.4896,0.872445 15.1629,-0.274363 19.1273,-0.07394 19.534,0.987567 0.2807,0.732484 0.5104,3.733179 0.5104,6.668213 0,2.935034 -0.2297,5.935729 -0.5104,6.668213 -0.4067,1.061508 -4.3711,1.26193 -19.534,0.987567 -13.9093,-0.25168 -19.4177,-0.01713 -20.4896,0.872445 -2.1551,1.78855 -2.1651,39.146695 -0.011,40.934445 1.0805,0.8967 8.4175,1.12129 28.5006,0.87245 l 27.0457,-0.33512 -7e-4,7.75 -6e-4,7.75 -33.4182,0 c -18.38,0 -34.072,0.25088 -34.8711,0.55751 -0.799,0.30663 -2.1979,-0.1876 -3.1086,-1.0983 z M 0,131.60699 c 0,-2.98241 0.48165243,-4.57784 1.5,-4.96862 C 2.8083832,126.1363 3,118.97806 3,70.602813 3,22.638408 2.7972713,14.940128 1.5,13.642857 0.675,12.817857 0,10.535714 0,8.5714286 L 0,5 30.877555,5 c 26.735739,0 31.050973,0.2089549 32.170394,1.557775 0.711061,0.8567763 2.813245,2.1930416 4.67152,2.9694784 3.332752,1.3925126 10.056163,7.6744916 12.964717,12.1135066 2.038902,3.111757 3.462144,15.474635 2.670741,23.199179 -0.552892,5.396544 -1.254256,7.118202 -4.649703,11.413766 -3.813206,4.824067 -3.91066,5.120162 -2.101911,6.386276 3.898997,2.729277 9.611174,8.981936 11.458019,12.54217 1.050548,2.025184 2.366519,3.964241 2.924378,4.309017 1.680444,1.038572 1.271436,26.517522 -0.473699,29.508832 -0.802178,1.375 -2.151583,3.9625 -2.998678,5.75 -0.847095,1.7875 -1.881802,3.25 -2.299349,3.25 -0.417547,0 -1.582566,1.52894 -2.588931,3.39765 -1.006365,1.86871 -3.358697,4.22104 -5.227404,5.2274 C 75.528942,127.63142 74,128.74788 74,129.10608 c 0,0.35821 -1.4625,1.23802 -3.25,1.95515 -1.7875,0.71713 -4.323186,2.12172 -5.634859,3.12132 C 62.927335,135.84983 60.138686,136 31.365141,136 L 0,136 0,131.60699 z m 62.412066,-13.21341 c 4.909246,-2.6134 7.603979,-5.26001 12.400652,-12.17923 2.309822,-3.33193 2.573222,-4.65092 2.558349,-12.811065 -0.01408,-7.724294 -0.345061,-9.558023 -2.193824,-12.15437 C 73.979759,79.567204 73,77.751167 73,77.213277 c 0,-2.433814 -8.192997,-9.024444 -12.597138,-10.13342 -4.328942,-1.09004 -4.559985,-1.317692 -3.921033,-3.86348 0.799111,-3.183914 2.314999,-5.216365 3.890616,-5.216406 2.153424,-5.7e-5 6.431132,-6.668717 8.105407,-12.635789 1.556605,-5.547698 1.562641,-6.417077 0.07996,-11.51733 C 67.004671,28.504244 64.521542,25.327223 59.027494,21.653361 56.947527,20.262491 53.583206,20 37.836511,20 c -11.195115,0 -18.96286,0.39542 -19.326514,0.983824 -0.794561,1.285627 -0.794561,97.746726 0,99.032356 C 18.874528,120.606 26.806817,121 38.316974,121 c 18.768916,0 19.308605,-0.0584 24.095092,-2.60642 z m 587.254604,16.93975 c -1.22129,-1.22128 -0.78336,-129.1431795 0.44471,-129.9021648 0.61125,-0.3777779 11.88587,-0.6035859 25.0547,-0.5017957 23.29351,0.1800503 24.06801,0.2513697 28.53756,2.6278518 C 706.23047,8.9007496 708.94738,10 709.74121,10 c 0.79383,0 2.5875,0.9 3.98592,2 1.39842,1.1 3.14912,2 3.89044,2 3.86554,0 22.62058,19.991209 23.93923,25.517088 0.3915,1.640602 1.36039,3.730923 2.15308,4.645159 1.66276,1.917704 5.13143,14.017434 6.11697,21.337753 0.37023,2.75 0.36527,7.25 -0.011,10 -1.01264,7.400464 -4.45653,19.435434 -6.10595,21.337753 -0.79269,0.914236 -1.76158,3.004557 -2.15308,4.645157 C 740.23815,107.00879 721.48311,127 717.61757,127 c -0.74132,0 -2.49202,0.9 -3.89044,2 -1.39842,1.1 -3.19209,2 -3.98592,2 -0.79383,0 -3.55917,1.125 -6.14519,2.5 -4.64341,2.46893 -5.00365,2.5 -28.98227,2.5 -13.35423,0 -24.58042,-0.3 -24.94708,-0.66667 z M 698.8592,118.97804 C 701.25677,117.89012 703.67339,117 704.22947,117 c 3.88264,0 20.94224,-14.77789 22.38463,-19.390704 0.36276,-1.160113 1.65391,-3.299229 2.86923,-4.753591 2.48603,-2.975027 3.91841,-11.147178 3.91841,-22.355705 0,-11.208527 -1.43238,-19.380678 -3.91841,-22.355705 -1.21532,-1.454362 -2.49631,-3.561466 -2.84665,-4.682453 C 725.12547,38.626415 708.40833,24 704.39293,24 c -0.64599,0 -3.13616,-0.890117 -5.53373,-1.978038 -3.69803,-1.678025 -6.58014,-1.981369 -19.00221,-2 -12.44335,-0.01866 -14.73419,0.215653 -15.25,1.559825 -0.79283,2.066069 -0.79283,95.770353 0,97.836423 0.51581,1.34418 2.80665,1.57849 15.25,1.55983 12.42207,-0.0186 15.30418,-0.32198 19.00221,-2 z m 217.80747,16.35529 c -1.40776,-1.40775 -0.61018,-7.07448 1.23012,-8.73993 1.04324,-0.94411 2.39299,-3.68715 2.99945,-6.09563 0.60647,-2.40848 1.5234,-4.63909 2.03763,-4.9569 0.51423,-0.31781 1.63493,-2.98565 2.49045,-5.92853 0.85552,-2.94288 2.2061,-5.89066 3.0013,-6.55061 0.7952,-0.65996 1.75974,-2.63133 2.14343,-4.380828 0.38368,-1.749496 1.5376,-4.749238 2.56428,-6.666093 C 934.16,90.097954 935,87.82288 935,86.959089 935,86.095298 936.125,83.863708 937.5,82 c 1.375,-1.863708 2.5,-4.359111 2.5,-5.54534 0,-1.18623 1.125,-4.272616 2.5,-6.858635 1.375,-2.58602 2.5,-5.292356 2.5,-6.014081 0,-0.721725 0.8721,-2.420928 1.93801,-3.776007 1.06591,-1.35508 2.22498,-3.778266 2.57572,-5.384859 0.6302,-2.886623 3.92323,-10.62705 7.41151,-17.421078 0.98836,-1.925 2.09331,-5.12572 2.45545,-7.112712 0.36213,-1.986991 1.54962,-4.419236 2.63887,-5.404987 1.08924,-0.985752 1.98455,-2.510032 1.98958,-3.387289 0.005,-0.877256 1.11596,-3.845012 2.46873,-6.595012 1.35277,-2.75 2.47366,-5.7506956 2.49086,-6.6682125 C 969.02041,5.0749272 970.13151,3 971.5561,3 c 1.92066,0 6.07123,5.8503669 7.26075,10.234275 0.55729,2.053852 1.95148,4.927038 3.0982,6.384859 1.14672,1.457821 2.08495,3.605977 2.08495,4.773681 0,1.167704 1.125,4.236405 2.5,6.819336 1.375,2.58293 2.5,5.208371 2.5,5.834314 0,0.625942 0.87718,2.253226 1.94928,3.616186 1.07211,1.36296 2.24412,4.444243 2.60448,6.847296 0.36036,2.403052 1.50819,5.141126 2.55072,6.084607 1.04254,0.943482 1.89552,2.478654 1.89552,3.411494 0,0.93284 1.05452,3.679349 2.3434,6.103353 1.2888,2.424004 2.6476,6.029247 3.0195,8.011652 0.3719,1.982404 1.5674,4.410895 2.6567,5.396646 1.0892,0.985752 1.9845,2.510032 1.9895,3.387289 0.01,0.877256 1.116,3.845012 2.4688,6.595012 1.3527,2.75 2.4736,5.942756 2.4908,7.095012 0.017,1.152257 0.8849,2.867471 1.9281,3.811587 1.0432,0.944115 2.3773,3.601361 2.9647,5.904991 0.5873,2.30362 1.9837,5.97106 3.1032,8.14985 1.1194,2.17879 2.0353,4.62479 2.0353,5.43555 0,0.81076 0.837,2.40311 1.8599,3.53856 1.7733,1.96832 4.108,8.79128 4.4705,13.06445 0.1537,1.81311 -0.5292,2.02789 -7.3084,2.29841 -8.4437,0.33695 -10.022,-0.66785 -10.022,-6.38034 0,-1.75981 -0.8901,-5.1613 -1.978,-7.55887 -1.088,-2.39756 -1.988,-5.35548 -2,-6.57315 -0.014,-1.42291 -1.3619,-3.12742 -3.772,-4.77059 l -3.75,-2.55664 -27.5,0.11458 c -15.125,0.063 -28.47293,0.49315 -29.66206,0.95584 -1.18913,0.46269 -2.47835,1.88289 -2.86493,3.156 -0.38659,1.27312 -1.52249,3.21476 -2.52423,4.31476 -1.00175,1.1 -2.51118,5.31221 -3.3543,9.36047 -0.84312,4.04825 -2.05189,7.98575 -2.68616,8.75 -1.19708,1.4424 -13.91877,2.04575 -15.24165,0.72286 z m 78.75154,-42.940319 c 1.97952,-0.759611 2.073,-3.990538 0.13696,-4.733466 -0.79465,-0.304937 -1.76513,-2.261829 -2.15662,-4.348648 -0.39149,-2.086818 -1.76632,-5.777492 -3.05518,-8.201496 C 989.05452,72.685397 988,70.149244 988,69.473505 c 0,-0.675738 -0.65027,-1.768296 -1.44506,-2.427905 -0.79478,-0.659609 -1.94123,-3.589382 -2.54768,-6.510607 -0.60644,-2.921225 -1.98116,-6.10639 -3.05494,-7.078143 C 979.87854,52.485096 979,50.978728 979,50.109365 979,49.240002 977.80142,46.159747 976.33648,43.264353 972.79771,36.27009 969,36.243897 969,43.213753 c 0,1.127599 -0.85146,3.453294 -1.89213,5.168213 -1.04067,1.714919 -2.19117,4.533872 -2.55668,6.264342 -0.3655,1.730469 -1.49203,3.895164 -2.50339,4.810433 -1.01136,0.915269 -2.13368,3.63026 -2.49404,6.033312 -0.36036,2.403053 -1.46375,5.413358 -2.45199,6.689567 -0.98823,1.276209 -2.1183,3.634865 -2.51127,5.241458 -0.39296,1.606593 -1.58658,4.029779 -2.65249,5.384859 -1.87012,2.377474 -2.64139,8.157348 -1.27134,9.527396 0.83314,0.833142 42.59081,0.888828 44.75154,0.05968 z M 1070.9776,135.5 c -0.3058,-6.83091 0.077,-129.8879568 0.4052,-130.2160929 0.2597,-0.2597714 11.5996,-0.4112453 25.1997,-0.3366085 24.715,0.1356351 24.7289,0.1369368 27.6492,2.5942023 C 1125.8387,8.8936754 1127.6186,10 1128.187,10 c 1.7794,0 10.813,6.276999 10.813,7.513427 0,0.647129 0.8885,1.98069 1.9745,2.963469 1.0859,0.982779 2.2725,2.740024 2.6368,3.904988 0.3643,1.164964 1.7258,3.390142 3.0255,4.944841 C 1148.8712,31.99936 1149,32.908252 1149,46 c 0,13.091748 -0.1288,14.00064 -2.3632,16.673275 -1.2997,1.554699 -2.6748,3.822886 -3.0558,5.040416 -1.2321,3.937491 -12.4952,14.186119 -16.8912,15.36985 -2.205,0.593724 -5.0837,1.78368 -6.3973,2.644347 -1.8402,1.205787 -5.8764,1.635378 -17.5904,1.872221 -8.3611,0.169055 -15.5614,0.328189 -16.0005,0.353631 -0.4391,0.02544 -0.7302,10.364092 -0.6468,22.97478 0.083,12.61068 -0.1464,23.41068 -0.5106,24 -0.642,1.0388 -14.5213,1.58332 -14.5666,0.57148 z m 47.9275,-64.911219 c 1.1597,-1.051171 3.0736,-2.401171 4.253,-3 1.1793,-0.59883 3.9887,-3.272115 6.2431,-5.940635 l 4.0988,-4.851855 0,-10.724626 c 0,-10.717801 0,-10.727541 -3.5,-15.30393 -1.925,-2.518616 -5.8203,-5.9717 -8.6563,-7.673519 L 1116.1875,20 1101.0937,20 1086,20 l 0,25.833333 c 0,14.208334 0.3308,26.164121 0.7351,26.568416 0.4043,0.404296 7.3335,0.591796 15.3982,0.416667 12.76,-0.277091 14.9367,-0.566463 16.7718,-2.229635 z M 533.55526,119.00099 c -5.54044,-2.58027 -15.83625,-3.39844 -25.09826,-1.99447 -7.66683,1.16216 -7.83692,1.14155 -9.58609,-1.16168 -4.08325,-5.37664 -4.39047,-6.71214 -2.0464,-8.89597 1.19652,-1.11473 2.17549,-2.42711 2.17549,-2.9164 0,-0.48929 0.58956,-1.48426 1.31013,-2.21104 0.72056,-0.72679 3.40948,-4.47143 5.97537,-8.32143 2.56589,-3.85 6.0167,-8.8 7.66846,-11 1.65177,-2.2 3.44634,-4.998378 3.98794,-6.218618 0.54161,-1.220239 1.90124,-2.790985 3.02142,-3.490546 2.38048,-1.486633 2.86321,-7.536435 0.66856,-8.378602 -2.12409,-0.81509 -7.18948,-9.404543 -8.57521,-14.541099 -0.97444,-3.612016 -0.99117,-5.869678 -0.0762,-10.277254 1.06595,-5.134663 1.71607,-6.100665 7.14796,-10.621135 C 525.66174,24.36791 526.50123,24 531.47519,24 c 4.17086,0 6.00313,0.525544 8.19808,2.351432 1.5547,1.293287 3.72673,2.825545 4.82673,3.405018 2.58574,1.36215 7.5,11.093317 7.5,14.85142 0,2.989201 -4.2346,12.11051 -6.44947,13.89213 C 543.74781,59.950089 541,65.582877 541,67.828216 c 0,2.870602 2.86327,9.182086 4.44004,9.78715 0.75727,0.290589 1.92264,1.846009 2.58972,3.456489 0.66709,1.61048 1.53605,2.928145 1.93105,2.928145 1.2689,0 3.08655,5.094801 2.29967,6.4459 -0.41826,0.718179 -2.26043,2.558164 -4.0937,4.088856 l -3.33321,2.783076 -3.16679,-3.639401 c -1.74173,-2.00167 -4.43346,-5.448182 -5.98163,-7.658916 -3.14607,-4.492476 -6.00191,-5.164687 -7.78524,-1.832501 -0.64375,1.202858 -1.55639,2.665358 -2.02808,3.25 -0.4717,0.584642 -2.45806,3.044672 -4.41414,5.466732 -4.99535,6.185369 -4.45532,8.413464 2.23719,9.230314 2.85718,0.34873 6.33846,1.5336 7.73618,2.63305 5.34705,4.20599 21.07221,3.95094 25.11128,-0.4073 1.20285,-1.29789 2.83871,-2.35981 3.63524,-2.35981 2.05262,0 6.82242,5.24352 6.82242,7.5 0,2.01824 -4.66432,7.47734 -6.43709,7.53393 -0.5846,0.0187 -2.86291,0.90339 -5.06291,1.96607 -5.31901,2.56926 -16.42895,2.56976 -21.94474,9.9e-4 z m 1.27645,-67.242248 c 2.64467,-3.441024 3.20391,-4.997622 2.964,-8.25 -0.27161,-3.682031 -0.58762,-4.080889 -3.87738,-4.893986 -2.56533,-0.634046 -4.40978,-0.490192 -6.5,0.506955 -4.26165,2.033036 -4.40207,6.320392 -0.40117,12.248609 1.71849,2.546324 3.44635,4.62968 3.83969,4.62968 0.39333,0 2.18202,-1.908566 3.97486,-4.241258 z"
       id="path3115"
       inkscape:connector-curvature="0" />
  </g>
</svg>
