<?xml version="1.0" encoding="UTF-8" standalone="no"?>
<!-- Created with Inkscape (http://www.inkscape.org/) -->

<svg
   xmlns:dc="http://purl.org/dc/elements/1.1/"
   xmlns:cc="http://creativecommons.org/ns#"
   xmlns:rdf="http://www.w3.org/1999/02/22-rdf-syntax-ns#"
   xmlns:svg="http://www.w3.org/2000/svg"
   xmlns="http://www.w3.org/2000/svg"
   xmlns:sodipodi="http://sodipodi.sourceforge.net/DTD/sodipodi-0.dtd"
   xmlns:inkscape="http://www.inkscape.org/namespaces/inkscape"
   id="svg3103"
   version="1.1"
   inkscape:version="0.48.4 r9939"
   width="510.71124"
   height="56.685383"
   sodipodi:docname="logo_mini.svg"
   inkscape:export-filename="/home/default/bowanddrape/couture/public/logo.png"
   inkscape:export-xdpi="1200.24"
   inkscape:export-ydpi="1200.24">
  <metadata
     id="metadata3109">
    <rdf:RDF>
      <cc:Work
         rdf:about="">
        <dc:format>image/svg+xml</dc:format>
        <dc:type
           rdf:resource="http://purl.org/dc/dcmitype/StillImage" />
        <dc:title />
      </cc:Work>
    </rdf:RDF>
  </metadata>
  <defs
     id="defs3107" />
  <sodipodi:namedview
     pagecolor="#ffffff"
     bordercolor="#666666"
     borderopacity="1"
     objecttolerance="10"
     gridtolerance="10"
     guidetolerance="10"
     inkscape:pageopacity="0"
     inkscape:pageshadow="2"
     inkscape:window-width="1172"
     inkscape:window-height="715"
     id="namedview3105"
     showgrid="false"
     fit-margin-top="0"
     fit-margin-left="0"
     fit-margin-right="0"
     fit-margin-bottom="0"
     inkscape:zoom="0.78118463"
     inkscape:cx="146.98968"
     inkscape:cy="85.570659"
     inkscape:window-x="192"
     inkscape:window-y="24"
     inkscape:window-maximized="0"
     inkscape:current-layer="svg3103" />
  <g
     style="fill:#000000;fill-opacity:1;stroke:none"
     id="g3092"
     transform="matrix(1.25,0,0,-1.25,331.86422,42.48716)" />
  <g
     style="fill:#000000;fill-opacity:1;stroke:none"
     id="g3096"
     transform="matrix(1.25,0,0,-1.25,80.08447,-7.9924882)" />
  <g
     style="fill:#000000;fill-opacity:1;stroke:none"
     id="g3100"
     transform="matrix(1.25,0,0,-1.25,216.62985,-35.021133)" />
  <g
     style="fill:#000000;fill-opacity:1;stroke:none"
     id="g3104"
     transform="matrix(1.25,0,0,-1.25,21.8301,-9.3596062)" />
  <g
     style="fill:#000000;fill-opacity:1;stroke:none"
     id="g3108"
     transform="matrix(1.25,0,0,-1.25,173.84185,-56.339498)" />
  <g
     style="fill:#000000;fill-opacity:1;stroke:none"
     id="g3112"
     transform="matrix(1.25,0,0,-1.25,278.5256,-9.3584862)" />
  <g
     style="fill:#000000;fill-opacity:1;stroke:none"
     id="g3116"
     transform="matrix(1.25,0,0,-1.25,357.59185,-3.6223762)" />
  <g
     style="fill:#000000;fill-opacity:1;stroke:none"
     id="g3120"
     transform="matrix(1.25,0,0,-1.25,385.12473,-20.489944)" />
  <g
     style="fill:#000000;fill-opacity:1;stroke:none"
     id="g3124"
     transform="matrix(1.25,0,0,-1.25,450.72048,-29.076406)" />
  <g
     style="fill:#000000;fill-opacity:1;stroke:none"
     id="g3128"
     transform="matrix(1.25,0,0,-1.25,481.07,-92.178931)">
    <path
       id="path3130"
       style="fill:#000000;fill-opacity:1;fill-rule:nonzero;stroke:none"
       d="m 0,-75.310345 c 0,0 0.842,-1.248 0.842,-5.512 L 0.836,-112.01435 c 0,-4.264 -0.842,-5.513 -0.842,-5.513 l 23.719,0 0,5.483 c 0,0 -1.25,-0.842 -5.512,-0.842 l -12.725,-0.008 0,14.160005 7.365,0 c 4.263,0 5.512,-0.849 5.512,-0.849 l 0,6.332 c 0,0 -1.249,-0.842 -5.512,-0.842 l -7.365,-0.008 0,14.16 12.725,0 c 4.262,0 5.512,-0.842 5.512,-0.842 l 0,5.477 -23.713,-0.004 z m -25.303696,-21.8076 -7.692,0 0,17.178 8.185,0 c 4.545,-0.258 8.104,-4.027 8.104,-8.582 0,-4.741 -3.857,-8.596 -8.597,-8.596 m 0,21.824 -13.174,-0.016 c 0,0 0.842,-1.248 0.842,-5.512 l -0.007,-31.193005 c 0,-4.264 -0.842,-5.512 -0.842,-5.512 l 6.331,0.001 c 0,0 -0.842,1.248 -0.842,5.512 l 0,10.262 7.692,0 c 7.296,0 13.229,5.935005 13.229,13.230005 0,7.294 -5.933,13.228 -13.229,13.228 m -52.4766,-28.693205 8.365,19.359005 8.365,-19.359005 -16.73,0 z m 27.285,-13.539 -18.92,43.783005 -18.92,-43.783005 5.872,-0.001 c 0,0 -0.225,2.181 1.412,5.97 l 1.269,2.937 20.733,0 1.265,-2.937 c 1.638,-3.789 1.412,-5.97 1.412,-5.97 l 5.877,0.001 z m -49.311304,0.0449 c -0.012,7.493 -3.249,14.225 -8.389,18.899005 3.121,2.218 5.236,5.757 5.524,9.804 0.003,0.048 0.009,0.095 0.011,0.142 0.013,0.222 0.021,0.446 0.024,0.671 0,0.033 0.003,0.065 0.003,0.098 0,0 0.001,10e-4 0.001,0.002 l 0,0.037 c 0,6.914 -5.605,12.519 -12.519,12.519 l 0,0.002 -14.09,0 c 0,0 0.829,-1.252 0.829,-5.516 l 0,-31.191005 c 0,-4.264 -0.842,-5.513 -0.842,-5.513 l 6.324,10e-4 c 0,0 -0.842,1.249 -0.842,5.512 l 0,32.073005 8.621,-0.002 c 4.349,0 7.886,-3.538 7.886,-7.885 0,-0.025 -0.002,-0.049 -0.002,-0.075 -0.003,-0.298 -0.017,-0.592 -0.045,-0.884 -0.005,-0.048 -0.009,-0.098 -0.014,-0.148 -0.031,-0.289 -0.075,-0.575 -0.129,-0.858 -0.004,-0.021 -0.007,-0.042 -0.012,-0.065 -0.823,-4.102 -4.097,-7.316 -8.229,-8.057 1.108,-0.646 2.16,-1.378 3.138,-2.199005 0.145,-0.12 0.283,-0.247 0.424,-0.371 4.095,-3.606 6.88,-8.662 7.541,-14.368 0.172,-1.978 -0.212,-2.674 -0.212,-2.674 l 0.365,0 4.635,0 c 0,0.014 0.006,0.028 0.001,0.039 -0.001,0.002 -0.001,0.005 -0.002,0.007 m -63.253,4.5889 -6.359,0 0,32.954003 6.359,0 c 9.085,0 16.477,-7.391 16.477,-16.477 0,-9.085003 -7.392,-16.477003 -16.477,-16.477003 m 0,37.587003 -11.841,0 c 0,0 0.842,-1.254 0.842,-5.517 l -0.007,-31.193003 c 0,-4.263 -0.842,-5.512 -0.842,-5.512 l 12.204,0.002 0,0.003 c 11.477,0.192 20.754,9.587 20.754,21.107003 0,11.64 -9.469,21.11 -21.11,21.11 m -83.747,-0.0021 c 0,-0.004 0.224,-2.184 -1.413,-5.97 l -11.635,-26.928003 -11.631,26.928003 c -1.635,3.786 -1.412,5.966 -1.412,5.97 l -5.882,0 9.834,-22.749 -4.388,-10.159003 -11.642,26.939003 c -1.636,3.785 -1.411,5.965 -1.411,5.969 l -5.871,0 18.917,-43.784003 6.748,15.592 6.738,-15.591 18.92,43.783003 -5.872,0 z m -121.6094,-37.584003 -10.951,-10e-4 0,32.951003 10.951,0 c 3.489,0 6.328,-2.838 6.328,-6.327 0,-3.317 -1.986,-6.27 -5.057,-7.527 l -1.101,-0.45 1.167,-0.232 c 4.443,-0.881 7.668,-4.813 7.668,-9.350003 0,-4.966 -4.041,-9.033 -9.005,-9.064 m 7.48,19.473003 c 2.12,1.663 3.481,4.248 3.481,7.15 0,6.044 -4.917,10.962 -10.961,10.962 l -16.434,-0.004 c 0,0 0.843,-1.248 0.843,-5.512 l -0.007,-31.192003 c 0,-4.264 -0.842,-5.513 -0.842,-5.513 l 16.467,0.003 c 7.505,0.048 13.611,6.193 13.611,13.697 0,4.486003 -2.487,8.388003 -6.158,10.409003 m 148.3598,1.0563 1.982,2.831 c 0.325,0.43 0.498,0.946 0.498,1.489 0,1.368 -1.112,2.482 -2.48,2.482 -1.369,0 -2.48,-1.114 -2.48,-2.482 0,-0.543 0.172,-1.059 0.501,-1.495 l -0.003,0.006 1.982,-2.831 z m 4.304,-20.210003 c -1.477,0 -2.907,0.299 -4.249,0.886 l -0.08,0.037 c -1.413,0.633 -2.919,0.954 -4.479,0.954 -1.883,0 -3.736,-0.485 -5.366,-1.402 l -1.984,2.834 0.53,0.751 0.049,0.046 8.927,12.751003 -2.754,3.936 -0.019,0.014 c -0.777,1.063 -1.205,2.361 -1.205,3.723 0,3.49 2.838,6.327 6.326,6.327 3.488,0 6.326,-2.837 6.326,-6.327 0,-1.362 -0.427,-2.661 -1.234,-3.755 l -2.744,-3.918 4.903,-7.002003 -3.149,-2.207 -4.102,5.858003 -5.473,-7.817003 0.42,0.017 c 0.183,0.008 0.365,0.016 0.549,0.016 2.105,0 4.14,-0.435 6.05,-1.289 l 0.149,-0.068 c 0.826,-0.344 1.704,-0.519 2.609,-0.519 2.076,0 4.051,0.968 5.334,2.599 l 2.269,-3.241 c -2.016,-2.066 -4.711,-3.204 -7.603,-3.204 m -113.5403,-1.413 c -9.688,0 -17.569,7.882 -17.569,17.569001 0,9.688 7.881,17.571 17.569,17.571 9.688,0 17.57,-7.883 17.57,-17.571 0,-9.687001 -7.882,-17.569001 -17.57,-17.569001 m 0,39.772001 c -12.243,0 -22.203,-9.96 -22.203,-22.203 0,-12.242001 9.96,-22.202001 22.203,-22.202001 12.243,0 22.203,9.96 22.203,22.202001 0,12.243 -9.96,22.203 -22.203,22.203"
       inkscape:connector-curvature="0" />
  </g>
</svg>
