<svg xmlns="http://www.w3.org/2000/svg" xmlns:xlink="http://www.w3.org/1999/xlink" viewBox="0 0 45.98 62.82"><defs><style>.cls-1,.cls-2,.cls-6{fill:none;}.cls-1{clip-rule:evenodd;}.cls-3{clip-path:url(#clip-path);}.cls-4{clip-path:url(#clip-path-2);}.cls-5{fill:#f8c0c4;}.cls-6{stroke:#3757a6;stroke-linecap:round;stroke-linejoin:round;stroke-width:1.84px;}.cls-7{clip-path:url(#clip-path-4);}.cls-8{fill:#fff;}.cls-9{clip-path:url(#clip-path-7);}.cls-10{fill:#3757a6;}.cls-11{clip-path:url(#clip-path-10);}.cls-12{fill:#aad6f2;}.cls-13{clip-path:url(#clip-path-13);}.cls-14{fill:#f7f6c9;}</style><clipPath id="clip-path"><polygon class="cls-1" points="37.57 16.4 29.5 11.26 6.25 47.1 14.33 52.24 37.57 16.4"/></clipPath><clipPath id="clip-path-2"><rect class="cls-2" x="3.26" y="2.55" width="39" height="57"/></clipPath><clipPath id="clip-path-4"><path class="cls-1" d="M14.33,52.24,5,57.82,6.25,47.1s3.62-1.22,8.56,4.4Z"/></clipPath><clipPath id="clip-path-7"><path class="cls-1" d="M7.45,55.48l-1.51.91.2-1.74s.59-.2,1.39.71Z"/></clipPath><clipPath id="clip-path-10"><polygon class="cls-1" points="39.99 12.68 31.91 7.54 29.5 11.26 37.57 16.4 39.99 12.68"/></clipPath><clipPath id="clip-path-13"><path class="cls-1" d="M40.22,12.37a4.76,4.76,0,0,0-1.45-6.61A4.85,4.85,0,0,0,32.1,7.2Z"/></clipPath></defs><title>pencil</title><g id="Layer_2" data-name="Layer 2"><g id="Art"><g class="cls-3"><g class="cls-4"><rect class="cls-5" x="1.25" y="6.26" width="41.32" height="50.98"/></g></g><g class="cls-4"><polygon class="cls-6" points="37.57 16.4 29.5 11.26 6.25 47.1 14.33 52.24 37.57 16.4"/></g><g class="cls-7"><g class="cls-4"><rect class="cls-8" y="41.99" width="19.81" height="20.83"/></g></g><g class="cls-4"><path class="cls-6" d="M14.33,52.24,5,57.82,6.25,47.1s3.62-1.22,8.56,4.4Z"/></g><g class="cls-9"><g class="cls-4"><rect class="cls-10" x="0.93" y="49.63" width="11.59" height="11.76"/></g></g><g class="cls-4"><path class="cls-6" d="M7.45,55.48l-1.51.91.2-1.74s.59-.2,1.39.71Z"/></g><g class="cls-11"><g class="cls-4"><rect class="cls-12" x="24.5" y="2.53" width="20.49" height="18.87"/></g></g><g class="cls-4"><polygon class="cls-6" points="39.99 12.68 31.91 7.54 29.5 11.26 37.57 16.4 39.99 12.68"/></g><g class="cls-13"><g class="cls-4"><rect class="cls-14" x="27.1" width="18.88" height="17.37"/></g></g><g class="cls-4"><path class="cls-6" d="M40.22,12.37a4.76,4.76,0,0,0-1.45-6.61A4.85,4.85,0,0,0,32.1,7.2Z"/></g></g></g></svg>