<?xml version="1.0" encoding="UTF-8" standalone="no"?>
<!-- Created with Inkscape (http://www.inkscape.org/) -->

<svg
   xmlns:dc="http://purl.org/dc/elements/1.1/"
   xmlns:cc="http://creativecommons.org/ns#"
   xmlns:rdf="http://www.w3.org/1999/02/22-rdf-syntax-ns#"
   xmlns:svg="http://www.w3.org/2000/svg"
   xmlns="http://www.w3.org/2000/svg"
   xmlns:sodipodi="http://sodipodi.sourceforge.net/DTD/sodipodi-0.dtd"
   xmlns:inkscape="http://www.inkscape.org/namespaces/inkscape"
   width="251.55917"
   height="229.21913"
   id="svg11089"
   version="1.1"
   inkscape:version="0.48.4 r9939"
   sodipodi:docname="pizza.svg">
  <defs
     id="defs11091" />
  <sodipodi:namedview
     id="base"
     pagecolor="#ffffff"
     bordercolor="#666666"
     borderopacity="1.0"
     inkscape:pageopacity="0.0"
     inkscape:pageshadow="2"
     inkscape:zoom="0.7"
     inkscape:cx="125.75552"
     inkscape:cy="84.677003"
     inkscape:document-units="px"
     inkscape:current-layer="layer1"
     showgrid="false"
     fit-margin-top="0"
     fit-margin-left="0"
     fit-margin-right="0"
     fit-margin-bottom="0"
     inkscape:window-width="837"
     inkscape:window-height="437"
     inkscape:window-x="506"
     inkscape:window-y="229"
     inkscape:window-maximized="0" />
  <metadata
     id="metadata11094">
    <rdf:RDF>
      <cc:Work
         rdf:about="">
        <dc:format>image/svg+xml</dc:format>
        <dc:type
           rdf:resource="http://purl.org/dc/dcmitype/StillImage" />
        <dc:title />
      </cc:Work>
    </rdf:RDF>
  </metadata>
  <g
     inkscape:label="Layer 1"
     inkscape:groupmode="layer"
     id="layer1"
     transform="translate(-33.862025,-417.75559)">
    <g
       id="g142"
       transform="matrix(1.25,0,0,-1.25,87.30467,610.70715)"
       style="fill:none;stroke:#000000;stroke-opacity:1" />
    <g
       id="g146"
       transform="matrix(1.25,0,0,-1.25,122.02141,479.87465)"
       style="fill:none;stroke:#000000;stroke-opacity:1" />
    <g
       id="g150"
       transform="matrix(1.25,0,0,-1.25,76.03016,625.4509)"
       style="fill:none;stroke:#000000;stroke-opacity:1">
      <path
         d="m 0,0 11.084,-14.217 25.164643,13.0836786 m 18.3075,10.2265357 C 80.094476,22.768048 138.77567,54.157167 164.314,67.832"
         style="fill:none;stroke:#000000;stroke-width:6;stroke-linecap:round;stroke-linejoin:round;stroke-miterlimit:10;stroke-opacity:1;stroke-dasharray:none"
         id="path152"
         inkscape:connector-curvature="0"
         sodipodi:nodetypes="ccccc" />
    </g>
    <g
       id="g282"
       transform="matrix(1.25,0,0,-1.25,76.03016,625.4509)"
       style="fill:none;stroke:#000000;stroke-opacity:1">
      <path
         d="m 128.711,68.732 c 0,0 -22.424,63.309 -95.85,58.977 0,0 -15.976,9.482 -10.931,21.635 0,0 2.269,9.39 11.456,12.855 7.397,2.791 32.811,-1.392 32.811,-1.392 79.129,-18.727 96.369,-86.18 96.369,-86.18"
         style="fill:none;stroke:#000000;stroke-width:6;stroke-linecap:round;stroke-linejoin:round;stroke-miterlimit:10;stroke-opacity:1;stroke-dasharray:none"
         id="path284"
         inkscape:connector-curvature="0"
         sodipodi:nodetypes="cccccc" />
    </g>
    <g
       id="g286"
       transform="matrix(1.25,0,0,-1.25,117.10679,465.81465)"
       style="fill:none;stroke:#000000;stroke-opacity:1">
      <path
         d="m 0,0 -32.861,-127.709 35.0533929,17.91439 M 23.5315,-97.5945 c 18.7975,10.038167 51.309286,27.504904 70.106786,37.543071"
         style="fill:none;stroke:#000000;stroke-width:6;stroke-linecap:round;stroke-linejoin:round;stroke-miterlimit:10;stroke-opacity:1;stroke-dasharray:none"
         id="path288"
         inkscape:connector-curvature="0"
         sodipodi:nodetypes="ccccc" />
    </g>
    <g
       id="g290"
       transform="matrix(1.25,0,0,-1.25,131.75167,477.5749)"
       style="fill:none;stroke:#000000;stroke-opacity:1">
      <path
         d="m 0,0 c 0.481,-9.217 8.343,-16.299 17.561,-15.818 9.217,0.48 16.297,8.343 15.818,17.56 -0.007,0.123 -0.02,0.246 -0.028,0.369 C 21.198,8.52 6.553,9.369 2.362,9.479 0.702,6.721 -0.18,3.455 0,0"
         style="fill:none;stroke:#000000;stroke-opacity:1"
         id="path292"
         inkscape:connector-curvature="0" />
    </g>
    <g
       id="g294"
       transform="matrix(1.25,0,0,-1.25,131.75167,477.5749)"
       style="fill:none;stroke:#000000;stroke-opacity:1">
      <path
         d="m 0,0 c 0.481,-9.217 8.343,-16.299 17.561,-15.818 9.217,0.48 16.297,8.343 15.818,17.56 -0.007,0.123 -0.02,0.246 -0.028,0.369 C 21.198,8.52 6.553,9.369 2.362,9.479 0.702,6.721 -0.18,3.455 0,0 z"
         style="fill:none;stroke:#000000;stroke-width:6;stroke-linecap:round;stroke-linejoin:round;stroke-miterlimit:10;stroke-opacity:1;stroke-dasharray:none"
         id="path296"
         inkscape:connector-curvature="0" />
    </g>
    <g
       id="g298"
       transform="matrix(1.25,0,0,-1.25,181.71616,537.76778)"
       style="fill:none;stroke:#000000;stroke-opacity:1">
      <path
         d="m 0,0 c 0,-8.547 -6.929,-15.477 -15.479,-15.477 -8.546,0 -15.477,6.93 -15.477,15.477 0,8.549 6.931,15.479 15.477,15.479 C -6.929,15.479 0,8.549 0,0"
         style="fill:none;stroke:#000000;stroke-opacity:1"
         id="path300"
         inkscape:connector-curvature="0" />
    </g>
    <g
       id="g302"
       transform="matrix(1.25,0,0,-1.25,181.71616,537.76778)"
       style="fill:none;stroke:#000000;stroke-opacity:1">
      <path
         d="m 0,0 c 0,-8.547 -6.929,-15.477 -15.479,-15.477 -8.546,0 -15.477,6.93 -15.477,15.477 0,8.549 6.931,15.479 15.477,15.479 C -6.929,15.479 0,8.549 0,0 z"
         style="fill:none;stroke:#000000;stroke-width:6;stroke-linecap:round;stroke-linejoin:round;stroke-miterlimit:10;stroke-opacity:1;stroke-dasharray:none"
         id="path304"
         inkscape:connector-curvature="0" />
    </g>
    <g
       id="g306"
       transform="matrix(1.25,0,0,-1.25,102.67329,537.76778)"
       style="fill:none;stroke:#000000;stroke-opacity:1">
      <path
         d="m 0,0 c -1.156,0 -2.277,-0.137 -3.361,-0.375 l -6.869,-26.697 c 2.728,-2.41 6.303,-3.883 10.23,-3.883 8.548,0 15.479,6.93 15.479,15.476 C 15.479,-6.93 8.548,0 0,0"
         style="fill:none;stroke:#000000;stroke-opacity:1"
         id="path308"
         inkscape:connector-curvature="0" />
    </g>
    <g
       id="g310"
       transform="matrix(1.25,0,0,-1.25,102.67329,537.76778)"
       style="fill:none;stroke:#000000;stroke-opacity:1">
      <path
         d="m 0,0 c -1.156,0 -2.277,-0.137 -3.361,-0.375 l -6.869,-26.697 c 2.728,-2.41 6.303,-3.883 10.23,-3.883 8.548,0 15.479,6.93 15.479,15.476 C 15.479,-6.93 8.548,0 0,0 z"
         style="fill:none;stroke:#000000;stroke-width:6;stroke-linecap:round;stroke-linejoin:round;stroke-miterlimit:10;stroke-opacity:1;stroke-dasharray:none"
         id="path312"
         inkscape:connector-curvature="0" />
    </g>
    <g
       id="g314"
       transform="matrix(1.25,0,0,-1.25,141.90666,574.58415)"
       style="fill:none;stroke:#000000;stroke-opacity:1">
      <path
         d="m 0,0 0,-11.857 0,-24.971 c 0,-4.395 -3.561,-7.955 -7.955,-7.955 -4.393,0 -7.953,3.56 -7.953,7.955 l 0,16.476 0,4.788"
         style="fill:none;stroke:#000000;stroke-width:6;stroke-linecap:round;stroke-linejoin:round;stroke-miterlimit:10;stroke-opacity:1;stroke-dasharray:none"
         id="path316"
         inkscape:connector-curvature="0" />
    </g>
    <g
       id="g318"
       transform="matrix(1.25,0,0,-1.25,237.18254,540.02603)"
       style="fill:none;stroke:#000000;stroke-opacity:1">
      <path
         d="M 0,0 C 0,9.707 7.871,17.578 17.578,17.578 27.287,17.578 35.156,9.707 35.156,0"
         style="fill:none;stroke:#000000;stroke-width:6;stroke-linecap:round;stroke-linejoin:round;stroke-miterlimit:10;stroke-opacity:1;stroke-dasharray:none"
         id="path320"
         inkscape:connector-curvature="0" />
    </g>
    <g
       id="g322"
       transform="matrix(1.25,0,0,-1.25,67.77091,484.35953)"
       style="fill:none;stroke:#000000;stroke-opacity:1">
      <path
         d="M 0,0 0,-15.35"
         style="fill:none;stroke:#000000;stroke-width:6;stroke-linecap:round;stroke-linejoin:round;stroke-miterlimit:10;stroke-opacity:1;stroke-dasharray:none"
         id="path324"
         inkscape:connector-curvature="0" />
    </g>
    <g
       id="g326"
       transform="matrix(1.25,0,0,-1.25,58.17617,493.95178)"
       style="fill:none;stroke:#000000;stroke-opacity:1">
      <path
         d="M 0,0 15.35,0"
         style="fill:none;stroke:#000000;stroke-width:6;stroke-linecap:round;stroke-linejoin:round;stroke-miterlimit:10;stroke-opacity:1;stroke-dasharray:none"
         id="path328"
         inkscape:connector-curvature="0" />
    </g>
    <g
       id="g330"
       transform="matrix(1.25,0,0,-1.25,246.77729,581.67403)"
       style="fill:none;stroke:#000000;stroke-opacity:1">
      <path
         d="M 0,0 0,-15.35"
         style="fill:none;stroke:#000000;stroke-width:6;stroke-linecap:round;stroke-linejoin:round;stroke-miterlimit:10;stroke-opacity:1;stroke-dasharray:none"
         id="path332"
         inkscape:connector-curvature="0" />
    </g>
    <g
       id="g334"
       transform="matrix(1.25,0,0,-1.25,237.18254,591.26865)"
       style="fill:none;stroke:#000000;stroke-opacity:1">
      <path
         d="M 0,0 15.35,0"
         style="fill:none;stroke:#000000;stroke-width:6;stroke-linecap:round;stroke-linejoin:round;stroke-miterlimit:10;stroke-opacity:1;stroke-dasharray:none"
         id="path336"
         inkscape:connector-curvature="0" />
    </g>
    <g
       id="g338"
       transform="matrix(1.25,0,0,-1.25,47.40466,553.7174)"
       style="fill:none;stroke:#000000;stroke-opacity:1">
      <path
         d="M 0,0 0,-15.348"
         style="fill:none;stroke:#000000;stroke-width:6;stroke-linecap:round;stroke-linejoin:round;stroke-miterlimit:10;stroke-opacity:1;stroke-dasharray:none"
         id="path340"
         inkscape:connector-curvature="0" />
    </g>
    <g
       id="g342"
       transform="matrix(1.25,0,0,-1.25,37.81242,563.30978)"
       style="fill:none;stroke:#000000;stroke-opacity:1">
      <path
         d="M 0,0 15.349,0"
         style="fill:none;stroke:#000000;stroke-width:6;stroke-linecap:round;stroke-linejoin:round;stroke-miterlimit:10;stroke-opacity:1;stroke-dasharray:none"
         id="path344"
         inkscape:connector-curvature="0" />
    </g>
  </g>
</svg>
