<?xml version="1.0" encoding="utf-8"?>
<!-- Generator: Adobe Illustrator 21.1.0, SVG Export Plug-In . SVG Version: 6.00 Build 0)  -->
<svg version="1.1" id="Layer_1" xmlns="http://www.w3.org/2000/svg" xmlns:xlink="http://www.w3.org/1999/xlink" x="0px" y="0px"
	 viewBox="0 0 320 190" style="enable-background:new 0 0 320 190;" xml:space="preserve">
<style type="text/css">
	.st0{fill:#231F20;}
</style>
<title>sm</title>
<path class="st0" d="M187.5,110.3c0.1,4.5-1.2,9-3.7,12.8c-2.6,3.9-6.3,6.9-10.6,8.7c-5.1,2.2-10.6,3.2-16.2,3.1
	c-4.6,0.1-9.1-0.3-13.6-1.1c-3.8-0.8-7.4-2.1-10.9-3.8v-18.7c4,2,8.2,3.6,12.5,4.8c3.9,1.1,7.9,1.7,12,1.8c2.4,0.2,4.8-0.4,6.8-1.6
	c1.4-1,2.2-2.5,2.2-4.2c0.1-0.9,0-1.8-0.4-2.6c-0.8-1-1.8-1.8-2.9-2.5c-1.3-0.8-4.7-2.5-10.3-5c-4.1-1.7-7.9-3.9-11.4-6.7
	c-2.4-2-4.3-4.6-5.6-7.5c-1.3-3.2-1.9-6.5-1.8-9.9c-0.4-6.6,2.5-12.9,7.8-16.9c6.3-4.3,13.9-6.4,21.5-6c8.5,0.1,16.9,2,24.6,5.6
	l-6.4,16.2c-5.8-3-12.2-4.7-18.8-5c-2.1-0.2-4.2,0.4-6,1.5c-1.2,0.8-1.9,2.1-1.9,3.5c0.1,1.7,0.9,3.2,2.3,4.1
	c4.1,2.5,8.4,4.7,12.8,6.5c5.2,2.1,9.9,5.4,13.6,9.7C186,100.9,187.6,105.6,187.5,110.3z"/>
</svg>
