<?xml version="1.0" encoding="UTF-8" standalone="no"?>
<!-- Created with Inkscape (http://www.inkscape.org/) -->

<svg
   xmlns:dc="http://purl.org/dc/elements/1.1/"
   xmlns:cc="http://creativecommons.org/ns#"
   xmlns:rdf="http://www.w3.org/1999/02/22-rdf-syntax-ns#"
   xmlns:svg="http://www.w3.org/2000/svg"
   xmlns="http://www.w3.org/2000/svg"
   xmlns:sodipodi="http://sodipodi.sourceforge.net/DTD/sodipodi-0.dtd"
   xmlns:inkscape="http://www.inkscape.org/namespaces/inkscape"
   width="570.00922"
   height="167.65273"
   id="svg2"
   version="1.1"
   inkscape:version="0.48.4 r9939"
   sodipodi:docname="select_stroke.svg">
  <defs
     id="defs4" />
  <sodipodi:namedview
     id="base"
     pagecolor="#ffffff"
     bordercolor="#666666"
     borderopacity="1.0"
     inkscape:pageopacity="0.0"
     inkscape:pageshadow="2"
     inkscape:zoom="1.4"
     inkscape:cx="86.288572"
     inkscape:cy="59.725366"
     inkscape:document-units="px"
     inkscape:current-layer="layer1"
     showgrid="false"
     fit-margin-top="0"
     fit-margin-left="0"
     fit-margin-right="0"
     fit-margin-bottom="0"
     inkscape:window-width="1165"
     inkscape:window-height="547"
     inkscape:window-x="147"
     inkscape:window-y="144"
     inkscape:window-maximized="0" />
  <metadata
     id="metadata7">
    <rdf:RDF>
      <cc:Work
         rdf:about="">
        <dc:format>image/svg+xml</dc:format>
        <dc:type
           rdf:resource="http://purl.org/dc/dcmitype/StillImage" />
        <dc:title />
      </cc:Work>
    </rdf:RDF>
  </metadata>
  <g
     inkscape:label="Layer 1"
     inkscape:groupmode="layer"
     id="layer1"
     transform="translate(-26.304067,5.228614)">
    <path
       style="fill:none;stroke:#f7afc9;stroke-width:2;stroke-miterlimit:4;stroke-opacity:1;stroke-dasharray:none"
       d="m 239.03047,69.594087 342.45066,0 c 19.67785,0.304139 17.61979,60.385133 -1.47707,60.385133 l -436.62832,0"
       id="path4530"
       inkscape:connector-curvature="0"
       sodipodi:nodetypes="ccsc" />
    <path
       style="fill:none;stroke:#f7afc9;stroke-width:2;stroke-miterlimit:4;stroke-opacity:1;stroke-dasharray:none"
       d="m 139.95216,133.30717 c 1.26068,-4.46753 5.79032,-15.39805 5.79032,-15.39805 -3.18135,2.82973 -7.48127,8.33812 -9.76536,14.43954 -3.37479,-4.85187 -9.94028,-18.1593 -10.58771,-21.9495 -1.97237,-1.98689 -0.13926,-13.208571 -2.17973,-15.35209 10.145,-4.89441 -16.81721,-1.442635 -7.0074,4.77496 0.63499,4.30511 6.72204,-9.752134 2.94632,-1.39191 -1.02955,5.99813 -0.46477,5.57541 -4.62748,7.99027 -4.1723,7.33136 5.26284,-8.757179 -4.55659,-4.11745 -4.87646,-1.17634 10.4128,0.0317 2.94956,-5.788592 -2.34997,-6.201315 -12.63278,2.360544 -5.02767,6.623682 -3.5721,4.48924 -2.85072,-9.217303 -5.06027,0.89577 -4.929673,7.29882 1.3184,16.62315 4.30142,20.27746 -6.78991,6.19688 -5.48091,-19.94202 -8.275544,-4.92213 -4.713694,11.94528 8.945264,9.05836 13.115234,12.89678 -1.28547,6.78274 -12.449171,-8.36196 -10.28475,-0.18057 4.42688,0.29681 8.51727,7.85066 1.55898,5.49096 -0.18545,-5.20517 -8.550965,-15.69175 -6.796943,-3.57545 -2.299821,9.5875 6.729373,9.75852 12.502123,10.60809 0.1377,8.28204 -14.47722,-7.23294 -6.80465,3.34816 8.69137,0.98889 0.5591,9.38433 -0.19155,0.98557 -4.089558,-3.42558 -7.012266,-12.91465 -6.767835,-2.25658 -3.078328,4.31263 7.307675,13.64305 -0.08811,12.0398 -0.15176,-4.82888 -0.564946,-16.09317 -4.641568,-5.91217 -2.437903,2.68415 -8.049198,14.37691 -8.483556,5.02345 5.924972,-0.17398 8.528444,-8.07593 1.423941,-3.9071 -5.378414,-8.34451 9.154642,2.90082 9.300453,-7.05233 1.329822,-3.85513 4.680639,-22.1193 -1.214367,-11.93548 -0.780044,3.30277 -4.664937,15.59525 -6.729164,7.2132 5.855802,-1.12956 7.02368,-10.28091 0.470932,-3.80988 -6.677869,-0.16826 -0.35158,-7.10478 3.325068,-2.95444 6.312047,-1.29352 13.107736,-23.04595 3.187717,-11.11278 -1.086457,5.14904 -10.001127,6.03685 -5.380835,0.2047 7.1962,1.39834 5.767953,-5.52197 -1.452111,-1.33983 -0.876889,4.29445 -8.96047,5.55986 -5.336552,0.0678 7.761452,-1.26752 19.463225,-0.69128 19.377331,-11.98573 -3.371035,3.69215 -16.8406,10.50261 -11.00057,2.49905 11.592113,2.97933 -2.815224,-6.276 -4.867004,1.57322 -7.074816,1.05102 -1.457552,-5.94017 3.232668,-3.79219 9.025027,1.92394 -4.474224,-12.211773 3.433929,-6.79526 -0.581615,12.91782 12.573513,5.2667 12.519263,-3.92543 5.5781,-11.295758 -5.518737,-0.7934 -3.469503,5.93343 -8.133993,1.79903 5.904213,-11.144491 -1.859481,-6.62507 -4.208908,6.1342 -5.764522,-5.21172 1.14327,-2.292505 9.629944,-4.895599 -7.250884,-5.018353 -6.320966,2.000582 -3.295089,3.919443 1.223063,-9.100124 -4.970049,-3.136387 -4.762993,1.246489 -5.503791,9.63482 -6.152524,0.578422 -1.154986,-6.050724 -6.648208,-10.41192 -8.154266,-14.601216 -6.594812,-0.263048 6.386169,7.986889 2.829932,12.729859 0.03284,4.35314 -0.08056,9.717865 -2.782796,2.937366 -6.888403,-2.591596 -3.746965,-13.742978 -7.410186,-14.956482 -7.758244,0.95159 -9.08328,4.647509 -2.984042,9.608555 4.056453,4.349696 0.168623,23.176366 -2.815426,9.390716 -5.481702,-3.842676 -0.890554,-20.18512 -8.191092,-10.34033 -3.884935,5.061684 10.271807,16.93882 2.134481,20.67913 -2.643205,-1.32354 -12.392347,-23.771038 -6.632054,-15.169355 -5.561892,7.804915 -0.08379,21.607605 -10.544339,26.253625 l -0.0021,-1.44084 0,0 1.4e-5,2e-5 c -5.439798,-11.57366 5.016009,-17.9317 10.33299,-26.331616 -3.789731,6.342886 -15.373196,8.249736 -19.107896,5.477586 3.384679,-3.254315 9.910739,-9.139811 3.142363,-1.782265 4.283059,-2.491606 23.988036,-6.333259 9.926469,-7.114744 -11.26471,1.16568 5.572668,-0.809132 8.863389,0.318178 7.005521,-5.344608 -8.781863,-2.485059 -11.765705,-7.108893 -1.211423,-5.048458 16.771897,-7.413852 20.031309,-0.154347 4.599685,-2.770573 12.813757,-2.982443 4.040486,-7.312547 -4.765825,-4.260315 -7.027361,-18.99457 1.193369,-8.547152 5.193831,3.773737 7.065389,19.707183 12.994779,8.014822 -3.924167,-5.330854 -5.724929,-16.729193 1.933075,-6.845378 2.146928,5.671434 12.249395,-2.285003 3.430992,-2.728426 -4.616089,-6.600961 12.175523,-7.16264 1.23814,-3.961871 7.950036,0.02335 0.820633,-0.501857 -1.046126,2.231555 1.364978,1.741712 6.725338,4.593268 8.148827,1.060183 -0.188209,-0.513644 7.733351,-10.154565 3.565839,-13.433404 9.250747,2.331384 3.613183,4.344201 5.911488,6.160543 8.330439,6.952773 0.253788,-3.908715 5.124879,-3.86377 -0.022,10.822804 13.72372,11.095602 5.58175,5.492429 -3.47743,-4.195983 -6.14913,-6.70679 1.06046,-2.118489 -3.48128,3.091071 25.38899,6.233851 8.35259,5.623089 -9.32659,-0.29202 -16.59999,11.782291 -15.61622,12.477073 -1.65366,2.985344 -10.956461,13.531693 -8.468458,12.200381 4.412791,-1.910992 16.768498,-8.562889 6.117798,-2.476696 -5.352212,2.788446 -7.118423,3.775427 -0.23125,2.49658 -4.825374,1.154653 -17.592782,5.631173 -5.184294,3.019762 4.965104,-0.553431 18.013754,-3.294707 18.560294,-2.842914 -3.50659,0.862021 -14.836281,3.023435 -4.77452,1.986945 7.53916,-0.310142 24.52568,-4.705978 22.66311,-12.229964 -1.39609,-3.43644 -3.79086,-1.106014 -2.49959,-4.41643 -4.32362,2.149899 2.36324,-4.732826 -4.90023,-2.721155 -5.21714,1.444368 -11.32752,2.647199 -2.37654,0.07927 13.14503,-3.733552 -6.93394,-0.872674 -10.4608,1.542618 -5.88484,3.136234 -7.76913,3.631147 -0.83681,-0.008 4.76623,-2.135852 23.0058,-5.782117 10.98506,-5.458673 12.05394,-2.924359 -8.85585,-1.529416 -11.3671,2.083408 -10.836382,5.720699 7.61498,-5.587192 12.19429,-4.120051 14.87196,-3.229068 -18.99099,-7.484025 -5.98125,-5.62535 5.24639,2.481477 16.14874,0.49854 4.48189,-0.936512 5.75231,2.444052 9.70523,-2.011268 1.54106,-2.093521 -5.58454,-0.778154 -26.811997,-7.444962 -16.85171,-4.967167 4.42551,2.371981 27.16311,4.294264 17.77018,2.229233 -10.80413,-2.784441 14.19602,2.759646 1.03202,-1.448467 -0.47647,0.487007 9.64787,0.845857 2.00168,-2.271922 -3.32994,-1.087032 -10.49723,-3.345792 -2.37248,-1.129749 8.63704,5.263577 2.99014,-1.561518 3.98482,-1.577522 10.92735,4.983194 -9.29336,-9.821423 0.97797,-1.271807 -2.45158,-1.629016 -19.55664,-6.530116 -22.89449,-1.927208 4.58521,-0.108281 23.22007,2.049275 9.18541,0.840304 -6.386,-0.958079 -16.299708,1.477815 -15.4136,0.677156 2.1305,3.359165 -4.999645,0.978079 -6.114933,5.26573 -16.609721,-2.72365 18.528243,-6.490687 25.329053,-17.254627 -0.41673,-9.261359 1.42983,-17.397412 -4.80997,-24.542921 2.53374,-1.2726339 23.99943,6.446177 29.29536,11.77214 2.87688,-5.364806 19.23989,-18.7211196 18.43082,-26.0570984 5.39966,-5.1242644 -0.28599,12.0056538 5.33575,14.5623734 6.53009,7.402824 7.01955,21.61414 5.98773,27.247514 12.75036,-5.899998 27.91152,1.579868 40.25774,-5.643546 5.98705,4.196663 -11.10386,6.085673 -12.3926,12.174286 -2.37709,4.341902 -15.24778,20.756317 -5.66341,17.156288 2.9545,-3.499665 10.82661,-6.942692 7.36177,-12.463561 2.80918,-6.329083 7.63131,1.885369 1.64074,3.478394 0.72109,5.43989 11.4605,-8.566769 8.32292,1.438406 -4.90362,-0.557088 -11.59145,1.185181 -8.15109,3.027875 -7.85855,9.708221 20.48758,0.09885 10.50978,-8.976747 -6.65659,-5.324568 5.19553,-6.63094 1.17425,1.614217 3.85794,6.8298 3.86638,-6.844632 2.28105,-8.966001 8.75841,-4.793944 -3.06601,15.311427 7.37133,5.557384 1.55734,-8.02668 8.35847,0.0014 -0.0864,0.996077 -6.40296,0.856594 -13.73504,14.878404 -2.86066,6.673431 9.19491,-1.092791 5.82825,-15.590529 12.05074,-15.330911 0.0537,3.966976 -10.30995,15.936518 -0.25539,8.143592 7.40784,-3.137686 5.5302,-10.898178 0.51615,-14.602265 -5.32201,-5.212114 6.65039,-5.110747 2.66661,1.628972 3.18978,9.363043 4.57266,-0.872486 1.99399,-4.323669 10.39251,-5.247582 -5.16169,19.093459 4.8791,10.331248 7.98705,-4.081781 6.74978,-12.938011 0.33089,-17.01862 5.22438,-8.467365 5.25359,14.942688 7.3333,1.789234 -5.66006,-7.894315 6.54911,-6.589066 0.81023,0.04042 -0.5476,5.968412 -3.60372,13.287631 3.72621,5.036992 3.97674,-1.472301 4.57048,-14.720812 8.04286,-7.528348 -5.09208,4.403573 -9.28228,10.905602 0.4978,6.941535 3.53886,-0.712426 14.1107,-3.31107 8.15359,2.552928 -3.6604,-3.634535 -11.95066,-0.529964 -3.93743,1.645704 -0.75729,9.879751 -3.96125,-6.508374 -9.89231,-1.809611 -4.78232,0.926259 -21.6094,14.418886 -7.85144,9.055484 2.8654,-1.816179 12.98391,-7.010271 8.52774,0.380915 -4.41009,-3.736391 -11.93866,2.366906 -3.12081,2.320362 4.70294,4.80372 -4.19598,4.776238 -4.42402,-0.299924 -6.30135,-3.209789 -24.99359,7.15556 -9.32939,5.666172 4.85692,-3.685927 10.06776,4.339707 2.99119,3.355858 -4.01503,-5.931113 -7.24617,0.435696 0.46418,2.290202 4.29545,-2.770599 9.88258,3.65996 3.22775,3.503882 -4.9377,-5.624333 -16.4832,-12.473172 -20.68296,-4.910491 4.67461,-0.421367 18.46368,4.742991 8.55735,5.845112 -3.87003,-9.013521 -4.88111,2.284596 2.21162,2.990623 8.5636,-2.433708 -0.89468,10.55575 -3.9527,2.808953 -6.9029,-8.72181 -1.26508,3.850048 -6.29251,1.359051 3.53349,-4.191133 6.24049,-14.791132 -4.35328,-11.085246 -3.21602,2.176952 -19.87735,6.795124 -10.14988,6.019175 2.9613,2.606935 14.40312,-10.026448 9.87792,-0.893542 -6.16296,-1.634054 -7.5145,4.171128 -0.3912,1.993509 1.35054,9.110618 -12.0979,-6.906505 -14.03598,5.02623 7.52361,-0.854 0.23975,7.043885 -1.697,0.688877 -4.51032,4.128642 5.31045,11.191505 6.47011,2.952394 3.58433,-4.483239 17.23676,-7.331405 7.04508,0.251068 -3.09916,5.479134 -11.95367,5.40442 -3.9815,11.417074 1.70322,-1.9201 9.77661,-11.91841 15.53903,-10.32684 -2.99055,5.635493 -9.12703,12.824068 -11.91859,14.894932 3.59293,4.713847 7.84993,8.937428 7.51716,0.183784 1.54663,-4.982197 12.66936,-16.560402 7.99909,-4.673196 2.94162,8.065026 -13.09316,13.581048 -0.85579,16.173229 6.88327,2.011813 2.39589,-13.671632 11.21051,-15.237919 7.88655,-6.251651 0.013,9.254402 -1.84793,12.888478 -10.86842,5.414264 10.40083,6.893194 6.4153,-1.562843 -1.26819,-6.193384 12.64575,-17.644222 8.11971,-5.82924 1.42343,6.006344 -11.37393,13.446597 -0.0676,9.512288 3.14749,-6.147535 17.80845,-13.611403 19.83584,-8.85026 -4.13135,11.599899 -15.51124,9.551374 -25.02404,10.847729 3.66495,0.25212 14.78295,3.19677 17.66249,9.90124 -8.35912,0.41627 -19.02699,0.8721 -21.7668,-9.23332 -11.235,-2.13365 3.77789,7.59241 2.31565,13.11783 -0.84638,4.65294 -18.61669,-5.52943 -13.71242,-13.72752 -5.60473,-1.616506 -11.93004,-7.504089 -8.42877,2.66624 -0.13114,5.30978 -8.16241,17.96006 -6.85545,5.56121 -2.02743,-8.5293 8.793,-14.907303 -2.1657,-20.044751 -4.93067,-6.718311 0.90253,10.612555 -4.9891,12.560991 -5.06803,6.15132 -2.68878,-13.800195 0.94628,-16.197579 -1.89587,-5.298634 -7.24444,-11.631839 -5.43928,-1.163571 -2.0358,5.116639 -7.13074,11.034563 -6.40195,1.381856 -8.22955,-2.645397 -21.69945,4.656025 -29.70455,2.20034 4.12169,21.715514 3.8318,32.331234 -0.69701,29.124844 -5.04074,-2.29108 -18.58988,3.09065 -23.83495,-6.58253 -1.97496,2.12373 -3.76559,3.79363 -5.41201,5.29454"
       id="path4996" />
    <path
       style="fill:none;stroke:#f7afc9;stroke-width:2;stroke-miterlimit:4;stroke-opacity:1;stroke-dasharray:none"
       d="m 87.406538,92.899258 c 5.772502,-4.286517 -0.554934,-10.544144 -8.784862,-9.094183 3.74652,2.132896 5.090793,11.167413 8.784862,9.094183 z"
       id="path4930"
       inkscape:connector-curvature="0" />
    <path
       style="fill:none;stroke:#f7afc9;stroke-width:2;stroke-miterlimit:4;stroke-opacity:1;stroke-dasharray:none"
       d="m 86.202726,82.766686 c 12.14347,2.686953 -2.716988,-3.969584 -1.003067,-9.89059 -6.035384,0.87842 -3.609962,9.944301 1.003067,9.89059 z"
       id="path4910"
       inkscape:connector-curvature="0" />
    <path
       style="fill:none;stroke:#f7afc9;stroke-width:2;stroke-miterlimit:4;stroke-opacity:1;stroke-dasharray:none"
       d="m 91.291911,91.032945 c 4.449547,-9.758339 -3.224577,-3.332554 0,0 z"
       id="path4908"
       inkscape:connector-curvature="0" />
    <path
       style="fill:none;stroke:#f7afc9;stroke-width:2;stroke-miterlimit:4;stroke-opacity:1;stroke-dasharray:none"
       d="m 97.120183,77.483737 c 3.776327,-4.312175 -1.54259,-14.911138 -4.548799,-6.42328 -2.131845,2.369199 1.918145,6.745548 4.548799,6.42328 z"
       id="path4896"
       inkscape:connector-curvature="0" />
    <path
       style="fill:none;stroke:#f7afc9;stroke-width:2;stroke-miterlimit:4;stroke-opacity:1;stroke-dasharray:none"
       d="m 103.82928,93.867149 c 10.85002,1.671258 26.26656,-1.138296 29.69562,-11.905824 -7.35759,10.591516 -21.69418,10.430976 -33.25035,11.717233 1.10822,0.556729 2.39767,0.03938 3.55473,0.188591 z"
       id="path4890"
       inkscape:connector-curvature="0" />
    <path
       style="fill:none;stroke:#f7afc9;stroke-width:2;stroke-miterlimit:4;stroke-opacity:1;stroke-dasharray:none"
       d="m 135.6836,125.82394 c 0.58374,-7.25231 -0.58237,-19.34145 0.97397,-10.4692 1.51859,-15.503385 -1.15237,19.44487 1.93172,3.97901 0.67199,-5.73617 3.57281,-15.19836 1.75773,-4.38737 -1.30273,6.59091 -0.61108,6.40465 0.98044,-0.0454 1.81657,-6.06775 -1.27323,8.0194 1.61842,-2.1014 3.37957,-10.61602 -1.44624,7.2559 1.85766,-2.44709 -1.08828,4.78949 -3.51685,11.39755 0.78272,2.60859 2.74851,-5.00206 -3.7013,9.7368 1.5805,-0.41809 2.45819,-6.54622 2.6314,-5.39036 0.55694,0.62587 4.48721,0.23304 0.10166,-1.87979 3.84763,-6.5678 2.31022,-4.51596 -0.41507,-9.368955 -1.04091,-2.92014 1.52928,-5.071439 -0.92275,-13.860371 -0.83344,-3.709571 -0.3143,5.789151 -3.80432,13.158251 -0.9654,3.324021 2.03165,-5.501283 -0.0897,-22.959377 -0.60717,-8.048937 0.15796,4.938667 -4.26124,20.463357 -1.28086,7.029547 1.1211,-4.898614 1.67466,-17.677097 -0.389,-13.799161 -2.12788,-3.368308 -0.699,3.205653 -3.06838,-2.274414 -3.43633,-0.77285 -4.26577,0.675852 -5.59154,-1.008883 -1.95119,4.764733 -1.91059,22.548798 -2.32664,20.695698 -1.45897,-6.55191 3.13129,-18.266248 0.73886,-21.692545 -2.49405,2.259045 -5.5799,32.702625 -3.80208,20.497895 -1.00265,-6.160019 3.05451,-19.098319 2.36784,-20.336569 -6.28249,8.999626 -6.45922,20.701689 -2.52138,30.650239 2.86651,13.5147 -1.0233,-15.227417 1.13707,-0.66844 0.7307,1.32882 1.47938,15.26219 2.29513,11.48413 z"
       id="path4858"
       inkscape:connector-curvature="0" />
    <path
       style="fill:none;stroke:#f7afc9;stroke-width:2;stroke-miterlimit:4;stroke-opacity:1;stroke-dasharray:none"
       d="m 143.65115,105.64139 c 0.8788,-4.36795 1.53557,-23.650476 1.30718,-10.097278 0.38103,1.521002 -2.14285,18.003728 -1.30718,10.097278 z"
       id="path4844"
       inkscape:connector-curvature="0" />
    <path
       style="fill:none;stroke:#f7afc9;stroke-width:2;stroke-miterlimit:4;stroke-opacity:1;stroke-dasharray:none"
       d="m 131.81135,119.21974 c -3.73799,-8.78383 -7.8057,-18.69237 -2.72826,-27.926627 1.96178,-6.817613 -7.44098,7.770642 -4.31174,10.651617 0.53096,6.2469 3.40359,12.3065 7.04,17.27501 z"
       id="path4834"
       inkscape:connector-curvature="0" />
    <path
       style="fill:none;stroke:#f7afc9;stroke-width:2;stroke-miterlimit:4;stroke-opacity:1;stroke-dasharray:none"
       d="m 159.75474,114.07293 c 10.63915,-0.81262 -3.08356,-2.66562 2.48099,-2.73068 7.14772,3.40437 9.27827,3.28276 1.99154,-0.89047 -4.32721,-1.97142 -13.9367,-20.116352 -6.20378,-7.68385 2.51898,4.45729 11.13358,11.82364 14.44576,10.47468 -9.02394,-7.10029 -1.33345,-2.64926 3.4938,1.02691 -5.10858,-8.48259 -1.40879,-2.39189 2.56341,1.31979 -1.20229,-2.64459 -3.85386,-7.68099 -0.80001,-3.2146 -1.29179,-4.46791 -7.66266,-15.852925 -1.54119,-4.86851 4.98359,5.76811 -2.98614,-13.841411 1.94754,-3.8348 0.0917,-7.25163 -0.85979,-4.268463 -3.07666,-11.626059 1.33939,-1.558474 -6.26182,-9.006722 -2.51013,-3.487006 -4.01647,-4.734134 -12.3605,-7.210476 -3.52666,-1.174675 4.26091,4.060621 -12.7533,-8.620955 -3.5733,-1.07328 8.87839,8.031402 -7.72187,-6.096698 -2.73916,0.339078 -6.18625,-4.576691 1.16792,3.5657 -4.38071,-1.059616 1.50601,4.575515 -4.28598,-1.99409 -1.70104,4.05902 -5.59393,-10.781394 -2.42184,12.157988 -4.25664,-0.07608 -3.06172,-6.027201 -1.50084,10.982378 1.59146,13.223488 1.4074,3.82684 10.75678,10.10886 3.47337,6.22737 1.12059,1.09409 0.69049,4.97083 2.32141,5.0493 z"
       id="path4752"
       inkscape:connector-curvature="0" />
    <path
       style="fill:none;stroke:#f7afc9;stroke-width:2;stroke-miterlimit:4;stroke-opacity:1;stroke-dasharray:none"
       d="m 160.80439,101.78569 c 3.85576,3.59982 6.69369,8.17164 1.09166,1.64261 l -0.73475,-0.87637 z"
       id="path4750"
       inkscape:connector-curvature="0" />
    <path
       style="fill:none;stroke:#f7afc9;stroke-width:2;stroke-miterlimit:4;stroke-opacity:1;stroke-dasharray:none"
       d="m 171.61914,102.85835 c -2.75455,-4.085215 -9.03142,-14.48942 -2.5633,-4.725543 2.49376,3.487593 8.28918,13.369113 2.5633,4.725543 z"
       id="path4728"
       inkscape:connector-curvature="0" />
    <path
       style="fill:none;stroke:#f7afc9;stroke-width:2;stroke-miterlimit:4;stroke-opacity:1;stroke-dasharray:none"
       d="m 126.32663,43.853842 c 4.07939,3.84231 -3.88132,-5.53121 1.47604,0.09851 4.61823,3.713892 7.89162,3.993956 1.84728,-0.589078 -2.64346,-1.405642 12.69331,7.832866 2.24888,0.104468 -3.61453,-3.771174 6.79442,5.027332 5.83936,1.974574 2.27319,-0.794144 -2.76827,-3.080358 3.03822,-0.373551 2.70376,-1.11631 -0.0649,-6.023213 3.29101,-1.053884 3.16261,-0.244251 0.54468,-10.526347 2.40881,-0.508719 3.83802,-7.444844 -2.24361,-19.500751 -10.08027,-23.718119 -3.71121,-2.627363 -12.65773,-5.099705 -4.33501,-0.904558 5.91058,2.522322 14.25969,20.307577 5.14533,7.618055 -1.27402,-4.960337 -19.28626,-14.311529 -8.12596,-6.7715 6.00277,5.799998 -12.77682,-9.649847 -4.39546,0.428527 -0.46093,0.666098 -6.20007,-9.589812 -4.06463,-1.465705 1.66325,4.172563 11.53285,18.831587 4.52755,9.275364 -8.17939,-13.540111 4.71616,15.106776 -2.1279,0.943916 -5.97874,-11.683796 4.22006,12.724604 -1.81421,-0.777442 -2.79554,-0.54678 4.36365,12.688437 2.33461,12.023405 l 1.13747,1.990949 1.64887,1.704777 0,-5e-6 z"
       id="path4520"
       inkscape:connector-curvature="0" />
    <path
       style="fill:none;stroke:#f7afc9;stroke-width:2;stroke-miterlimit:4;stroke-opacity:1;stroke-dasharray:none"
       d="m 127.32519,25.067964 c 1.02085,-4.326855 14.67167,24.133143 8.08672,13.805596 z"
       id="path4492"
       inkscape:connector-curvature="0" />
    <path
       style="fill:none;stroke:#f7afc9;stroke-width:2;stroke-miterlimit:4;stroke-opacity:1;stroke-dasharray:none"
       d="m 171.65674,83.730716 c 5.21686,3.476139 18.32054,3.640456 19.72758,0.898513 -2.86832,-0.247374 13.34607,-0.882393 1.60398,-1.373153 -10.97416,-1.356782 16.42276,1.328438 2.00513,-1.585322 4.65744,-0.382206 14.82574,6.265426 14.98825,-3.024514 -5.51036,-12.481866 -17.92085,-14.849142 -12.23003,-7.827622 5.8408,7.451859 -5.77841,-2.860374 -10.58833,-4.306219 -4.22606,-0.378809 7.40281,5.309787 12.03387,11.173409 -4.81815,-3.0036 -16.62234,-12.261899 -21.70756,-11.160003 9.2702,4.718898 -15.7645,-0.862772 -1.10405,1.471427 1.28351,0.0063 -10.98176,0.555453 -0.84417,1.852973 5.80923,0.43824 20.48227,6.418765 16.64252,5.073525 -6.24067,-1.317585 -17.05563,-7.540754 -21.41027,-3.494088 4.54358,0.89726 16.99714,3.266432 16.40626,4.085666 -3.16564,-0.713643 -22.1229,-5.981757 -14.13234,-0.825357 9.39726,2.195094 -10.61783,-1.86433 -0.30304,1.670494 8.7263,2.288516 -10.33666,-2.73818 -1.6598,2.271596 11.11787,4.343517 -10.15723,-4.473264 -1.09091,2.52315 3.85901,1.656446 13.89659,3.565811 4.23496,1.77927 -4.29293,-1.678278 -9.62292,-3.621706 -2.57205,0.796255 z"
       id="path4418"
       inkscape:connector-curvature="0" />
    <path
       style="fill:none;stroke:#f7afc9;stroke-width:2;stroke-miterlimit:4;stroke-opacity:1;stroke-dasharray:none"
       d="m 149.89307,41.790138 c 0.48503,-11.86244 0.29927,8.44905 1.82391,-1.07781 -0.80149,-6.756235 2.00439,-17.801248 2.5492,-21.759228 -2.41158,3.469606 -4.73712,25.158722 -3.09355,10.568508 0.3967,-7.106284 8.12053,-19.9188506 0.14441,-15.103406 3.69842,-0.42692 -7.0657,19.735102 -1.56319,6.35123 2.41958,-7.756289 -7.67418,9.111722 -2.18595,12.866806 1.50494,8.457594 0.68472,-9.404936 3.50502,-12.419647 3.58583,-8.161266 -3.32587,9.572461 -2.16109,12.567705 -0.0595,1.011548 -0.1393,9.666214 0.98124,8.005842 z"
       id="path4322"
       inkscape:connector-curvature="0" />
    <path
       style="fill:none;stroke:#f7afc9;stroke-width:2;stroke-miterlimit:4;stroke-opacity:1;stroke-dasharray:none"
       d="m 152.88231,43.970632 c 0.7284,-4.357573 2.90102,4.942048 2.94356,-2.916137 -0.65103,4.471708 2.2069,4.257865 1.85545,1.724079 3.25155,9.384037 5.6412,-9.538908 4.88584,-15.358873 -0.35902,-5.03789 0.0755,-16.327263 0.35423,-5.314198 1.33983,7.631246 -2.42182,19.317083 -0.81007,24.559679 2.72554,-4.329049 4.55017,-23.676584 3.37209,-10.109346 -1.10736,5.504994 -5.10513,16.693877 0.81301,5.139013 4.99383,-9.237488 1.75575,-21.85459 -1.449,-29.750248 -1.07836,-2.1487441 -2.06419,-14.6946799 -2.28344,-2.7701411 -0.11497,3.3553741 0.43675,7.1849081 -0.81817,4.7864321 -0.40765,8.604007 -0.37721,17.300915 -1.75953,25.808095 0.58523,-10.95282 1.66503,-22.386564 1.26611,-33.1010914 -2.54013,3.8657674 -2.6928,19.4792474 -3.19146,17.2707544 0.71832,-15.5420982 -2.87917,20.724659 -1.46803,2.556587 0.73595,-4.792867 3.13309,-22.6521597 -0.98322,-8.983582 -2.40367,8.289844 -4.8769,18.405439 -2.72737,26.458977 z"
       id="path4310"
       inkscape:connector-curvature="0" />
    <path
       style="fill:none;stroke:#f7afc9;stroke-width:2;stroke-miterlimit:4;stroke-opacity:1;stroke-dasharray:none"
       d="m 157.33563,13.794857 c 1.03931,-3.293705 -0.47828,3.309567 0,0 z"
       id="path4300"
       inkscape:connector-curvature="0" />
    <path
       style="fill:none;stroke:#f7afc9;stroke-width:2;stroke-miterlimit:4;stroke-opacity:1;stroke-dasharray:none"
       d="m 176.04361,65.390953 c 5.67724,0.304586 9.05871,-1.378605 9.31256,-0.886707 4.06787,-2.330142 14.75758,-18.765828 3.26737,-9.981638 -1.39732,0.541009 9.34279,-4.80333 10.385,-9.622731 2.91859,-4.558136 -16.32357,7.183497 -2.96509,-1.64236 -5.08761,1.833965 -11.99199,4.05696 -5.17108,0.284182 3.036,-3.388814 23.07835,-7.932729 12.59675,-6.048884 -5.22835,0.627763 -20.27434,2.731723 -18.1903,2.728881 5.68782,-1.093134 11.49889,-2.65089 2.35358,-1.623083 -7.26635,0.707482 -22.40324,4.289002 -21.28186,11.965373 0.82683,5.26096 6.82937,-0.595921 2.34476,4.376804 3.94711,-0.389682 14.96798,-4.523516 5.49076,-0.936113 -10.54856,3.360474 0.94338,2.007131 5.05307,0.536018 -3.2139,0.574054 -14.73149,4.792303 -4.7572,3.185323 4.63703,-1.306606 15.16336,-4.60735 5.05824,-0.97451 -6.7848,1.027138 -10.06281,3.530703 -6.08619,3.498653 -8.3457,4.851892 13.45534,-2.084248 13.78644,-2.136473 -3.57615,2.789891 -14.85599,7.644803 -14.605,5.295623 6.17981,1.136475 15.68409,-4.388099 18.77334,-5.419069 -4.51665,4.914252 -16.11847,4.458546 -18.75752,7.166512 l 1.24967,0.168503 z"
       id="path4272"
       inkscape:connector-curvature="0" />
    <path
       style="fill:none;stroke:#f7afc9;stroke-width:2;stroke-miterlimit:4;stroke-opacity:1;stroke-dasharray:none"
       d="m 164.31187,47.181143 c 6.64449,-8.118971 9.46085,-19.906696 4.11933,-29.464012 2.31079,0.511618 5.7354,16.396509 0.83974,22.048178 0.37921,4.849505 6.63802,-8.290568 4.27477,-12.42083 -0.35917,-4.719079 -7.14742,-20.3134409 -7.32635,-13.978532 2.90721,9.476555 5.15016,20.030056 0.1467,29.315894 0.20018,0.206839 -4.03126,6.33854 -2.05419,4.499302 z"
       id="path4216"
       inkscape:connector-curvature="0" />
    <path
       style="fill:none;stroke:#f7afc9;stroke-width:2;stroke-miterlimit:4;stroke-opacity:1;stroke-dasharray:none"
       d="m 103.10917,117.51467 c 2.83766,-5.33949 0.52122,-11.26624 8.28246,-8.42487 -2.93786,3.67518 13.76315,2.52395 3.23577,4.27987 -3.35929,7.37549 -8.07305,-11.01541 -9.1255,-0.17514 0.57587,5.78937 5.65621,5.86109 1.07584,6.3264 -0.22597,-1.30292 -3.63437,0.62885 -3.46857,-2.00625 z"
       id="path4084"
       inkscape:connector-curvature="0" />
    <path
       style="fill:none;stroke:#f7afc9;stroke-width:2;stroke-miterlimit:4;stroke-opacity:1;stroke-dasharray:none"
       d="m 105.39901,86.995597 c 5.64684,-2.23745 27.22801,-9.797808 14.5318,-4.959168 -1.70445,0.507673 -13.48388,5.141936 -14.5318,4.959168 z"
       id="path4042"
       inkscape:connector-curvature="0" />
    <path
       style="fill:none;stroke:#f7afc9;stroke-width:2;stroke-miterlimit:4;stroke-opacity:1;stroke-dasharray:none"
       d="m 107.14607,88.530805 c 5.87938,-2.061611 12.13941,-3.021584 2.25269,-0.44178 l -1.47179,0.370044 -0.7809,0.07173 z"
       id="path4040"
       inkscape:connector-curvature="0" />
    <path
       style="fill:none;stroke:#f7afc9;stroke-width:2;stroke-miterlimit:4;stroke-opacity:1;stroke-dasharray:none"
       d="m 120.89438,77.963049 c 6.18693,-3.191663 -9.28913,4.848616 -14.10959,6.368707 z"
       id="path4032"
       inkscape:connector-curvature="0" />
    <path
       style="fill:none;stroke:#f7afc9;stroke-width:2;stroke-miterlimit:4;stroke-opacity:1;stroke-dasharray:none"
       d="m 105.92624,82.050976 c 10.39008,-5.321955 3.35637,-0.645935 0,0 z"
       id="path4028"
       inkscape:connector-curvature="0" />
    <path
       style="fill:none;stroke:#f7afc9;stroke-width:2;stroke-linecap:butt;stroke-linejoin:miter;stroke-opacity:1;stroke-miterlimit:4;stroke-dasharray:none"
       d="m 134.8755,50.281255 c -0.2381,0.952381 -0.47619,1.904762 -0.71429,2.857143 -0.23809,0.238095 -0.5637,0.413116 -0.71428,0.714285 -0.21296,0.425918 0.21296,1.002654 0,1.428572 -0.15059,0.301169 -0.5637,0.413116 -0.71429,0.714285 -0.10648,0.212959 0,0.476191 0,0.714286 0,0.238095 0,0.476191 0,0.714286 0,0.238095 0.16836,0.545927 0,0.714286 -0.16836,0.168358 -0.54593,-0.168359 -0.71428,0 -0.16836,0.168358 0,0.47619 0,0.714285 0,0.238095 0,0.476191 0,0.714286 0,0.238095 0.10647,0.501327 0,0.714286 -0.15059,0.301169 -0.56371,0.413116 -0.71429,0.714285 -0.10648,0.212959 0,0.476191 0,0.714286 0,0.476191 0.15058,0.976818 0,1.428571 -0.10648,0.319439 -0.5637,0.413117 -0.71429,0.714286 -0.10648,0.212959 0,0.476191 0,0.714286 0,1.428571 0,2.857143 0,4.285714 0,0.238095 -0.16836,0.545927 0,0.714286 0.16836,0.168359 0.54593,-0.168359 0.71429,0 0.16836,0.168359 -0.16836,0.545927 0,0.714286 0.16836,0.168358 0.54593,-0.168359 0.71429,0 0.16835,0.168358 -0.16836,0.545927 0,0.714285 0.16835,0.168359 0.54592,-0.168358 0.71428,0 0.16836,0.168359 -0.16836,0.545927 0,0.714286 0.16836,0.168359 0.54593,-0.168359 0.71429,0 0.16836,0.168359 -0.10648,0.501327 0,0.714286 0.30117,0.602338 1.1274,0.826233 1.42857,1.428571 0.10648,0.212959 -0.16836,0.545927 0,0.714286 0.16836,0.168359 0.54592,-0.168359 0.71428,0 0.16836,0.168359 -0.10648,0.501327 0,0.714286 0.15059,0.301169 0.47619,0.47619 0.71429,0.714285 0.23809,0.238096 0.47619,0.476191 0.71429,0.714286 0.48,0.48 0.94857,0.948571 1.42857,1.428571 0.23809,0.238096 0.41311,0.563701 0.71428,0.714286 0.21296,0.10648 0.50133,-0.106479 0.71429,0 0.30117,0.150585 0.41311,0.563701 0.71428,0.714286 0.29797,0.148983 1.26228,-0.16629 1.42858,0 0.16835,0.168359 -0.16836,0.545927 0,0.714286 0.16629,0.16629 1.1306,-0.148983 1.42857,0 0.30117,0.150584 0.41311,0.563701 0.71428,0.714285 0.21296,0.10648 0.47619,0 0.71429,0 0.47619,0 0.95238,0 1.42857,0 0.23809,0 0.54593,-0.168359 0.71429,0 0.16835,0.168359 -0.16836,0.545927 0,0.714286 0.16835,0.168359 0.47619,0 0.71428,0 1.42857,0 2.85714,0 4.28572,0 0.23809,0 0.47619,0 0.71428,0 0.2381,0 0.50133,0.106479 0.71429,0 0.30117,-0.150585 0.41311,-0.563701 0.71428,-0.714286 0.21296,-0.106479 0.47619,0 0.71429,0 0.23809,0 0.47619,0 0.71428,0 0.2381,0 0.50133,0.10648 0.71429,0 0.30117,-0.150584 0.41312,-0.563701 0.71428,-0.714285 0.29797,-0.148983 1.26229,0.16629 1.42858,0 0.16836,-0.168359 -0.16836,-0.545927 0,-0.714286 0.16836,-0.168359 0.50132,0.106479 0.71428,0 0.30117,-0.150585 0.41312,-0.563701 0.71429,-0.714286 0.21296,-0.106479 0.54592,0.168359 0.71428,0 0.16836,-0.168359 -0.16836,-0.545927 0,-0.714286 0.16836,-0.168358 0.54593,0.168359 0.71429,0 0.16836,-0.168358 -0.16836,-0.545927 0,-0.714285 0.16836,-0.168359 0.50133,0.106479 0.71428,0 0.30117,-0.150585 0.41312,-0.563701 0.71429,-0.714286 0.21296,-0.106479 0.54593,0.168359 0.71429,0 1.47788,-1.477883 -2.2584,0.05777 0.71428,-1.428571 0.21296,-0.10648 0.50133,0.106479 0.71429,0 0.30117,-0.150585 0.47619,-0.476191 0.71428,-0.714286 0.2381,-0.238095 0.47619,-0.476191 0.71429,-0.714286 0.23809,-0.238095 0.47619,-0.47619 0.71428,-0.714286 0.2381,-0.238095 0.56371,-0.413116 0.71429,-0.714285 0.10648,-0.212959 -0.16836,-0.545927 0,-0.714286 0.16836,-0.168359 0.54593,0.168359 0.71429,0 0.33671,-0.336717 -0.33672,-1.091854 0,-1.428571 0.16836,-0.168359 0.54592,0.168358 0.71428,0 0.16836,-0.168359 0,-0.476191 0,-0.714286 0,-0.476191 0,-0.952381 0,-1.428572 0,-0.238095 0.16836,-0.545926 0,-0.714285 -0.16836,-0.168359 -0.54592,0.168359 -0.71428,0 -0.16629,-0.16629 0.14898,-1.130606 0,-1.428572 -0.15059,-0.301169 -0.5637,-0.413116 -0.71429,-0.714285 -0.21296,-0.425918 0.21296,-1.002654 0,-1.428572 -0.15058,-0.301169 -0.5637,-0.413116 -0.71429,-0.714286 -0.10647,-0.212958 0.16836,-0.545926 0,-0.714285 -0.16835,-0.168359 -0.54592,0.168359 -0.71428,0 -0.16836,-0.168359 0.10648,-0.501327 0,-0.714286 -0.30117,-0.602339 -1.1274,-0.826233 -1.42857,-1.428571 -0.10648,-0.212959 0.16836,-0.545927 0,-0.714286 -0.16836,-0.168359 -0.50133,0.106479 -0.71429,0 -1.57932,-0.789663 -0.22166,-0.443316 -0.71428,-1.428571 -1.48635,-2.972687 0.0493,0.763596 -1.42858,-0.714286 -0.16835,-0.168359 0.10648,-0.501327 0,-0.714286 -1.48634,-2.972686 0.0493,0.763597 -1.42857,-0.714286 -0.16836,-0.168358 0.16836,-0.545927 0,-0.714285 -1.47788,-1.477883 0.0578,2.2584 -1.42857,-0.714286 -0.10648,-0.212959 0.16836,-0.545927 0,-0.714286 -1.47788,-1.477882 0.0578,2.258401 -1.42857,-0.714285 0,-1.904762 0.2381,0.238095 -0.71429,-0.714286 -0.16835,-0.168359 0.16836,-0.545927 0,-0.714286 -0.16835,-0.168359 -0.54592,0.168359 -0.71428,0 -0.16836,-0.168359 0.16836,-0.545927 0,-0.714286 -0.16836,-0.168358 -0.54593,0.168359 -0.71429,0 -0.16836,-0.168358 0.16836,-0.545927 0,-0.714285 -0.33671,-0.336718 -1.09185,0.336717 -1.42857,0 -0.16836,-0.168359 0.16836,-0.545927 0,-0.714286 -0.47059,-0.470588 -0.95798,0.470588 -1.42857,0 -0.16836,-0.168359 0.16836,-0.545927 0,-0.714286 -0.16836,-0.168358 -0.47619,0 -0.71428,0 -0.95239,0 -1.90477,0 -2.85715,0 -0.23809,0 -0.47619,0 -0.71428,0 -0.2381,0 -0.50133,-0.106479 -0.71429,0 -0.30117,0.150585 -0.41312,0.563701 -0.71428,0.714286 -0.21296,0.106479 -0.50133,-0.106479 -0.71429,0 -0.30117,0.150585 -0.41312,0.563701 -0.71429,0.714286 -0.21296,0.106479 -0.50132,-0.10648 -0.71428,0 -0.30117,0.150584 -0.41312,0.563701 -0.71429,0.714285 -0.21296,0.10648 -0.54592,-0.168358 -0.71428,0 -0.16629,0.166291 0.14898,1.130606 0,1.428572 -0.15059,0.301169 -0.5637,0.413116 -0.71429,0.714286 -0.14898,0.297966 0.16629,1.262281 0,1.428571 -0.16836,0.168359 -0.54593,-0.168359 -0.71428,0 -0.16836,0.168359 0.10647,0.501327 0,0.714286 -0.30117,0.602338 -1.12741,0.826233 -1.42858,1.428571 -0.10648,0.212959 0.10648,0.501327 0,0.714286 -0.37647,0.752941 -1.0521,0.67563 -1.42857,1.428571 -0.10648,0.212959 0,0.476191 0,0.714286 0,0.238095 0,0.47619 0,0.714286 0,0.238095 0.16836,0.545927 0,0.714285 -0.16836,0.168359 -0.54592,-0.168358 -0.71428,0 -0.16836,0.168359 0,0.476191 0,0.714286 0,0.238095 0,0.476191 0,0.714286 0,0.714285 0,1.428571 0,2.142857 0,0.238095 0,0.47619 0,0.714286 0,0.238095 -0.10648,0.501326 0,0.714285 0.15058,0.30117 0.5637,0.413117 0.71428,0.714286 0.10648,0.212959 0,0.476191 0,0.714286 0,0.238095 0,0.47619 0,0.714285 0,0.238096 -0.10648,0.501327 0,0.714286 0.15059,0.301169 0.5637,0.413117 0.71429,0.714286 0.14898,0.297966 -0.16629,1.262281 0,1.428571 0.16836,0.168359 0.54592,-0.168358 0.71428,0 0.16836,0.168359 -0.16836,0.545927 0,0.714286 0.16836,0.168359 0.54593,-0.168359 0.71429,0 0.16836,0.168359 -0.16836,0.545927 0,0.714286 0.16836,0.168358 0.50133,-0.10648 0.71429,0 0.30116,0.150584 0.41311,0.563701 0.71428,0.714285 0.21296,0.10648 0.47619,0 0.71429,0 0.71428,0 1.42857,0 2.14285,0 0.2381,0 0.54593,0.168359 0.71429,0 0.16836,-0.168358 -0.16836,-0.545927 0,-0.714285 0.16836,-0.168359 0.47619,0 0.71429,0 0.47619,0 0.95238,0 1.42857,0 1.42857,0 2.85714,0 4.28571,0 0.2381,0 0.54593,0.168358 0.71429,0 0.16836,-0.168359 -0.16836,-0.545927 0,-0.714286 0.16629,-0.16629 1.1306,0.148983 1.42857,0 0.30117,-0.150585 0.41311,-0.563701 0.71428,-0.714286 0.21296,-0.106479 0.54593,0.168359 0.71429,0 0.16836,-0.168358 -0.16836,-0.545927 0,-0.714285 0.16836,-0.168359 0.54593,0.168358 0.71428,0 0.16836,-0.168359 -0.10647,-0.501327 0,-0.714286 0.15059,-0.301169 0.56371,-0.413117 0.71429,-0.714286 0.10648,-0.212959 -0.10648,-0.501327 0,-0.714286 0.15059,-0.301169 0.5637,-0.413116 0.71429,-0.714285 0.10648,-0.212959 0,-0.476191 0,-0.714286 0,-0.47619 0,-0.952381 0,-1.428571 0,-0.476191 0,-0.952381 0,-1.428572 0,-0.238095 0.10648,-0.501327 0,-0.714286 -0.15059,-0.301169 -0.5637,-0.413116 -0.71429,-0.714285 -0.14898,-0.297966 0.16629,-1.262281 0,-1.428572 -0.16836,-0.168358 -0.54593,0.168359 -0.71429,0 -0.16629,-0.16629 0.14899,-1.130605 0,-1.428571 -0.30116,-0.602339 -1.1274,-0.826233 -1.42857,-1.428571 -0.10648,-0.212959 0.16836,-0.545927 0,-0.714286 -0.16836,-0.168359 -0.54592,0.168359 -0.71428,0 -0.16836,-0.168359 0.16836,-0.545927 0,-0.714286 -0.16836,-0.168359 -0.54593,0.168359 -0.71429,0 -0.16836,-0.168359 0.16836,-0.545927 0,-0.714286 -0.16836,-0.168358 -0.47619,0 -0.71428,0 -0.2381,0 -0.47619,0 -0.71429,0 -0.23809,0 -0.50133,0.10648 -0.71428,0 -0.30117,-0.150584 -0.41312,-0.563701 -0.71429,-0.714285 -0.21296,-0.10648 -0.47619,0 -0.71429,0 -0.23809,0 -0.47619,0 -0.71428,0 -0.2381,0 -0.50133,-0.10648 -0.71429,0 -0.30117,0.150584 -0.41311,0.563701 -0.71428,0.714285 -0.21296,0.10648 -0.50133,-0.106479 -0.71429,0 -0.60234,0.30117 -0.82623,1.127403 -1.42857,1.428572 -0.21296,0.106479 -0.54593,-0.168359 -0.71429,0 -0.16836,0.168359 0.16836,0.545927 0,0.714286 -0.16836,0.168358 -0.54592,-0.168359 -0.71428,0 -0.16836,0.168358 0.16836,0.545926 0,0.714285 -0.16836,0.168359 -0.54593,-0.168359 -0.71429,0 -0.33672,0.336718 0.33672,1.091854 0,1.428572 -0.16836,0.168358 -0.54592,-0.168359 -0.71428,0 -0.16836,0.168358 0,0.47619 0,0.714285 0,0.714286 0,1.428572 0,2.142857 0,0.476191 0,0.952381 0,1.428572 0,0.238095 -0.16836,0.545927 0,0.714286 0.16836,0.168358 0.50132,-0.10648 0.71428,0 0.30117,0.150584 0.41312,0.563701 0.71429,0.714285 0.21296,0.10648 0.54592,-0.168358 0.71428,0 0.16836,0.168359 -0.16836,0.545927 0,0.714286 0.16629,0.16629 1.13061,-0.148983 1.42858,0 0.30116,0.150585 0.41311,0.563701 0.71428,0.714286 0.21296,0.106479 0.47619,0 0.71429,0 0.71428,0 1.42857,0 2.14285,0 0.2381,0 0.54593,0.168359 0.71429,0 0.16836,-0.168359 -0.16836,-0.545927 0,-0.714286 0.16836,-0.168359 0.50133,0.106479 0.71429,0 0.60233,-0.301169 0.82623,-1.127402 1.42857,-1.428571 0.21296,-0.10648 0.54592,0.168358 0.71428,0 0.16836,-0.168359 0,-0.476191 0,-0.714286 0,-1.675127 0.16836,0.336717 -0.71428,-1.428572 -0.10648,-0.212958 0,-0.47619 0,-0.714285 0,-0.238095 0,-0.476191 0,-0.714286 0,-0.238095 0.16836,-0.545927 0,-0.714286 -0.16836,-0.168358 -0.54593,0.168359 -0.71429,0 -0.16836,-0.168358 0.16836,-0.545927 0,-0.714285 -0.16836,-0.168359 -0.54593,0.168358 -0.71428,0 -0.16836,-0.168359 0.16835,-0.545927 0,-0.714286 -0.16836,-0.168359 -0.4762,0 -0.71429,0 -0.47619,0 -0.95238,0 -1.42857,0 -0.2381,0 -0.50133,-0.106479 -0.71429,0 -0.30117,0.150585 -0.41311,0.563701 -0.71428,0.714286 -0.21296,0.106479 -0.54593,-0.168359 -0.71429,0 -0.16836,0.168358 0,0.47619 0,0.714285 0,0.476191 0,0.952381 0,1.428572 0,0.238095 -0.16836,0.545927 0,0.714285 0.16836,0.168359 0.47619,0 0.71429,0 0.95238,0 1.90476,0 2.85714,0 0.23809,0 0.54593,0.168359 0.71429,0 0.16835,-0.168358 -0.16836,-0.545926 0,-0.714285 0.16835,-0.168359 0.50132,0.106479 0.71428,0 2.97269,-1.486343 -0.7636,0.04931 0.71429,-1.428572 0.16836,-0.168358 0.54592,0.168359 0.71428,0 0.16836,-0.168358 0,-0.47619 0,-0.714285 0,-0.476191 0,-0.952381 0,-1.428572 0,-0.238095 0.16836,-0.545927 0,-0.714285 -0.16836,-0.168359 -0.54592,0.168358 -0.71428,0 -0.16836,-0.168359 0.16836,-0.545927 0,-0.714286 -0.16836,-0.168359 -0.50133,0.106479 -0.71429,0 -0.30117,-0.150585 -0.41312,-0.563701 -0.71428,-0.714286 -0.29797,-0.148983 -1.26229,0.16629 -1.42858,0 -0.16836,-0.168359 0.16836,-0.545927 0,-0.714286 -0.16836,-0.168358 -0.47619,0 -0.71428,0 -0.2381,0 -0.47619,0 -0.71429,0 -0.23809,0 -0.47619,0 -0.71428,0 -0.2381,0 -0.50133,-0.106479 -0.71429,0 -0.30117,0.150585 -0.41312,0.563701 -0.71428,0.714286 -0.21296,0.10648 -0.54593,-0.168359 -0.71429,0 -0.16836,0.168359 0.16836,0.545927 0,0.714286 -1.47788,1.477882 0.0578,-2.258401 -1.42857,0.714286 -0.10648,0.212958 0.16836,0.545926 0,0.714285 -0.16836,0.168359 -0.54593,-0.168359 -0.71429,0 -0.33672,0.336718 0.33672,1.091854 0,1.428572 -0.16836,0.168358 -0.54592,-0.168359 -0.71428,0 -0.16836,0.168358 0,0.47619 0,0.714285 0,0.238096 0,0.476191 0,0.714286 0,0.238095 0.10648,0.501327 0,0.714286 -0.15059,0.301169 -0.5637,0.413116 -0.71429,0.714285 -0.10648,0.212959 0,0.476191 0,0.714286 0,0.941177 0,0.487395 0,1.428572 0,0.47619 0,0.952381 0,1.428571 0,0.238095 -0.10648,0.501327 0,0.714286 0.15059,0.301169 0.5637,0.413116 0.71429,0.714285 0.10648,0.212959 -0.16836,0.545927 0,0.714286 0.16836,0.168359 0.50132,-0.106479 0.71428,0 0.60234,0.301169 0.82624,1.127402 1.42857,1.428572 0.21296,0.106479 0.47619,0 0.71429,0 0.23809,0 0.47619,0 0.71429,0 0.95238,0 1.90476,0 2.85714,0 0.94117,0 0.48739,0 1.42857,0 0.23809,0 0.50133,0.106479 0.71429,0 0.30116,-0.150585 0.41311,-0.563701 0.71428,-0.714286 0.21296,-0.10648 0.50133,0.106479 0.71429,0 0.30117,-0.150585 0.41311,-0.563701 0.71428,-0.714286 0.21296,-0.106479 0.50133,0.10648 0.71429,0 0.60234,-0.301169 0.82623,-1.127402 1.42857,-1.428571 0.21296,-0.10648 0.50133,0.106479 0.71428,0 0.60234,-0.30117 0.82624,-1.127402 1.42858,-1.428572 0.21296,-0.106479 0.54592,0.168359 0.71428,0 0.33672,-0.336717 -0.33672,-1.091854 0,-1.428571 0.16836,-0.168359 0.54593,0.168359 0.71429,0 0.16836,-0.168359 0,-0.476191 0,-0.714286 0,-0.714286 0,-1.428571 0,-2.142857 0,-0.238095 0.16836,-0.545927 0,-0.714286 -0.16836,-0.168358 -0.54593,0.168359 -0.71429,0 -0.33672,-0.336717 0.33672,-1.091854 0,-1.428571 -0.16836,-0.168359 -0.54592,0.168359 -0.71428,0 -0.16836,-0.168359 0.16836,-0.545927 0,-0.714286 -0.16836,-0.168359 -0.54593,0.168359 -0.71429,0 -1.47788,-1.477882 2.2584,0.05777 -0.71429,-1.428571 -0.21295,-0.10648 -0.50132,0.106479 -0.71428,0 -0.60234,-0.301169 -0.82623,-1.127402 -1.42857,-1.428572 -0.21296,-0.106479 -0.50133,0.10648 -0.71429,0 -0.30117,-0.150584 -0.41311,-0.563701 -0.71428,-0.714285 -0.21296,-0.10648 -0.50133,0.106479 -0.71429,0 -0.30117,-0.150585 -0.41312,-0.563701 -0.71428,-0.714286 -0.75295,-0.376471 -0.67564,0.376471 -1.42858,0 -0.30117,-0.150585 -0.41311,-0.563701 -0.71428,-0.714286 -0.21296,-0.106479 -0.47619,0 -0.71429,0 -0.71428,0 -1.42857,0 -2.14285,0 -0.71429,0 -1.42858,0 -2.14286,0 -0.2381,0 -0.54593,-0.168358 -0.71429,0 -0.16836,0.168359 0.16836,0.545927 0,0.714286 -0.33672,0.336717 -1.09185,-0.336718 -1.42857,0 -0.16836,0.168359 0.16836,0.545927 0,0.714286 -1.47788,1.477882 0.0578,-2.258401 -1.42857,0.714285 -0.10648,0.212959 0.16836,0.545927 0,0.714286 -1.47788,1.477883 0.0578,-2.2584 -1.42857,0.714286 -0.10648,0.212959 0.10648,0.501327 0,0.714286 -0.30117,0.602338 -1.1274,0.826232 -1.42857,1.428571 -0.10648,0.212959 0.10648,0.501327 0,0.714286 -0.15059,0.301169 -0.5637,0.413116 -0.71429,0.714285 -0.10648,0.212959 0.10648,0.501327 0,0.714286 -1.6345,3.269005 0.29605,-3.031012 -1.42857,2.142857 -0.0513,0.153788 0.0532,1.322231 0,1.428572 -0.15059,0.301169 -0.5637,0.413116 -0.71429,0.714285 -0.10648,0.212959 0,0.476191 0,0.714286 0,0.941177 0,0.487395 0,1.428571 0,0.714286 0,1.428572 0,2.142858 0,0.238095 -0.10648,0.501326 0,0.714285 0.30117,0.602339 1.12741,0.826233 1.42858,1.428572 0.10647,0.212959 -0.16836,0.545927 0,0.714285 0.16835,0.168359 0.50132,-0.106479 0.71428,0 1.57933,0.789663 0.22166,0.443317 0.71429,1.428572 0.78966,1.579325 0.44331,0.221658 1.42857,0.714286 0.30117,0.150584 0.47619,0.47619 0.71428,0.714285 0.2381,0.238096 0.5637,0.413117 0.71429,0.714286 0.10648,0.212959 -0.16836,0.545927 0,0.714286 0.16629,0.16629 1.1306,-0.148983 1.42857,0 0.30117,0.150584 0.41312,0.563701 0.71429,0.714285 0.42591,0.212959 1.00265,-0.212958 1.42857,0 0.30117,0.150585 0.41311,0.563701 0.71428,0.714286 0.21296,0.10648 0.47619,0 0.71429,0 0.71429,0 1.42857,0 2.14286,0 0.23809,0 0.47619,0 0.71428,0 0.2381,0 0.50133,0.10648 0.71429,0 0.30117,-0.150585 0.41311,-0.563701 0.71428,-0.714286 0.42592,-0.212958 1.00266,0.212959 1.42858,0 0.30116,-0.150584 0.39484,-0.607806 0.71428,-0.714285 0.45175,-0.150585 0.97682,0.150584 1.42857,0 0.15951,-0.05317 1.22352,-1.326046 1.42857,-1.428572 0.98526,-0.492627 0.63891,0.86504 1.42857,-0.714285 0.10648,-0.212959 -0.16835,-0.545927 0,-0.714286 1.47789,-1.477883 -0.0578,2.2584 1.42858,-0.714286 0.10648,-0.212959 -0.16836,-0.545927 0,-0.714286 0.16836,-0.168358 0.50132,0.10648 0.71428,0 2.97269,-1.486343 -0.76359,0.04931 0.71429,-1.428571 0.16836,-0.168359 0.54592,0.168359 0.71428,0 0,-1.904762 -0.23809,0.238095 0.71429,-0.714286 0.16836,-0.168358 -0.16836,-0.545927 0,-0.714285 0.16836,-0.168359 0.54593,0.168358 0.71428,0 0.16836,-0.168359 -0.10647,-0.501327 0,-0.714286 0.15059,-0.301169 0.56371,-0.413117 0.71429,-0.714286 0.10648,-0.212959 -0.16836,-0.545927 0,-0.714286 0.16836,-0.168358 0.54593,0.168359 0.71429,0 0.16629,-0.16629 -0.14899,-1.130605 0,-1.428571 0.15058,-0.301169 0.5637,-0.413116 0.71428,-0.714286 0.10648,-0.212959 0,-0.47619 0,-0.714285 0,-0.238096 0,-0.476191 0,-0.714286 0,-0.238095 -0.10648,-0.501327 0,-0.714286 0.15059,-0.301169 0.5637,-0.413116 0.71429,-0.714286 0.10648,-0.212958 0,-0.47619 0,-0.714285 0,-0.238095 0,-0.476191 0,-0.714286 0,-0.238095 0.10648,-0.501327 0,-0.714286 -0.15059,-0.301169 -0.5637,-0.413116 -0.71429,-0.714285 -0.21296,-0.425918 0.21296,-1.002654 0,-1.428572 -0.15058,-0.301169 -0.5637,-0.413116 -0.71428,-0.714285 -0.10648,-0.212959 0.10648,-0.501327 0,-0.714286 -1.48635,-2.972686 0.0493,0.763597 -1.42858,-0.714286 -1.47788,-1.477882 2.25841,0.05777 -0.71428,-1.428571 -0.21296,-0.10648 -0.50133,0.106479 -0.71429,0 -0.30117,-0.150585 -0.47619,-0.476191 -0.71428,-0.714286 -0.2381,-0.238095 -0.47619,-0.476191 -0.71429,-0.714286 -0.23809,-0.238095 -0.41311,-0.563701 -0.71428,-0.714285 -0.21296,-0.10648 -0.50133,0.106479 -0.71429,0 -0.30117,-0.150585 -0.41312,-0.563702 -0.71429,-0.714286 -0.21295,-0.10648 -0.50132,0.106479 -0.71428,0 -0.30117,-0.150585 -0.39485,-0.607806 -0.71429,-0.714286 -0.45175,-0.150585 -0.95238,0 -1.42857,0 -0.23809,0 -0.50132,0.10648 -0.71428,0 -0.30117,-0.150585 -0.41312,-0.563701 -0.71429,-0.714286 -0.21296,-0.106479 -0.47619,0 -0.71428,0 -0.2381,0 -0.4762,0 -0.71429,0 -1.19048,0 -2.38095,0 -3.57143,0 -1.42857,0 -2.85714,0 -4.28571,0 -0.2381,0 -0.47619,0 -0.71429,0 -0.23809,0 -0.50133,-0.106479 -0.71428,0 -0.30117,0.150585 -0.41312,0.563701 -0.71429,0.714286 -0.21296,0.10648 -0.47619,0 -0.71429,0 -0.23809,0 -0.47619,0 -0.71428,0 -0.2381,0 -0.50133,-0.106479 -0.71429,0 -0.30117,0.150585 -0.39485,0.820765 -0.71428,0.714286 -1.31708,-0.439026 -2.41628,-2.91296 -3.57143,-2.142857 -1.06684,0.711226 1.21778,2.306692 1.42857,3.571428 0.21233,1.274009 -1.15184,0.43755 -1.42857,0.714286 -0.16836,0.168359 0.10648,0.501327 0,0.714286 -0.15059,0.301169 -0.5637,0.413116 -0.71429,0.714285 -0.10648,0.212959 0.16836,0.545927 0,0.714286 -0.16836,0.168359 -0.54592,-0.168359 -0.71428,0 -0.16836,0.168359 0.10648,0.501327 0,0.714286 -0.56471,1.129412 -0.86387,0.299159 -1.42857,1.428571 -0.21296,0.425918 0.21295,1.002654 0,1.428572 -0.15059,0.301169 -0.56371,0.413116 -0.71429,0.714285 -0.10648,0.212959 0,0.476191 0,0.714286 0,0.714286 0,1.428571 0,2.142857 0,0.238095 0.10648,0.501327 0,0.714286 -0.15059,0.301169 -0.60781,0.394847 -0.71429,0.714286 -0.15058,0.451754 0,0.952381 0,1.428571 0,0.238095 0,0.476191 0,0.714286 0,0.238095 0,0.47619 0,0.714285 0,0.238096 -0.10648,0.501327 0,0.714286 0.15059,0.301169 0.5637,0.413117 0.71429,0.714286 0.10648,0.212959 -0.10648,0.501327 0,0.714286 0.15058,0.301169 0.5637,0.413116 0.71429,0.714285 0.10647,0.212959 -0.10648,0.501327 0,0.714286 0.15058,0.301169 0.47619,0.47619 0.71428,0.714286 0.2381,0.238095 0.41312,0.563701 0.71429,0.714285 0.21296,0.10648 0.54592,-0.168358 0.71428,0 0.16836,0.168359 -0.16836,0.545927 0,0.714286 1.47788,1.477883 -0.0578,-2.2584 1.42857,0.714286 0.10648,0.212959 -0.16836,0.545927 0,0.714286 1.47789,1.477882 -0.0578,-2.258401 1.42858,0.714285 0.10647,0.212959 -0.16836,0.545927 0,0.714286 0.16835,0.168359 0.54592,-0.168359 0.71428,0 0.16836,0.168359 -0.16836,0.545927 0,0.714286 1.47788,1.477882 -0.0578,-2.258401 1.42857,0.714285 0.10648,0.212959 -0.16836,0.545927 0,0.714286 0.16629,0.16629 1.13061,-0.148983 1.42857,0 0.30117,0.150585 0.41312,0.563701 0.71429,0.714286 0.42592,0.212959 1.00265,-0.212959 1.42857,0 0.30117,0.150584 0.41312,0.563701 0.71429,0.714286 0.21296,0.106479 0.47619,0 0.71428,0 0.2381,0 0.47619,0 0.71429,0 1.19047,0 2.38095,0 3.57143,0 0.71428,0 1.42857,0 2.14285,0 0.2381,0 0.50133,0.106479 0.71429,0 0.30117,-0.150585 0.41312,-0.563702 0.71429,-0.714286 0.21295,-0.10648 0.47619,0 0.71428,0 0.47619,0 0.95238,0 1.42857,0 0.2381,0 0.50133,0.106479 0.71429,0 0.30117,-0.150585 0.41311,-0.563701 0.71428,-0.714286 0.29797,-0.148983 1.26228,0.16629 1.42857,0 0.16836,-0.168359 -0.16835,-0.545927 0,-0.714286 0.16836,-0.168358 0.50133,0.10648 0.71429,0 2.97269,-1.486343 -0.7636,0.04931 0.71429,-1.428571 0.16836,-0.168359 0.54592,0.168359 0.71428,0 0.16836,-0.168359 -0.10648,-0.501327 0,-0.714286 0.15059,-0.301169 0.5637,-0.413116 0.71429,-0.714285 0.10648,-0.212959 -0.16836,-0.545927 0,-0.714286 0.16836,-0.168359 0.50132,0.106479 0.71428,0 0.30117,-0.150585 0.47619,-0.476191 0.71429,-0.714286 0.23809,-0.238095 0.5637,-0.413116 0.71428,-0.714286 0.10648,-0.212958 -0.16835,-0.545927 0,-0.714285 0.16836,-0.168359 0.54593,0.168358 0.71429,0 0.16836,-0.168359 -0.10648,-0.501327 0,-0.714286 0.15059,-0.301169 0.5637,-0.413116 0.71429,-0.714286 0.10648,-0.212959 0,-0.47619 0,-0.714285 0,-0.476191 0,-0.952381 0,-1.428572 0,-0.238095 -0.10648,-0.501327 0,-0.714286 0.15058,-0.301169 0.5637,-0.413116 0.71428,-0.714285 0.10648,-0.212959 0,-0.476191 0,-0.714286 0,-0.238095 0.16836,-0.545927 0,-0.714286 -0.16836,-0.168358 -0.54592,0.168359 -0.71428,0 -0.16836,-0.168358 0,-0.47619 0,-0.714285 0,-0.952381 0,-1.904762 0,-2.857143 0,-0.238095 0.16836,-0.545927 0,-0.714286 -0.16836,-0.168359 -0.54593,0.168359 -0.71429,0 -0.16836,-0.168359 0,-0.47619 0,-0.714286 0,-0.47619 0,-0.952381 0,-1.428571 0,-0.238095 0.16836,-0.545927 0,-0.714286 -0.16836,-0.168359 -0.54593,0.168359 -0.71429,0 -0.16629,-0.16629 0.14899,-1.130605 0,-1.428571 -0.15058,-0.301169 -0.5637,-0.413117 -0.71428,-0.714286 -0.10648,-0.212959 0.16836,-0.545927 0,-0.714286 -0.16836,-0.168358 -0.54593,0.168359 -0.71429,0 -0.16836,-0.168358 0.16836,-0.545927 0,-0.714285 -0.16836,-0.168359 -0.54592,0.168358 -0.71428,0 -0.16836,-0.168359 0.10648,-0.501327 0,-0.714286 -0.15059,-0.301169 -0.47619,-0.476191 -0.71429,-0.714286 -0.23809,-0.238095 -0.41311,-0.563701 -0.71428,-0.714285 -0.21296,-0.10648 -0.54593,0.168358 -0.71429,0 -0.16836,-0.168359 0.16836,-0.545927 0,-0.714286 -0.16629,-0.16629 -1.1306,0.148983 -1.42857,0 -0.30117,-0.150585 -0.41312,-0.563701 -0.71429,-0.714286 -0.21296,-0.106479 -0.54592,0.168359 -0.71428,0 -0.16836,-0.168359 0.16836,-0.545927 0,-0.714286 -0.16836,-0.168358 -0.50133,0.10648 -0.71429,0 -0.30117,-0.150584 -0.41311,-0.563701 -0.71428,-0.714285 -0.21296,-0.10648 -0.54593,0.168358 -0.71429,0 -0.16836,-0.168359 0.16836,-0.545927 0,-0.714286 -0.16836,-0.168359 -0.50133,0.106479 -0.71428,0 -0.30117,-0.150585 -0.41312,-0.563701 -0.71429,-0.714286 -0.42592,-0.212959 -1.00265,0.212959 -1.42857,0 -0.30117,-0.150584 -0.41312,-0.563701 -0.71429,-0.714285 -0.21296,-0.10648 -0.47619,0 -0.71428,0 -0.47619,0 -0.95238,0 -1.42857,0 -1.90477,0 -3.80953,0 -5.71429,0"
       id="path4534" />
  </g>
</svg>
