<svg xmlns="http://www.w3.org/2000/svg" viewBox="0 0 11.39 5.87"><defs><style>.cls-1{fill:#231f20;}</style></defs><title>sm</title><g id="Layer_2" data-name="Layer 2"><g id="Layer_1-2" data-name="Layer 1"><path class="cls-1" d="M4,4.06A1.69,1.69,0,0,1,3.73,5,1.76,1.76,0,0,1,3,5.64a2.88,2.88,0,0,1-1.19.23,4.83,4.83,0,0,1-1-.08A3.55,3.55,0,0,1,0,5.51V4.14a4.6,4.6,0,0,0,.92.35,3.43,3.43,0,0,0,.88.13.85.85,0,0,0,.5-.12.37.37,0,0,0,.16-.31A.34.34,0,0,0,2.39,4a.75.75,0,0,0-.21-.18Q2,3.72,1.43,3.44a3.65,3.65,0,0,1-.84-.49A1.51,1.51,0,0,1,.17,2.4,1.81,1.81,0,0,1,0,1.67,1.46,1.46,0,0,1,.61.44,2.53,2.53,0,0,1,2.19,0,4.43,4.43,0,0,1,4,.41L3.53,1.6a3.43,3.43,0,0,0-1.38-.37.72.72,0,0,0-.44.11.32.32,0,0,0-.14.26.38.38,0,0,0,.17.3,6.63,6.63,0,0,0,.94.48,2.61,2.61,0,0,1,1,.71A1.55,1.55,0,0,1,4,4.06Z"/><path class="cls-1" d="M7.37,5.79,6.2,1.68h0q.08,1.05.08,1.63V5.79H4.88V.08H6.94L8.13,4.14h0L9.33.08h2.06V5.79H10V3.29q0-.2,0-.43T10,1.69h0L8.84,5.79Z"/></g></g></svg>