<?xml version="1.0" encoding="UTF-8" standalone="no"?>
<!-- Created with Inkscape (http://www.inkscape.org/) -->

<svg
   xmlns:dc="http://purl.org/dc/elements/1.1/"
   xmlns:cc="http://creativecommons.org/ns#"
   xmlns:rdf="http://www.w3.org/1999/02/22-rdf-syntax-ns#"
   xmlns:svg="http://www.w3.org/2000/svg"
   xmlns="http://www.w3.org/2000/svg"
   xmlns:sodipodi="http://sodipodi.sourceforge.net/DTD/sodipodi-0.dtd"
   xmlns:inkscape="http://www.inkscape.org/namespaces/inkscape"
   width="195.46875"
   height="184.125"
   id="svg11089"
   version="1.1"
   inkscape:version="0.48.4 r9939"
   sodipodi:docname="smily_tounge.svg">
  <defs
     id="defs11091" />
  <sodipodi:namedview
     id="base"
     pagecolor="#ffffff"
     bordercolor="#666666"
     borderopacity="1.0"
     inkscape:pageopacity="0.0"
     inkscape:pageshadow="2"
     inkscape:zoom="0.7"
     inkscape:cx="202.03635"
     inkscape:cy="76.592395"
     inkscape:document-units="px"
     inkscape:current-layer="layer1"
     showgrid="false"
     fit-margin-top="0"
     fit-margin-left="0"
     fit-margin-right="0"
     fit-margin-bottom="0"
     inkscape:window-width="837"
     inkscape:window-height="437"
     inkscape:window-x="506"
     inkscape:window-y="229"
     inkscape:window-maximized="0" />
  <metadata
     id="metadata11094">
    <rdf:RDF>
      <cc:Work
         rdf:about="">
        <dc:format>image/svg+xml</dc:format>
        <dc:type
           rdf:resource="http://purl.org/dc/dcmitype/StillImage" />
        <dc:title></dc:title>
      </cc:Work>
    </rdf:RDF>
  </metadata>
  <g
     inkscape:label="Layer 1"
     inkscape:groupmode="layer"
     id="layer1"
     transform="translate(398.15625,-299.1875)">
    <path
       inkscape:connector-curvature="0"
       id="path2010"
       style="fill:none;stroke:#000000;stroke-opacity:1"
       d="m -310.49088,479.57044 c -46.3425,0 -83.91375,-39.5375 -83.91375,-88.31 0,-48.7725 37.57125,-88.31 83.91374,-88.31"
       sodipodi:nodetypes="csc" />
    <path
       inkscape:connector-curvature="0"
       id="path2014"
       style="fill:none;stroke:#000000;stroke-width:7.5;stroke-linecap:round;stroke-linejoin:round;stroke-miterlimit:10;stroke-opacity:1;stroke-dasharray:none"
       d="m -310.49088,479.57044 c -46.3425,0 -83.91375,-39.5375 -83.91375,-88.31 0,-48.7725 37.57125,-88.31 83.91374,-88.31"
       sodipodi:nodetypes="csc" />
    <path
       inkscape:connector-curvature="0"
       id="path2018"
       style="fill:none;stroke:#000000;stroke-opacity:1"
       d="m -206.44275,391.26044 c 0,48.7725 -37.57126,88.31 -83.91377,88.31 -46.34499,0 -83.91624,-39.5375 -83.91624,-88.31 0,-48.7725 37.57125,-88.31 83.91624,-88.31 46.34251,0 83.91377,39.5375 83.91377,88.31"
       sodipodi:nodetypes="csssc" />
    <path
       inkscape:connector-curvature="0"
       id="path2022"
       style="fill:none;stroke:#000000;stroke-width:7.5;stroke-linecap:round;stroke-linejoin:round;stroke-miterlimit:10;stroke-opacity:1;stroke-dasharray:none"
       d="m -206.44275,391.26044 c 0,48.7725 -37.57126,88.31 -83.91377,88.31 -46.34499,0 -83.91624,-39.5375 -83.91624,-88.31 0,-48.7725 37.57125,-88.31 83.91624,-88.31 46.34251,0 83.91377,39.5375 83.91377,88.31 z"
       sodipodi:nodetypes="sssss" />
    <path
       inkscape:connector-curvature="0"
       id="path2026"
       style="fill:none;stroke:#000000;stroke-width:7.5;stroke-linecap:round;stroke-linejoin:round;stroke-miterlimit:10;stroke-opacity:1;stroke-dasharray:none"
       d="m -254.4115,413.03294 c 4.87998,0 8.83749,3.96 8.83749,8.84"
       sodipodi:nodetypes="cc" />
    <path
       inkscape:connector-curvature="0"
       id="path2030"
       style="fill:none;stroke:#000000;stroke-opacity:1"
       d="m -306.72714,368.70194 c 0,13.8375 -3.51749,25.05875 -7.86124,25.05875 -4.34126,0 -7.86125,-11.22125 -7.86125,-25.05875 0,-13.84 3.51999,-25.06125 7.86125,-25.06125 4.34375,0 7.86124,11.22125 7.86124,25.06125"
       sodipodi:nodetypes="csssc" />
    <path
       inkscape:connector-curvature="0"
       id="path2034"
       style="fill:none;stroke:#000000;stroke-width:7.5;stroke-linecap:round;stroke-linejoin:round;stroke-miterlimit:10;stroke-opacity:1;stroke-dasharray:none"
       d="m -306.72714,368.70194 c 0,13.8375 -3.51749,25.05875 -7.86124,25.05875 -4.34126,0 -7.86125,-11.22125 -7.86125,-25.05875 0,-13.84 3.51999,-25.06125 7.86125,-25.06125 4.34375,0 7.86124,11.22125 7.86124,25.06125 z"
       sodipodi:nodetypes="sssss" />
    <path
       inkscape:connector-curvature="0"
       id="path2038"
       style="fill:none;stroke:#000000;stroke-width:7.5;stroke-linecap:round;stroke-linejoin:round;stroke-miterlimit:10;stroke-opacity:1;stroke-dasharray:none"
       d="m -335.14151,421.87081 c 0,-4.8775 3.96,-8.835 8.84,-8.835"
       sodipodi:nodetypes="cc" />
    <path
       inkscape:connector-curvature="0"
       id="path2042"
       style="fill:none;stroke:#000000;stroke-width:7.5;stroke-linecap:round;stroke-linejoin:round;stroke-miterlimit:10;stroke-opacity:1;stroke-dasharray:none"
       d="m -267.56576,429.06319 2.45749,12.12625 c 1.6325,7.55125 -3.16373,14.9975 -10.71623,16.63125 -7.55001,1.6325 -14.99627,-3.16375 -16.62876,-10.715 l -2.60626,-13.10375"
       sodipodi:nodetypes="ccccc" />
    <path
       inkscape:connector-curvature="0"
       id="path2046"
       style="fill:none;stroke:#000000;stroke-width:7.5;stroke-linecap:round;stroke-linejoin:round;stroke-miterlimit:10;stroke-opacity:1;stroke-dasharray:none"
       d="m -279.30777,442.68381 -1.59749,-10.4275"
       sodipodi:nodetypes="cc" />
    <path
       inkscape:connector-curvature="0"
       id="path2050"
       style="fill:none;stroke:#000000;stroke-opacity:1"
       d="m -261.10213,368.70194 c 0,13.8375 -3.51751,25.05875 -7.86126,25.05875 -4.34125,0 -7.86125,-11.22125 -7.86125,-25.05875 0,-13.84 3.52,-25.06125 7.86125,-25.06125 4.34375,0 7.86126,11.22125 7.86126,25.06125"
       sodipodi:nodetypes="csssc" />
    <path
       inkscape:connector-curvature="0"
       id="path2054"
       style="fill:none;stroke:#000000;stroke-width:7.5;stroke-linecap:round;stroke-linejoin:round;stroke-miterlimit:10;stroke-opacity:1;stroke-dasharray:none"
       d="m -261.10213,368.70194 c 0,13.8375 -3.51751,25.05875 -7.86126,25.05875 -4.34125,0 -7.86125,-11.22125 -7.86125,-25.05875 0,-13.84 3.52,-25.06125 7.86125,-25.06125 4.34375,0 7.86126,11.22125 7.86126,25.06125 z"
       sodipodi:nodetypes="sssss" />
    <path
       inkscape:connector-curvature="0"
       id="path2058"
       style="fill:none;stroke:#000000;stroke-width:7.5;stroke-linecap:round;stroke-linejoin:round;stroke-miterlimit:10;stroke-opacity:1;stroke-dasharray:none"
       d="m -248.93789,415.96506 c -23.06125,23.06125 -60.45375,23.06125 -83.51374,0"
       sodipodi:nodetypes="cc" />
  </g>
</svg>
