<?xml version="1.0" encoding="UTF-8" standalone="no"?>
<!-- Generator: Adobe Illustrator 20.1.0, SVG Export Plug-In . SVG Version: 6.00 Build 0)  -->

<svg
   xmlns:dc="http://purl.org/dc/elements/1.1/"
   xmlns:cc="http://creativecommons.org/ns#"
   xmlns:rdf="http://www.w3.org/1999/02/22-rdf-syntax-ns#"
   xmlns:svg="http://www.w3.org/2000/svg"
   xmlns="http://www.w3.org/2000/svg"
   xmlns:sodipodi="http://sodipodi.sourceforge.net/DTD/sodipodi-0.dtd"
   xmlns:inkscape="http://www.inkscape.org/namespaces/inkscape"
   version="1.1"
   id="Layer_1"
   x="0px"
   y="0px"
   viewBox="0 0 32 32"
   xml:space="preserve"
   inkscape:version="0.48.4 r9939"
   width="100%"
   height="100%"
   sodipodi:docname="the_denim_jacket.svg"><metadata
     id="metadata12349"><rdf:RDF><cc:Work
         rdf:about=""><dc:format>image/svg+xml</dc:format><dc:type
           rdf:resource="http://purl.org/dc/dcmitype/StillImage" /><dc:title></dc:title></cc:Work></rdf:RDF></metadata><defs
     id="defs12347" /><sodipodi:namedview
     pagecolor="#ffffff"
     bordercolor="#666666"
     borderopacity="1"
     objecttolerance="10"
     gridtolerance="10"
     guidetolerance="10"
     inkscape:pageopacity="0"
     inkscape:pageshadow="2"
     inkscape:window-width="1099"
     inkscape:window-height="507"
     id="namedview12345"
     showgrid="false"
     inkscape:zoom="6.7425132"
     inkscape:cx="-16.029781"
     inkscape:cy="9.5563186"
     inkscape:window-x="24"
     inkscape:window-y="28"
     inkscape:window-maximized="0"
     inkscape:current-layer="Layer_1" /><style
     type="text/css"
     id="style12287">
	.st0{fill:#FFFFFF;stroke:#000000;stroke-width:6;stroke-linecap:round;stroke-linejoin:round;stroke-miterlimit:10;}
	.st1{fill:none;stroke:#000000;stroke-width:6;stroke-linecap:round;stroke-linejoin:round;stroke-miterlimit:10;}
	.st2{fill:#FFFEFF;stroke:#000000;stroke-width:6;stroke-linecap:round;stroke-linejoin:round;stroke-miterlimit:10;}
</style><path
     class="st0"
     d="m 23.782917,16.265574 c 0.564481,3.489537 0.73126,7.492233 0.93653,11.456453 l -8.621205,0.230924 -8.03106,-0.230924 C 8.2724506,23.757807 8.4392295,19.767939 9.0037111,16.265574 9.4783928,13.379007 9.196145,10.415468 8.1698163,7.6700246 7.8105961,6.7206679 7.400066,5.7199941 6.9382116,4.7064928 7.9773751,3.7699564 10.017213,3.1541577 12.403443,2.846262 l 1.013501,-1.6934519 h 5.259963 l 1.513845,1.7191068 h 0.128289 c 2.373395,0.3207305 4.426067,0.9365292 5.529376,1.8345759 -0.461855,1.0263288 -0.872385,2.0141751 -1.231605,2.9635318 -1.02633,2.7454434 -1.308577,5.7089824 -0.833895,8.5955494 z"
     id="path12289"
     inkscape:connector-curvature="0"
     style="fill:none;stroke:#000000;stroke-width:1;stroke-linecap:round;stroke-linejoin:round;stroke-miterlimit:10;stroke-dasharray:none" /><path
     class="st1"
     d="m 25.700104,4.7064928 c -0.461855,1.0263288 -0.872385,2.0141751 -1.231605,2.9635318 -1.02633,2.7454434 -1.295742,5.7089824 -0.833895,8.5955494 0.564481,3.489537 0.73126,7.492233 0.93653,11.456453 l -8.621205,0.230924 0,0 -8.0310597,-0.230924 C 8.1113032,23.757807 8.2780821,19.767939 8.8553984,16.265574 9.3300801,13.379007 9.0478323,10.415468 8.0215036,7.6700246 7.6622834,6.7206679 7.2517533,5.7199941 6.7898989,4.7064928 c 3.1816352,-2.8224221 15.4848111,-2.7582775 18.9102051,0 z"
     id="path12291"
     inkscape:connector-curvature="0"
     style="fill:none;stroke:#000000;stroke-width:1;stroke-linecap:round;stroke-linejoin:round;stroke-miterlimit:10;stroke-dasharray:none" /><path
     class="st0"
     d="M 3.7493878,30.377663 7.4057049,30.762538 9.060667,12.622091 C 9.0221846,10.107572 8.0343311,7.4262735 6.8027336,4.7193203 4.4806484,7.9394379 4.2240697,19.588332 3.7493878,30.377663 z"
     id="path12293"
     inkscape:connector-curvature="0"
     style="fill:#ffffff;stroke:#000000;stroke-width:1;stroke-linecap:round;stroke-linejoin:round;stroke-miterlimit:10;stroke-dasharray:none" /><line
     class="st1"
     x1="3.8263631"
     y1="28.645729"
     x2="7.5724854"
     y2="28.966454"
     id="line12295"
     style="fill:none;stroke:#000000;stroke-width:1;stroke-linecap:round;stroke-linejoin:round;stroke-miterlimit:10;stroke-dasharray:none" /><line
     class="st1"
     x1="8.1754494"
     y1="26.336477"
     x2="24.506983"
     y2="26.336477"
     id="line12297"
     style="fill:none;stroke:#000000;stroke-width:1;stroke-linecap:round;stroke-linejoin:round;stroke-miterlimit:10;stroke-dasharray:none" /><path
     class="st2"
     d="m 18.669717,1.1528101 1.09767,1.5153953 -7.49943,-0.2668814 1.013509,-1.2485139"
     id="path12303"
     inkscape:connector-curvature="0"
     style="fill:#fffeff;stroke:#000000;stroke-width:1;stroke-linecap:round;stroke-linejoin:round;stroke-miterlimit:10;stroke-dasharray:none"
     sodipodi:nodetypes="cccc" /><path
     class="st1"
     d="m 9.060667,10.069082 c 4.900743,-1.0776459 9.814312,-1.0776459 14.715061,0"
     id="path12305"
     inkscape:connector-curvature="0"
     style="fill:none;stroke:#000000;stroke-width:1;stroke-linecap:round;stroke-linejoin:round;stroke-miterlimit:10;stroke-dasharray:none" /><path
     class="st0"
     d="m 28.804759,30.377663 -3.65631,0.384875 -1.654962,-18.140447 c 0.03848,-2.514519 1.026329,-5.1958175 2.257933,-7.9027707 2.322079,3.2201176 2.591492,14.8690117 3.053339,25.6583427 z"
     id="path12329"
     inkscape:connector-curvature="0"
     style="fill:#ffffff;stroke:#000000;stroke-width:1;stroke-linecap:round;stroke-linejoin:round;stroke-miterlimit:10;stroke-dasharray:none" /><line
     class="st1"
     x1="28.74061"
     y1="28.645729"
     x2="24.994499"
     y2="28.966454"
     id="line12343"
     style="fill:none;stroke:#000000;stroke-width:1;stroke-linecap:round;stroke-linejoin:round;stroke-miterlimit:10;stroke-dasharray:none" /><g
     id="g5565"
     transform="translate(28.327716,-10.975136)"><path
       inkscape:connector-curvature="0"
       id="path5555"
       d="m -14.382694,21.297672 c -2.416246,0.739947 -0.982504,3.499294 -3.250866,4.37389 -2.836632,4.865886 4.30404,7.61229 8.0976098,7.447436 2.6669749,0.82159 3.9642015,-2.339463 3.0144385,-3.989698 3.4897172,-3.045859 -0.9632589,-7.03854 -4.3443393,-7.270115 -1.151745,-0.257994 -2.326135,-0.722217 -3.516843,-0.561513 z"
       style="font-size:medium;font-style:normal;font-variant:normal;font-weight:normal;font-stretch:normal;text-indent:0;text-align:start;text-decoration:none;line-height:normal;letter-spacing:normal;word-spacing:normal;text-transform:none;direction:ltr;block-progression:tb;writing-mode:lr-tb;text-anchor:start;baseline-shift:baseline;color:#000000;fill:#ffffff;fill-opacity:1;stroke:none;stroke-width:1px;marker:none;visibility:visible;display:inline;overflow:visible;enable-background:accumulate;font-family:Sans;-inkscape-font-specification:Sans" /><path
       sodipodi:nodetypes="cssc"
       inkscape:connector-curvature="0"
       id="path2993"
       d="m -8.1540385,31.029418 c -5.0338975,0 -9.3683485,-2.359398 -7.3411015,-4.194915 1.709626,-1.547936 6.7001225,2.427611 8.1800845,0.209745 1.46288,-2.192268 -6.2923725,-3.565678 -6.2923725,-3.565678"
       style="fill:none;stroke:#000000;stroke-width:1px;stroke-linecap:round;stroke-linejoin:miter;stroke-opacity:1" /></g></svg>