<?xml version="1.0" encoding="UTF-8" standalone="no"?>
<!-- Generator: Adobe Illustrator 20.1.0, SVG Export Plug-In . SVG Version: 6.00 Build 0)  -->

<svg
   xmlns:dc="http://purl.org/dc/elements/1.1/"
   xmlns:cc="http://creativecommons.org/ns#"
   xmlns:rdf="http://www.w3.org/1999/02/22-rdf-syntax-ns#"
   xmlns:svg="http://www.w3.org/2000/svg"
   xmlns="http://www.w3.org/2000/svg"
   xmlns:sodipodi="http://sodipodi.sourceforge.net/DTD/sodipodi-0.dtd"
   xmlns:inkscape="http://www.inkscape.org/namespaces/inkscape"
   version="1.1"
   id="Layer_1"
   x="0px"
   y="0px"
   viewBox="0 0 32 32"
   xml:space="preserve"
   inkscape:version="0.48.4 r9939"
   width="100%"
   height="100%"
   sodipodi:docname="the_oversized_hoodie.svg"><metadata
     id="metadata10251"><rdf:RDF><cc:Work
         rdf:about=""><dc:format>image/svg+xml</dc:format><dc:type
           rdf:resource="http://purl.org/dc/dcmitype/StillImage" /></cc:Work></rdf:RDF></metadata><defs
     id="defs10249" /><sodipodi:namedview
     pagecolor="#ffffff"
     bordercolor="#666666"
     borderopacity="1"
     objecttolerance="10"
     gridtolerance="10"
     guidetolerance="10"
     inkscape:pageopacity="0"
     inkscape:pageshadow="2"
     inkscape:window-width="753"
     inkscape:window-height="480"
     id="namedview10247"
     showgrid="false"
     inkscape:zoom="4.7676768"
     inkscape:cx="12.460805"
     inkscape:cy="1.4309927"
     inkscape:window-x="0"
     inkscape:window-y="28"
     inkscape:window-maximized="0"
     inkscape:current-layer="Layer_1" /><style
     type="text/css"
     id="style10223">
	.st0{fill:#FFFFFF;stroke:#231F20;stroke-width:6;stroke-linecap:round;stroke-linejoin:round;stroke-miterlimit:10;}
</style><g
     id="g10225"
     transform="matrix(0.13006978,0,0,0.13006978,-24.006104,-26.70562)"
     style="stroke-width:7.68818091;stroke-miterlimit:10;stroke-dasharray:none"><path
       class="st0"
       d="m 334.5,220.3 c 0.5,2.8 5,0 6.6,0.7 3.5,1.4 7.1,2.7 10.6,4.2 4.5,1.8 9.2,3.7 13.3,6.4 2.4,1.5 5.7,4.6 7.3,7 4.6,6.9 5.3,14.9 6.5,22.9 1.5,10 3.5,19.9 3.7,30.1 0.1,4.8 -0.2,9.5 0,14.4 0.2,4.8 0.4,9.6 0.6,14.4 0.7,17.2 1.2,34.5 1.9,51.7 0.4,9.2 0.8,18.4 1.3,27.6 0.3,4.7 0.6,9.5 0.9,14.2 0.2,2.3 0.3,4.5 0.5,6.8 0.1,1.8 0.8,3.6 0.8,5.4 -0.1,2.5 -2.3,4.4 -2.4,6.9 0,1.5 -0.5,3.5 -1,5.5 -0.1,0.6 -1.1,8.4 -1.5,8.4 -6.5,0.6 -12.5,0.2 -18.1,-1.2 -1.7,-0.4 -2.8,-2 -2.6,-3.7 l 0.5,-5.9 c 0.1,-1.7 0.3,-3.4 0.4,-5.1 0.1,-1.4 -0.5,-2.8 -0.7,-4.2 -0.2,-1.4 0,-2.7 0,-4.1 0.2,-3.5 0,-7 -0.2,-10.5 -0.3,-4.7 1.1,-9 0.3,-13.8 -0.1,-0.8 -0.3,-1.6 -0.5,-2.4 -3.5,-17.5 -4.7,-35.6 -6.8,-53.3 -2.2,-19 -4.5,-38 -6.2,-57.1 0.2,0.1 -15.2,-65.2 -15.2,-65.3 z"
       id="path10227"
       inkscape:connector-curvature="0"
       style="fill:#ffffff;stroke:#231f20;stroke-width:7.68818091;stroke-linecap:round;stroke-linejoin:round;stroke-miterlimit:10;stroke-dasharray:none" /></g><path
     class="st0"
     d="m 12.231336,1.8186841 c -0.052,0.1951019 -0.78042,0.130072 -0.988531,0.2211151 C 10.787559,2.2218975 10.319309,2.3909924 9.8640638,2.5860942 9.2787518,2.820219 8.6674208,3.0673534 8.1341348,3.4185404 7.8219708,3.6136484 7.392738,4.0168619 7.184627,4.3290323 6.5863056,5.2265144 6.4952564,6.2670721 6.3391773,7.3076299 6.1440693,8.6083256 5.8839313,9.8960177 5.8579181,11.222727 c -0.012986,0.624335 0.026031,1.235665 0,1.873004 -0.026032,0.62434 -0.052063,1.248675 -0.078045,1.87301 -0.091049,2.2372 -0.1560791,4.487404 -0.2471282,6.724605 -0.052063,1.196643 -0.1040591,2.393286 -0.1690949,3.589923 -0.039016,0.611331 -0.07804,1.235666 -0.1170623,1.846996 -0.026032,0.299156 -0.039017,0.585312 -0.065036,0.884473 -0.012986,0.234125 -0.1040522,0.46825 -0.1040522,0.702374 0.012986,0.325175 0.2991606,0.572308 0.3121641,0.897483 0,0.195107 0.065036,0.455245 0.130072,0.715383 0.012986,0.07805 0.1430756,1.092585 0.195108,1.092585 0.7153839,0.06503 1.3917449,0.03902 2.0290832,-0.09103 0.403219,-0.07805 0.676366,-0.442242 0.650354,-0.845456 l -0.03902,-0.46825 c -0.01298,-0.22112 -0.03902,-0.442241 -0.052,-0.663357 -0.01298,-0.182098 0.06503,-0.364196 0.09106,-0.546295 0.02604,-0.182098 0,-0.351188 0,-0.533285 -0.02604,-0.455246 0,-0.910486 0.02604,-1.365732 0.03902,-0.611331 -0.143076,-1.17063 -0.03902,-1.794965 0.01298,-0.10405 0.03902,-0.208111 0.06503,-0.312163 0.455247,-2.276229 0.611325,-4.630492 0.884474,-6.932729 0.286156,-2.471325 0.585317,-4.942651 0.8064322,-7.426985 -0.03902,0.01298 2.094126,-8.6106198 2.094126,-8.6236233 z"
     id="path10229"
     inkscape:connector-curvature="0"
     style="fill:#ffffff;stroke:#231f20;stroke-width:1;stroke-linecap:round;stroke-linejoin:round;stroke-miterlimit:10;stroke-dasharray:none" /><path
     class="st0"
     d="m 22.090624,26.245787 c 0.364198,-0.377201 0.585313,-0.728387 0.949509,-1.105594 0.02604,-2.289227 -0.03902,-4.578454 -0.325174,-6.854677 -0.143074,-1.118597 -0.338183,-2.237201 -0.624335,-3.329786 -0.130071,-0.494262 -0.351187,-0.832445 -0.325173,-1.352727 0.03902,-0.598315 0.195102,-1.183633 0.273147,-1.781955 0.07805,-0.572308 0.06503,-1.118597 0.221115,-1.703915 0.06503,-0.2471283 0.130073,-0.5072723 0.195109,-0.7544004 0.07804,-1.54783 0.03902,-3.5509063 -0.208113,-6.529504 C 21.375241,2.4820415 21.4793,2.7031566 20.29566,2.0267956 19.788387,1.7406383 18.396643,2.2609203 18.851889,1.8967237 c 1.990066,-1.5608337 -9.2609722,-0.7934235 -6.048244,0 0.559299,0.1430755 -0.949509,-0.1560854 -1.443777,0.1300719 -1.183633,0.6633574 -1.079581,0.4552459 -1.9510452,0.806433 -0.247134,2.9785977 -0.29916,4.981674 -0.208111,6.529504 0.06503,0.2471281 0.130066,0.5072721 0.195102,0.7544004 0.143076,0.585318 0.130072,1.131607 0.221122,1.703915 0.07804,0.598322 0.234124,1.18364 0.27314,1.781955 0.03902,0.520282 -0.195102,0.858465 -0.325173,1.352727 -0.286151,1.092585 -0.481258,2.211189 -0.624335,3.329786 -0.28615,2.263214 -0.351186,4.56545 -0.325173,6.854677 0.364196,0.377207 0.585317,0.598322 0.949508,0.975528 1.9380402,0.07804 3.8760802,0.117062 5.8011162,0.130066 l 6.724605,0 z"
     id="path10231"
     inkscape:connector-curvature="0"
     style="fill:#ffffff;stroke:#231f20;stroke-width:1;stroke-linecap:round;stroke-linejoin:round;stroke-miterlimit:10;stroke-dasharray:none" /><path
     class="st0"
     d="m 22.090624,26.245787 c 0.364198,-0.377201 0.585313,-0.728387 0.949509,-1.105594 0.02604,-2.289227 -0.03902,-4.578454 -0.325174,-6.854677 -0.143074,-1.118597 -0.338183,-2.237201 -0.624335,-3.329786 -0.130071,-0.494262 -0.351187,-0.832445 -0.325173,-1.352727 0.03902,-0.598315 0.195102,-1.183633 0.273147,-1.781955 0.07805,-0.572308 0.06503,-1.118597 0.221115,-1.703915 0.06503,-0.2471283 0.130073,-0.5072723 0.195109,-0.7544004 0.07804,-1.54783 0.03902,-3.5509063 -0.208113,-6.529504 C 21.375241,2.4820415 21.4793,2.7031566 20.29566,2.0267956 19.788387,1.7406383 19.177063,1.688612 18.851889,2.1568676 18.240558,3.015327 17.108951,3.4575632 15.977344,3.4705667 H 15.66518 C 14.546577,3.4575816 13.401966,3.015327 12.790635,2.1568676 12.452451,1.688612 11.841126,1.7406383 11.346864,2.0267956 c -1.18364,0.6633574 -1.079581,0.4552459 -1.9510502,0.806433 -0.247134,2.9785977 -0.299161,4.981674 -0.208111,6.529504 0.06503,0.2471281 0.130072,0.5072721 0.195101,0.7544004 0.143082,0.585318 0.130073,1.131607 0.221122,1.703915 0.07804,0.598322 0.234124,1.18364 0.273147,1.781955 0.03902,0.520282 -0.195108,0.858465 -0.325173,1.352727 -0.286158,1.092585 -0.481259,2.211189 -0.624335,3.329786 -0.286156,2.263214 -0.351193,4.56545 -0.325173,6.854677 0.36419,0.377207 0.585311,0.598322 0.949508,0.975528 1.9380392,0.07804 3.8760792,0.117062 5.8011102,0.130066 l 6.737614,0 z"
     id="path10233"
     inkscape:connector-curvature="0"
     style="fill:#ffffff;stroke:#231f20;stroke-width:1;stroke-linecap:round;stroke-linejoin:round;stroke-miterlimit:10;stroke-dasharray:none" /><path
     class="st0"
     d="m 8.6023918,24.802015 c 4.7605522,-0.273147 9.4560682,-0.221121 14.0735452,0.16909 l -0.02604,0.169088"
     id="path10235"
     inkscape:connector-curvature="0"
     style="fill:#ffffff;stroke:#231f20;stroke-width:1;stroke-linecap:round;stroke-linejoin:round;stroke-miterlimit:10;stroke-dasharray:none" /><path
     class="st0"
     d="m 26.395937,29.003269 c -0.02604,0.247129 -3.121679,0.15608 -3.121679,-0.104061"
     id="path10237"
     inkscape:connector-curvature="0"
     style="fill:#ffffff;stroke:#231f20;stroke-width:1;stroke-linecap:round;stroke-linejoin:round;stroke-miterlimit:10;stroke-dasharray:none" /><path
     class="st0"
     d="m 5.0774983,29.003269 c 0.012986,0.117062 3.1216725,0.02604 3.1216725,-0.104061"
     id="path10239"
     inkscape:connector-curvature="0"
     style="fill:#ffffff;stroke:#231f20;stroke-width:1;stroke-linecap:round;stroke-linejoin:round;stroke-miterlimit:10;stroke-dasharray:none" /><path
     class="st0"
     d="m 12.062248,16.646637 h 7.335929 c -0.06503,1.027555 0.364198,2.016085 1.625877,2.978597 v 2.588388 H 10.839592 l 0,-2.549365 c 0.897476,-0.884473 1.44377,-1.86 1.222656,-3.01762 z"
     id="path10241"
     inkscape:connector-curvature="0"
     style="fill:#ffffff;stroke:#231f20;stroke-width:1;stroke-linecap:round;stroke-linejoin:round;stroke-miterlimit:10;stroke-dasharray:none" /><polygon
     class="st0"
     points="304.9,234.2 278.6,210 271.7,223 "
     id="polygon10243"
     style="fill:#ffffff;stroke:#231f20;stroke-width:7.68818091;stroke-linecap:round;stroke-linejoin:round;stroke-miterlimit:10;stroke-dasharray:none"
     transform="matrix(0.13006978,0,0,0.13006978,-24.006104,-26.70562)" /><polygon
     class="st0"
     points="305.7,234.2 332,210 338.9,223 "
     id="polygon10245"
     style="fill:#ffffff;stroke:#231f20;stroke-width:7.68818091;stroke-linecap:round;stroke-linejoin:round;stroke-miterlimit:10;stroke-dasharray:none"
     transform="matrix(0.13006978,0,0,0.13006978,-24.006104,-26.70562)" /></svg>