<?xml version="1.0" encoding="UTF-8" standalone="no"?>
<!-- Generator: Adobe Illustrator 20.1.0, SVG Export Plug-In . SVG Version: 6.00 Build 0)  -->

<svg
   xmlns:dc="http://purl.org/dc/elements/1.1/"
   xmlns:cc="http://creativecommons.org/ns#"
   xmlns:rdf="http://www.w3.org/1999/02/22-rdf-syntax-ns#"
   xmlns:svg="http://www.w3.org/2000/svg"
   xmlns="http://www.w3.org/2000/svg"
   xmlns:sodipodi="http://sodipodi.sourceforge.net/DTD/sodipodi-0.dtd"
   xmlns:inkscape="http://www.inkscape.org/namespaces/inkscape"
   version="1.1"
   id="Layer_1"
   x="0px"
   y="0px"
   viewBox="0 0 32 32"
   xml:space="preserve"
   inkscape:version="0.48.4 r9939"
   width="100%"
   height="100%"
   sodipodi:docname="the_denim_jacket.svg"><metadata
     id="metadata12349"><rdf:RDF><cc:Work
         rdf:about=""><dc:format>image/svg+xml</dc:format><dc:type
           rdf:resource="http://purl.org/dc/dcmitype/StillImage" /></cc:Work></rdf:RDF></metadata><defs
     id="defs12347" /><sodipodi:namedview
     pagecolor="#ffffff"
     bordercolor="#666666"
     borderopacity="1"
     objecttolerance="10"
     gridtolerance="10"
     guidetolerance="10"
     inkscape:pageopacity="0"
     inkscape:pageshadow="2"
     inkscape:window-width="753"
     inkscape:window-height="480"
     id="namedview12345"
     showgrid="false"
     inkscape:zoom="3.3712566"
     inkscape:cx="10.073245"
     inkscape:cy="5.1531477"
     inkscape:window-x="0"
     inkscape:window-y="28"
     inkscape:window-maximized="0"
     inkscape:current-layer="Layer_1" /><style
     type="text/css"
     id="style12287">
	.st0{fill:#FFFFFF;stroke:#000000;stroke-width:6;stroke-linecap:round;stroke-linejoin:round;stroke-miterlimit:10;}
	.st1{fill:none;stroke:#000000;stroke-width:6;stroke-linecap:round;stroke-linejoin:round;stroke-miterlimit:10;}
	.st2{fill:#FFFEFF;stroke:#000000;stroke-width:6;stroke-linecap:round;stroke-linejoin:round;stroke-miterlimit:10;}
</style><path
     class="st0"
     d="m 23.634604,16.265574 c 0.564481,3.489537 0.73126,7.492233 0.93653,11.456453 L 15.949929,27.952951 7.9188693,27.722027 C 8.1241379,23.757807 8.2909168,19.767939 8.8553984,16.265574 9.3300801,13.379007 9.0478323,10.415468 8.0215036,7.6700246 7.6622834,6.7206679 7.2517533,5.7199941 6.7898989,4.7064928 7.8290624,3.7699564 9.8689001,3.1541577 12.25513,2.846262 l 1.013501,-1.6934519 h 5.259963 l 1.513845,1.7191068 h 0.128289 c 2.373395,0.3207305 4.426067,0.9365292 5.529376,1.8345759 -0.461855,1.0263288 -0.872385,2.0141751 -1.231605,2.9635318 -1.02633,2.7454434 -1.308577,5.7089824 -0.833895,8.5955494 z"
     id="path12289"
     inkscape:connector-curvature="0"
     style="fill:#ffffff;stroke:#000000;stroke-width:1;stroke-linecap:round;stroke-linejoin:round;stroke-miterlimit:10;stroke-dasharray:none" /><path
     class="st1"
     d="m 25.700104,4.7064928 c -0.461855,1.0263288 -0.872385,2.0141751 -1.231605,2.9635318 -1.02633,2.7454434 -1.295742,5.7089824 -0.833895,8.5955494 0.564481,3.489537 0.73126,7.492233 0.93653,11.456453 l -8.621205,0.230924 0,0 -8.0310597,-0.230924 C 8.1113032,23.757807 8.2780821,19.767939 8.8553984,16.265574 9.3300801,13.379007 9.0478323,10.415468 8.0215036,7.6700246 7.6622834,6.7206679 7.2517533,5.7199941 6.7898989,4.7064928 c 3.1816352,-2.8224221 15.4848111,-2.7582775 18.9102051,0 z"
     id="path12291"
     inkscape:connector-curvature="0"
     style="fill:none;stroke:#000000;stroke-width:1;stroke-linecap:round;stroke-linejoin:round;stroke-miterlimit:10;stroke-dasharray:none" /><path
     class="st0"
     d="M 3.7493878,30.377663 7.4057049,30.762538 9.060667,12.622091 C 9.0221846,10.107572 8.0343311,7.4262735 6.8027336,4.7193203 4.4806484,7.9394379 4.2240697,19.588332 3.7493878,30.377663 z"
     id="path12293"
     inkscape:connector-curvature="0"
     style="fill:#ffffff;stroke:#000000;stroke-width:1;stroke-linecap:round;stroke-linejoin:round;stroke-miterlimit:10;stroke-dasharray:none" /><line
     class="st1"
     x1="3.8263631"
     y1="28.645729"
     x2="7.5724854"
     y2="28.966454"
     id="line12295"
     style="fill:none;stroke:#000000;stroke-width:1;stroke-linecap:round;stroke-linejoin:round;stroke-miterlimit:10;stroke-dasharray:none" /><line
     class="st1"
     x1="8.1754494"
     y1="26.336477"
     x2="24.506983"
     y2="26.336477"
     id="line12297"
     style="fill:none;stroke:#000000;stroke-width:1;stroke-linecap:round;stroke-linejoin:round;stroke-miterlimit:10;stroke-dasharray:none" /><path
     class="st1"
     d="m 17.027582,5.2324847 c 0,0 0.513165,22.5151973 0.513165,22.3227633"
     id="path12299"
     inkscape:connector-curvature="0"
     style="fill:none;stroke:#000000;stroke-width:1;stroke-linecap:round;stroke-linejoin:round;stroke-miterlimit:10;stroke-dasharray:none" /><line
     class="st1"
     x1="14.974914"
     y1="5.232482"
     x2="14.974914"
     y2="27.555248"
     id="line12301"
     style="fill:none;stroke:#000000;stroke-width:1;stroke-linecap:round;stroke-linejoin:round;stroke-miterlimit:10;stroke-dasharray:none" /><path
     class="st2"
     d="m 16.809487,4.7064928 1.86023,-3.5536827 0.949357,1.21877 c 0.243751,0.3079029 0.346385,0.692778 0.307903,1.0776531 L 19.657564,5.7071667 15.949929,4.8347821 12.21664,5.7071667 12.062689,3.6929844 c -0.02565,-0.2950684 0.0513,-0.5901438 0.205268,-0.8467224 l 1.013509,-1.6934519 2.052665,3.5536827"
     id="path12303"
     inkscape:connector-curvature="0"
     style="fill:#fffeff;stroke:#000000;stroke-width:1;stroke-linecap:round;stroke-linejoin:round;stroke-miterlimit:10;stroke-dasharray:none" /><path
     class="st1"
     d="m 9.060667,10.069082 c 4.900743,-1.0776459 9.814312,-1.0776459 14.715061,0"
     id="path12305"
     inkscape:connector-curvature="0"
     style="fill:none;stroke:#000000;stroke-width:1;stroke-linecap:round;stroke-linejoin:round;stroke-miterlimit:10;stroke-dasharray:none" /><g
     id="g12307"
     transform="matrix(0.12829172,0,0,0.12829172,-23.06358,-34.922822)"
     style="stroke-width:7.79473531;stroke-miterlimit:10;stroke-dasharray:none"><line
       class="st1"
       x1="267"
       y1="475"
       x2="257.29999"
       y2="365.39999"
       id="line12309"
       style="fill:none;stroke:#000000;stroke-width:7.79473531;stroke-linecap:round;stroke-linejoin:round;stroke-miterlimit:10;stroke-dasharray:none" /><path
       class="st1"
       d="m 278.7,475 c -0.3,-0.7 4,-111.1 4,-111.1"
       id="path12311"
       inkscape:connector-curvature="0"
       style="fill:none;stroke:#000000;stroke-width:7.79473531;stroke-linecap:round;stroke-linejoin:round;stroke-miterlimit:10;stroke-dasharray:none" /></g><g
     id="g12313"
     transform="matrix(0.12829172,0,0,0.12829172,-23.06358,-34.922822)"
     style="stroke-width:7.79473531;stroke-miterlimit:10;stroke-dasharray:none"><path
       class="st1"
       d="m 252.5,363.7 c 0.5,0.1 2.5,0.8 4.8,1.7 4.5,1.7 10.4,4 10.4,4 l 20.3,-7.4 2.3,-17.1"
       id="path12315"
       inkscape:connector-curvature="0"
       style="fill:none;stroke:#000000;stroke-width:7.79473531;stroke-linecap:round;stroke-linejoin:round;stroke-miterlimit:10;stroke-dasharray:none" /><circle
       class="st1"
       cx="267"
       cy="360"
       r="0.80000001"
       id="circle12317"
       sodipodi:cx="267"
       sodipodi:cy="360"
       sodipodi:rx="0.80000001"
       sodipodi:ry="0.80000001"
       style="fill:none;stroke:#000000;stroke-width:7.79473531;stroke-linecap:round;stroke-linejoin:round;stroke-miterlimit:10;stroke-dasharray:none"
       d="m 267.8,360 c 0,0.44183 -0.35817,0.8 -0.8,0.8 -0.44183,0 -0.8,-0.35817 -0.8,-0.8 0,-0.44183 0.35817,-0.8 0.8,-0.8 0.44183,0 0.8,0.35817 0.8,0.8 z" /></g><g
     id="g12319"
     transform="matrix(0.12829172,0,0,0.12829172,-23.06358,-34.922822)"
     style="stroke-width:7.79473531;stroke-miterlimit:10;stroke-dasharray:none"><circle
       class="st1"
       cx="305"
       cy="318"
       r="0.80000001"
       id="circle12321"
       sodipodi:cx="305"
       sodipodi:cy="318"
       sodipodi:rx="0.80000001"
       sodipodi:ry="0.80000001"
       style="fill:none;stroke:#000000;stroke-width:7.79473531;stroke-linecap:round;stroke-linejoin:round;stroke-miterlimit:10;stroke-dasharray:none"
       d="m 305.8,318 c 0,0.44183 -0.35817,0.8 -0.8,0.8 -0.44183,0 -0.8,-0.35817 -0.8,-0.8 0,-0.44183 0.35817,-0.8 0.8,-0.8 0.44183,0 0.8,0.35817 0.8,0.8 z" /><circle
       class="st1"
       cx="306"
       cy="355"
       r="0.80000001"
       id="circle12323"
       sodipodi:cx="306"
       sodipodi:cy="355"
       sodipodi:rx="0.80000001"
       sodipodi:ry="0.80000001"
       style="fill:none;stroke:#000000;stroke-width:7.79473531;stroke-linecap:round;stroke-linejoin:round;stroke-miterlimit:10;stroke-dasharray:none"
       d="m 306.8,355 c 0,0.44183 -0.35817,0.8 -0.8,0.8 -0.44183,0 -0.8,-0.35817 -0.8,-0.8 0,-0.44183 0.35817,-0.8 0.8,-0.8 0.44183,0 0.8,0.35817 0.8,0.8 z" /><circle
       class="st1"
       cx="307"
       cy="401"
       r="0.80000001"
       id="circle12325"
       sodipodi:cx="307"
       sodipodi:cy="401"
       sodipodi:rx="0.80000001"
       sodipodi:ry="0.80000001"
       style="fill:none;stroke:#000000;stroke-width:7.79473531;stroke-linecap:round;stroke-linejoin:round;stroke-miterlimit:10;stroke-dasharray:none"
       d="m 307.8,401 c 0,0.44183 -0.35817,0.8 -0.8,0.8 -0.44183,0 -0.8,-0.35817 -0.8,-0.8 0,-0.44183 0.35817,-0.8 0.8,-0.8 0.44183,0 0.8,0.35817 0.8,0.8 z" /><circle
       class="st1"
       cx="308"
       cy="448"
       r="0.80000001"
       id="circle12327"
       sodipodi:cx="308"
       sodipodi:cy="448"
       sodipodi:rx="0.80000001"
       sodipodi:ry="0.80000001"
       style="fill:none;stroke:#000000;stroke-width:7.79473531;stroke-linecap:round;stroke-linejoin:round;stroke-miterlimit:10;stroke-dasharray:none"
       d="m 308.8,448 c 0,0.44183 -0.35817,0.8 -0.8,0.8 -0.44183,0 -0.8,-0.35817 -0.8,-0.8 0,-0.44183 0.35817,-0.8 0.8,-0.8 0.44183,0 0.8,0.35817 0.8,0.8 z" /></g><path
     class="st0"
     d="m 28.804759,30.377663 -3.65631,0.384875 -1.654962,-18.140447 c 0.03848,-2.514519 1.026329,-5.1958175 2.257933,-7.9027707 2.322079,3.2201176 2.591492,14.8690117 3.053339,25.6583427 z"
     id="path12329"
     inkscape:connector-curvature="0"
     style="fill:#ffffff;stroke:#000000;stroke-width:1;stroke-linecap:round;stroke-linejoin:round;stroke-miterlimit:10;stroke-dasharray:none" /><g
     id="g12331"
     transform="matrix(0.12829172,0,0,0.12829172,-23.06358,-34.922822)"
     style="stroke-width:7.79473531;stroke-miterlimit:10;stroke-dasharray:none"><line
       class="st1"
       x1="346.29999"
       y1="475"
       x2="356"
       y2="365.39999"
       id="line12333"
       style="fill:none;stroke:#000000;stroke-width:7.79473531;stroke-linecap:round;stroke-linejoin:round;stroke-miterlimit:10;stroke-dasharray:none" /><path
       class="st1"
       d="m 334.7,475 c 0.3,-0.7 -4,-111.1 -4,-111.1"
       id="path12335"
       inkscape:connector-curvature="0"
       style="fill:none;stroke:#000000;stroke-width:7.79473531;stroke-linecap:round;stroke-linejoin:round;stroke-miterlimit:10;stroke-dasharray:none" /></g><g
     id="g12337"
     transform="matrix(0.12829172,0,0,0.12829172,-23.06358,-34.922822)"
     style="stroke-width:7.79473531;stroke-miterlimit:10;stroke-dasharray:none"><path
       class="st1"
       d="m 360.8,363.7 c -0.5,0.1 -2.5,0.8 -4.8,1.7 -4.5,1.7 -10.4,4 -10.4,4 L 325.3,362.1 323,345"
       id="path12339"
       inkscape:connector-curvature="0"
       style="fill:none;stroke:#000000;stroke-width:7.79473531;stroke-linecap:round;stroke-linejoin:round;stroke-miterlimit:10;stroke-dasharray:none" /><circle
       class="st1"
       cx="346.29999"
       cy="360"
       r="0.80000001"
       id="circle12341"
       sodipodi:cx="346.29999"
       sodipodi:cy="360"
       sodipodi:rx="0.80000001"
       sodipodi:ry="0.80000001"
       style="fill:none;stroke:#000000;stroke-width:7.79473531;stroke-linecap:round;stroke-linejoin:round;stroke-miterlimit:10;stroke-dasharray:none"
       d="m 347.09999,360 c 0,0.44183 -0.35817,0.8 -0.8,0.8 -0.44183,0 -0.8,-0.35817 -0.8,-0.8 0,-0.44183 0.35817,-0.8 0.8,-0.8 0.44183,0 0.8,0.35817 0.8,0.8 z" /></g><line
     class="st1"
     x1="28.74061"
     y1="28.645729"
     x2="24.994499"
     y2="28.966454"
     id="line12343"
     style="fill:none;stroke:#000000;stroke-width:1;stroke-linecap:round;stroke-linejoin:round;stroke-miterlimit:10;stroke-dasharray:none" /></svg>