<?xml version="1.0" encoding="UTF-8" standalone="no"?>
<!-- Generator: Adobe Illustrator 20.1.0, SVG Export Plug-In . SVG Version: 6.00 Build 0)  -->

<svg
   xmlns:dc="http://purl.org/dc/elements/1.1/"
   xmlns:cc="http://creativecommons.org/ns#"
   xmlns:rdf="http://www.w3.org/1999/02/22-rdf-syntax-ns#"
   xmlns:svg="http://www.w3.org/2000/svg"
   xmlns="http://www.w3.org/2000/svg"
   xmlns:sodipodi="http://sodipodi.sourceforge.net/DTD/sodipodi-0.dtd"
   xmlns:inkscape="http://www.inkscape.org/namespaces/inkscape"
   version="1.1"
   id="Layer_1"
   x="0px"
   y="0px"
   viewBox="0 0 32 32"
   xml:space="preserve"
   inkscape:version="0.48.4 r9939"
   width="100%"
   height="100%"
   sodipodi:docname="the_vintage_tee.svg"><metadata
     id="metadata3080"><rdf:RDF><cc:Work
         rdf:about=""><dc:format>image/svg+xml</dc:format><dc:type
           rdf:resource="http://purl.org/dc/dcmitype/StillImage" /></cc:Work></rdf:RDF></metadata><defs
     id="defs3078" /><sodipodi:namedview
     pagecolor="#ffffff"
     bordercolor="#666666"
     borderopacity="1"
     objecttolerance="10"
     gridtolerance="10"
     guidetolerance="10"
     inkscape:pageopacity="0"
     inkscape:pageshadow="2"
     inkscape:window-width="1020"
     inkscape:window-height="634"
     id="namedview3076"
     showgrid="false"
     inkscape:zoom="4.7676768"
     inkscape:cx="0.61017001"
     inkscape:cy="-6.7118644"
     inkscape:window-x="0"
     inkscape:window-y="28"
     inkscape:window-maximized="0"
     inkscape:current-layer="Layer_1" /><style
     type="text/css"
     id="style3062">
	.st0{fill:#FFFFFF;stroke:#231F20;stroke-width:6;stroke-linecap:round;stroke-linejoin:round;stroke-miterlimit:10;}
	.st1{fill:none;stroke:#231F20;stroke-width:6;stroke-linecap:round;stroke-linejoin:round;stroke-miterlimit:10;}
</style><path
     class="st0"
     d="m 25.282129,31.14421 c 0.444843,-0.460732 -0.07944,-0.889679 0.365408,-1.350411 0.03176,-2.796137 -0.04764,-5.592275 -0.397178,-8.372525 -0.174759,-1.366292 -0.413066,-2.732584 -0.762585,-4.067106 -0.158871,-0.603714 -0.428954,-1.01678 -0.397177,-1.652264 0.04764,-0.730808 0.238306,-1.445727 0.33363,-2.176542 0.09532,-0.699031 0.07944,-1.366292 0.270084,-2.081211 0.07944,-0.301854 0.158871,-0.619603 0.238306,-0.921456 0.09532,-1.8905711 0.04765,-4.3371899 -0.254195,-7.9753484 -1.064438,-0.4289545 -0.937344,-0.158871 -2.383072,-0.985003 -0.619602,-0.3495119 -1.064438,-0.079436 -1.763476,-0.158871 -0.746697,-0.079436 -6.640826,-0.079436 -7.387522,0 -0.699031,0.063526 -1.159763,-0.1906409 -1.76347,0.158871 -1.4457336,0.8102435 -1.318633,0.5560485 -2.3830716,0.985003 -0.30186,3.6381585 -0.365407,6.0847773 -0.254195,7.9753484 0.07944,0.301853 0.158871,0.619602 0.238307,0.921456 0.174759,0.714919 0.158871,1.38218 0.270083,2.081211 0.09532,0.730815 0.285965,1.445734 0.333631,2.176542 0.04764,0.635484 -0.238307,1.04855 -0.397185,1.652264 -0.349512,1.334522 -0.587818,2.700814 -0.762578,4.067106 -0.349519,2.764368 -0.428954,5.576388 -0.397177,8.372525 0.444836,0.460732 -0.07944,0.730808 0.3654,1.19154 2.3671836,0.09532 5.5287286,0.142982 7.8800236,0.158871 l 9.008009,0 z"
     id="path3064"
     inkscape:connector-curvature="0"
     style="fill:#ffffff;stroke:#231f20;stroke-width:1;stroke-linecap:round;stroke-linejoin:round;stroke-miterlimit:10;stroke-dasharray:none" /><path
     class="st0"
     d="M 29.0315,8.0125285 C 28.840852,6.757442 28.268915,5.4705855 27.522219,4.37437 27.268024,4.0089625 26.743752,3.516461 26.362456,3.2622731 25.711084,2.8333186 24.964387,2.5314581 24.249468,2.2454931 23.693419,2.0230751 23.137371,1.8006501 22.565427,1.5782321 22.29535,1.4670196 21.421553,1.5464692 21.358006,1.3081486 c 0,0 2.60549,10.5331794 2.60549,10.5331794 l 0.635491,0.254195 5.163321,-1.286856 L 29.0315,8.0125285 z"
     id="path3066"
     inkscape:connector-curvature="0"
     style="fill:#ffffff;stroke:#231f20;stroke-width:1;stroke-linecap:round;stroke-linejoin:round;stroke-miterlimit:10;stroke-dasharray:none" /><path
     class="st0"
     d="m 4.7718264,8.0125285 c 0.190648,-1.2550865 0.762585,-2.541943 1.509282,-3.6381585 0.254195,-0.3654075 0.778466,-0.857909 1.159762,-1.1120969 0.651373,-0.4289545 1.398069,-0.730815 2.112989,-1.01678 0.5560476,-0.222418 1.1120966,-0.444843 1.6840336,-0.667261 0.270083,-0.1112125 1.143881,-0.031763 1.207428,-0.2700835 0,0 -2.6054896,10.5331794 -2.6054896,10.5331794 l -0.635491,0.254195 -5.163322,-1.286856 0.730808,-2.7961385 z"
     id="path3068"
     inkscape:connector-curvature="0"
     style="fill:#ffffff;stroke:#231f20;stroke-width:1;stroke-linecap:round;stroke-linejoin:round;stroke-miterlimit:10;stroke-dasharray:none" /><path
     class="st0"
     d="m 25.282129,30.985339 c 0.444843,-0.460732 0.365408,-0.762585 0.365408,-1.350411 0.03176,-2.796137 -0.04764,-5.592275 -0.397178,-8.372525 -0.174759,-1.366292 -0.413066,-2.732584 -0.762585,-4.067106 -0.158871,-0.603714 -0.428954,-1.01678 -0.397177,-1.652264 0.04764,-0.730808 0.238306,-1.445727 0.33363,-2.176542 0.09532,-0.699031 0.07944,-1.366292 0.270084,-2.081211 0.07944,-0.301861 0.158871,0.969114 0.238306,0.66726 -0.587825,-2.0017821 -0.50839,-6.0053415 -0.254195,-9.5640644 -1.064438,-0.4289545 -0.937344,-0.158871 -2.383072,-0.985003 -0.619602,-0.349519 -1.366299,-0.41306601 -1.763476,0.158871 -0.746697,1.04855 -2.128877,1.588717 -3.511057,1.6046055 H 16.639528 C 15.273229,3.1510676 13.87516,2.6108936 13.128463,1.5623436 12.715397,0.99040659 11.968708,1.0539536 11.364994,1.4034726 9.9192664,2.2137161 10.04636,1.9595211 8.9819224,2.3884756 c 0.397177,3.812918 0.349519,7.8482544 -0.254195,9.5640644 0.07944,0.301854 0.158871,-0.969121 0.238306,-0.66726 0.17476,0.714919 0.158871,1.38218 0.270084,2.081211 0.09532,0.730815 0.285965,1.445734 0.33363,2.176542 0.04765,0.635484 -0.238306,1.04855 -0.397177,1.652264 -0.349519,1.334522 -0.587826,2.700814 -0.762585,4.067106 -0.349519,2.764368 -0.428955,5.576388 -0.397178,8.372525 0.01588,0.50839 -0.07944,0.730808 0.365401,1.19154 2.3671826,0.09532 5.5287286,0.142982 7.8800236,0.158871 l 9.023897,0 z"
     id="path3070"
     inkscape:connector-curvature="0"
     style="fill:#ffffff;stroke:#231f20;stroke-width:1;stroke-linecap:round;stroke-linejoin:round;stroke-miterlimit:10;stroke-dasharray:none" /><path
     class="st1"
     d="M 25.170924,29.793799"
     id="path3072"
     inkscape:connector-curvature="0"
     style="fill:none;stroke:#231f20;stroke-width:1;stroke-linecap:round;stroke-linejoin:round;stroke-miterlimit:10;stroke-dasharray:none" /><path
     class="st1"
     d="M 8.0128074,29.380733"
     id="path3074"
     inkscape:connector-curvature="0"
     style="fill:none;stroke:#231f20;stroke-width:1;stroke-linecap:round;stroke-linejoin:round;stroke-miterlimit:10;stroke-dasharray:none" /></svg>