<?xml version="1.0" encoding="UTF-8" standalone="no"?>
<!-- Generator: Adobe Illustrator 20.1.0, SVG Export Plug-In . SVG Version: 6.00 Build 0)  -->

<svg
   xmlns:dc="http://purl.org/dc/elements/1.1/"
   xmlns:cc="http://creativecommons.org/ns#"
   xmlns:rdf="http://www.w3.org/1999/02/22-rdf-syntax-ns#"
   xmlns:svg="http://www.w3.org/2000/svg"
   xmlns="http://www.w3.org/2000/svg"
   xmlns:sodipodi="http://sodipodi.sourceforge.net/DTD/sodipodi-0.dtd"
   xmlns:inkscape="http://www.inkscape.org/namespaces/inkscape"
   version="1.1"
   id="Layer_1"
   x="0px"
   y="0px"
   viewBox="0 0 32 32"
   xml:space="preserve"
   inkscape:version="0.48.4 r9939"
   width="100%"
   height="100%"
   sodipodi:docname="the_crossbody_bag.svg"><metadata
     id="metadata13628"><rdf:RDF><cc:Work
         rdf:about=""><dc:format>image/svg+xml</dc:format><dc:type
           rdf:resource="http://purl.org/dc/dcmitype/StillImage" /></cc:Work></rdf:RDF></metadata><defs
     id="defs13626" /><sodipodi:namedview
     pagecolor="#ffffff"
     bordercolor="#666666"
     borderopacity="1"
     objecttolerance="10"
     gridtolerance="10"
     guidetolerance="10"
     inkscape:pageopacity="0"
     inkscape:pageshadow="2"
     inkscape:window-width="753"
     inkscape:window-height="480"
     id="namedview13624"
     showgrid="false"
     inkscape:zoom="4.7676768"
     inkscape:cx="12.355932"
     inkscape:cy="18.457627"
     inkscape:window-x="0"
     inkscape:window-y="28"
     inkscape:window-maximized="0"
     inkscape:current-layer="Layer_1" /><style
     type="text/css"
     id="style13610">
	.st0{fill:#FFFFFF;stroke:#231F20;stroke-width:6;stroke-miterlimit:10;}
	.st1{fill:none;stroke:#231F20;stroke-width:6;stroke-miterlimit:10;}
	.st2{fill:#231F20;}
</style><g
     id="g13612"
     transform="matrix(0.08296545,0,0,0.08296545,-9.5973616,-17.476813)"
     style="stroke-width:12.0532101;stroke-miterlimit:4;stroke-dasharray:none"><rect
       x="274.29999"
       y="499.10001"
       class="st0"
       width="66.900002"
       height="66.900002"
       id="rect13614"
       style="fill:#ffffff;stroke:#231f20;stroke-width:12.0532101;stroke-miterlimit:4;stroke-dasharray:none" /><path
       class="st1"
       d="m 291.1,501.4 c 2.1,-28.9 30.5,-28.9 32.6,0"
       id="path13616"
       inkscape:connector-curvature="0"
       style="fill:none;stroke:#231f20;stroke-width:12.0532101;stroke-miterlimit:4;stroke-dasharray:none" /><g
       id="g13618"
       style="stroke-width:12.0532101;stroke-miterlimit:4;stroke-dasharray:none"><g
         id="g13620"
         style="stroke-width:12.0532101;stroke-miterlimit:4;stroke-dasharray:none"><path
           class="st2"
           d="m 277.3,494.5 c -0.5,-11.8 -1.2,-23.5 -1,-35.3 0.2,-12.6 0.6,-25.1 0.6,-37.7 0.1,-24.5 -0.4,-49 -0.3,-73.5 0.1,-24.4 -0.8,-49.9 3.9,-74 2,-10.2 5.4,-20.3 10.9,-29.1 2.7,-4.3 5.9,-8.5 9.8,-11.8 6.1,-5.2 12.2,-4.5 18.4,0.1 18.6,13.9 21.1,38.8 20.6,60.2 -0.4,16.5 0.6,32.9 0.9,49.5 0.6,32.5 0,65 -0.8,97.5 -0.5,19.4 -1.1,38.8 -2,58.1 -0.1,3.2 4.9,3.2 5,0 2.3,-51.8 3.7,-103.8 2.8,-155.6 -0.1,-7.9 -0.4,-15.9 -0.7,-23.8 -0.5,-10.2 -0.2,-20.2 -0.1,-30.4 0.2,-20.6 -3.8,-43.4 -20.3,-57.5 -7.2,-6.2 -15.8,-9.7 -24.4,-3.9 -8.1,5.4 -14.1,14.8 -18.1,23.6 -9.7,21.3 -10,45.3 -10.6,68.3 -0.8,29.4 -0.2,58.9 -0.1,88.3 0.1,14.6 0,29.1 -0.4,43.7 -0.4,14.4 0.3,28.8 0.8,43.2 0.2,3.3 5.2,3.3 5.1,0.1 l 0,0 z"
           id="path13622"
           inkscape:connector-curvature="0"
           style="fill:#231f20;stroke-width:12.0532101;stroke-miterlimit:4;stroke-dasharray:none" /></g></g></g></svg>