<?xml version="1.0" encoding="UTF-8" standalone="no"?>
<!-- Generator: Adobe Illustrator 20.1.0, SVG Export Plug-In . SVG Version: 6.00 Build 0)  -->

<svg
   xmlns:dc="http://purl.org/dc/elements/1.1/"
   xmlns:cc="http://creativecommons.org/ns#"
   xmlns:rdf="http://www.w3.org/1999/02/22-rdf-syntax-ns#"
   xmlns:svg="http://www.w3.org/2000/svg"
   xmlns="http://www.w3.org/2000/svg"
   xmlns:sodipodi="http://sodipodi.sourceforge.net/DTD/sodipodi-0.dtd"
   xmlns:inkscape="http://www.inkscape.org/namespaces/inkscape"
   version="1.1"
   id="Layer_1"
   x="0px"
   y="0px"
   viewBox="0 0 32 32"
   xml:space="preserve"
   inkscape:version="0.48.4 r9939"
   width="100%"
   height="100%"
   sodipodi:docname="the_utility_jacket.svg"><metadata
     id="metadata5680"><rdf:RDF><cc:Work
         rdf:about=""><dc:format>image/svg+xml</dc:format><dc:type
           rdf:resource="http://purl.org/dc/dcmitype/StillImage" /></cc:Work></rdf:RDF></metadata><defs
     id="defs5678" /><sodipodi:namedview
     pagecolor="#ffffff"
     bordercolor="#666666"
     borderopacity="1"
     objecttolerance="10"
     gridtolerance="10"
     guidetolerance="10"
     inkscape:pageopacity="0"
     inkscape:pageshadow="2"
     inkscape:window-width="753"
     inkscape:window-height="480"
     id="namedview5676"
     showgrid="false"
     inkscape:zoom="2.3838384"
     inkscape:cx="37.525424"
     inkscape:cy="26.847458"
     inkscape:window-x="0"
     inkscape:window-y="28"
     inkscape:window-maximized="0"
     inkscape:current-layer="Layer_1" /><style
     type="text/css"
     id="style5606">
	.st0{fill:#FFFFFF;stroke:#000000;stroke-width:6;stroke-linecap:round;stroke-linejoin:round;stroke-miterlimit:10;}
	.st1{fill:none;stroke:#000000;stroke-width:6;stroke-linecap:round;stroke-linejoin:round;stroke-miterlimit:10;}
</style><g
     id="g5608"
     transform="matrix(0.12812544,0,0,0.12812544,-22.881642,-34.830324)"
     style="stroke-width:7.80485125;stroke-miterlimit:10;stroke-dasharray:none"><path
       class="st0"
       d="m 215.4,509.4 c 7.9,5 17.1,7.1 28.8,2.8 L 272,348.6 240.9,302 c -6.9,24.6 -18,55.7 -16,91.3 1.8,32.6 -1.3,62.8 -7.9,91 -1.9,8.1 -1.1,16.7 -1.6,25.1 z"
       id="path5610"
       inkscape:connector-curvature="0"
       style="fill:#ffffff;stroke:#000000;stroke-width:7.80485125;stroke-linecap:round;stroke-linejoin:round;stroke-miterlimit:10;stroke-dasharray:none" /><path
       class="st0"
       d="m 397.4,509.4 c -7.9,5 -17.1,7.1 -28.8,2.8 l -11.3,-93.5 -16.1,-42.1 0.6,-27.9 30.1,-46.7 c 6.9,24.6 18,55.7 16,91.3 -1.8,32.6 1.3,62.8 7.9,91 1.9,8.1 1.1,16.7 1.6,25.1 z"
       id="path5612"
       inkscape:connector-curvature="0"
       style="fill:#ffffff;stroke:#000000;stroke-width:7.80485125;stroke-linecap:round;stroke-linejoin:round;stroke-miterlimit:10;stroke-dasharray:none" /><path
       class="st0"
       d="m 358.1,418.6 c 6.9,19 8.7,49.7 9.8,82.3 -16.2,5.7 -20.9,9.8 -50.9,8.1 h -22 c -30,1.7 -34.7,-2.5 -50.9,-8.1 1,-32.6 2.9,-63.3 9.7,-82.3 5.6,-15 8.5,-29.4 5,-42.1 0,-14.5 -3.8,-32.2 -10,-51.9 -2.3,-7.3 -4.9,-14.9 -7.8,-22.6 l 30.7,-8.5 c 7.2,-1.5 11.2,-7 12.9,-15.3 11.4,8 27.5,6.3 45.7,0 2.3,6.3 5.6,11.5 10.2,15.3 L 371,302 c -10.6,28.7 -17.9,54.6 -17.9,74.5 -3.5,12.7 -0.6,27.1 5,42.1 z"
       id="path5614"
       inkscape:connector-curvature="0"
       style="fill:#ffffff;stroke:#000000;stroke-width:7.80485125;stroke-linecap:round;stroke-linejoin:round;stroke-miterlimit:10;stroke-dasharray:none" /><path
       class="st0"
       d="M 340.3,293.5 371,302 c -10.6,28.7 -17.9,54.6 -17.9,74.5 0.5,13.9 3.4,26.9 5,42.1 6.8,19 8.7,49.7 9.7,82.3 -16.2,5.7 -20.9,9.8 -50.9,8.1 h -22 c -30,1.7 -34.7,-2.5 -50.9,-8.1 1,-32.6 2.9,-63.3 9.7,-82.3 5.6,-15 1.8,-29.5 5,-42.1 0,-14.5 -3.8,-32.2 -10.1,-51.9 -2.3,-7.3 -4.9,-14.9 -7.8,-22.6 l 30.7,-8.5 c 3.7,4 8.5,7 14.1,9.2 18,6.9 42.8,3.9 54.7,-9.2 z"
       id="path5616"
       inkscape:connector-curvature="0"
       style="fill:#ffffff;stroke:#000000;stroke-width:7.80485125;stroke-linecap:round;stroke-linejoin:round;stroke-miterlimit:10;stroke-dasharray:none" /><g
       id="g5618"
       style="stroke-width:7.80485125;stroke-miterlimit:10;stroke-dasharray:none"><path
         class="st0"
         d="m 251.8,425.2 40.9,4 -0.4,15.3 -1.1,43.5 c -0.1,3.4 -2.9,6.1 -6.3,6 -9.8,-0.3 -29,-1.3 -40.4,-4.7 0.8,-23.7 2.7,-45.8 7.3,-64.1 z"
         id="path5620"
         inkscape:connector-curvature="0"
         style="fill:#ffffff;stroke:#000000;stroke-width:7.80485125;stroke-linecap:round;stroke-linejoin:round;stroke-miterlimit:10;stroke-dasharray:none" /><polyline
         class="st1"
         points="292.3,444.6 267.1,449.6 249.8,442.4   "
         id="polyline5622"
         style="fill:none;stroke:#000000;stroke-width:7.80485125;stroke-linecap:round;stroke-linejoin:round;stroke-miterlimit:10;stroke-dasharray:none" /><circle
         class="st0"
         cx="267.60001"
         cy="440.70001"
         r="1.5"
         id="circle5624"
         sodipodi:cx="267.60001"
         sodipodi:cy="440.70001"
         sodipodi:rx="1.5"
         sodipodi:ry="1.5"
         style="fill:#ffffff;stroke:#000000;stroke-width:7.80485125;stroke-linecap:round;stroke-linejoin:round;stroke-miterlimit:10;stroke-dasharray:none"
         d="m 269.10001,440.70001 c 0,0.82843 -0.67158,1.5 -1.5,1.5 -0.82843,0 -1.5,-0.67157 -1.5,-1.5 0,-0.82842 0.67157,-1.5 1.5,-1.5 0.82842,0 1.5,0.67158 1.5,1.5 z" /></g><g
       id="g5626"
       style="stroke-width:7.80485125;stroke-miterlimit:10;stroke-dasharray:none"><path
         class="st0"
         d="m 367.5,491.2 c -11.1,2 -24.8,2.6 -32.6,2.9 -3.4,0.1 -6.3,-2.6 -6.3,-6 l -1.1,-43.5 -0.4,-15.3 33.3,-3.3 c 4.9,20.7 7.3,42.5 7.1,65.2 z"
         id="path5628"
         inkscape:connector-curvature="0"
         style="fill:#ffffff;stroke:#000000;stroke-width:7.80485125;stroke-linecap:round;stroke-linejoin:round;stroke-miterlimit:10;stroke-dasharray:none" /><polyline
         class="st1"
         points="327.5,444.6 352.7,449.6 364,443.4   "
         id="polyline5630"
         style="fill:none;stroke:#000000;stroke-width:7.80485125;stroke-linecap:round;stroke-linejoin:round;stroke-miterlimit:10;stroke-dasharray:none" /><circle
         class="st0"
         cx="352.10001"
         cy="440.70001"
         r="1.5"
         id="circle5632"
         sodipodi:cx="352.10001"
         sodipodi:cy="440.70001"
         sodipodi:rx="1.5"
         sodipodi:ry="1.5"
         style="fill:#ffffff;stroke:#000000;stroke-width:7.80485125;stroke-linecap:round;stroke-linejoin:round;stroke-miterlimit:10;stroke-dasharray:none"
         d="m 353.60001,440.70001 c 0,0.82843 -0.67158,1.5 -1.5,1.5 -0.82843,0 -1.5,-0.67157 -1.5,-1.5 0,-0.82842 0.67157,-1.5 1.5,-1.5 0.82842,0 1.5,0.67158 1.5,1.5 z" /></g><line
       class="st1"
       x1="317.39999"
       y1="307.60001"
       x2="318.89999"
       y2="509"
       id="line5634"
       style="fill:none;stroke:#000000;stroke-width:7.80485125;stroke-linecap:round;stroke-linejoin:round;stroke-miterlimit:10;stroke-dasharray:none" /><line
       class="st1"
       x1="300.39999"
       y1="307.60001"
       x2="301.89999"
       y2="509"
       id="line5636"
       style="fill:none;stroke:#000000;stroke-width:7.80485125;stroke-linecap:round;stroke-linejoin:round;stroke-miterlimit:10;stroke-dasharray:none" /><circle
       class="st0"
       cx="310.60001"
       cy="473.70001"
       r="1.5"
       id="circle5638"
       sodipodi:cx="310.60001"
       sodipodi:cy="473.70001"
       sodipodi:rx="1.5"
       sodipodi:ry="1.5"
       style="fill:#ffffff;stroke:#000000;stroke-width:7.80485125;stroke-linecap:round;stroke-linejoin:round;stroke-miterlimit:10;stroke-dasharray:none"
       d="m 312.10001,473.70001 c 0,0.82843 -0.67158,1.5 -1.5,1.5 -0.82843,0 -1.5,-0.67157 -1.5,-1.5 0,-0.82842 0.67157,-1.5 1.5,-1.5 0.82842,0 1.5,0.67158 1.5,1.5 z" /><circle
       class="st0"
       cx="310.60001"
       cy="430.70001"
       r="1.5"
       id="circle5640"
       sodipodi:cx="310.60001"
       sodipodi:cy="430.70001"
       sodipodi:rx="1.5"
       sodipodi:ry="1.5"
       style="fill:#ffffff;stroke:#000000;stroke-width:7.80485125;stroke-linecap:round;stroke-linejoin:round;stroke-miterlimit:10;stroke-dasharray:none"
       d="m 312.10001,430.70001 c 0,0.82843 -0.67158,1.5 -1.5,1.5 -0.82843,0 -1.5,-0.67157 -1.5,-1.5 0,-0.82842 0.67157,-1.5 1.5,-1.5 0.82842,0 1.5,0.67158 1.5,1.5 z" /><circle
       class="st0"
       cx="309.60001"
       cy="385.70001"
       r="1.5"
       id="circle5642"
       sodipodi:cx="309.60001"
       sodipodi:cy="385.70001"
       sodipodi:rx="1.5"
       sodipodi:ry="1.5"
       style="fill:#ffffff;stroke:#000000;stroke-width:7.80485125;stroke-linecap:round;stroke-linejoin:round;stroke-miterlimit:10;stroke-dasharray:none"
       d="m 311.10001,385.70001 c 0,0.82843 -0.67158,1.5 -1.5,1.5 -0.82843,0 -1.5,-0.67157 -1.5,-1.5 0,-0.82842 0.67157,-1.5 1.5,-1.5 0.82842,0 1.5,0.67158 1.5,1.5 z" /><circle
       class="st0"
       cx="309.60001"
       cy="344.70001"
       r="1.5"
       id="circle5644"
       sodipodi:cx="309.60001"
       sodipodi:cy="344.70001"
       sodipodi:rx="1.5"
       sodipodi:ry="1.5"
       style="fill:#ffffff;stroke:#000000;stroke-width:7.80485125;stroke-linecap:round;stroke-linejoin:round;stroke-miterlimit:10;stroke-dasharray:none"
       d="m 311.10001,344.70001 c 0,0.82843 -0.67158,1.5 -1.5,1.5 -0.82843,0 -1.5,-0.67157 -1.5,-1.5 0,-0.82842 0.67157,-1.5 1.5,-1.5 0.82842,0 1.5,0.67158 1.5,1.5 z" /><circle
       class="st0"
       cx="309.60001"
       cy="313.70001"
       r="1.5"
       id="circle5646"
       sodipodi:cx="309.60001"
       sodipodi:cy="313.70001"
       sodipodi:rx="1.5"
       sodipodi:ry="1.5"
       style="fill:#ffffff;stroke:#000000;stroke-width:7.80485125;stroke-linecap:round;stroke-linejoin:round;stroke-miterlimit:10;stroke-dasharray:none"
       d="m 311.10001,313.70001 c 0,0.82843 -0.67158,1.5 -1.5,1.5 -0.82843,0 -1.5,-0.67157 -1.5,-1.5 0,-0.82842 0.67157,-1.5 1.5,-1.5 0.82842,0 1.5,0.67158 1.5,1.5 z" /><line
       class="st0"
       x1="259"
       y1="401.20001"
       x2="300.39999"
       y2="401.20001"
       id="line5648"
       style="fill:#ffffff;stroke:#000000;stroke-width:7.80485125;stroke-linecap:round;stroke-linejoin:round;stroke-miterlimit:10;stroke-dasharray:none" /><line
       class="st0"
       x1="259"
       y1="414.20001"
       x2="300.39999"
       y2="414.20001"
       id="line5650"
       style="fill:#ffffff;stroke:#000000;stroke-width:7.80485125;stroke-linecap:round;stroke-linejoin:round;stroke-miterlimit:10;stroke-dasharray:none" /><line
       class="st1"
       x1="251.89999"
       y1="324"
       x2="286.20001"
       y2="303.79999"
       id="line5652"
       style="fill:none;stroke:#000000;stroke-width:7.80485125;stroke-linecap:round;stroke-linejoin:round;stroke-miterlimit:10;stroke-dasharray:none" /><line
       class="st1"
       x1="315.5"
       y1="284.10001"
       x2="318.20001"
       y2="305.10001"
       id="line5654"
       style="fill:none;stroke:#000000;stroke-width:7.80485125;stroke-linecap:round;stroke-linejoin:round;stroke-miterlimit:10;stroke-dasharray:none" /><circle
       class="st0"
       cx="308.60001"
       cy="294.70001"
       r="1.5"
       id="circle5656"
       sodipodi:cx="308.60001"
       sodipodi:cy="294.70001"
       sodipodi:rx="1.5"
       sodipodi:ry="1.5"
       style="fill:#ffffff;stroke:#000000;stroke-width:7.80485125;stroke-linecap:round;stroke-linejoin:round;stroke-miterlimit:10;stroke-dasharray:none"
       d="m 310.10001,294.70001 c 0,0.82843 -0.67158,1.5 -1.5,1.5 -0.82843,0 -1.5,-0.67157 -1.5,-1.5 0,-0.82842 0.67157,-1.5 1.5,-1.5 0.82842,0 1.5,0.67158 1.5,1.5 z" /><polygon
       class="st0"
       points="262.6,337.6 259.3,348.7 271.8,352.6 289.7,343.2 291.6,332.9 "
       id="polygon5658"
       style="fill:#ffffff;stroke:#000000;stroke-width:7.80485125;stroke-linecap:round;stroke-linejoin:round;stroke-miterlimit:10;stroke-dasharray:none" /><circle
       class="st0"
       cx="272.60001"
       cy="343.70001"
       r="1.5"
       id="circle5660"
       sodipodi:cx="272.60001"
       sodipodi:cy="343.70001"
       sodipodi:rx="1.5"
       sodipodi:ry="1.5"
       style="fill:#ffffff;stroke:#000000;stroke-width:7.80485125;stroke-linecap:round;stroke-linejoin:round;stroke-miterlimit:10;stroke-dasharray:none"
       d="m 274.10001,343.70001 c 0,0.82843 -0.67158,1.5 -1.5,1.5 -0.82843,0 -1.5,-0.67157 -1.5,-1.5 0,-0.82842 0.67157,-1.5 1.5,-1.5 0.82842,0 1.5,0.67158 1.5,1.5 z" /><line
       class="st0"
       x1="351.79999"
       y1="401.20001"
       x2="319.39999"
       y2="401.20001"
       id="line5662"
       style="fill:#ffffff;stroke:#000000;stroke-width:7.80485125;stroke-linecap:round;stroke-linejoin:round;stroke-miterlimit:10;stroke-dasharray:none" /><line
       class="st0"
       x1="356.5"
       y1="414.20001"
       x2="319.39999"
       y2="414.20001"
       id="line5664"
       style="fill:#ffffff;stroke:#000000;stroke-width:7.80485125;stroke-linecap:round;stroke-linejoin:round;stroke-miterlimit:10;stroke-dasharray:none" /><line
       class="st1"
       x1="361.89999"
       y1="320.60001"
       x2="332.60001"
       y2="302.79999"
       id="line5666"
       style="fill:none;stroke:#000000;stroke-width:7.80485125;stroke-linecap:round;stroke-linejoin:round;stroke-miterlimit:10;stroke-dasharray:none" /><polygon
       class="st0"
       points="349.6,337.6 352.3,348.7 342.2,352.6 327.7,343.2 326.2,332.9 "
       id="polygon5668"
       style="fill:#ffffff;stroke:#000000;stroke-width:7.80485125;stroke-linecap:round;stroke-linejoin:round;stroke-miterlimit:10;stroke-dasharray:none" /><ellipse
       class="st0"
       cx="341.5"
       cy="343.70001"
       rx="1.2"
       ry="1.5"
       id="ellipse5670"
       sodipodi:cx="341.5"
       sodipodi:cy="343.70001"
       sodipodi:rx="1.2"
       sodipodi:ry="1.5"
       style="fill:#ffffff;stroke:#000000;stroke-width:7.80485125;stroke-linecap:round;stroke-linejoin:round;stroke-miterlimit:10;stroke-dasharray:none"
       d="m 342.7,343.70001 c 0,0.82843 -0.53726,1.5 -1.2,1.5 -0.66274,0 -1.2,-0.67157 -1.2,-1.5 0,-0.82842 0.53726,-1.5 1.2,-1.5 0.66274,0 1.2,0.67158 1.2,1.5 z" /></g><line
     class="st0"
     x1="4.8703313"
     y1="28.438019"
     x2="8.3937817"
     y2="28.835207"
     id="line5672"
     style="fill:#ffffff;stroke:#000000;stroke-width:1;stroke-linecap:round;stroke-linejoin:round;stroke-miterlimit:10;stroke-dasharray:none" /><line
     class="st0"
     x1="24.242899"
     y1="28.835207"
     x2="27.77916"
     y2="28.438019"
     id="line5674"
     style="fill:#ffffff;stroke:#000000;stroke-width:1;stroke-linecap:round;stroke-linejoin:round;stroke-miterlimit:10;stroke-dasharray:none" /></svg>