<?xml version="1.0" encoding="UTF-8" standalone="no"?>
<!-- Generator: Adobe Illustrator 20.1.0, SVG Export Plug-In . SVG Version: 6.00 Build 0)  -->

<svg
   xmlns:dc="http://purl.org/dc/elements/1.1/"
   xmlns:cc="http://creativecommons.org/ns#"
   xmlns:rdf="http://www.w3.org/1999/02/22-rdf-syntax-ns#"
   xmlns:svg="http://www.w3.org/2000/svg"
   xmlns="http://www.w3.org/2000/svg"
   xmlns:sodipodi="http://sodipodi.sourceforge.net/DTD/sodipodi-0.dtd"
   xmlns:inkscape="http://www.inkscape.org/namespaces/inkscape"
   version="1.1"
   id="Layer_1"
   x="0px"
   y="0px"
   viewBox="0 0 32 32"
   xml:space="preserve"
   inkscape:version="0.48.4 r9939"
   width="100%"
   height="100%"
   sodipodi:docname="the_tank_top.svg"><metadata
     id="metadata6836"><rdf:RDF><cc:Work
         rdf:about=""><dc:format>image/svg+xml</dc:format><dc:type
           rdf:resource="http://purl.org/dc/dcmitype/StillImage" /></cc:Work></rdf:RDF></metadata><defs
     id="defs6834" /><sodipodi:namedview
     pagecolor="#ffffff"
     bordercolor="#666666"
     borderopacity="1"
     objecttolerance="10"
     gridtolerance="10"
     guidetolerance="10"
     inkscape:pageopacity="0"
     inkscape:pageshadow="2"
     inkscape:window-width="753"
     inkscape:window-height="480"
     id="namedview6832"
     showgrid="false"
     inkscape:zoom="19.070707"
     inkscape:cx="23.515805"
     inkscape:cy="29.602389"
     inkscape:window-x="24"
     inkscape:window-y="28"
     inkscape:window-maximized="0"
     inkscape:current-layer="Layer_1" /><style
     type="text/css"
     id="style6822">
	.st0{fill:#FFFFFF;stroke:#231F20;stroke-width:6;stroke-linecap:round;stroke-linejoin:round;stroke-miterlimit:10;}
</style><path
     style="fill:#ffffff;stroke:#231f20;stroke-width:0.99999994;stroke-linecap:round;stroke-linejoin:round;stroke-miterlimit:10;stroke-dasharray:none"
     d="m 19.451427,2.1389837 c -0.711595,-0.075702 -6.328657,-0.075702 -7.040252,0"
     id="path6828"
     inkscape:connector-curvature="0"
     sodipodi:nodetypes="cc" /><path
     style="fill:#ffffff;stroke:#231f20;stroke-width:1;stroke-linecap:round;stroke-linejoin:round;stroke-miterlimit:10;stroke-dasharray:none"
     d="M 23.160809,13.539647 C 22.38865,12.404122 21.919299,11.071775 21.828456,9.6940058 21.692197,7.8317438 21.767898,5.4092932 21.994999,3.0776799 L 21.207704,2.1238409 C 20.632373,1.8058965 19.845078,1.97244 19.421148,2.4720702 18.679267,3.3653452 17.4529,3.8044174 16.211395,3.8346964 l -0.484487,0 C 14.50054,3.8195891 13.25903,3.3653452 12.517156,2.4720702 12.093226,1.9572975 11.30593,1.7907541 10.730599,2.1238409 L 9.9432981,3.0776799 C 10.185548,5.4244298 10.246106,7.8468858 10.109841,9.7242848 10.003862,11.117196 9.5042318,12.434407 8.6563723,13.539647 l 0,0 c 0.090843,0.696458 0.121122,1.377769 0.1665434,2.074227 0.045439,0.60561 -0.0757,0.999261 -0.2271073,1.574591 -0.3330868,1.271789 -0.5601882,2.573858 -0.7267316,3.875926 -0.3330868,2.634415 -0.4087931,5.314258 -0.3785083,7.978952 0.015107,0.484494 -0.075706,0.696453 0.3482234,1.135525 2.2559131,0.09084 5.2688371,0.136265 7.5096071,0.151401 l 8.614842,0 c 0.42393,-0.439066 0.348229,-0.726731 0.348229,-1.286926 0.03027,-2.664694 -0.04544,-5.329394 -0.378508,-7.978952 -0.166543,-1.302068 -0.393645,-2.604137 -0.726737,-3.875926 -0.151401,-0.57533 -0.257381,-0.968981 -0.227102,-1.574591 0.06056,-0.711595 0.0757,-1.392911 0.181686,-2.074227 z"
     id="path6830"
     inkscape:connector-curvature="0"
     sodipodi:nodetypes="cccccccccccccccccccccccccc" /></svg>