<?xml version="1.0" encoding="UTF-8" standalone="no"?>
<!-- Generator: Adobe Illustrator 20.1.0, SVG Export Plug-In . SVG Version: 6.00 Build 0)  -->

<svg
   xmlns:dc="http://purl.org/dc/elements/1.1/"
   xmlns:cc="http://creativecommons.org/ns#"
   xmlns:rdf="http://www.w3.org/1999/02/22-rdf-syntax-ns#"
   xmlns:svg="http://www.w3.org/2000/svg"
   xmlns="http://www.w3.org/2000/svg"
   xmlns:sodipodi="http://sodipodi.sourceforge.net/DTD/sodipodi-0.dtd"
   xmlns:inkscape="http://www.inkscape.org/namespaces/inkscape"
   version="1.1"
   id="Layer_1"
   x="0px"
   y="0px"
   viewBox="0 0 32 32"
   xml:space="preserve"
   inkscape:version="0.48.4 r9939"
   width="100%"
   height="100%"
   sodipodi:docname="the_short_sleeve_sweatshirt.svg"><metadata
     id="metadata7647"><rdf:RDF><cc:Work
         rdf:about=""><dc:format>image/svg+xml</dc:format><dc:type
           rdf:resource="http://purl.org/dc/dcmitype/StillImage" /></cc:Work></rdf:RDF></metadata><defs
     id="defs7645" /><sodipodi:namedview
     pagecolor="#ffffff"
     bordercolor="#666666"
     borderopacity="1"
     objecttolerance="10"
     gridtolerance="10"
     guidetolerance="10"
     inkscape:pageopacity="0"
     inkscape:pageshadow="2"
     inkscape:window-width="753"
     inkscape:window-height="480"
     id="namedview7643"
     showgrid="false"
     inkscape:zoom="2.3838384"
     inkscape:cx="20.745763"
     inkscape:cy="10.067797"
     inkscape:window-x="0"
     inkscape:window-y="28"
     inkscape:window-maximized="0"
     inkscape:current-layer="Layer_1" /><style
     type="text/css"
     id="style7617">
	.st0{fill:#FFFFFF;stroke:#231F20;stroke-width:6;stroke-linecap:round;stroke-linejoin:round;stroke-miterlimit:10;}
	.st1{fill:none;stroke:#231F20;stroke-width:6;stroke-linecap:round;stroke-linejoin:round;stroke-miterlimit:10;}
</style><g
     id="g7619"
     transform="matrix(0.15740434,0,0,0.15740434,-32.269831,-45.938023)"
     style="stroke-width:6.35306498;stroke-miterlimit:10;stroke-dasharray:none"><g
       id="g7621"
       style="stroke-width:6.35306498;stroke-miterlimit:10;stroke-dasharray:none"><path
         class="st0"
         d="m 355.1,385.8 c -2.2,-19 -0.5,1 -2.2,-18.1 0,0 -25.4,-66.3 -25.4,-66.3 0.5,2.8 15,1 16.6,1.7 3.5,1.4 7.1,2.7 10.6,4.2 4.5,1.8 9.2,3.7 13.3,6.4 2.4,1.5 5.7,4.6 7.3,7 4.6,6.9 6.1,14.2 8.5,21.9 3.3,10.3 7.5,19.8 7.7,30.1 l -36.4,13.1"
         id="path7623"
         inkscape:connector-curvature="0"
         style="fill:#ffffff;stroke:#231f20;stroke-width:6.35306498;stroke-linecap:round;stroke-linejoin:round;stroke-miterlimit:10;stroke-dasharray:none" /></g><g
       id="g7625"
       style="stroke-width:6.35306498;stroke-miterlimit:10;stroke-dasharray:none"><path
         class="st0"
         d="m 257,385.8 c 2.2,-19 0.5,1 2.2,-18.1 0,0 25.4,-66.3 25.4,-66.3 -0.5,2.8 -15,1 -16.6,1.7 -3.5,1.4 -7.1,2.7 -10.6,4.2 -4.5,1.8 -9.2,3.7 -13.3,6.4 -2.4,1.5 -5.7,4.6 -7.3,7 -4.6,6.9 -6.1,14.2 -8.5,21.9 -3,9.4 -7.5,19.9 -7.7,30.1 l 36.4,13.1"
         id="path7627"
         inkscape:connector-curvature="0"
         style="fill:#ffffff;stroke:#231f20;stroke-width:6.35306498;stroke-linecap:round;stroke-linejoin:round;stroke-miterlimit:10;stroke-dasharray:none" /></g><path
       class="st0"
       d="m 325.9,301.8 c 5.6,-1.2 11.5,0.4 15.8,4.3 5.9,5.4 11.7,11 17.9,16.2 0.9,0.8 1.8,1.5 2.5,2.5 0.6,0.8 1.1,1.8 1.5,2.8 1,2.4 1.6,5 1.8,7.7 0.1,1 0.9,5.5 0.5,6.2 -0.9,1.8 -1.2,3.6 -1.9,5.5 -0.9,2.3 -2.7,4.2 -3.9,6.4 -1.4,2.6 -2.2,5.5 -2.9,8.3 -0.5,1.9 -1,3.9 -1.5,5.8 -1.1,4.5 -1,8.7 -1.7,13.1 -0.6,4.6 -1.8,9.1 -2.1,13.7 -0.3,4 1.5,6.6 2.5,10.4 2.2,8.4 3.7,17 4.8,25.6 1.8,13.8 2.4,27.7 2.5,41.7 -7.1,7.1 -11,11.1 -18.1,18.2 h -72 c -7.1,-7.1 -11,-11.1 -18.1,-18.2 0.1,-13.9 0.8,-27.8 2.5,-41.7 1.1,-8.6 2.6,-17.2 4.8,-25.6 1,-3.8 2.7,-6.4 2.5,-10.4 -0.3,-4.6 -1.5,-9.1 -2.1,-13.7 -0.6,-4.4 -0.5,-8.6 -1.7,-13.1 -0.5,-1.9 -1,-3.9 -1.5,-5.8 -0.7,-2.8 -1.5,-5.7 -2.9,-8.3 -1.2,-2.2 -3,-4.1 -3.9,-6.4 -0.7,-1.9 -1,-3.6 -1.9,-5.5 -0.4,-0.7 0.4,-5.2 0.5,-6.2 0.2,-2.6 0.8,-5.2 1.8,-7.7 0.4,-1 0.9,-1.9 1.5,-2.8 0.7,-0.9 1.6,-1.7 2.5,-2.5 6.3,-5.3 12.3,-11.1 18.4,-16.6 4.3,-3.9 10.1,-5.5 15.8,-4.3 9.9,2 26.7,2.5 36.1,0.4 z"
       id="path7629"
       inkscape:connector-curvature="0"
       style="fill:#ffffff;stroke:#231f20;stroke-width:6.35306498;stroke-linecap:round;stroke-linejoin:round;stroke-miterlimit:10;stroke-dasharray:none" /><path
       class="st0"
       d="m 329.6,306.9 c 2.6,-3.8 8,-4.5 11.4,-1.4 6.2,5.6 12.2,11.4 18.6,16.8 0.9,0.8 1.8,1.5 2.5,2.5 0.6,0.8 1.1,1.8 1.5,2.8 1,2.4 1.6,5 1.8,7.7 0.1,1 0.9,5.5 0.5,6.2 -0.9,1.8 -1.2,3.6 -1.9,5.5 -0.9,2.3 -2.7,4.2 -3.9,6.4 -1.4,2.6 -2.2,5.5 -2.9,8.3 -0.5,1.9 -1,3.9 -1.5,5.8 -1.1,4.5 -1,8.7 -1.7,13.1 -0.6,4.6 -1.8,9.1 -2.1,13.7 -0.3,4 1.5,6.6 2.5,10.4 2.2,8.4 3.7,17 4.8,25.6 2.2,17.4 2.7,35.1 2.5,52.7 -2.8,2.9 -4.5,4.6 -7.3,7.5 -31.2,1.3 -62.4,1.3 -93.6,0 -2.8,-2.9 -4.5,-4.6 -7.3,-7.5 -0.2,-17.6 0.3,-35.2 2.5,-52.7 1.1,-8.6 2.6,-17.2 4.8,-25.6 1,-3.8 2.7,-6.4 2.5,-10.4 -0.3,-4.6 -1.5,-9.1 -2.1,-13.7 -0.6,-4.4 -0.5,-8.6 -1.7,-13.1 -0.5,-1.9 -1,-3.9 -1.5,-5.8 -0.7,-2.8 -1.5,-5.7 -2.9,-8.3 -1.2,-2.2 -3,-4.1 -3.9,-6.4 -0.7,-1.9 -1,-3.6 -1.9,-5.5 -0.4,-0.7 0.4,-5.2 0.5,-6.2 0.2,-2.6 0.8,-5.2 1.8,-7.7 0.4,-1 0.9,-1.9 1.5,-2.8 0.7,-0.9 1.6,-1.7 2.5,-2.5 6.5,-5.5 12.6,-11.5 19,-17.2 3.3,-3 8.6,-2.6 11.1,1 9.6,13.3 35,13.6 43.9,0.8 z"
       id="path7631"
       inkscape:connector-curvature="0"
       style="fill:#ffffff;stroke:#231f20;stroke-width:6.35306498;stroke-linecap:round;stroke-linejoin:round;stroke-miterlimit:10;stroke-dasharray:none" /><path
       class="st1"
       d="M 356.3,326.2"
       id="path7633"
       inkscape:connector-curvature="0"
       style="fill:none;stroke:#231f20;stroke-width:6.35306498;stroke-linecap:round;stroke-linejoin:round;stroke-miterlimit:10;stroke-dasharray:none" /><path
       class="st1"
       d="M 343.6,314.8"
       id="path7635"
       inkscape:connector-curvature="0"
       style="fill:none;stroke:#231f20;stroke-width:6.35306498;stroke-linecap:round;stroke-linejoin:round;stroke-miterlimit:10;stroke-dasharray:none" /><path
       class="st1"
       d="m 253.7,478 c 36.6,-2.1 72.7,-1.7 108.2,1.3"
       id="path7637"
       inkscape:connector-curvature="0"
       style="fill:none;stroke:#231f20;stroke-width:6.35306498;stroke-linecap:round;stroke-linejoin:round;stroke-miterlimit:10;stroke-dasharray:none" /></g><line
     class="st0"
     x1="2.5952282"
     y1="11.089569"
     x2="8.3247452"
     y2="13.246017"
     id="line7639"
     style="fill:#ffffff;stroke:#231f20;stroke-width:1;stroke-linecap:round;stroke-linejoin:round;stroke-miterlimit:10;stroke-dasharray:none" /><line
     class="st0"
     x1="29.212307"
     y1="11.089569"
     x2="23.640196"
     y2="13.167313"
     id="line7641"
     style="fill:#ffffff;stroke:#231f20;stroke-width:1;stroke-linecap:round;stroke-linejoin:round;stroke-miterlimit:10;stroke-dasharray:none" /></svg>