<?xml version="1.0" encoding="UTF-8" standalone="no"?>
<!-- Generator: Adobe Illustrator 20.1.0, SVG Export Plug-In . SVG Version: 6.00 Build 0)  -->

<svg
   xmlns:dc="http://purl.org/dc/elements/1.1/"
   xmlns:cc="http://creativecommons.org/ns#"
   xmlns:rdf="http://www.w3.org/1999/02/22-rdf-syntax-ns#"
   xmlns:svg="http://www.w3.org/2000/svg"
   xmlns="http://www.w3.org/2000/svg"
   xmlns:sodipodi="http://sodipodi.sourceforge.net/DTD/sodipodi-0.dtd"
   xmlns:inkscape="http://www.inkscape.org/namespaces/inkscape"
   version="1.1"
   id="Layer_1"
   x="0px"
   y="0px"
   viewBox="0 0 32 32"
   xml:space="preserve"
   inkscape:version="0.48.4 r9939"
   width="100%"
   height="100%"
   sodipodi:docname="the_pom_pillow.svg"><metadata
     id="metadata9055"><rdf:RDF><cc:Work
         rdf:about=""><dc:format>image/svg+xml</dc:format><dc:type
           rdf:resource="http://purl.org/dc/dcmitype/StillImage" /></cc:Work></rdf:RDF></metadata><defs
     id="defs9053" /><sodipodi:namedview
     pagecolor="#ffffff"
     bordercolor="#666666"
     borderopacity="1"
     objecttolerance="10"
     gridtolerance="10"
     guidetolerance="10"
     inkscape:pageopacity="0"
     inkscape:pageshadow="2"
     inkscape:window-width="753"
     inkscape:window-height="480"
     id="namedview9051"
     showgrid="false"
     inkscape:zoom="3.3712566"
     inkscape:cx="2.0787"
     inkscape:cy="-6.7118644"
     inkscape:window-x="0"
     inkscape:window-y="28"
     inkscape:window-maximized="0"
     inkscape:current-layer="Layer_1" /><style
     type="text/css"
     id="style9029">
	.st0{fill:#FFFFFF;stroke:#231F20;stroke-width:6;stroke-miterlimit:10;}
</style><g
     id="g9031"
     transform="matrix(0.1139442,0,0,0.1139442,-18.655463,-28.573426)"
     style="stroke-width:8.77622556;stroke-miterlimit:4;stroke-dasharray:none"><path
       class="st0"
       d="m 382.7,450.9 c -0.1,0 -0.1,0.1 -0.2,0.1 -2,0.9 -4.6,0.1 -6.7,-0.7 -5.8,-2.2 -11.9,-4.5 -18.3,-5.1 -3.5,-0.3 -7,-0.1 -10.5,-0.6 -8.2,-1.1 -16.1,-4.7 -24.2,-6.5 -9.4,-2.1 -19.5,-3.2 -29.2,-4.4 -8.1,-1 -16.1,-1.8 -24.2,-2.5 -3.4,-0.3 -6.7,-0.3 -10,-0.4 -3.1,-0.1 -6,-1.4 -9,-2.1 -13.7,-3.4 -28.7,-3.6 -42.6,-0.6 -2.8,0.6 -7.5,3.3 -10.6,1.9 -3.1,-1.4 0.3,-6.2 2.1,-7.5 1.2,-0.9 2.5,-1.7 3.6,-2.7 5.9,-5.4 9.6,-13.4 13.2,-20 1.9,-3.4 3.7,-5.8 6.3,-8.9 2.8,-3.2 4.9,-6.8 6.3,-10.6 0.9,-2.7 1.4,-5.5 1.3,-8.2 -0.1,-2.7 -1.4,-5.4 -1.4,-8.1 0.1,-5.3 1.1,-10.1 -0.9,-15.4 -0.8,-2.3 -2.2,-4.5 -2.2,-6.8 4.8,-2.1 10.8,-1.9 16.1,-0.8 4.8,1 9.2,3.3 14,4.2 11.5,2.1 22.9,4.8 34.6,6.2 5.5,0.7 11.1,0.7 16.5,1.5 6.1,0.9 12.4,1.5 18.6,2.2 3,0.3 6.1,-0.1 9.1,0.3 3.2,0.3 5.9,1.4 9.2,1.5 4.2,0.2 8.3,0.9 12.5,1.2 2.9,0.3 5.8,-0.1 8.8,0 8.3,0.4 16.5,0.7 24.8,0.8 4.5,0.1 9.1,0.1 13.6,0.1 1.7,0 9.5,-0.4 10,0.8 0.2,0.4 0.1,0.9 -0.1,1.3 -2.1,5 -7.3,9.4 -10.6,13.9 -1.9,2.5 -3.4,5 -5,7.6 -1.3,2.1 -3.5,3.8 -5.1,5.8 -1.8,2.2 -3,4.6 -4.2,7.1 -2.9,6.2 -5.6,13.1 -6.3,19.7 -0.6,6.1 0.4,12.4 0.5,18.5 0.1,3.3 0.2,6.6 1.1,9.8 0.4,1.3 0.9,2.6 0.8,3.9 0.2,1.5 -0.4,2.8 -1.7,3.5 z"
       id="path9033"
       inkscape:connector-curvature="0"
       style="fill:#ffffff;stroke:#231f20;stroke-width:8.77622556;stroke-miterlimit:4;stroke-dasharray:none" /><path
       class="st0"
       d="m 233.9,341 c 0.3,0.4 0.4,0.8 0.4,1.3 0,1.5 -1.5,2.7 -3.4,2.7 -0.2,0 -0.4,0 -0.6,0 -0.6,0.7 -1.6,1.1 -2.8,1.1 -1.2,0 -2.2,-0.5 -2.8,-1.3 -0.3,0.1 -0.5,0.1 -0.8,0.1 -1.8,0 -3.3,-1.2 -3.4,-2.7 -1.7,-0.2 -2.9,-1.3 -2.9,-2.7 0,-0.7 0.3,-1.3 0.9,-1.8 -0.3,-0.4 -0.5,-0.9 -0.5,-1.4 0,-1.4 1.4,-2.6 3.1,-2.7 0,-0.1 0.1,-0.2 0.1,-0.3 0.6,-1.4 2.4,-2.2 4.2,-1.8 0.3,0.1 0.6,0.2 0.9,0.3 0.5,-0.3 1.2,-0.5 1.9,-0.5 1.7,0 3,1 3.3,2.2 1.6,0.1 2.9,1.2 3,2.6 0.9,0.5 1.5,1.3 1.5,2.3 0,1.2 -0.8,2.2 -2.1,2.6 z"
       id="path9035"
       inkscape:connector-curvature="0"
       style="fill:#ffffff;stroke:#231f20;stroke-width:8.77622556;stroke-miterlimit:4;stroke-dasharray:none" /><path
       class="st0"
       d="m 231.4,373.7 c 0.3,0.4 0.4,0.8 0.4,1.3 0,1.5 -1.5,2.7 -3.4,2.7 -0.2,0 -0.4,0 -0.6,0 -0.6,0.7 -1.6,1.1 -2.8,1.1 -1.2,0 -2.2,-0.5 -2.8,-1.3 -0.3,0.1 -0.5,0.1 -0.8,0.1 -1.8,0 -3.3,-1.2 -3.4,-2.7 -1.7,-0.2 -2.9,-1.3 -2.9,-2.7 0,-0.7 0.3,-1.3 0.9,-1.8 -0.3,-0.4 -0.5,-0.9 -0.5,-1.4 0,-1.4 1.4,-2.6 3.1,-2.7 0,-0.1 0.1,-0.2 0.1,-0.3 0.6,-1.4 2.4,-2.2 4.2,-1.8 0.3,0.1 0.6,0.2 0.9,0.3 0.5,-0.3 1.2,-0.5 1.9,-0.5 1.7,0 3,1 3.3,2.2 1.6,0.1 2.9,1.2 3,2.6 0.9,0.5 1.5,1.3 1.5,2.3 0,1.2 -0.9,2.2 -2.1,2.6 z"
       id="path9037"
       inkscape:connector-curvature="0"
       style="fill:#ffffff;stroke:#231f20;stroke-width:8.77622556;stroke-miterlimit:4;stroke-dasharray:none" /><path
       class="st0"
       d="m 203,419.4 c 0.3,0.4 0.4,10.8 0.4,11.3 0,1.5 -1.5,2.7 -3.4,2.7 -0.2,0 -0.4,0 -0.6,0 -0.6,0.7 -1.6,1.1 -2.8,1.1 -1.2,0 -2.2,-0.5 -2.8,-1.3 -0.3,0.1 -0.5,0.1 -0.8,0.1 -1.8,0 -3.3,-1.2 -3.4,-2.7 -1.7,-0.2 -2.9,-1.3 -2.9,-2.7 0,-0.7 0.3,-1.3 0.9,-1.8 -0.3,-0.4 -0.5,-0.9 -0.5,-1.4 0,-1.4 1.4,-2.6 3.1,-2.7 0,-0.1 0.1,-0.2 0.1,-0.3 0.6,-1.4 2.4,-2.2 4.2,-1.8 0.3,0.1 0.6,0.2 0.9,0.3 0.5,-0.3 1.2,-0.5 1.9,-0.5 1.7,0 3,1 3.3,2.2 1.6,0.1 2.9,1.2 3,2.6 0.9,0.5 1.5,1.3 1.5,2.3 0,1.2 -0.8,-7.8 -2.1,-7.4 z"
       id="path9039"
       inkscape:connector-curvature="0"
       style="fill:#ffffff;stroke:#231f20;stroke-width:8.77622556;stroke-miterlimit:4;stroke-dasharray:none" /><path
       class="st0"
       d="m 391.3,455.9 c 0.3,0.4 0.4,0.8 0.4,1.3 0,1.5 -1.5,2.7 -3.4,2.7 -0.2,0 -0.4,0 -0.6,0 -0.6,0.7 -1.6,1.1 -2.8,1.1 -1.2,0 -2.2,-0.5 -2.8,-1.3 -0.3,0.1 -0.5,0.1 -0.8,0.1 -1.8,0 -3.3,-1.2 -3.4,-2.7 -1.7,-0.2 -2.9,-1.3 -2.9,-2.7 0,-0.7 0.3,-1.3 0.9,-1.8 -0.3,-0.4 -0.5,-0.9 -0.5,-1.4 0,-1.4 1.4,-2.6 3.1,-2.7 0,-0.1 0.1,-0.2 0.1,-0.3 0.6,-1.4 2.4,-2.2 4.2,-1.8 0.3,0.1 0.6,0.2 0.9,0.3 0.5,-0.3 1.2,-0.5 1.9,-0.5 1.7,0 3,1 3.3,2.2 1.6,0.1 2.9,1.2 3,2.6 0.9,0.5 1.5,1.3 1.5,2.3 0,1.2 -0.9,2.2 -2.1,2.6 z"
       id="path9041"
       inkscape:connector-curvature="0"
       style="fill:#ffffff;stroke:#231f20;stroke-width:8.77622556;stroke-miterlimit:4;stroke-dasharray:none" /><path
       class="st0"
       d="m 396.3,426.3 c 0.3,0.4 0.4,0.8 0.4,1.3 0,1.5 -1.5,2.7 -3.4,2.7 -0.2,0 -0.4,0 -0.6,0 -0.6,0.7 -1.6,1.1 -2.8,1.1 -1.2,0 -2.2,-0.5 -2.8,-1.3 -0.3,0.1 -0.5,0.1 -0.8,0.1 -1.8,0 -3.3,-1.2 -3.4,-2.7 -1.7,-0.2 -2.9,-1.3 -2.9,-2.7 0,-0.7 0.3,-1.3 0.9,-1.8 -0.3,-0.4 -0.5,-0.9 -0.5,-1.4 0,-1.4 1.4,-2.6 3.1,-2.7 0,-0.1 0.1,-0.2 0.1,-0.3 0.6,-1.4 2.4,-2.2 4.2,-1.8 0.3,0.1 0.6,0.2 0.9,0.3 0.5,-0.3 1.2,-0.5 1.9,-0.5 1.7,0 3,1 3.3,2.2 1.6,0.1 2.9,1.2 3,2.6 0.9,0.5 1.5,1.3 1.5,2.3 0.1,1.3 -0.8,2.2 -2.1,2.6 z"
       id="path9043"
       inkscape:connector-curvature="0"
       style="fill:#ffffff;stroke:#231f20;stroke-width:8.77622556;stroke-miterlimit:4;stroke-dasharray:none" /><path
       class="st0"
       d="m 405.5,394.4 c 0.3,0.4 0.4,0.8 0.4,1.3 0,1.5 -1.5,2.7 -3.4,2.7 -0.2,0 -0.4,0 -0.6,0 -0.6,0.7 -1.6,1.1 -2.8,1.1 -1.2,0 -2.2,-0.5 -2.8,-1.3 -0.3,0.1 -0.5,0.1 -0.8,0.1 -1.8,0 -3.3,-1.2 -3.4,-2.7 -1.7,-0.2 -2.9,-1.3 -2.9,-2.7 0,-0.7 0.3,-1.3 0.9,-1.8 -0.3,-0.4 -0.5,-0.9 -0.5,-1.4 0,-1.4 1.4,-2.6 3.1,-2.7 0,-0.1 0.1,-0.2 0.1,-0.3 0.6,-1.4 2.4,-2.2 4.2,-1.8 0.3,0.1 0.6,0.2 0.9,0.3 0.5,-0.3 1.2,-0.5 1.9,-0.5 1.7,0 3,1 3.3,2.2 1.6,0.1 2.9,1.2 3,2.6 0.9,0.5 1.5,1.3 1.5,2.3 0,1.2 -0.8,2.2 -2.1,2.6 z"
       id="path9045"
       inkscape:connector-curvature="0"
       style="fill:#ffffff;stroke:#231f20;stroke-width:8.77622556;stroke-miterlimit:4;stroke-dasharray:none" /><path
       class="st0"
       d="m 217.4,401.9 c 0.3,0.4 0.4,0.8 0.4,1.3 0,1.5 -1.5,2.7 -3.4,2.7 -0.2,0 -0.4,0 -0.6,0 -0.6,0.7 -1.6,1.1 -2.8,1.1 -1.2,0 -2.2,-0.5 -2.8,-1.3 -0.3,0.1 -0.5,0.1 -0.8,0.1 -1.8,0 -3.3,-1.2 -3.4,-2.7 -1.7,-0.2 -2.9,-1.3 -2.9,-2.7 0,-0.7 0.3,-1.3 0.9,-1.8 -0.3,-0.4 -0.5,-0.9 -0.5,-1.4 0,-1.4 1.4,-2.6 3.1,-2.7 0,-0.1 0.1,-0.2 0.1,-0.3 0.6,-1.4 2.4,-2.2 4.2,-1.8 0.3,0.1 0.6,0.2 0.9,0.3 0.5,-0.3 1.2,-0.5 1.9,-0.5 1.7,0 3,1 3.3,2.2 1.6,0.1 2.9,1.2 3,2.6 0.9,0.5 1.5,1.3 1.5,2.3 0,1.3 -0.9,2.2 -2.1,2.6 z"
       id="path9047"
       inkscape:connector-curvature="0"
       style="fill:#ffffff;stroke:#231f20;stroke-width:8.77622556;stroke-miterlimit:4;stroke-dasharray:none" /><path
       class="st0"
       d="m 423.2,362.7 c 0.3,0.4 0.4,0.8 0.4,1.3 0,1.5 -1.5,2.7 -3.4,2.7 -0.2,0 -0.4,0 -0.6,0 -0.6,0.7 -1.6,1.1 -2.8,1.1 -1.2,0 -2.2,-0.5 -2.8,-1.3 -0.3,0.1 -0.5,0.1 -0.8,0.1 -1.8,0 -3.3,-1.2 -3.4,-2.7 -1.7,-0.2 -2.9,-1.3 -2.9,-2.7 0,-0.7 0.3,-1.3 0.9,-1.8 -0.3,-0.4 -0.5,-0.9 -0.5,-1.4 0,-1.4 1.4,-2.6 3.1,-2.7 0,-0.1 0.1,-0.2 0.1,-0.3 0.6,-1.4 2.4,-2.2 4.2,-1.8 0.3,0.1 0.6,0.2 0.9,0.3 0.5,-0.3 1.2,-0.5 1.9,-0.5 1.7,0 3,1 3.3,2.2 1.6,0.1 2.9,1.2 3,2.6 0.9,0.5 1.5,1.3 1.5,2.3 0.1,1.2 -0.8,2.2 -2.1,2.6 z"
       id="path9049"
       inkscape:connector-curvature="0"
       style="fill:#ffffff;stroke:#231f20;stroke-width:8.77622556;stroke-miterlimit:4;stroke-dasharray:none" /></g></svg>