<?xml version="1.0" encoding="UTF-8" standalone="no"?>
<!-- Generator: Adobe Illustrator 20.1.0, SVG Export Plug-In . SVG Version: 6.00 Build 0)  -->

<svg
   xmlns:dc="http://purl.org/dc/elements/1.1/"
   xmlns:cc="http://creativecommons.org/ns#"
   xmlns:rdf="http://www.w3.org/1999/02/22-rdf-syntax-ns#"
   xmlns:svg="http://www.w3.org/2000/svg"
   xmlns="http://www.w3.org/2000/svg"
   xmlns:sodipodi="http://sodipodi.sourceforge.net/DTD/sodipodi-0.dtd"
   xmlns:inkscape="http://www.inkscape.org/namespaces/inkscape"
   version="1.1"
   id="Layer_1"
   x="0px"
   y="0px"
   viewBox="0 0 32 32"
   xml:space="preserve"
   inkscape:version="0.48.4 r9939"
   width="100%"
   height="100%"
   sodipodi:docname="the_confetti_beanie.svg"><metadata
     id="metadata14219"><rdf:RDF><cc:Work
         rdf:about=""><dc:format>image/svg+xml</dc:format><dc:type
           rdf:resource="http://purl.org/dc/dcmitype/StillImage" /></cc:Work></rdf:RDF></metadata><defs
     id="defs14217" /><sodipodi:namedview
     pagecolor="#ffffff"
     bordercolor="#666666"
     borderopacity="1"
     objecttolerance="10"
     gridtolerance="10"
     guidetolerance="10"
     inkscape:pageopacity="0"
     inkscape:pageshadow="2"
     inkscape:window-width="753"
     inkscape:window-height="480"
     id="namedview14215"
     showgrid="false"
     inkscape:zoom="1.1919192"
     inkscape:cx="-29.173729"
     inkscape:cy="-6.7118643"
     inkscape:window-x="0"
     inkscape:window-y="28"
     inkscape:window-maximized="0"
     inkscape:current-layer="Layer_1" /><style
     type="text/css"
     id="style14205">
	.st0{fill:#FFFFFF;stroke:#231F20;stroke-width:6;stroke-miterlimit:10;}
	.st1{fill:#FFFFFF;stroke:#231F20;stroke-width:6;stroke-linecap:round;stroke-linejoin:round;stroke-miterlimit:10;}
</style><path
     class="st0"
     d="m 24.404395,26.858658 c 0.239351,-1.77954 0.364233,-3.465418 0.312198,-5.026419 -0.01039,-0.322606 -0.280979,-0.582773 -0.603585,-0.582773 H 16.443299 8.6070855 c -0.2497633,0 -0.447488,0.197728 -0.4578957,0.43708 -0.072847,1.696286 0.052035,3.455011 0.3122023,5.255363 0.041624,0.301795 0.3017908,0.530742 0.6139931,0.530742 H 23.727962 c 0.333014,0 0.634805,-0.260167 0.676433,-0.613993 z"
     id="path14207"
     inkscape:connector-curvature="0"
     style="fill:#ffffff;stroke:#231f20;stroke-width:1;stroke-miterlimit:10;stroke-dasharray:none" /><path
     class="st0"
     d="m 24.404395,26.858658 c -0.05203,0.343418 -0.343419,0.603586 -0.697248,0.603586 H 9.0649775 c -0.3017946,0 -0.5619619,-0.228948 -0.6139931,-0.530739 -0.2601674,-1.800352 -0.3850453,-3.559081 -0.3121986,-5.255363 0.010393,-0.249764 0.2081324,-0.43708 0.457892,-0.43708 h 0.4891115 c -2.8722374,-16.4217139 17.1605847,-16.6610659 14.7358317,0 h 0.291387 c 0.322606,0 0.593181,0.260163 0.603585,0.582769 0.05204,1.571409 -0.06244,3.267695 -0.312198,5.036827 z"
     id="path14209"
     inkscape:connector-curvature="0"
     style="fill:#ffffff;stroke:#231f20;stroke-width:1;stroke-miterlimit:10;stroke-dasharray:none" /><path
     class="st0"
     d="M 23.821621,21.249466 H 9.0857893 c -2.8722374,-16.4217109 17.1605847,-16.6610619 14.7358317,0 z"
     id="path14211"
     inkscape:connector-curvature="0"
     style="fill:#ffffff;stroke:#231f20;stroke-width:1;stroke-miterlimit:10;stroke-dasharray:none" /><path
     class="st1"
     d="m 20.11685,8.4388677 c -0.05203,0.031216 -0.124878,0.031216 -0.176913,0.072847 -0.05204,0.041627 -0.05204,0.2185401 -0.197728,0.1769129 0.10407,0.031216 0.197728,0.093658 0.228948,0.1873206 0.03122,0.093659 -0.06244,0.2185401 -0.166505,0.1977247 0.08325,0.031216 0.114474,0.1352893 0.07285,0.2185401 -0.04163,0.083254 -0.114474,0.1352857 -0.197728,0.1769129 0.06244,0.062443 0.06244,0.1665089 0,0.2393556 -0.05203,0.062439 -0.166505,0.093658 -0.239352,0.052031 0.08326,0.072847 0.104066,0.2081324 0.04163,0.2913865 -0.08325,0.104066 -0.166509,0.03122 -0.260167,0.07285 -0.07285,0.03122 -0.114474,0.104066 -0.176913,0.156101 -0.04163,0.03122 -0.09366,0.06244 -0.156101,0.06244 -0.05203,0 -0.114474,-0.03122 -0.135286,-0.08325 -0.07285,0.06244 -0.145693,0.114474 -0.239352,0.145694 -0.09366,0.03122 -0.197728,0.01039 -0.260167,-0.06244 -0.01039,0.08325 -0.08325,0.156101 -0.166509,0.18732 -0.08325,0.03122 -0.176913,0 -0.260163,0.03122 -0.124882,0.04163 -0.124882,0.114474 -0.208137,0.176913 -0.02082,0.02082 -0.02082,0.06244 -0.04162,0.08325 -0.04163,0.03122 -0.10407,-0.01039 -0.135289,0.01039 -0.08325,0.05204 -0.135286,0.145694 -0.239352,0.156101 -0.09366,0.01039 -0.187321,-0.03122 -0.228948,-0.104066 -0.05203,0.09366 -0.156098,0.156101 -0.270572,0.156101 -0.114473,0 -0.21854,-0.07285 -0.260167,-0.166508 -0.04163,0.07285 -0.156101,0.114473 -0.239352,0.08325 -0.08325,-0.03122 -0.145693,-0.124882 -0.124881,-0.208133 -0.05203,0.06244 -0.156102,0.07285 -0.228945,0.03122 -0.07285,-0.04163 -0.104069,-0.135286 -0.07285,-0.208132 -0.07285,0.05203 -0.156101,0.114474 -0.249764,0.124878 -0.08325,0 -0.280979,-0.135286 -0.374637,-0.187321 -0.09366,-0.04162 -0.312199,-0.145693 -0.21854,-0.270571 -0.07285,0.104066 -0.176913,0.208132 -0.312199,0.197724 -0.145693,-0.01039 -0.249759,-0.187317 -0.176913,-0.30179 -0.10407,0.09366 -0.270575,0.124877 -0.395456,0.06244 -0.124878,-0.06244 -0.208133,-0.1977251 -0.187317,-0.3330145 -0.124882,0 -0.280983,-0.031216 -0.301795,-0.1456934 -0.02082,-0.1040662 0.02082,-0.2393519 -0.07285,-0.3330103 -0.08325,-0.072847 -0.21854,-0.031216 -0.312198,-0.1040662 -0.13529,-0.1040699 0,-0.1769166 -0.02082,-0.2705751 -0.01039,-0.041627 -0.166506,-0.2081324 -0.07285,-0.2497596 -0.124878,0.052035 -0.291387,-0.041627 -0.301791,-0.1665052 -0.13529,0.062439 -0.322607,-0.062443 -0.291387,-0.2081361 -0.104066,0.010393 -0.197728,-0.083251 -0.21854,-0.1769129 -0.02082,-0.093659 0.01039,-0.1977246 0.05203,-0.2913868 -0.104066,0.020823 -0.197725,-0.072847 -0.208133,-0.1665052 -0.01039,-0.093659 0.04163,-0.1873206 0.104067,-0.2705756 -0.145694,-0.06244 -0.166506,-0.291383 -0.03122,-0.374637 -0.145694,-0.124882 -0.07285,-0.405861 0.124881,-0.447488 -0.135289,-0.08325 -0.145693,-0.239352 -0.114474,-0.374638 0.02082,-0.06244 0.09366,-0.322606 0.166506,-0.322606 -0.104067,-0.01039 -0.187321,-0.114474 -0.197725,-0.21854 0,-0.104067 0.06244,-0.197729 0.145693,-0.260168 -0.124881,0 -0.176913,-0.166505 -0.114474,-0.270575 0.06244,-0.104066 0.187321,-0.145693 0.301795,-0.187317 -0.114474,-0.06244 -0.124882,-0.228948 -0.04163,-0.333014 0.08325,-0.09366 0.228944,-0.124881 0.364233,-0.114474 -0.18732,-0.260167 0.24976,-0.249759 0.374638,-0.374641 0.07285,-0.08325 0.05204,-0.270571 0.156101,-0.33301 0.145694,-0.08326 0.270572,0.06244 0.416265,-0.145694 0.04163,-0.05204 0.04163,-0.09366 0.07285,-0.166509 0.05204,-0.11447 0.21854,-0.197724 0.322606,-0.11447 0.04163,-0.124881 0.09366,-0.260167 0.208136,-0.343422 0.11447,-0.08325 0.301791,-0.08325 0.374637,0.02082 -0.09366,-0.124878 0.457892,-0.312198 0.541147,-0.291383 0.08325,0.02082 0.145693,0.08325 0.166505,0.156098 0.06244,-0.07285 0.145693,-0.156098 0.249763,-0.145694 0.104067,0.01039 0.166505,0.13529 0.114471,0.21854 0.06244,-0.04163 0.124881,-0.08325 0.208136,-0.09366 0.08325,-0.01039 0.166505,0.03122 0.176913,0.09366 0.03121,-0.09366 0.187316,-0.104066 0.228944,-0.02082 0.02082,-0.104066 0.124881,-0.124881 0.21854,-0.145693 0.04163,-0.01039 0.08325,0.04163 0.124881,0.04163 0.06244,0 0.124878,-0.03122 0.197725,-0.05204 0.197728,-0.05203 0.541147,-0.145693 0.572366,0.156101 0.21854,-0.05204 0.447488,0.135286 0.426676,0.343419 0.08325,-0.02082 0.176913,-0.02082 0.24976,0.04163 0.06244,0.05204 0.07285,0.166505 0.01039,0.21854 0.06244,0.01039 0.124881,0.03122 0.166509,0.07285 0.04163,0.04163 0.04163,0.104066 0.01039,0.156101 0.21854,-0.05204 0.280982,0.166505 0.43708,0.249759 0.156101,0.08325 0.374641,0.08325 0.333014,0.322607 0.07285,-0.01039 0.156101,0 0.208132,0.04163 0.06244,0.04162 0.08326,0.124878 0.04163,0.187317 0.08325,-0.01039 0.176912,-0.02082 0.239355,0.03122 0.07284,0.04162 0.09366,0.156097 0.02082,0.197724 0.145693,-0.104066 0.405861,0.71806 0.322606,0.832533 0.08325,0.01039 0.166505,0.03122 0.21854,0.09366 0.05203,0.05204 0.07285,0.156101 0.01039,0.208136 0.166506,-0.156101 0.312199,0.197725 0.353826,0.280979 0.09366,0.21854 0.135286,0.322606 -0.08325,0.489112 0.05204,0.06244 0.104066,0.135285 0.09366,0.208132 0,0.07285 -0.07285,0.156101 -0.156101,0.156101 0.05203,0.208133 -0.07285,0.270575 -0.187321,0.416269 -0.09366,0.124878 -0.05204,0.01039 -0.04163,0.1560975 0.01039,0.062443 0.06244,0.1040662 0.03122,0.1769129 -0.03122,0.093662 -0.124878,0.1665089 -0.228944,0.2081361 0.06244,0.062439 0.114473,0.1248779 0.114473,0.2081324 0.02082,0.062439 0.01039,0.093658 -0.02082,0.1040662 z"
     id="path14213"
     inkscape:connector-curvature="0"
     style="fill:#ffffff;stroke:#231f20;stroke-width:1;stroke-linecap:round;stroke-linejoin:round;stroke-miterlimit:10;stroke-dasharray:none" /></svg>