<?xml version="1.0" encoding="UTF-8" standalone="no"?>
<!-- Generator: Adobe Illustrator 20.1.0, SVG Export Plug-In . SVG Version: 6.00 Build 0)  -->

<svg
   xmlns:dc="http://purl.org/dc/elements/1.1/"
   xmlns:cc="http://creativecommons.org/ns#"
   xmlns:rdf="http://www.w3.org/1999/02/22-rdf-syntax-ns#"
   xmlns:svg="http://www.w3.org/2000/svg"
   xmlns="http://www.w3.org/2000/svg"
   xmlns:sodipodi="http://sodipodi.sourceforge.net/DTD/sodipodi-0.dtd"
   xmlns:inkscape="http://www.inkscape.org/namespaces/inkscape"
   version="1.1"
   id="Layer_1"
   x="0px"
   y="0px"
   viewBox="0 0 32 32"
   xml:space="preserve"
   inkscape:version="0.48.4 r9939"
   width="100%"
   height="100%"
   sodipodi:docname="the_grandpa_cardigan.svg"><metadata
     id="metadata11673"><rdf:RDF><cc:Work
         rdf:about=""><dc:format>image/svg+xml</dc:format><dc:type
           rdf:resource="http://purl.org/dc/dcmitype/StillImage" /></cc:Work></rdf:RDF></metadata><defs
     id="defs11671" /><sodipodi:namedview
     pagecolor="#ffffff"
     bordercolor="#666666"
     borderopacity="1"
     objecttolerance="10"
     gridtolerance="10"
     guidetolerance="10"
     inkscape:pageopacity="0"
     inkscape:pageshadow="2"
     inkscape:window-width="753"
     inkscape:window-height="480"
     id="namedview11669"
     showgrid="false"
     inkscape:zoom="3.3712566"
     inkscape:cx="2.0787"
     inkscape:cy="-6.7118644"
     inkscape:window-x="0"
     inkscape:window-y="28"
     inkscape:window-maximized="0"
     inkscape:current-layer="Layer_1" /><style
     type="text/css"
     id="style11629">
	.st0{fill:#FFFFFF;stroke:#231F20;stroke-width:6;stroke-linecap:round;stroke-linejoin:round;stroke-miterlimit:10;}
	.st1{fill:none;stroke:#231F20;stroke-width:6;stroke-linecap:round;stroke-linejoin:round;stroke-miterlimit:10;}
</style><g
     id="g11631"
     transform="matrix(0.12885481,0,0,0.12885481,-22.698087,-34.900573)"
     style="stroke-width:7.76067265;stroke-miterlimit:10;stroke-dasharray:none"><g
       id="g11633"
       style="stroke-width:7.76067265;stroke-miterlimit:10;stroke-dasharray:none"><path
         class="st0"
         d="m 334.5,283.3 c 0.5,2.8 5,0 6.6,0.7 3.5,1.4 7.1,2.7 10.6,4.2 4.5,1.8 9.2,3.7 13.3,6.4 2.4,1.5 5.7,4.6 7.3,7 4.6,6.9 5.3,14.9 6.5,22.9 1.5,10 3.5,19.9 3.7,30.1 0.1,4.8 -0.2,9.5 0,14.4 0.2,4.8 0.4,9.6 0.6,14.4 0.7,17.2 1.2,34.5 1.9,51.7 0.4,9.2 0.8,18.4 1.3,27.6 0.3,4.7 0.6,9.5 0.9,14.2 0.2,2.3 0.3,4.5 0.5,6.8 0.1,1.8 0.8,3.6 0.8,5.4 -0.1,2.5 -2.3,4.4 -2.4,6.9 0,1.5 -0.5,3.5 -1,5.5 -0.1,0.6 -1.1,8.4 -1.5,8.4 -6.5,0.6 -12.5,0.2 -18.1,-1.2 -1.7,-0.4 -2.8,-2 -2.6,-3.7 l 0.5,-5.9 c 0.1,-1.7 0.3,-3.4 0.4,-5.1 0.1,-1.4 -0.5,-2.8 -0.7,-4.2 -0.2,-1.4 0,-2.7 0,-4.1 0.2,-3.5 0,-7 -0.2,-10.5 -0.3,-4.7 1.1,-9 0.3,-13.8 -0.1,-0.8 -0.3,-1.6 -0.5,-2.4 -3.5,-17.5 -4.7,-35.6 -6.8,-53.3 -2.2,-19 -4.5,-38 -6.2,-57.1 0.2,0.1 -15.2,-65.2 -15.2,-65.3 z"
         id="path11635"
         inkscape:connector-curvature="0"
         style="fill:#ffffff;stroke:#231f20;stroke-width:7.76067265;stroke-linecap:round;stroke-linejoin:round;stroke-miterlimit:10;stroke-dasharray:none" /></g><path
       class="st0"
       d="m 223.6,489.1 c 0.1,2.5 2.3,4.4 2.4,6.9 0,1.5 0.5,3.5 1,5.5 0.1,0.6 1.1,8.4 1.5,8.4 5.5,0.5 10.7,0.3 15.6,-0.7 3.1,-0.6 5.2,-3.4 5,-6.5 l -0.3,-3.6 c -0.1,-1.7 -0.3,-3.4 -0.4,-5.1 -0.1,-1.4 0.5,-2.8 0.7,-4.2 0.2,-1.4 0,-2.7 0,-4.1 -0.2,-3.5 0,-7 0.2,-10.5 0.3,-4.7 -1.1,-9 -0.3,-13.8 0.1,-0.8 0.3,-1.6 0.5,-2.4 3.5,-17.5 4.7,-35.6 6.8,-53.3 2.2,-19 4.5,-38 6.2,-57.1 0,0 16.4,-66.3 16.4,-66.3 -0.4,1.5 -6,1 -7.6,1.7 -3.5,1.4 -7.1,2.7 -10.6,4.2 -4.5,1.8 -9.2,3.7 -13.3,6.4 -2.4,1.5 -5.7,4.6 -7.3,7 -4.6,6.9 -5.3,14.9 -6.5,22.9 -1.5,10 -3.5,19.9 -3.7,30.1 -0.1,4.8 0.2,9.5 0,14.4 -0.2,4.8 -0.4,9.6 -0.6,14.4 -0.7,17.2 -1.2,34.5 -1.9,51.7 -0.4,9.2 -0.8,18.4 -1.3,27.6 -0.3,4.7 -0.6,9.5 -0.9,14.2 l -1.6,12.2 z"
       id="path11637"
       inkscape:connector-curvature="0"
       style="fill:#ffffff;stroke:#231f20;stroke-width:7.76067265;stroke-linecap:round;stroke-linejoin:round;stroke-miterlimit:10;stroke-dasharray:none" /><path
       class="st0"
       d="m 354.4,470.1 c 2.8,-2.9 4.5,-5.6 7.3,-8.5 0.2,-17.6 -0.3,-35.2 -2.5,-52.7 -1.1,-8.6 -2.6,-17.2 -4.8,-25.6 -1,-3.8 -2.7,-6.4 -2.5,-10.4 0.3,-4.6 1.5,-9.1 2.1,-13.7 0.6,-4.4 0.5,-8.6 1.7,-13.1 0.5,-1.9 1,-3.9 1.5,-5.8 0.6,-11.9 0.3,-27.3 -1.6,-50.2 -6.7,-2.7 -5.9,-1 -15,-6.2 -3.9,-2.2 -6.7,-0.8 -11.1,-1 -20.5,-0.7 -6.2,0.3 -46.5,0 -4.4,0 -7.3,-1.2 -11.1,1 -9.1,5.1 -8.3,3.5 -15,6.2 -1.9,22.9 -2.3,38.3 -1.6,50.2 0.5,1.9 1,3.9 1.5,5.8 1.1,4.5 1,8.7 1.7,13.1 0.6,4.6 1.8,9.1 2.1,13.7 0.3,4 -1.5,6.6 -2.5,10.4 -2.2,8.4 -3.7,17 -4.8,25.6 -2.2,17.4 -2.7,35.1 -2.5,52.7 2.8,2.9 4.5,4.6 7.3,7.5 14.9,0.6 29.8,0.9 44.6,1 l 51.7,0 z"
       id="path11639"
       inkscape:connector-curvature="0"
       style="fill:#ffffff;stroke:#231f20;stroke-width:7.76067265;stroke-linecap:round;stroke-linejoin:round;stroke-miterlimit:10;stroke-dasharray:none" /><path
       class="st1"
       d="m 250.7,459 c 36.6,-2.1 72.7,-1.7 108.2,1.3 l -0.2,1.3"
       id="path11641"
       inkscape:connector-curvature="0"
       style="fill:none;stroke:#231f20;stroke-width:7.76067265;stroke-linecap:round;stroke-linejoin:round;stroke-miterlimit:10;stroke-dasharray:none" /><path
       class="st1"
       d="m 387.5,491.3 c -0.2,1.9 -24,1.2 -24,-0.8"
       id="path11643"
       inkscape:connector-curvature="0"
       style="fill:none;stroke:#231f20;stroke-width:7.76067265;stroke-linecap:round;stroke-linejoin:round;stroke-miterlimit:10;stroke-dasharray:none" /><path
       class="st1"
       d="m 223.6,491.3 c 0.1,0.9 24,0.2 24,-0.8"
       id="path11645"
       inkscape:connector-curvature="0"
       style="fill:none;stroke:#231f20;stroke-width:7.76067265;stroke-linecap:round;stroke-linejoin:round;stroke-miterlimit:10;stroke-dasharray:none" /></g><path
     class="st1"
     d="M 21.048118,1.6941913"
     id="path11647"
     inkscape:connector-curvature="0"
     style="fill:none;stroke:#231f20;stroke-width:1;stroke-linecap:round;stroke-linejoin:round;stroke-miterlimit:10;stroke-dasharray:none" /><path
     class="st0"
     d="m 14.205932,2.7250288 h 4.999565 l 0.541188,-0.9019841 c 0.335023,-0.4638763 0.940641,-0.4123339 1.430292,-0.1288534 1.172575,0.6571615 1.069495,0.4509921 1.932821,0.7988993 0.244823,2.9507746 0.296365,4.9222541 0.206165,6.4685101 -0.02578,0.1417425 -0.05154,0.2705964 -0.0902,0.412339 -0.270597,0.7086983 -0.219054,1.3529763 -0.322139,2.0230163 -0.07732,0.592736 0.02579,1.17258 -0.0129,1.765316 -0.03863,0.515419 0.06443,0.850441 0.19328,1.340087 0.28348,1.08238 0.347912,2.190533 0.48965,3.298681 0.283481,2.242076 0.347907,4.522804 0.322139,6.790649 -0.360797,0.373681 -0.579851,0.721588 -0.940643,1.09527 l -6.687564,0 c -1.919937,0 -3.826984,-0.03863 -5.746921,-0.128859 C 10.159879,25.184424 9.9408248,24.96537 9.5800332,24.591689 9.5542443,22.323844 9.6186658,20.056 9.9021718,17.80104 10.04391,16.692892 10.108336,15.584739 10.391817,14.502359 c 0.128858,-0.489646 0.219054,-0.824668 0.193285,-1.340087 -0.03863,-0.592736 0.06443,-1.17258 -0.01289,-1.765316 -0.0902,-0.682929 -0.05154,-1.314318 -0.322139,-2.0230163 -0.02579,-0.1417426 -0.05154,-0.2705965 -0.0902,-0.412339 -0.07731,-1.5333717 -0.03863,-3.5177355 0.20617,-6.4685101 0.863326,-0.3479072 0.760241,-0.1288534 1.932822,-0.7988993 0.502534,-0.2834805 1.108153,-0.3350229 1.430286,0.1288534 0.605619,0.8504416 1.85551,7.7312912 2.976548,7.744175 h 0.05155 0 c 0.373676,0.077307 0.644272,0.3994495 0.644272,0.7860153 l 0.05154,14.947158"
     id="path11649"
     inkscape:connector-curvature="0"
     style="fill:#ffffff;stroke:#231f20;stroke-width:1;stroke-linecap:round;stroke-linejoin:round;stroke-miterlimit:10;stroke-dasharray:none" /><path
     class="st0"
     d="m 12.440622,1.6941913 c 1.121033,4.0975811 1.610683,7.5251212 3.221366,8.7750127 0.128858,0.0902 0.20617,0.244823 0.20617,0.39945 l 0,0 0.06443,14.702335"
     id="path11651"
     inkscape:connector-curvature="0"
     style="fill:#ffffff;stroke:#231f20;stroke-width:1;stroke-linecap:round;stroke-linejoin:round;stroke-miterlimit:10;stroke-dasharray:none" /><path
     class="st1"
     d="M 21.151203,1.6941913 C 19.991512,5.9592839 19.501863,9.489909 17.723667,10.610947"
     id="path11653"
     inkscape:connector-curvature="0"
     style="fill:none;stroke:#231f20;stroke-width:1;stroke-linecap:round;stroke-linejoin:round;stroke-miterlimit:10;stroke-dasharray:none" /><path
     class="st0"
     d="m 19.811117,1.8230447 c -0.60562,0.8504416 -1.855511,7.7312912 -2.976549,7.744175"
     id="path11655"
     inkscape:connector-curvature="0"
     style="fill:#ffffff;stroke:#231f20;stroke-width:1;stroke-linecap:round;stroke-linejoin:round;stroke-miterlimit:10;stroke-dasharray:none" /><circle
     class="st0"
     cx="304.60001"
     cy="351.70001"
     r="1.5"
     id="circle11657"
     sodipodi:cx="304.60001"
     sodipodi:cy="351.70001"
     sodipodi:rx="1.5"
     sodipodi:ry="1.5"
     style="fill:#ffffff;stroke:#231f20;stroke-width:7.76067265;stroke-linecap:round;stroke-linejoin:round;stroke-miterlimit:10;stroke-dasharray:none"
     transform="matrix(0.12885481,0,0,0.12885481,-22.698087,-34.900573)" /><circle
     class="st0"
     cx="305.60001"
     cy="373.70001"
     r="1.5"
     id="circle11659"
     sodipodi:cx="305.60001"
     sodipodi:cy="373.70001"
     sodipodi:rx="1.5"
     sodipodi:ry="1.5"
     style="fill:#ffffff;stroke:#231f20;stroke-width:7.76067265;stroke-linecap:round;stroke-linejoin:round;stroke-miterlimit:10;stroke-dasharray:none"
     transform="matrix(0.12885481,0,0,0.12885481,-22.698087,-34.900573)" /><circle
     class="st0"
     cx="305.60001"
     cy="393.70001"
     r="1.5"
     id="circle11661"
     sodipodi:cx="305.60001"
     sodipodi:cy="393.70001"
     sodipodi:rx="1.5"
     sodipodi:ry="1.5"
     style="fill:#ffffff;stroke:#231f20;stroke-width:7.76067265;stroke-linecap:round;stroke-linejoin:round;stroke-miterlimit:10;stroke-dasharray:none"
     transform="matrix(0.12885481,0,0,0.12885481,-22.698087,-34.900573)" /><circle
     class="st0"
     cx="305.60001"
     cy="413.70001"
     r="1.5"
     id="circle11663"
     sodipodi:cx="305.60001"
     sodipodi:cy="413.70001"
     sodipodi:rx="1.5"
     sodipodi:ry="1.5"
     style="fill:#ffffff;stroke:#231f20;stroke-width:7.76067265;stroke-linecap:round;stroke-linejoin:round;stroke-miterlimit:10;stroke-dasharray:none"
     transform="matrix(0.12885481,0,0,0.12885481,-22.698087,-34.900573)" /><circle
     class="st0"
     cx="305.60001"
     cy="433.70001"
     r="1.5"
     id="circle11665"
     sodipodi:cx="305.60001"
     sodipodi:cy="433.70001"
     sodipodi:rx="1.5"
     sodipodi:ry="1.5"
     style="fill:#ffffff;stroke:#231f20;stroke-width:7.76067265;stroke-linecap:round;stroke-linejoin:round;stroke-miterlimit:10;stroke-dasharray:none"
     transform="matrix(0.12885481,0,0,0.12885481,-22.698087,-34.900573)" /><circle
     class="st0"
     cx="305.60001"
     cy="453.70001"
     r="1.5"
     id="circle11667"
     sodipodi:cx="305.60001"
     sodipodi:cy="453.70001"
     sodipodi:rx="1.5"
     sodipodi:ry="1.5"
     style="fill:#ffffff;stroke:#231f20;stroke-width:7.76067265;stroke-linecap:round;stroke-linejoin:round;stroke-miterlimit:10;stroke-dasharray:none"
     transform="matrix(0.12885481,0,0,0.12885481,-22.698087,-34.900573)" /></svg>