<?xml version="1.0" encoding="UTF-8" standalone="no"?>
<!-- Generator: Adobe Illustrator 20.1.0, SVG Export Plug-In . SVG Version: 6.00 Build 0)  -->

<svg
   xmlns:dc="http://purl.org/dc/elements/1.1/"
   xmlns:cc="http://creativecommons.org/ns#"
   xmlns:rdf="http://www.w3.org/1999/02/22-rdf-syntax-ns#"
   xmlns:svg="http://www.w3.org/2000/svg"
   xmlns="http://www.w3.org/2000/svg"
   xmlns:sodipodi="http://sodipodi.sourceforge.net/DTD/sodipodi-0.dtd"
   xmlns:inkscape="http://www.inkscape.org/namespaces/inkscape"
   version="1.1"
   id="Layer_1"
   x="0px"
   y="0px"
   viewBox="0 0 32 32"
   xml:space="preserve"
   inkscape:version="0.48.4 r9939"
   width="100%"
   height="100%"
   sodipodi:docname="the_tote.svg"><metadata
     id="metadata6256"><rdf:RDF><cc:Work
         rdf:about=""><dc:format>image/svg+xml</dc:format><dc:type
           rdf:resource="http://purl.org/dc/dcmitype/StillImage" /></cc:Work></rdf:RDF></metadata><defs
     id="defs6254" /><sodipodi:namedview
     pagecolor="#ffffff"
     bordercolor="#666666"
     borderopacity="1"
     objecttolerance="10"
     gridtolerance="10"
     guidetolerance="10"
     inkscape:pageopacity="0"
     inkscape:pageshadow="2"
     inkscape:window-width="753"
     inkscape:window-height="480"
     id="namedview6252"
     showgrid="false"
     inkscape:zoom="2.3838384"
     inkscape:cx="-46.163136"
     inkscape:cy="-6.711865"
     inkscape:window-x="0"
     inkscape:window-y="28"
     inkscape:window-maximized="0"
     inkscape:current-layer="Layer_1" /><style
     type="text/css"
     id="style6244">
	.st0{fill:#FFFFFF;stroke:#000000;stroke-width:6;stroke-linecap:round;stroke-linejoin:round;stroke-miterlimit:10;}
	.st1{fill:none;stroke:#000000;stroke-width:6;stroke-linecap:round;stroke-linejoin:round;stroke-miterlimit:10;}
</style><path
     class="st0"
     d="m 5.7655647,13.08834 c 2.9651823,0.421874 5.8942033,1.084819 8.6785783,0.590622 4.881701,-0.458034 8.642417,-0.253124 12.463403,-0.60268 0.614732,-0.06029 1.108928,0.470093 1.024554,1.084825 -0.241073,1.72366 -0.265176,3.604024 -0.662946,5.327684 -0.20491,3.905361 -0.156697,6.36429 -0.03619,9.124562 0.0241,0.662945 -0.506248,1.217411 -1.169194,1.217411 H 18.433854 6.8985783 c -0.5906285,0 -1.0727728,-0.494195 -1.060721,-1.084824 0.060289,-1.69955 0.1687554,-3.423217 -0.12053,-5.158929 C 4.9338399,18.837898 4.8374135,16.234323 4.740987,14.004409 4.7168834,13.449949 5.2110734,13.003966 5.7655405,13.08834 z"
     id="path6246"
     inkscape:connector-curvature="0"
     style="fill:#ffffff;stroke:#000000;stroke-width:1;stroke-linecap:round;stroke-linejoin:round;stroke-miterlimit:10;stroke-dasharray:none" /><path
     class="st0"
     d="M 20.097273,13.25709 C 17.614236,-1.8822109 14.22718,0.81779006 12.780748,13.703072 l -1.37411,0.120536 c 2.000894,-14.45224512 6.725903,-17.4776979 10.185281,-0.506253 l -1.494646,-0.06029 z"
     id="path6248"
     inkscape:connector-curvature="0"
     style="fill:#ffffff;stroke:#000000;stroke-width:1;stroke-linecap:round;stroke-linejoin:round;stroke-miterlimit:10;stroke-dasharray:none" /><path
     class="st1"
     d="M 24.002635,27.709334 H 9.1405683 l 0,-10.185275 c 0,-0.385718 0.3495504,-0.687056 0.7473203,-0.638842 3.8450894,0.458035 8.3410784,0.349556 13.1263544,-0.0241 0.530358,-0.03619 0.97634,0.361607 0.97634,0.867861 l 0.01202,9.980366 z"
     id="path6250"
     inkscape:connector-curvature="0"
     style="fill:none;stroke:#000000;stroke-width:1;stroke-linecap:round;stroke-linejoin:round;stroke-miterlimit:10;stroke-dasharray:none" /></svg>