<?xml version="1.0" encoding="UTF-8" standalone="no"?>
<!-- Generator: Adobe Illustrator 20.1.0, SVG Export Plug-In . SVG Version: 6.00 Build 0)  -->

<svg
   xmlns:dc="http://purl.org/dc/elements/1.1/"
   xmlns:cc="http://creativecommons.org/ns#"
   xmlns:rdf="http://www.w3.org/1999/02/22-rdf-syntax-ns#"
   xmlns:svg="http://www.w3.org/2000/svg"
   xmlns="http://www.w3.org/2000/svg"
   xmlns:sodipodi="http://sodipodi.sourceforge.net/DTD/sodipodi-0.dtd"
   xmlns:inkscape="http://www.inkscape.org/namespaces/inkscape"
   version="1.1"
   id="Layer_1"
   x="0px"
   y="0px"
   viewBox="0 0 32 32"
   xml:space="preserve"
   inkscape:version="0.48.4 r9939"
   width="100%"
   height="100%"
   sodipodi:docname="the_mini_pom_pouch.svg"><metadata
     id="metadata10927"><rdf:RDF><cc:Work
         rdf:about=""><dc:format>image/svg+xml</dc:format><dc:type
           rdf:resource="http://purl.org/dc/dcmitype/StillImage" /></cc:Work></rdf:RDF></metadata><defs
     id="defs10925" /><sodipodi:namedview
     pagecolor="#ffffff"
     bordercolor="#666666"
     borderopacity="1"
     objecttolerance="10"
     gridtolerance="10"
     guidetolerance="10"
     inkscape:pageopacity="0"
     inkscape:pageshadow="2"
     inkscape:window-width="753"
     inkscape:window-height="480"
     id="namedview10923"
     showgrid="false"
     inkscape:zoom="6.7425131"
     inkscape:cx="23.45006"
     inkscape:cy="8.8753026"
     inkscape:window-x="0"
     inkscape:window-y="28"
     inkscape:window-maximized="0"
     inkscape:current-layer="Layer_1" /><style
     type="text/css"
     id="style10873">
	.st0{fill:#FFFFFF;stroke:#000000;stroke-width:6;stroke-miterlimit:10;}
	.st1{fill:none;stroke:#000000;stroke-width:6;stroke-miterlimit:10;}
	.st2{fill:#FFFFFF;stroke:#231F20;stroke-width:6;stroke-linecap:round;stroke-linejoin:round;stroke-miterlimit:10;}
</style><path
     class="st0"
     d="M 21.990186,20.381053 H 9.9902343 c -0.5714244,0 -1.0408101,-0.469385 -1.0408101,-1.04081 v -7.438746 c 0,-0.571425 0.4693857,-1.040811 1.0408101,-1.040811 H 21.990186 c 0.571424,0 1.04081,0.469386 1.04081,1.040811 v 7.438746 c 0,0.581628 -0.469386,1.04081 -1.04081,1.04081 z"
     id="path10875"
     inkscape:connector-curvature="0"
     style="fill:#ffffff;stroke:#000000;stroke-width:1;stroke-miterlimit:10;stroke-dasharray:none" /><circle
     class="st1"
     cx="370.70001"
     cy="404.5"
     r="13.5"
     id="circle10877"
     sodipodi:cx="370.70001"
     sodipodi:cy="404.5"
     sodipodi:rx="13.5"
     sodipodi:ry="13.5"
     style="fill:none;stroke:#000000;stroke-width:9.80004094;stroke-miterlimit:10;stroke-dasharray:none"
     transform="matrix(0.10204039,0,0,0.10204039,-11.591305,-26.516713)" /><g
     id="g10879"
     transform="matrix(0.10204039,0,0,0.10204039,-11.591305,-26.516713)"
     style="stroke-width:9.80004094;stroke-miterlimit:10;stroke-dasharray:none"><g
       id="g10881"
       style="stroke-width:9.80004094;stroke-miterlimit:10;stroke-dasharray:none"><path
         d="m 317.1,364.6 c 1.7,-3.5 6.1,-3.1 6.9,0.8 0.7,3.1 5.5,1.8 4.8,-1.3 -1.7,-7.9 -12.5,-9.3 -16.1,-2 -1.4,2.8 3,5.4 4.4,2.5 l 0,0 z"
         id="path10883"
         inkscape:connector-curvature="0"
         style="stroke-width:9.80004094;stroke-miterlimit:10;stroke-dasharray:none" /></g></g><g
     id="g10885"
     transform="matrix(0.10204039,0,0,0.10204039,-11.591305,-26.516713)"
     style="stroke-width:9.80004094;stroke-miterlimit:10;stroke-dasharray:none"><g
       id="g10887"
       style="stroke-width:9.80004094;stroke-miterlimit:10;stroke-dasharray:none"><path
         d="m 329.9,366.3 c 0.8,-1 1.9,-1.7 3.2,-1.8 0.4,0 1,0 1.4,0.2 0.3,0.2 0.3,0.1 0.1,0.2 -2.5,2.1 1.1,5.6 3.5,3.5 3.1,-2.5 1.3,-7.1 -2,-8.4 -3.4,-1.4 -7.5,0.1 -9.8,2.8 -2,2.4 1.5,5.9 3.6,3.5 l 0,0 z"
         id="path10889"
         inkscape:connector-curvature="0"
         style="stroke-width:9.80004094;stroke-miterlimit:10;stroke-dasharray:none" /></g></g><g
     id="g10891"
     transform="matrix(0.10204039,0,0,0.10204039,-11.591305,-26.516713)"
     style="stroke-width:9.80004094;stroke-miterlimit:10;stroke-dasharray:none"><g
       id="g10893"
       style="stroke-width:9.80004094;stroke-miterlimit:10;stroke-dasharray:none"><path
         d="m 340,365.4 c -2.1,1.5 -2.6,4.3 -1.1,6.5 0.7,1 1.8,1.7 2.9,2.3 1,0.5 2.2,1.2 3.3,1.5 2.6,0.7 4.7,-1.4 4.7,-3.9 0.1,-2.7 -2,-3.8 -3.8,-5.2 -1,-0.9 -2.5,-1 -3.5,0 -0.9,0.9 -1,2.7 0,3.5 0.4,0.4 0.9,0.7 1.4,1 0,0 0.9,0.7 0.9,0.7 0,0 0.1,-0.2 0,-0.2 0.2,0 1.3,-1.2 1.5,-0.8 -0.1,-0.3 -1.2,-0.6 -1.5,-0.7 -0.4,-0.2 -0.7,-0.3 -1.1,-0.5 -0.1,-0.1 -0.7,-0.6 -0.9,-0.6 0,0 0,0 0,0.1 0,0.3 -0.2,0.5 -0.5,0.6 1.1,-0.8 1.6,-2.2 0.9,-3.4 -0.4,-1.1 -2,-1.7 -3.2,-0.9 l 0,0 z"
         id="path10895"
         inkscape:connector-curvature="0"
         style="stroke-width:9.80004094;stroke-miterlimit:10;stroke-dasharray:none" /></g></g><g
     id="g10897"
     transform="matrix(0.10204039,0,0,0.10204039,-11.591305,-26.516713)"
     style="stroke-width:9.80004094;stroke-miterlimit:10;stroke-dasharray:none"><g
       id="g10899"
       style="stroke-width:9.80004094;stroke-miterlimit:10;stroke-dasharray:none"><path
         d="m 355.1,372.1 c -0.7,-1.4 -2.5,-2.1 -4,-1.7 -1.5,0.4 -2.5,1.6 -2.9,3 -0.7,2.5 0.6,5.4 3.1,6.4 2.5,1 5.6,-0.3 6.3,-3 0.8,-2.8 -1.4,-5.4 -4.1,-5.6 -1.3,-0.1 -2.5,1.2 -2.5,2.5 0,1.4 1.1,2.4 2.5,2.5 -0.2,0 -0.3,0 -0.5,-0.1 0,0 -0.4,-0.4 -0.2,-0.2 0.2,0.2 0,-0.2 0,0 0,0.3 0,-0.2 0,-0.3 0,-0.2 0.1,-0.3 0.2,-0.5 0.1,-0.2 0.2,0 0,0 0.4,-0.1 0,0 0,0 0.1,0 0.1,0 0.2,0 -0.3,0 -0.3,0 -0.1,0 0.2,0 0.3,0 0.2,0 -0.1,-0.1 -0.1,-0.1 0,0 0.1,0.1 0.1,0.1 0,0 -0.1,-0.1 -0.1,-0.1 0,0 0.1,0.1 0.1,0.1 -0.1,-0.2 0,0.3 0,0 0,-0.1 0,0.3 0,0.1 0,-0.1 -0.1,0.3 -0.1,0 0,-0.1 -0.6,0.5 -1.7,1 -2.2,-0.1 0.6,1.2 2.3,1.5 3.4,0.9 1,-0.6 1.3,-2.1 0.7,-3.3 l 0,0 z"
         id="path10901"
         inkscape:connector-curvature="0"
         style="stroke-width:9.80004094;stroke-miterlimit:10;stroke-dasharray:none" /></g></g><g
     id="g10903"
     transform="matrix(0.10204039,0,0,0.10204039,-11.591305,-26.516713)"
     style="stroke-width:9.80004094;stroke-miterlimit:10;stroke-dasharray:none"><g
       id="g10905"
       style="stroke-width:9.80004094;stroke-miterlimit:10;stroke-dasharray:none"><path
         d="m 361.6,367.1 c -3.4,0.9 -6.3,3.1 -8,6.2 -0.7,1.2 -0.2,3.4 1.5,3.7 4.2,0.6 8,-1.6 9.6,-5.6 0.5,-1.3 -0.5,-2.7 -1.7,-3.1 -1.4,-0.4 -2.6,0.5 -3.1,1.7 -0.5,1.2 -2.1,2.3 -3.4,2.1 0.5,1.2 1,2.4 1.5,3.7 1.1,-2 2.9,-3.3 5,-3.9 3.1,-0.8 1.8,-5.6 -1.4,-4.8 l 0,0 z"
         id="path10907"
         inkscape:connector-curvature="0"
         style="stroke-width:9.80004094;stroke-miterlimit:10;stroke-dasharray:none" /></g></g><g
     id="g10909"
     transform="matrix(0.10204039,0,0,0.10204039,-11.591305,-26.516713)"
     style="stroke-width:9.80004094;stroke-miterlimit:10;stroke-dasharray:none"><g
       id="g10911"
       style="stroke-width:9.80004094;stroke-miterlimit:10;stroke-dasharray:none"><path
         d="m 352.9,379 c -0.3,1.7 -0.4,3.5 0.4,5.1 0.8,1.4 2.3,2.5 4,2.5 1.8,0 3.3,-1.3 3.9,-3 0.6,-1.7 0.1,-3.4 -0.7,-4.9 -0.7,-1.2 -2.3,-1.6 -3.4,-0.9 -1.2,0.7 -1.6,2.2 -0.9,3.4 0,-0.1 0.3,0.7 0.2,0.5 0.1,0.3 0.1,0.4 0.1,0.2 0,0 0,-0.1 0,-0.1 -0.1,0.3 -0.1,0.3 0,0.1 0,0 0.1,-0.1 0.1,-0.1 0.4,-0.2 0.6,-0.1 1,-0.1 0.2,0 -0.3,-0.2 0,0.1 0.1,0.1 0.1,0.1 -0.1,-0.2 0.1,0.1 0.1,0.1 0,0 0,-0.1 0,-0.2 0,-0.5 0,-0.1 0.1,-0.8 0.1,-0.7 0.2,-1.3 -0.3,-2.7 -1.7,-3.1 -1.1,-0.4 -2.8,0.4 -3,1.7 l 0,0 z"
         id="path10913"
         inkscape:connector-curvature="0"
         style="stroke-width:9.80004094;stroke-miterlimit:10;stroke-dasharray:none" /></g></g><g
     id="g10915"
     transform="matrix(0.10204039,0,0,0.10204039,-11.591305,-26.516713)"
     style="stroke-width:9.80004094;stroke-miterlimit:10;stroke-dasharray:none"><g
       id="g10917"
       style="stroke-width:9.80004094;stroke-miterlimit:10;stroke-dasharray:none"><path
         d="m 357.7,384.3 c -1.4,2.7 -2.2,6.2 -1.2,9.2 0.9,2.7 4,4.7 6.8,3.3 5.3,-2.6 2.8,-11.6 -2.4,-12.6 -3.1,-0.6 -4.5,4.2 -1.3,4.8 1.6,0.3 1.5,2.1 1.4,3.4 0.1,-0.1 0.2,-0.1 0.4,-0.2 -0.1,-0.2 -0.2,-0.3 -0.2,-0.5 -0.1,-0.5 -0.1,-0.9 -0.1,-1.5 0,-1.2 0.4,-2.3 0.9,-3.4 1.5,-2.8 -2.8,-5.4 -4.3,-2.5 l 0,0 z"
         id="path10919"
         inkscape:connector-curvature="0"
         style="stroke-width:9.80004094;stroke-miterlimit:10;stroke-dasharray:none" /></g></g><path
     class="st2"
     d="m 30.337091,10.809665 c -0.03063,0.02039 -0.08163,0.02039 -0.112243,0.04082 -0.03063,0.03063 -0.03063,0.142855 -0.122453,0.112243 0.06122,0.02039 0.122453,0.06122 0.142861,0.122447 0.02039,0.06122 -0.04082,0.132652 -0.102043,0.122447 0.05102,0.02039 0.07143,0.09184 0.05102,0.142856 -0.02039,0.05102 -0.07143,0.08163 -0.122447,0.112248 0.04082,0.04082 0.04082,0.102039 0,0.153061 -0.04083,0.05101 -0.102044,0.06122 -0.153061,0.03063 0.05101,0.04082 0.07142,0.132651 0.02039,0.183668 -0.05101,0.06122 -0.112243,0.02039 -0.163259,0.05102 -0.05102,0.02039 -0.07143,0.06122 -0.112248,0.09183 -0.03063,0.02039 -0.06122,0.04082 -0.102039,0.04082 -0.04082,0 -0.07143,-0.02039 -0.08163,-0.05102 -0.04082,0.04082 -0.09183,0.07142 -0.153061,0.09183 -0.06122,0.02039 -0.132652,0.01019 -0.163265,-0.04082 -0.01019,0.05102 -0.05101,0.102044 -0.102038,0.112242 -0.05102,0.02039 -0.112244,0 -0.163265,0.02039 -0.08163,0.03063 -0.08163,0.07143 -0.132652,0.112248 -0.01019,0.01019 -0.01019,0.04082 -0.03063,0.05101 -0.02039,0.02039 -0.06122,0 -0.08163,0.01019 -0.05102,0.03063 -0.08163,0.09184 -0.15306,0.09184 -0.06122,0.01019 -0.112248,-0.02039 -0.153061,-0.06122 -0.03063,0.06122 -0.102044,0.102039 -0.173469,0.102039 -0.07143,0 -0.142856,-0.04082 -0.163265,-0.102039 -0.03063,0.05102 -0.102044,0.07143 -0.153061,0.05102 -0.05102,-0.02039 -0.09184,-0.08163 -0.08163,-0.132652 -0.03063,0.04082 -0.102038,0.04082 -0.142856,0.02039 -0.04082,-0.02039 -0.06122,-0.08163 -0.04082,-0.132652 -0.04083,0.04082 -0.09183,0.07143 -0.15306,0.08163 -0.05101,0 -0.173469,-0.09184 -0.234691,-0.112247 -0.06122,-0.03063 -0.193877,-0.09183 -0.142856,-0.173464 -0.04082,0.06122 -0.112247,0.132651 -0.193878,0.122447 -0.09183,0 -0.163264,-0.112243 -0.112243,-0.193878 -0.06122,0.06122 -0.173468,0.07143 -0.255103,0.04082 -0.08163,-0.03063 -0.132652,-0.122447 -0.122448,-0.214286 -0.08163,0 -0.183673,-0.02039 -0.193878,-0.09183 -0.01019,-0.07143 0.01019,-0.153061 -0.05101,-0.204083 -0.05102,-0.05102 -0.132652,-0.02039 -0.193879,-0.06122 -0.08163,-0.06122 0,-0.112242 -0.01019,-0.173464 0,-0.03063 -0.10204,-0.132656 -0.04083,-0.153065 -0.08163,0.03063 -0.183673,-0.03063 -0.193878,-0.112243 -0.08163,0.04082 -0.204076,-0.04082 -0.183668,-0.132652 -0.06122,0.01019 -0.122452,-0.05102 -0.132657,-0.112243 -0.01019,-0.06122 0.01019,-0.122447 0.03063,-0.183673 -0.06122,0.01019 -0.122448,-0.05102 -0.132652,-0.112243 -0.01019,-0.06122 0.03063,-0.122453 0.07143,-0.173469 -0.09184,-0.04082 -0.102044,-0.183674 -0.02039,-0.234696 -0.09184,-0.081631 -0.04083,-0.2550989 0.08163,-0.2857116 -0.08163,-0.051021 -0.09184,-0.1530607 -0.07142,-0.244895 0.01019,-0.040828 0.06122,-0.2040823 0.102038,-0.2040823 -0.07142,-0.010194 -0.122447,-0.071431 -0.122447,-0.1326517 0,-0.061226 0.04082,-0.1224474 0.09183,-0.1632649 -0.08163,0 -0.112244,-0.1020436 -0.07142,-0.1734691 0.04082,-0.061226 0.112244,-0.091839 0.193878,-0.1224474 -0.07143,-0.040828 -0.08163,-0.1428561 -0.03063,-0.2142866 0.05101,-0.071426 0.15306,-0.08163 0.23469,-0.071426 -0.122447,-0.1632649 0.153061,-0.1530655 0.234695,-0.2346954 0.05102,-0.051022 0.03063,-0.1734692 0.10204,-0.2142867 0.09183,-0.051017 0.173468,0.040828 0.265303,-0.091834 0.02039,-0.030633 0.03063,-0.061226 0.05102,-0.1020386 0.03063,-0.071431 0.132651,-0.1224525 0.204082,-0.071431 0.03063,-0.08163 0.06122,-0.1632648 0.132651,-0.2142866 0.07142,-0.051017 0.193878,-0.051017 0.234691,0.020389 -0.06122,-0.08163 0.295921,-0.1938728 0.336733,-0.1836736 0.05102,0.010194 0.09184,0.051022 0.102044,0.1020438 0.04082,-0.051022 0.09183,-0.1020438 0.163265,-0.091839 0.06122,0.010194 0.112244,0.091839 0.07142,0.1428562 0.04082,-0.020389 0.08163,-0.051017 0.132651,-0.061221 0.05102,-0.010194 0.102043,0.020389 0.112248,0.061221 0.02039,-0.061221 0.122447,-0.061221 0.142856,-0.010194 0.02039,-0.061226 0.08163,-0.081635 0.142856,-0.091839 0.03063,0 0.05102,0.030634 0.07142,0.030634 0.04082,0 0.08163,-0.020389 0.122453,-0.030634 0.122448,-0.030633 0.346933,-0.091834 0.357138,0.091839 0.132652,-0.030633 0.285712,0.091834 0.275513,0.2142817 0.05101,-0.010194 0.112243,-0.010194 0.153061,0.020389 0.04082,0.030633 0.05101,0.1020386 0,0.1326517 0.04082,0.010194 0.08163,0.020389 0.102038,0.051022 0.03063,0.030633 0.03063,0.061221 0.01019,0.091834 0.142855,-0.030634 0.173469,0.1020436 0.275507,0.1632648 0.102039,0.051021 0.234696,0.051021 0.214287,0.2040823 0.04082,0 0.09183,0 0.132652,0.030633 0.04082,0.030633 0.05102,0.08163 0.03063,0.1224473 0.05101,-0.010194 0.112243,-0.010194 0.15306,0.020389 0.04083,0.030634 0.06122,0.1020386 0.01019,0.1224474 0.09183,-0.061226 0.255099,0.4591813 0.204078,0.5306119 0.05102,0.010194 0.102043,0.020388 0.142855,0.061221 0.03063,0.030633 0.04083,0.091839 0.01019,0.1326518 0.102044,-0.091834 0.193878,0.1224523 0.224492,0.1836735 0.06122,0.1428561 0.08163,0.2040823 -0.05102,0.3061206 0.03063,0.040824 0.06122,0.081631 0.06122,0.1326572 0,0.051015 -0.04082,0.1020383 -0.09184,0.1020383 0.04083,0.132652 -0.05101,0.17347 -0.122448,0.265304 -0.06122,0.08163 -0.03063,0 -0.02039,0.102044 0,0.04082 0.04082,0.06122 0.02039,0.112243 -0.02039,0.06122 -0.08163,0.102038 -0.142855,0.132652 0.04082,0.04082 0.07143,0.08163 0.07143,0.132651 -0.01019,0.01019 -0.02039,0.03063 -0.04082,0.04082 z"
     id="path10921"
     inkscape:connector-curvature="0"
     style="fill:#ffffff;stroke:#231f20;stroke-width:1;stroke-linecap:round;stroke-linejoin:round;stroke-miterlimit:10;stroke-dasharray:none" /></svg>