<?xml version="1.0" encoding="UTF-8" standalone="no"?>
<!-- Generator: Adobe Illustrator 20.1.0, SVG Export Plug-In . SVG Version: 6.00 Build 0)  -->

<svg
   xmlns:dc="http://purl.org/dc/elements/1.1/"
   xmlns:cc="http://creativecommons.org/ns#"
   xmlns:rdf="http://www.w3.org/1999/02/22-rdf-syntax-ns#"
   xmlns:svg="http://www.w3.org/2000/svg"
   xmlns="http://www.w3.org/2000/svg"
   xmlns:sodipodi="http://sodipodi.sourceforge.net/DTD/sodipodi-0.dtd"
   xmlns:inkscape="http://www.inkscape.org/namespaces/inkscape"
   version="1.1"
   id="Layer_1"
   x="0px"
   y="0px"
   viewBox="0 0 32 32"
   xml:space="preserve"
   inkscape:version="0.48.4 r9939"
   width="100%"
   height="100%"
   sodipodi:docname="the_tank_top.svg"><metadata
     id="metadata6836"><rdf:RDF><cc:Work
         rdf:about=""><dc:format>image/svg+xml</dc:format><dc:type
           rdf:resource="http://purl.org/dc/dcmitype/StillImage" /></cc:Work></rdf:RDF></metadata><defs
     id="defs6834" /><sodipodi:namedview
     pagecolor="#ffffff"
     bordercolor="#666666"
     borderopacity="1"
     objecttolerance="10"
     gridtolerance="10"
     guidetolerance="10"
     inkscape:pageopacity="0"
     inkscape:pageshadow="2"
     inkscape:window-width="753"
     inkscape:window-height="480"
     id="namedview6832"
     showgrid="false"
     inkscape:zoom="2.3838384"
     inkscape:cx="37.525424"
     inkscape:cy="-6.7118646"
     inkscape:window-x="0"
     inkscape:window-y="28"
     inkscape:window-maximized="0"
     inkscape:current-layer="Layer_1" /><style
     type="text/css"
     id="style6822">
	.st0{fill:#FFFFFF;stroke:#231F20;stroke-width:6;stroke-linecap:round;stroke-linejoin:round;stroke-miterlimit:10;}
</style><path
     class="st0"
     d="M 3.3118352,0.92775814"
     id="path6824"
     inkscape:connector-curvature="0"
     style="fill:#ffffff;stroke:#231f20;stroke-width:1;stroke-linecap:round;stroke-linejoin:round;stroke-miterlimit:10;stroke-dasharray:none" /><g
     id="g6826"
     transform="matrix(0.15140328,0,0,0.15140328,-32.252793,-44.19042)"
     style="stroke-width:6.60487672;stroke-miterlimit:10;stroke-dasharray:none"><path
       class="st0"
       d="m 281.1,363.4 c 0.5,1.9 7,3.9 7.5,5.8 1.1,4.5 -19,8.7 -18.3,13.1 0.6,4.6 1.8,9.1 2.1,13.7 0.3,4 -1.5,6.6 -2.5,10.4 -2.2,8.4 -3.7,17 -4.8,25.6 -2.2,17.4 -2.7,35.1 -2.5,52.7 2.8,2.9 -0.5,4.6 2.3,7.5 14.9,0.6 34.8,0.9 49.6,1 l 56.9,0 c 2.8,-2.9 -0.5,-5.6 2.3,-8.5 0.2,-17.6 -0.3,-35.2 -2.5,-52.7 -1.1,-8.6 -2.6,-17.2 -4.8,-25.6 -1,-3.8 -2.7,-6.4 -2.5,-10.4 0.3,-4.6 1.5,-9.1 2.1,-13.7 0.6,-4.4 -19.5,-8.6 -18.3,-13.1 0.5,-1.9 1,-3.9 1.5,-5.8 0.6,-11.9 0.3,-27.3 -1.6,-50.2 -6.7,-2.7 14.1,-1 5,-6.2 -3.9,-2.2 -6.7,-0.5 -11.1,-1 -4.7,-0.5 -41.8,-0.5 -46.5,0 -4.4,0.4 -7.3,-1.2 -11.1,1 -9.1,5.1 11.7,3.5 5,6.2"
       id="path6828"
       inkscape:connector-curvature="0"
       style="fill:#ffffff;stroke:#231f20;stroke-width:6.60487672;stroke-linecap:round;stroke-linejoin:round;stroke-miterlimit:10;stroke-dasharray:none" /></g><path
     class="st0"
     d="M 23.160809,13.539647 C 22.38865,12.404122 21.919299,11.071775 21.828456,9.6940058 21.692197,7.8317438 21.767898,5.4092932 21.994999,3.0776799 21.979892,2.714314 22.630894,2.9262789 21.207704,2.1238409 20.632373,1.8058965 19.845078,1.97244 19.421148,2.4720702 18.679267,3.3653452 17.4529,3.8044174 16.211395,3.8346964 H 15.726908 C 14.50054,3.8195891 13.25903,3.3653452 12.517156,2.4720702 12.093226,1.9572975 11.30593,1.7907541 10.730599,2.1238409 9.3074035,2.9262789 9.9584405,2.714314 9.9432981,3.0776799 10.185548,5.4244298 10.246106,7.8468858 10.109841,9.7242848 10.003862,11.117196 9.5042318,12.434407 8.6563723,13.539647 v 0 c 0.090843,0.696458 0.121122,1.377769 0.1665434,2.074227 0.045439,0.60561 -0.0757,0.999261 -0.2271073,1.574591 -0.3330868,1.271789 -0.5601882,2.573858 -0.7267316,3.875926 -0.3330868,2.634415 -0.4087931,5.314258 -0.3785083,7.978952 0.015107,0.484494 -0.075706,0.696453 0.3482234,1.135525 2.2559131,0.09084 5.2688371,0.136265 7.5096071,0.151401 l 8.614842,0 c 0.42393,-0.439066 0.348229,-0.726731 0.348229,-1.286926 0.03027,-2.664694 -0.04544,-5.329394 -0.378508,-7.978952 -0.166543,-1.302068 -0.393645,-2.604137 -0.726737,-3.875926 -0.151401,-0.57533 -0.257381,-0.968981 -0.227102,-1.574591 0.06056,-0.711595 0.0757,-1.392911 0.181686,-2.074227 l 0,0 z"
     id="path6830"
     inkscape:connector-curvature="0"
     style="fill:#ffffff;stroke:#231f20;stroke-width:1;stroke-linecap:round;stroke-linejoin:round;stroke-miterlimit:10;stroke-dasharray:none" /></svg>