<?xml version="1.0" encoding="UTF-8" standalone="no"?>
<!-- Generator: Adobe Illustrator 20.1.0, SVG Export Plug-In . SVG Version: 6.00 Build 0)  -->

<svg
   xmlns:dc="http://purl.org/dc/elements/1.1/"
   xmlns:cc="http://creativecommons.org/ns#"
   xmlns:rdf="http://www.w3.org/1999/02/22-rdf-syntax-ns#"
   xmlns:svg="http://www.w3.org/2000/svg"
   xmlns="http://www.w3.org/2000/svg"
   xmlns:sodipodi="http://sodipodi.sourceforge.net/DTD/sodipodi-0.dtd"
   xmlns:inkscape="http://www.inkscape.org/namespaces/inkscape"
   version="1.1"
   id="Layer_1"
   x="0px"
   y="0px"
   viewBox="0 0 32 32"
   xml:space="preserve"
   inkscape:version="0.48.4 r9939"
   width="100%"
   height="100%"
   sodipodi:docname="the_dad_hat.svg"><metadata
     id="metadata13040"><rdf:RDF><cc:Work
         rdf:about=""><dc:format>image/svg+xml</dc:format><dc:type
           rdf:resource="http://purl.org/dc/dcmitype/StillImage" /></cc:Work></rdf:RDF></metadata><defs
     id="defs13038" /><sodipodi:namedview
     pagecolor="#ffffff"
     bordercolor="#666666"
     borderopacity="1"
     objecttolerance="10"
     gridtolerance="10"
     guidetolerance="10"
     inkscape:pageopacity="0"
     inkscape:pageshadow="2"
     inkscape:window-width="753"
     inkscape:window-height="480"
     id="namedview13036"
     showgrid="false"
     inkscape:zoom="4.7676768"
     inkscape:cx="20.745763"
     inkscape:cy="18.457627"
     inkscape:window-x="0"
     inkscape:window-y="28"
     inkscape:window-maximized="0"
     inkscape:current-layer="Layer_1" /><style
     type="text/css"
     id="style13026">
	.st0{fill:#FFFFFF;stroke:#231F20;stroke-width:6;stroke-miterlimit:10;}
	.st1{fill:#FFFFFF;stroke:#231F20;stroke-width:6;stroke-linecap:round;stroke-linejoin:round;stroke-miterlimit:10;}
	.st2{fill:#FFFFFF;stroke:#231F20;stroke-width:6;stroke-linejoin:round;stroke-miterlimit:10;}
</style><g
     id="g13028"
     transform="matrix(0.131833,0,0,0.131833,-23.428124,-37.404889)"
     style="stroke-width:7.5853542;stroke-miterlimit:4;stroke-dasharray:none"><path
       class="st0"
       d="m 238.6,406.7 c 24.9,-2.1 57.8,-2.5 91.9,9 26.9,9.1 52.4,15.4 74.4,17.7 6.1,-63.7 -10,-107 -67.7,-111.9 -61.6,-4.5 -94.4,23.9 -98.6,85.2 z"
       id="path13030"
       inkscape:connector-curvature="0"
       style="fill:#ffffff;stroke:#231f20;stroke-width:7.5853542;stroke-miterlimit:4;stroke-dasharray:none" /><path
       class="st1"
       d="m 203.5,444.5 35.2,-37.9 c 30.8,-2.3 51.9,-2.4 87.9,7.2 0.6,0.2 31.5,11 41.4,12.9 -13.8,35 -49.8,52.4 -86.3,39.2 -2.7,-1 -5.2,-2.3 -7.6,-3.8 -22.1,-13.8 -43.8,-18.9 -68.6,-14 -2.1,0.5 -3.5,-2 -2,-3.6 z"
       id="path13032"
       inkscape:connector-curvature="0"
       style="fill:#ffffff;stroke:#231f20;stroke-width:7.5853542;stroke-linecap:round;stroke-linejoin:round;stroke-miterlimit:4;stroke-dasharray:none" /><ellipse
       transform="matrix(0.1148,-0.9934,0.9934,0.1148,-18.8418,617.0295)"
       class="st2"
       cx="336.79999"
       cy="319.10001"
       rx="2.8"
       ry="8.6000004"
       id="ellipse13034"
       sodipodi:cx="336.79999"
       sodipodi:cy="319.10001"
       sodipodi:rx="2.8"
       sodipodi:ry="8.6000004"
       style="fill:#ffffff;stroke:#231f20;stroke-width:7.58526849;stroke-linejoin:round;stroke-miterlimit:4;stroke-dasharray:none"
       d="m 339.59999,319.10001 c 0,4.74965 -1.2536,8.6 -2.8,8.6 -1.5464,0 -2.8,-3.85035 -2.8,-8.6 0,-4.74965 1.2536,-8.6 2.8,-8.6 1.5464,0 2.8,3.85035 2.8,8.6 z" /></g></svg>