<?xml version="1.0" encoding="UTF-8" standalone="no"?>
<!-- Created with Inkscape (http://www.inkscape.org/) -->

<svg
   xmlns:dc="http://purl.org/dc/elements/1.1/"
   xmlns:cc="http://creativecommons.org/ns#"
   xmlns:rdf="http://www.w3.org/1999/02/22-rdf-syntax-ns#"
   xmlns:svg="http://www.w3.org/2000/svg"
   xmlns="http://www.w3.org/2000/svg"
   xmlns:sodipodi="http://sodipodi.sourceforge.net/DTD/sodipodi-0.dtd"
   xmlns:inkscape="http://www.inkscape.org/namespaces/inkscape"
   width="32"
   height="32"
   id="svg2"
   version="1.1"
   inkscape:version="0.48.4 r9939"
   sodipodi:docname="boyfriend_sweatshirt.svg">
  <defs
     id="defs4" />
  <sodipodi:namedview
     id="base"
     pagecolor="#ffffff"
     bordercolor="#666666"
     borderopacity="1.0"
     inkscape:pageopacity="0.0"
     inkscape:pageshadow="2"
     inkscape:zoom="2.8"
     inkscape:cx="41.644905"
     inkscape:cy="20.367698"
     inkscape:document-units="px"
     inkscape:current-layer="layer1"
     showgrid="false"
     inkscape:window-width="1090"
     inkscape:window-height="640"
     inkscape:window-x="143"
     inkscape:window-y="42"
     inkscape:window-maximized="0" />
  <metadata
     id="metadata7">
    <rdf:RDF>
      <cc:Work
         rdf:about="">
        <dc:format>image/svg+xml</dc:format>
        <dc:type
           rdf:resource="http://purl.org/dc/dcmitype/StillImage" />
        <dc:title></dc:title>
      </cc:Work>
    </rdf:RDF>
  </metadata>
  <g
     inkscape:label="Layer 1"
     inkscape:groupmode="layer"
     id="layer1"
     transform="translate(0,-1020.3622)">
    <g
       id="g3159"
       transform="matrix(0.54891276,0,0,0.54891276,-57.773573,475.70948)">
      <path
         sodipodi:nodetypes="csccc"
         inkscape:connector-curvature="0"
         id="path2985"
         d="m 129.52939,1000.5994 c 0,0 -7.46132,-1.96737 -6.92139,-3.35087 1.20943,-3.0992 22.68389,-0.5743 23.5327,-0.8819 1.95748,1.9133 -2.98902,3.2989 -6.92138,4.76187 -3.17448,0.6024 -5.75219,1.4941 -9.68993,-0.5291 z"
         style="fill:none;stroke:#000000;stroke-width:3.5;stroke-linecap:round;stroke-linejoin:miter;stroke-miterlimit:4;stroke-opacity:1;stroke-dasharray:none" />
      <path
         sodipodi:nodetypes="cccsc"
         inkscape:connector-curvature="0"
         id="path2987"
         d="m 123.83847,998.83583 c -0.21141,-0.3882 -7.19004,0.8889 -9.80914,2.82177 -2.48241,1.6987 -7.10011,39.1644 -5.11029,44.268 0,0 5.53039,1.7532 6.15234,1.2345 1.6919,-1.411 6.61377,-33.5096 6.61377,-33.5096"
         style="fill:none;stroke:#000000;stroke-width:3.5;stroke-linecap:round;stroke-linejoin:miter;stroke-miterlimit:4;stroke-opacity:1;stroke-dasharray:none" />
      <path
         sodipodi:nodetypes="ccssc"
         inkscape:connector-curvature="0"
         id="path2989"
         d="m 124.98433,1026.4675 c -0.76905,0.7054 -2.37463,10.5737 -2.37463,10.5737 0,0 23.98763,0.5557 24.14144,-0.1462 0.15381,-0.7055 -2.16892,-10.3162 -3.04637,-10.529 -2.07864,-0.5039 -18.72044,0.1015 -18.72044,0.1015 z"
         style="fill:none;stroke:#000000;stroke-width:3.5;stroke-linecap:round;stroke-linejoin:miter;stroke-miterlimit:4;stroke-opacity:1;stroke-dasharray:none" />
      <path
         style="fill:none;stroke:#000000;stroke-width:3.5;stroke-linecap:round;stroke-linejoin:miter;stroke-miterlimit:4;stroke-opacity:1;stroke-dasharray:none"
         d="m 144.65791,999.18853 c 0.2114,-0.3882 9.41254,0.056 10.9204,2.82177 2.20459,14.756 5.98884,39.1644 3.99902,44.268 0,0 -5.53039,1.7532 -6.15234,1.2345 -1.6919,-1.4109 -6.61377,-33.5096 -6.61377,-33.5096"
         id="path2991-7"
         inkscape:connector-curvature="0"
         sodipodi:nodetypes="cccsc" />
      <path
         sodipodi:nodetypes="cccc"
         inkscape:connector-curvature="0"
         id="path3761-5"
         d="m 117.82862,1040.8188 5.27849,3.056 22.22521,0.2777 5.27849,-2.2225"
         style="fill:none;stroke:#000000;stroke-width:3.5;stroke-linecap:round;stroke-linejoin:miter;stroke-miterlimit:4;stroke-opacity:1;stroke-dasharray:none" />
    </g>
  </g>
</svg>
