<?xml version="1.0" encoding="UTF-8" standalone="no"?>
<!-- Generator: Adobe Illustrator 20.1.0, SVG Export Plug-In . SVG Version: 6.00 Build 0)  -->

<svg
   xmlns:dc="http://purl.org/dc/elements/1.1/"
   xmlns:cc="http://creativecommons.org/ns#"
   xmlns:rdf="http://www.w3.org/1999/02/22-rdf-syntax-ns#"
   xmlns:svg="http://www.w3.org/2000/svg"
   xmlns="http://www.w3.org/2000/svg"
   xmlns:sodipodi="http://sodipodi.sourceforge.net/DTD/sodipodi-0.dtd"
   xmlns:inkscape="http://www.inkscape.org/namespaces/inkscape"
   version="1.1"
   id="Layer_1"
   x="0px"
   y="0px"
   viewBox="0 0 32 32"
   xml:space="preserve"
   inkscape:version="0.48.4 r9939"
   width="100%"
   height="100%"
   sodipodi:docname="the_pet_sweatshirt.svg"><metadata
     id="metadata9643"><rdf:RDF><cc:Work
         rdf:about=""><dc:format>image/svg+xml</dc:format><dc:type
           rdf:resource="http://purl.org/dc/dcmitype/StillImage" /></cc:Work></rdf:RDF></metadata><defs
     id="defs9641" /><sodipodi:namedview
     pagecolor="#ffffff"
     bordercolor="#666666"
     borderopacity="1"
     objecttolerance="10"
     gridtolerance="10"
     guidetolerance="10"
     inkscape:pageopacity="0"
     inkscape:pageshadow="2"
     inkscape:window-width="753"
     inkscape:window-height="480"
     id="namedview9639"
     showgrid="false"
     inkscape:zoom="3.3712566"
     inkscape:cx="2.0787"
     inkscape:cy="-6.7118644"
     inkscape:window-x="0"
     inkscape:window-y="28"
     inkscape:window-maximized="0"
     inkscape:current-layer="Layer_1" /><style
     type="text/css"
     id="style9625">
	.st0{fill:#FFFFFF;stroke:#231F20;stroke-width:6;stroke-miterlimit:10;}
</style><path
     class="st0"
     d="m 26.481962,25.525462 c 0.145503,-11.62704 -0.02642,-16.4683324 -4.880977,-22.7249784 -1.402123,0.4761923 -9.907458,0.4365075 -11.388944,0 -5.35717,6.9047953 -5.0397105,10.4762444 -4.8809776,22.7249784 3.0026628,5.886278 18.2408296,5.886278 21.1508986,0 z"
     id="path9627"
     inkscape:connector-curvature="0"
     style="fill:#ffffff;stroke:#231f20;stroke-width:1;stroke-miterlimit:10;stroke-dasharray:none" /><g
     id="g9629"
     transform="matrix(0.13227579,0,0,0.13227579,-24.721994,-35.599176)"
     style="stroke-width:7.55996241;stroke-miterlimit:10;stroke-dasharray:none"><path
       class="st0"
       d="m 228.7,373.1 -20.9,-39.8 c 13.2,-11.5 28.7,-20.3 45.4,-27.7 -15.3,22.6 -23.5,45 -24.5,67.5 z"
       id="path9631"
       inkscape:connector-curvature="0"
       style="fill:#ffffff;stroke:#231f20;stroke-width:7.55996241;stroke-miterlimit:10;stroke-dasharray:none" /><g
       id="g9633"
       style="stroke-width:7.55996241;stroke-miterlimit:10;stroke-dasharray:none"><path
         class="st0"
         d="m 385,372.4 20.9,-39.8 c -13.2,-11.5 -28.7,-20.3 -45.4,-27.7 15.4,22.5 23.5,45 24.5,67.5 z"
         id="path9635"
         inkscape:connector-curvature="0"
         style="fill:#ffffff;stroke:#231f20;stroke-width:7.55996241;stroke-miterlimit:10;stroke-dasharray:none" /></g></g><path
     class="st0"
     d="M 26.468732,25.538693 C 26.627465,13.276728 26.944924,9.7185093 21.587754,2.8137139 c -1.441801,1.9444541 -9.947136,1.9444541 -11.388943,0 C 4.8416407,9.7185093 5.1591064,13.289952 5.317833,25.538693 c 3.0026628,5.886271 18.227606,5.886271 21.150899,0 z"
     id="path9637"
     inkscape:connector-curvature="0"
     style="fill:#ffffff;stroke:#231f20;stroke-width:1;stroke-miterlimit:10;stroke-dasharray:none" /></svg>