<?xml version="1.0" encoding="UTF-8" standalone="no"?>
<!-- Generator: Adobe Illustrator 20.1.0, SVG Export Plug-In . SVG Version: 6.00 Build 0)  -->

<svg
   xmlns:dc="http://purl.org/dc/elements/1.1/"
   xmlns:cc="http://creativecommons.org/ns#"
   xmlns:rdf="http://www.w3.org/1999/02/22-rdf-syntax-ns#"
   xmlns:svg="http://www.w3.org/2000/svg"
   xmlns="http://www.w3.org/2000/svg"
   xmlns:sodipodi="http://sodipodi.sourceforge.net/DTD/sodipodi-0.dtd"
   xmlns:inkscape="http://www.inkscape.org/namespaces/inkscape"
   version="1.1"
   id="Layer_1"
   x="0px"
   y="0px"
   viewBox="0 0 32 32"
   xml:space="preserve"
   inkscape:version="0.48.4 r9939"
   width="100%"
   height="100%"
   sodipodi:docname="the_pom_pillow.svg"><metadata
     id="metadata9055"><rdf:RDF><cc:Work
         rdf:about=""><dc:format>image/svg+xml</dc:format><dc:type
           rdf:resource="http://purl.org/dc/dcmitype/StillImage" /><dc:title></dc:title></cc:Work></rdf:RDF></metadata><defs
     id="defs9053" /><sodipodi:namedview
     pagecolor="#ffffff"
     bordercolor="#666666"
     borderopacity="1"
     objecttolerance="10"
     gridtolerance="10"
     guidetolerance="10"
     inkscape:pageopacity="0"
     inkscape:pageshadow="2"
     inkscape:window-width="873"
     inkscape:window-height="575"
     id="namedview9051"
     showgrid="false"
     inkscape:zoom="9.5353536"
     inkscape:cx="2.0787"
     inkscape:cy="11.169458"
     inkscape:window-x="24"
     inkscape:window-y="28"
     inkscape:window-maximized="0"
     inkscape:current-layer="Layer_1" /><style
     type="text/css"
     id="style9029">
	.st0{fill:#FFFFFF;stroke:#231F20;stroke-width:6;stroke-miterlimit:10;}
</style><path
     style="fill:#ffffff;stroke:#231f20;stroke-width:1.26447308;stroke-miterlimit:4;stroke-dasharray:none"
     inkscape:connector-curvature="0"
     id="path9033"
     d="m 23.964034,25.256628 c -0.0114,2.6e-5 -0.01371,0.01823 -0.02507,0.01831 -0.248553,0.164975 -0.527446,0.02102 -0.749251,-0.123253 -0.612817,-0.396708 -1.257641,-0.811428 -1.974885,-0.916669 -0.392868,-0.05246 -0.796971,-0.01391 -1.185354,-0.102731 -0.911521,-0.195159 -1.732684,-0.845243 -2.617083,-1.167767 -1.026088,-0.376311 -2.154551,-0.570255 -3.235099,-0.782625 -0.902361,-0.176965 -1.797791,-0.317619 -2.706886,-0.440006 -0.38146,-0.05247 -0.758229,-0.05048 -1.132758,-0.06666 C 9.9859573,21.658939 9.6840388,21.424192 9.3572336,21.298673 7.8693818,20.688463 6.161266,20.661248 4.5068913,21.215598 4.1737332,21.326477 3.5764982,21.820594 3.2539904,21.567777 2.9314795,21.314961 3.4274345,20.439571 3.6621342,20.20195 3.8193484,20.037473 3.9857357,19.891121 4.1337776,19.70851 4.9286377,18.722443 5.530687,17.264672 6.0898888,16.061672 6.3831517,15.441918 6.6425468,15.004164 7.008997,14.438559 7.4005266,13.854641 7.7211145,13.198378 7.9662715,12.506151 8.1296444,12.014368 8.2495935,11.504634 8.2987936,11.013463 8.3479859,10.522296 8.2601769,10.03186 8.320794,9.5406265 8.4512005,8.5762931 8.6731381,7.7023746 8.5637766,6.7393274 8.5240745,6.321357 8.4136223,5.9219539 8.4652592,5.5034954 9.0604411,5.1184841 9.7409947,5.151196 10.32142,5.3480996 c 0.525584,0.1789948 0.976313,0.5947565 1.504143,0.7555598 1.265857,0.3750126 2.506821,0.8592704 3.811226,1.1068158 0.612212,0.1241249 1.251615,0.1205434 1.850197,0.2627814 0.676254,0.1600138 1.382104,0.2651946 2.07425,0.3888398 0.335766,0.052843 0.698707,-0.021935 1.032248,0.049004 0.358615,0.052659 0.642195,0.2511012 1.016726,0.2672641 0.475038,0.033836 0.927436,0.1586734 1.400235,0.2106677 0.324363,0.052832 0.664454,-0.021746 1.004731,-0.00539 0.938663,0.067691 1.868157,0.1172417 2.813555,0.1303597 0.511533,0.015457 1.036737,0.012632 1.550519,0.00987 0.194094,-0.00103 1.093634,-0.078607 1.123777,0.1394361 0.01384,0.072654 -0.0088,0.1636847 -0.04061,0.2365826 -0.352018,0.910977 -1.044507,1.7146924 -1.522311,2.5354364 -0.273055,0.45601 -0.500443,0.911774 -0.741494,1.385795 -0.195572,0.382869 -0.484922,0.693511 -0.712501,1.058368 -0.254906,0.401369 -0.445797,0.838755 -0.638932,1.294335 -0.4703,1.129797 -0.933481,2.386825 -1.161576,3.588046 -0.205458,1.110191 -0.232722,2.25579 -0.358261,3.365553 -0.06265,0.600334 -0.125342,1.20067 -0.09443,1.782323 0.01649,0.236273 0.04438,0.472489 0.0038,0.709069 -0.01084,0.272785 -0.108555,0.509671 -0.272672,0.637825 z"
     class="st0" /></svg>