<?xml version="1.0" encoding="UTF-8" standalone="no"?>
<!-- Generator: Adobe Illustrator 20.1.0, SVG Export Plug-In . SVG Version: 6.00 Build 0)  -->

<svg
   xmlns:dc="http://purl.org/dc/elements/1.1/"
   xmlns:cc="http://creativecommons.org/ns#"
   xmlns:rdf="http://www.w3.org/1999/02/22-rdf-syntax-ns#"
   xmlns:svg="http://www.w3.org/2000/svg"
   xmlns="http://www.w3.org/2000/svg"
   xmlns:sodipodi="http://sodipodi.sourceforge.net/DTD/sodipodi-0.dtd"
   xmlns:inkscape="http://www.inkscape.org/namespaces/inkscape"
   version="1.1"
   id="Layer_1"
   x="0px"
   y="0px"
   viewBox="0 0 32 32"
   xml:space="preserve"
   inkscape:version="0.48.4 r9939"
   width="100%"
   height="100%"
   sodipodi:docname="the_utility_jacket.svg"><metadata
     id="metadata5680"><rdf:RDF><cc:Work
         rdf:about=""><dc:format>image/svg+xml</dc:format><dc:type
           rdf:resource="http://purl.org/dc/dcmitype/StillImage" /><dc:title></dc:title></cc:Work></rdf:RDF></metadata><defs
     id="defs5678" /><sodipodi:namedview
     pagecolor="#ffffff"
     bordercolor="#666666"
     borderopacity="1"
     objecttolerance="10"
     gridtolerance="10"
     guidetolerance="10"
     inkscape:pageopacity="0"
     inkscape:pageshadow="2"
     inkscape:window-width="1017"
     inkscape:window-height="498"
     id="namedview5676"
     showgrid="false"
     inkscape:zoom="6.7425132"
     inkscape:cx="11.422398"
     inkscape:cy="18.153943"
     inkscape:window-x="181"
     inkscape:window-y="175"
     inkscape:window-maximized="0"
     inkscape:current-layer="Layer_1" /><style
     type="text/css"
     id="style5606">
	.st0{fill:#FFFFFF;stroke:#000000;stroke-width:6;stroke-linecap:round;stroke-linejoin:round;stroke-miterlimit:10;}
	.st1{fill:none;stroke:#000000;stroke-width:6;stroke-linecap:round;stroke-linejoin:round;stroke-miterlimit:10;}
</style><path
     style="fill:#ffffff;stroke:#000000;stroke-width:1;stroke-linecap:round;stroke-linejoin:round;stroke-miterlimit:10;stroke-dasharray:none"
     inkscape:connector-curvature="0"
     id="path5610"
     d="m 4.7165778,30.436775 c 1.012191,0.640627 2.190945,0.909691 3.6900126,0.358751 L 11.968478,9.8342044 7.9837765,3.8635589 C 7.099711,7.0154447 5.6775186,11.000146 5.9337695,15.561412 c 0.2306257,4.176889 -0.1665631,8.046277 -1.012191,11.659415 -0.2434384,1.037816 -0.140938,2.139694 -0.2050007,3.215948 z"
     class="st0" /><path
     style="fill:#ffffff;stroke:#000000;stroke-width:1;stroke-linecap:round;stroke-linejoin:round;stroke-miterlimit:10;stroke-dasharray:none"
     inkscape:connector-curvature="0"
     id="path5612"
     d="m 28.035408,30.436775 c -1.012191,0.640627 -2.190945,0.909691 -3.690013,0.358751 l -1.447817,-11.979728 -2.06282,-5.394081 0.07687,-3.5747001 3.856576,-5.983458 c 0.884066,3.1518858 2.306258,7.1365871 2.050007,11.6978531 -0.230626,4.176889 0.166563,8.046277 1.012191,11.659415 0.243438,1.037816 0.140938,2.139694 0.205001,3.215948 z"
     class="st0" /><path
     style="fill:#ffffff;stroke:#000000;stroke-width:1;stroke-linecap:round;stroke-linejoin:round;stroke-miterlimit:10;stroke-dasharray:none"
     inkscape:connector-curvature="0"
     id="path5614"
     d="m 23.000078,18.802985 c 0.884066,2.434384 1.114691,6.367835 1.255629,10.544724 -2.075632,0.730315 -2.677821,1.255629 -6.521585,1.037816 H 14.915363 C 11.0716,30.603338 10.46941,30.065211 8.3937779,29.347709 8.5219033,25.17082 8.7653417,21.237369 9.6365947,18.802985 10.354097,16.881104 10.725661,15.036097 10.277222,13.408904 10.277222,11.551085 9.7903452,9.283265 8.9959675,6.7591938 8.701279,5.8238781 8.3681528,4.8501248 7.996589,3.8635589 L 11.93004,2.7744926 c 0.922503,-0.1921881 1.435005,-0.896878 1.652818,-1.96031919 1.46063,1.02500349 3.52345,0.80719029 5.855333,0 0.294688,0.80719029 0.717502,1.47344259 1.306879,1.96031919 l 3.907826,1.0890663 c -1.358129,3.6772001 -2.293445,6.9956491 -2.293445,9.5453451 -0.448439,1.627193 -0.07688,3.4722 0.640627,5.394081 z"
     class="st0" /><path
     style="fill:#ffffff;stroke:#000000;stroke-width:1;stroke-linecap:round;stroke-linejoin:round;stroke-miterlimit:10;stroke-dasharray:none"
     inkscape:connector-curvature="0"
     id="path5616"
     d="m 20.719445,2.7744926 3.933451,1.0890663 c -1.358129,3.6772001 -2.293445,6.9956491 -2.293445,9.5453451 0.06406,1.780944 0.435626,3.446574 0.640627,5.394081 0.871253,2.434384 1.114691,6.367835 1.242817,10.544724 -2.075632,0.730315 -2.677822,1.255629 -6.521585,1.037816 h -2.81876 c -3.843763,0.217813 -4.445953,-0.320314 -6.5215846,-1.037816 0.1281254,-4.176889 0.3715637,-8.11034 1.2428167,-10.544724 0.7175029,-1.921881 0.2306258,-3.7797 0.6406269,-5.394081 0,-1.857819 -0.4868763,-4.125639 -1.2940666,-6.6497102 C 8.6756539,5.8238781 8.3425277,4.8501248 7.970964,3.8635589 l 3.933451,-1.0890663 c 0.474064,0.5125018 1.089066,0.8968781 1.806569,1.1787541 2.306258,0.8840655 5.483768,0.4996892 7.008461,-1.1787541 z"
     class="st0" /><path
     id="line5664"
     style="fill:#ffffff;stroke:#000000;stroke-width:1;stroke-linecap:round;stroke-linejoin:round;stroke-miterlimit:10"
     d="m 22.795078,18.239235 -5.970647,0 -6.521584,0 m 11.890039,-1.66563 -5.368455,0 -6.521584,0"
     inkscape:connector-curvature="0"
     sodipodi:nodetypes="cccccc" /><line
     class="st0"
     x1="4.8703313"
     y1="28.438019"
     x2="8.3937817"
     y2="28.835207"
     id="line5672"
     style="fill:#ffffff;stroke:#000000;stroke-width:1;stroke-linecap:round;stroke-linejoin:round;stroke-miterlimit:10;stroke-dasharray:none" /><line
     class="st0"
     x1="24.242899"
     y1="28.835207"
     x2="27.77916"
     y2="28.438019"
     id="line5674"
     style="fill:#ffffff;stroke:#000000;stroke-width:1;stroke-linecap:round;stroke-linejoin:round;stroke-miterlimit:10;stroke-dasharray:none" /><g
     id="g5565"
     transform="translate(28.23264,-16.972212)"><path
       sodipodi:nodetypes="cssc"
       inkscape:connector-curvature="0"
       id="path2993"
       d="m -8.1540385,31.029418 c -5.0338975,0 -9.3683485,-2.359398 -7.3411015,-4.194915 1.709626,-1.547936 6.7001225,2.427611 8.1800845,0.209745 1.46288,-2.192268 -6.2923725,-3.565678 -6.2923725,-3.565678"
       style="fill:none;stroke:#000000;stroke-width:1px;stroke-linecap:round;stroke-linejoin:miter;stroke-opacity:1" /></g></svg>