<?xml version="1.0" encoding="UTF-8" standalone="no"?>
<!-- Generator: Adobe Illustrator 20.1.0, SVG Export Plug-In . SVG Version: 6.00 Build 0)  -->

<svg
   xmlns:dc="http://purl.org/dc/elements/1.1/"
   xmlns:cc="http://creativecommons.org/ns#"
   xmlns:rdf="http://www.w3.org/1999/02/22-rdf-syntax-ns#"
   xmlns:svg="http://www.w3.org/2000/svg"
   xmlns="http://www.w3.org/2000/svg"
   xmlns:sodipodi="http://sodipodi.sourceforge.net/DTD/sodipodi-0.dtd"
   xmlns:inkscape="http://www.inkscape.org/namespaces/inkscape"
   version="1.1"
   id="Layer_1"
   x="0px"
   y="0px"
   viewBox="0 0 32 32"
   xml:space="preserve"
   inkscape:version="0.48.4 r9939"
   width="100%"
   height="100%"
   sodipodi:docname="the_boyfriend_sweatshirt.svg"><metadata
     id="metadata15403"><rdf:RDF><cc:Work
         rdf:about=""><dc:format>image/svg+xml</dc:format><dc:type
           rdf:resource="http://purl.org/dc/dcmitype/StillImage" /></cc:Work></rdf:RDF></metadata><defs
     id="defs15401" /><sodipodi:namedview
     pagecolor="#ffffff"
     bordercolor="#666666"
     borderopacity="1"
     objecttolerance="10"
     gridtolerance="10"
     guidetolerance="10"
     inkscape:pageopacity="0"
     inkscape:pageshadow="2"
     inkscape:window-width="753"
     inkscape:window-height="480"
     id="namedview15399"
     showgrid="false"
     inkscape:zoom="2.3838384"
     inkscape:cx="37.525424"
     inkscape:cy="10.067797"
     inkscape:window-x="0"
     inkscape:window-y="28"
     inkscape:window-maximized="0"
     inkscape:current-layer="Layer_1" /><style
     type="text/css"
     id="style15375">
	.st0{fill:#FFFFFF;stroke:#231F20;stroke-width:6;stroke-linecap:round;stroke-linejoin:round;stroke-miterlimit:10;}
	.st1{fill:none;stroke:#231F20;stroke-width:6;stroke-linecap:round;stroke-linejoin:round;stroke-miterlimit:10;}
</style><g
     id="g15377"
     transform="matrix(0.12548544,0,0,0.12548544,-21.932813,-33.787851)"
     style="stroke-width:7.96905203;stroke-miterlimit:4;stroke-dasharray:none"><g
       id="g15379"
       style="stroke-width:7.96905203;stroke-miterlimit:4;stroke-dasharray:none"><path
         class="st0"
         d="m 325.5,281.3 c 0.5,2.8 15,2 16.6,2.7 3.5,1.4 7.1,2.7 10.6,4.2 4.5,1.8 9.2,3.7 13.3,6.4 2.4,1.5 5.7,4.6 7.3,7 4.6,6.9 5.3,14.9 6.5,22.9 1.5,10 3.5,19.9 3.7,30.1 0.1,4.8 -0.2,9.5 0,14.4 0.2,4.8 0.4,9.6 0.6,14.4 0.7,17.2 1.2,34.5 1.9,51.7 0.4,9.2 0.8,18.4 1.3,27.6 0.3,4.7 0.6,9.5 0.9,14.2 0.2,2.3 0.3,4.5 0.5,6.8 0.1,1.8 0.8,3.6 0.8,5.4 -0.1,2.5 -2.3,4.4 -2.4,6.9 0,1.5 -0.5,3.5 -1,5.5 -0.1,0.6 -1.1,8.4 -1.5,8.4 -6.5,0.6 -12.5,0.2 -18.1,-1.2 -1.7,-0.4 -2.8,-2 -2.6,-3.7 l 0.5,-5.9 c 0.1,-1.7 0.3,-3.4 0.4,-5.1 0.1,-1.4 -0.5,-2.8 -0.7,-4.2 -0.2,-1.4 0,-2.7 0,-4.1 0.2,-3.5 0,-7 -0.2,-10.5 -0.3,-4.7 1.1,-9 0.3,-13.8 -0.1,-0.8 -0.3,-1.6 -0.5,-2.4 -3.5,-17.5 -4.7,-35.6 -6.8,-53.3 -2.2,-19 -4.5,-38 -6.2,-57.1 0.2,0.1 -25.2,-67.2 -25.2,-67.3 z"
         id="path15381"
         inkscape:connector-curvature="0"
         style="fill:#ffffff;stroke:#231f20;stroke-width:7.96905203;stroke-linecap:round;stroke-linejoin:round;stroke-miterlimit:4;stroke-dasharray:none" /><path
         class="st1"
         d="m 388.5,492.3 c -0.2,1.9 -24,1.2 -24,-0.8"
         id="path15383"
         inkscape:connector-curvature="0"
         style="fill:none;stroke:#231f20;stroke-width:7.96905203;stroke-linecap:round;stroke-linejoin:round;stroke-miterlimit:4;stroke-dasharray:none" /></g><path
       class="st0"
       d="m 290.6,282.3 c -0.4,1.5 -20,1 -21.6,1.7 -3.5,1.4 -7.1,2.7 -10.6,4.2 -4.5,1.8 -9.2,3.7 -13.3,6.4 -2.4,1.5 -5.7,4.6 -7.3,7 -4.6,6.9 -5.3,14.9 -6.5,22.9 -1.5,10 -3.5,19.9 -3.7,30.1 -0.1,4.8 0.2,9.5 0,14.4 -0.2,4.8 -0.4,9.6 -0.6,14.4 -0.7,17.2 -1.2,34.5 -1.9,51.7 -0.4,9.2 -0.8,18.4 -1.3,27.6 -0.3,4.7 -0.6,9.5 -0.9,14.2 -0.2,2.3 -0.3,4.5 -0.5,6.8 -0.1,1.8 -0.8,3.6 -0.8,5.4 0.1,2.5 2.3,4.4 2.4,6.9 0,1.5 0.5,3.5 1,5.5 0.1,0.6 1.1,8.4 1.5,8.4 5.5,0.5 10.7,0.3 15.6,-0.7 3.1,-0.6 5.2,-3.4 5,-6.5 l -0.3,-3.6 c -0.1,-1.7 -0.3,-3.4 -0.4,-5.1 -0.1,-1.4 0.5,-2.8 0.7,-4.2 0.2,-1.4 0,-2.7 0,-4.1 -0.2,-3.5 0,-7 0.2,-10.5 0.3,-4.7 -1.1,-9 -0.3,-13.8 0.1,-0.8 0.3,-1.6 0.5,-2.4 3.5,-17.5 4.7,-35.6 6.8,-53.3 2.2,-19 4.5,-38 6.2,-57.1 -0.3,0.1 30.1,-66.2 30.1,-66.3 z"
       id="path15385"
       inkscape:connector-curvature="0"
       style="fill:#ffffff;stroke:#231f20;stroke-width:7.96905203;stroke-linecap:round;stroke-linejoin:round;stroke-miterlimit:4;stroke-dasharray:none" /><path
       class="st1"
       d="m 222.6,492.3 c 0.2,1.9 24,1.2 24,-0.8"
       id="path15387"
       inkscape:connector-curvature="0"
       style="fill:none;stroke:#231f20;stroke-width:7.96905203;stroke-linecap:round;stroke-linejoin:round;stroke-miterlimit:4;stroke-dasharray:none" /><path
       class="st0"
       d="m 323.9,282.8 c 5.6,-1.2 11.5,0.4 15.8,4.3 5.9,5.4 11.7,11 17.9,16.2 0.9,0.8 1.8,1.5 2.5,2.5 0.6,0.8 1.1,1.8 1.5,2.8 1,2.4 1.6,5 1.8,7.7 0.1,1 0.9,5.5 0.5,6.2 -0.9,1.8 -1.2,3.6 -1.9,5.5 -0.9,2.3 -2.7,4.2 -3.9,6.4 -1.4,2.6 -2.2,5.5 -2.9,8.3 -0.5,1.9 -1,3.9 -1.5,5.8 -1.1,4.5 -1,8.7 -1.7,13.1 -0.6,4.6 -1.8,9.1 -2.1,13.7 -0.3,4 1.5,6.6 2.5,10.4 2.2,8.4 3.7,17 4.8,25.6 1.8,13.8 2.4,27.7 2.5,41.7 -7.1,7.1 -11,11.1 -18.1,18.2 h -72 c -7.1,-7.1 -11,-11.1 -18.1,-18.2 0.1,-13.9 0.8,-27.8 2.5,-41.7 1.1,-8.6 2.6,-17.2 4.8,-25.6 1,-3.8 2.7,-6.4 2.5,-10.4 -0.3,-4.6 -1.5,-9.1 -2.1,-13.7 -0.6,-4.4 -0.5,-8.6 -1.7,-13.1 -0.5,-1.9 -1,-3.9 -1.5,-5.8 -0.7,-2.8 -1.5,-5.7 -2.9,-8.3 -1.2,-2.2 -3,-4.1 -3.9,-6.4 -0.7,-1.9 -1,-3.6 -1.9,-5.5 -0.4,-0.7 0.4,-5.2 0.5,-6.2 0.2,-2.6 0.8,-5.2 1.8,-7.7 0.4,-1 0.9,-1.9 1.5,-2.8 0.7,-0.9 1.6,-1.7 2.5,-2.5 6.3,-5.3 12.3,-11.1 18.4,-16.6 4.3,-3.9 10.1,-5.5 15.8,-4.3 9.9,2 26.7,2.5 36.1,0.4 z"
       id="path15389"
       inkscape:connector-curvature="0"
       style="fill:#ffffff;stroke:#231f20;stroke-width:7.96905203;stroke-linecap:round;stroke-linejoin:round;stroke-miterlimit:4;stroke-dasharray:none" /><path
       class="st0"
       d="m 327.6,287.9 c 2.6,-3.8 8,-4.5 11.4,-1.4 6.2,5.6 12.2,11.4 18.6,16.8 0.9,0.8 1.8,1.5 2.5,2.5 0.6,0.8 1.1,1.8 1.5,2.8 1,2.4 1.6,5 1.8,7.7 0.1,1 0.9,5.5 0.5,6.2 -0.9,1.8 -1.2,3.6 -1.9,5.5 -0.9,2.3 -2.7,4.2 -3.9,6.4 -1.4,2.6 -2.2,5.5 -2.9,8.3 -0.5,1.9 -1,3.9 -1.5,5.8 -1.1,4.5 -1,8.7 -1.7,13.1 -0.6,4.6 -1.8,9.1 -2.1,13.7 -0.3,4 1.5,6.6 2.5,10.4 2.2,8.4 3.7,17 4.8,25.6 2.2,17.4 2.7,35.1 2.5,52.7 -2.8,2.9 -4.5,4.6 -7.3,7.5 -31.2,1.3 -62.4,1.3 -93.6,0 -2.8,-2.9 -4.5,-4.6 -7.3,-7.5 -0.2,-17.6 0.3,-35.2 2.5,-52.7 1.1,-8.6 2.6,-17.2 4.8,-25.6 1,-3.8 2.7,-6.4 2.5,-10.4 -0.3,-4.6 -1.5,-9.1 -2.1,-13.7 -0.6,-4.4 -0.5,-8.6 -1.7,-13.1 -0.5,-1.9 -1,-3.9 -1.5,-5.8 -0.7,-2.8 -1.5,-5.7 -2.9,-8.3 -1.2,-2.2 -3,-4.1 -3.9,-6.4 -0.7,-1.9 -1,-3.6 -1.9,-5.5 -0.4,-0.7 0.4,-5.2 0.5,-6.2 0.2,-2.6 0.8,-5.2 1.8,-7.7 0.4,-1 0.9,-1.9 1.5,-2.8 0.7,-0.9 1.6,-1.7 2.5,-2.5 6.5,-5.5 12.6,-11.5 19,-17.2 3.3,-3 8.6,-2.6 11.1,1 9.6,13.3 35,13.6 43.9,0.8 z"
       id="path15391"
       inkscape:connector-curvature="0"
       style="fill:#ffffff;stroke:#231f20;stroke-width:7.96905203;stroke-linecap:round;stroke-linejoin:round;stroke-miterlimit:4;stroke-dasharray:none" /><path
       class="st1"
       d="M 354.3,307.2"
       id="path15393"
       inkscape:connector-curvature="0"
       style="fill:none;stroke:#231f20;stroke-width:7.96905203;stroke-linecap:round;stroke-linejoin:round;stroke-miterlimit:4;stroke-dasharray:none" /><path
       class="st1"
       d="M 341.6,295.8"
       id="path15395"
       inkscape:connector-curvature="0"
       style="fill:none;stroke:#231f20;stroke-width:7.96905203;stroke-linecap:round;stroke-linejoin:round;stroke-miterlimit:4;stroke-dasharray:none" /><path
       class="st1"
       d="m 251.7,459 c 36.6,-2.1 72.7,-1.7 108.2,1.3"
       id="path15397"
       inkscape:connector-curvature="0"
       style="fill:none;stroke:#231f20;stroke-width:7.96905203;stroke-linecap:round;stroke-linejoin:round;stroke-miterlimit:4;stroke-dasharray:none" /></g></svg>