<svg xmlns="http://www.w3.org/2000/svg" viewBox="0 0 15.91 5.87"><defs><style>.cls-1{fill:#231f20;}</style></defs><title>xxs</title><g id="Layer_2" data-name="Layer 2"><g id="Layer_1-2" data-name="Layer 1"><path class="cls-1" d="M5.75,5.79H4L2.85,4,1.75,5.79H0L1.89,2.87.11.08H1.82l1,1.77,1-1.77H5.61L3.8,3Z"/><path class="cls-1" d="M11.53,5.79H9.75L8.63,4,7.53,5.79H5.79L7.68,2.87,5.9.08H7.61l1,1.77,1-1.77h1.76L9.59,3Z"/><path class="cls-1" d="M15.91,4.06a1.69,1.69,0,0,1-.27.94,1.76,1.76,0,0,1-.78.64,2.88,2.88,0,0,1-1.19.23,4.83,4.83,0,0,1-1-.08,3.55,3.55,0,0,1-.8-.28V4.14a4.6,4.6,0,0,0,.92.35,3.43,3.43,0,0,0,.88.13.85.85,0,0,0,.5-.12.37.37,0,0,0,.16-.31A.34.34,0,0,0,14.3,4a.75.75,0,0,0-.21-.18q-.14-.09-.76-.37a3.65,3.65,0,0,1-.84-.49,1.51,1.51,0,0,1-.41-.55,1.81,1.81,0,0,1-.13-.73A1.46,1.46,0,0,1,12.52.44,2.53,2.53,0,0,1,14.1,0a4.43,4.43,0,0,1,1.81.41L15.43,1.6a3.43,3.43,0,0,0-1.38-.37.72.72,0,0,0-.44.11.32.32,0,0,0-.14.26.38.38,0,0,0,.17.3,6.63,6.63,0,0,0,.94.48,2.61,2.61,0,0,1,1,.71A1.55,1.55,0,0,1,15.91,4.06Z"/></g></g></svg>