<svg xmlns="http://www.w3.org/2000/svg" viewBox="0 0 21.7 5.71"><defs><style>.cls-1{fill:#231f20;}</style></defs><title>xxxl</title><g id="Layer_2" data-name="Layer 2"><g id="Layer_1-2" data-name="Layer 1"><path class="cls-1" d="M5.75,5.71H4L2.85,3.93,1.75,5.71H0L1.89,2.79.11,0H1.82l1,1.77L3.85,0H5.61L3.8,2.91Z"/><path class="cls-1" d="M11.53,5.71H9.75L8.63,3.93,7.53,5.71H5.79L7.68,2.79,5.9,0H7.61l1,1.77L9.63,0h1.76L9.59,2.91Z"/><path class="cls-1" d="M17.32,5.71H15.53L14.42,3.93l-1.1,1.79H11.57l1.89-2.92L11.68,0h1.71l1,1.77,1-1.77h1.76L15.37,2.91Z"/><path class="cls-1" d="M18,5.71V0H19.5V4.46h2.2V5.71Z"/></g></g></svg>