<?xml version="1.0" encoding="utf-8"?>
<!-- Generator: Adobe Illustrator 21.1.0, SVG Export Plug-In . SVG Version: 6.00 Build 0)  -->
<svg version="1.1" id="Layer_1" xmlns="http://www.w3.org/2000/svg" xmlns:xlink="http://www.w3.org/1999/xlink" x="0px" y="0px"
	 viewBox="0 0 320 190" style="enable-background:new 0 0 320 190;" xml:space="preserve">
<style type="text/css">
	.st0{fill:#231F20;}
</style>
<title>xxxl</title>
<g id="Layer_2">
	<g id="Layer_1-2">
		<path class="st0" d="M88.7,134.9H64.2L48.1,110l-15.4,24.9H8.3L34.7,94L9.8,55h23.9l14,24.8L62.1,55h24.6L61.4,95.7L88.7,134.9z"
			/>
		<path class="st0" d="M169.5,134.9h-24.9L129,110l-15.4,24.9H89.2L115.7,94L90.8,55h23.9l14,24.8L142.9,55h24.6l-25.2,40.7
			L169.5,134.9z"/>
		<path class="st0" d="M250.5,134.9h-25L209.9,110l-15.4,25h-24.5l26.4-40.8L171.6,55h23.9l14,24.8l14-24.8h24.6l-24.9,40.7
			L250.5,134.9z"/>
		<path class="st0" d="M260,134.9V55h21v62.4h30.8v17.5H260z"/>
	</g>
</g>
</svg>
